%TF.GenerationSoftware,KiCad,Pcbnew,(6.0.7)*%
%TF.CreationDate,2023-06-25T15:17:45-07:00*%
%TF.ProjectId,watersensortraces,77617465-7273-4656-9e73-6f7274726163,rev?*%
%TF.SameCoordinates,Original*%
%TF.FileFunction,Legend,Bot*%
%TF.FilePolarity,Positive*%
%FSLAX46Y46*%
G04 Gerber Fmt 4.6, Leading zero omitted, Abs format (unit mm)*
G04 Created by KiCad (PCBNEW (6.0.7)) date 2023-06-25 15:17:45*
%MOMM*%
%LPD*%
G01*
G04 APERTURE LIST*
%ADD10C,0.150000*%
G04 APERTURE END LIST*
D10*
X163357142Y-91211904D02*
X162166666Y-96211904D01*
X161214285Y-92640476D01*
X160261904Y-96211904D01*
X159071428Y-91211904D01*
X155023809Y-96211904D02*
X155023809Y-93592857D01*
X155261904Y-93116666D01*
X155738095Y-92878571D01*
X156690476Y-92878571D01*
X157166666Y-93116666D01*
X155023809Y-95973809D02*
X155500000Y-96211904D01*
X156690476Y-96211904D01*
X157166666Y-95973809D01*
X157404761Y-95497619D01*
X157404761Y-95021428D01*
X157166666Y-94545238D01*
X156690476Y-94307142D01*
X155500000Y-94307142D01*
X155023809Y-94069047D01*
X153357142Y-92878571D02*
X151452380Y-92878571D01*
X152642857Y-91211904D02*
X152642857Y-95497619D01*
X152404761Y-95973809D01*
X151928571Y-96211904D01*
X151452380Y-96211904D01*
X147880952Y-95973809D02*
X148357142Y-96211904D01*
X149309523Y-96211904D01*
X149785714Y-95973809D01*
X150023809Y-95497619D01*
X150023809Y-93592857D01*
X149785714Y-93116666D01*
X149309523Y-92878571D01*
X148357142Y-92878571D01*
X147880952Y-93116666D01*
X147642857Y-93592857D01*
X147642857Y-94069047D01*
X150023809Y-94545238D01*
X145500000Y-96211904D02*
X145500000Y-92878571D01*
X145500000Y-93830952D02*
X145261904Y-93354761D01*
X145023809Y-93116666D01*
X144547619Y-92878571D01*
X144071428Y-92878571D01*
X138833333Y-95973809D02*
X138119047Y-96211904D01*
X136928571Y-96211904D01*
X136452380Y-95973809D01*
X136214285Y-95735714D01*
X135976190Y-95259523D01*
X135976190Y-94783333D01*
X136214285Y-94307142D01*
X136452380Y-94069047D01*
X136928571Y-93830952D01*
X137880952Y-93592857D01*
X138357142Y-93354761D01*
X138595238Y-93116666D01*
X138833333Y-92640476D01*
X138833333Y-92164285D01*
X138595238Y-91688095D01*
X138357142Y-91450000D01*
X137880952Y-91211904D01*
X136690476Y-91211904D01*
X135976190Y-91450000D01*
X131928571Y-95973809D02*
X132404761Y-96211904D01*
X133357142Y-96211904D01*
X133833333Y-95973809D01*
X134071428Y-95497619D01*
X134071428Y-93592857D01*
X133833333Y-93116666D01*
X133357142Y-92878571D01*
X132404761Y-92878571D01*
X131928571Y-93116666D01*
X131690476Y-93592857D01*
X131690476Y-94069047D01*
X134071428Y-94545238D01*
X129547619Y-92878571D02*
X129547619Y-96211904D01*
X129547619Y-93354761D02*
X129309523Y-93116666D01*
X128833333Y-92878571D01*
X128119047Y-92878571D01*
X127642857Y-93116666D01*
X127404761Y-93592857D01*
X127404761Y-96211904D01*
X125261904Y-95973809D02*
X124785714Y-96211904D01*
X123833333Y-96211904D01*
X123357142Y-95973809D01*
X123119047Y-95497619D01*
X123119047Y-95259523D01*
X123357142Y-94783333D01*
X123833333Y-94545238D01*
X124547619Y-94545238D01*
X125023809Y-94307142D01*
X125261904Y-93830952D01*
X125261904Y-93592857D01*
X125023809Y-93116666D01*
X124547619Y-92878571D01*
X123833333Y-92878571D01*
X123357142Y-93116666D01*
X120261904Y-96211904D02*
X120738095Y-95973809D01*
X120976190Y-95735714D01*
X121214285Y-95259523D01*
X121214285Y-93830952D01*
X120976190Y-93354761D01*
X120738095Y-93116666D01*
X120261904Y-92878571D01*
X119547619Y-92878571D01*
X119071428Y-93116666D01*
X118833333Y-93354761D01*
X118595238Y-93830952D01*
X118595238Y-95259523D01*
X118833333Y-95735714D01*
X119071428Y-95973809D01*
X119547619Y-96211904D01*
X120261904Y-96211904D01*
X116452380Y-96211904D02*
X116452380Y-92878571D01*
X116452380Y-93830952D02*
X116214285Y-93354761D01*
X115976190Y-93116666D01*
X115500000Y-92878571D01*
X115023809Y-92878571D01*
X109785714Y-94783333D02*
X107404761Y-94783333D01*
X110261904Y-96211904D02*
X108595238Y-91211904D01*
X106928571Y-96211904D01*
X105261904Y-96211904D02*
X105261904Y-92878571D01*
X105261904Y-93830952D02*
X105023809Y-93354761D01*
X104785714Y-93116666D01*
X104309523Y-92878571D01*
X103833333Y-92878571D01*
X102166666Y-96211904D02*
X102166666Y-92878571D01*
X102166666Y-93830952D02*
X101928571Y-93354761D01*
X101690476Y-93116666D01*
X101214285Y-92878571D01*
X100738095Y-92878571D01*
X96928571Y-96211904D02*
X96928571Y-93592857D01*
X97166666Y-93116666D01*
X97642857Y-92878571D01*
X98595238Y-92878571D01*
X99071428Y-93116666D01*
X96928571Y-95973809D02*
X97404761Y-96211904D01*
X98595238Y-96211904D01*
X99071428Y-95973809D01*
X99309523Y-95497619D01*
X99309523Y-95021428D01*
X99071428Y-94545238D01*
X98595238Y-94307142D01*
X97404761Y-94307142D01*
X96928571Y-94069047D01*
X95023809Y-92878571D02*
X93833333Y-96211904D01*
X92642857Y-92878571D02*
X93833333Y-96211904D01*
X94309523Y-97402380D01*
X94547619Y-97640476D01*
X95023809Y-97878571D01*
X156928571Y-104261904D02*
X156928571Y-99261904D01*
X155261904Y-102833333D01*
X153595238Y-99261904D01*
X153595238Y-104261904D01*
X151214285Y-104261904D02*
X151214285Y-100928571D01*
X151214285Y-99261904D02*
X151452380Y-99500000D01*
X151214285Y-99738095D01*
X150976190Y-99500000D01*
X151214285Y-99261904D01*
X151214285Y-99738095D01*
X146690476Y-104023809D02*
X147166666Y-104261904D01*
X148119047Y-104261904D01*
X148595238Y-104023809D01*
X148833333Y-103785714D01*
X149071428Y-103309523D01*
X149071428Y-101880952D01*
X148833333Y-101404761D01*
X148595238Y-101166666D01*
X148119047Y-100928571D01*
X147166666Y-100928571D01*
X146690476Y-101166666D01*
X144547619Y-104261904D02*
X144547619Y-99261904D01*
X142404761Y-104261904D02*
X142404761Y-101642857D01*
X142642857Y-101166666D01*
X143119047Y-100928571D01*
X143833333Y-100928571D01*
X144309523Y-101166666D01*
X144547619Y-101404761D01*
X137880952Y-104261904D02*
X137880952Y-101642857D01*
X138119047Y-101166666D01*
X138595238Y-100928571D01*
X139547619Y-100928571D01*
X140023809Y-101166666D01*
X137880952Y-104023809D02*
X138357142Y-104261904D01*
X139547619Y-104261904D01*
X140023809Y-104023809D01*
X140261904Y-103547619D01*
X140261904Y-103071428D01*
X140023809Y-102595238D01*
X139547619Y-102357142D01*
X138357142Y-102357142D01*
X137880952Y-102119047D01*
X133595238Y-104023809D02*
X134071428Y-104261904D01*
X135023809Y-104261904D01*
X135500000Y-104023809D01*
X135738095Y-103547619D01*
X135738095Y-101642857D01*
X135500000Y-101166666D01*
X135023809Y-100928571D01*
X134071428Y-100928571D01*
X133595238Y-101166666D01*
X133357142Y-101642857D01*
X133357142Y-102119047D01*
X135738095Y-102595238D01*
X130500000Y-104261904D02*
X130976190Y-104023809D01*
X131214285Y-103547619D01*
X131214285Y-99261904D01*
X122166666Y-99500000D02*
X122642857Y-99261904D01*
X123357142Y-99261904D01*
X124071428Y-99500000D01*
X124547619Y-99976190D01*
X124785714Y-100452380D01*
X125023809Y-101404761D01*
X125023809Y-102119047D01*
X124785714Y-103071428D01*
X124547619Y-103547619D01*
X124071428Y-104023809D01*
X123357142Y-104261904D01*
X122880952Y-104261904D01*
X122166666Y-104023809D01*
X121928571Y-103785714D01*
X121928571Y-102119047D01*
X122880952Y-102119047D01*
X117642857Y-104261904D02*
X117642857Y-101642857D01*
X117880952Y-101166666D01*
X118357142Y-100928571D01*
X119309523Y-100928571D01*
X119785714Y-101166666D01*
X117642857Y-104023809D02*
X118119047Y-104261904D01*
X119309523Y-104261904D01*
X119785714Y-104023809D01*
X120023809Y-103547619D01*
X120023809Y-103071428D01*
X119785714Y-102595238D01*
X119309523Y-102357142D01*
X118119047Y-102357142D01*
X117642857Y-102119047D01*
X115261904Y-104261904D02*
X115261904Y-100928571D01*
X115261904Y-101404761D02*
X115023809Y-101166666D01*
X114547619Y-100928571D01*
X113833333Y-100928571D01*
X113357142Y-101166666D01*
X113119047Y-101642857D01*
X113119047Y-104261904D01*
X113119047Y-101642857D02*
X112880952Y-101166666D01*
X112404761Y-100928571D01*
X111690476Y-100928571D01*
X111214285Y-101166666D01*
X110976190Y-101642857D01*
X110976190Y-104261904D01*
X107880952Y-104261904D02*
X108357142Y-104023809D01*
X108595238Y-103785714D01*
X108833333Y-103309523D01*
X108833333Y-101880952D01*
X108595238Y-101404761D01*
X108357142Y-101166666D01*
X107880952Y-100928571D01*
X107166666Y-100928571D01*
X106690476Y-101166666D01*
X106452380Y-101404761D01*
X106214285Y-101880952D01*
X106214285Y-103309523D01*
X106452380Y-103785714D01*
X106690476Y-104023809D01*
X107166666Y-104261904D01*
X107880952Y-104261904D01*
X104785714Y-100928571D02*
X102880952Y-100928571D01*
X104071428Y-99261904D02*
X104071428Y-103547619D01*
X103833333Y-104023809D01*
X103357142Y-104261904D01*
X102880952Y-104261904D01*
X99071428Y-104261904D02*
X99071428Y-101642857D01*
X99309523Y-101166666D01*
X99785714Y-100928571D01*
X100738095Y-100928571D01*
X101214285Y-101166666D01*
X99071428Y-104023809D02*
X99547619Y-104261904D01*
X100738095Y-104261904D01*
X101214285Y-104023809D01*
X101452380Y-103547619D01*
X101452380Y-103071428D01*
X101214285Y-102595238D01*
X100738095Y-102357142D01*
X99547619Y-102357142D01*
X99071428Y-102119047D01*
X146571428Y-107311904D02*
X147523809Y-107311904D01*
X148000000Y-107550000D01*
X148238095Y-107788095D01*
X148714285Y-108502380D01*
X148952380Y-109454761D01*
X148952380Y-111359523D01*
X148714285Y-111835714D01*
X148476190Y-112073809D01*
X148000000Y-112311904D01*
X147047619Y-112311904D01*
X146571428Y-112073809D01*
X146333333Y-111835714D01*
X146095238Y-111359523D01*
X146095238Y-110169047D01*
X146333333Y-109692857D01*
X146571428Y-109454761D01*
X147047619Y-109216666D01*
X148000000Y-109216666D01*
X148476190Y-109454761D01*
X148714285Y-109692857D01*
X148952380Y-110169047D01*
X140380952Y-107073809D02*
X144666666Y-113502380D01*
X138952380Y-107788095D02*
X138714285Y-107550000D01*
X138238095Y-107311904D01*
X137047619Y-107311904D01*
X136571428Y-107550000D01*
X136333333Y-107788095D01*
X136095238Y-108264285D01*
X136095238Y-108740476D01*
X136333333Y-109454761D01*
X139190476Y-112311904D01*
X136095238Y-112311904D01*
X131571428Y-107311904D02*
X133952380Y-107311904D01*
X134190476Y-109692857D01*
X133952380Y-109454761D01*
X133476190Y-109216666D01*
X132285714Y-109216666D01*
X131809523Y-109454761D01*
X131571428Y-109692857D01*
X131333333Y-110169047D01*
X131333333Y-111359523D01*
X131571428Y-111835714D01*
X131809523Y-112073809D01*
X132285714Y-112311904D01*
X133476190Y-112311904D01*
X133952380Y-112073809D01*
X134190476Y-111835714D01*
X125619047Y-107073809D02*
X129904761Y-113502380D01*
X124190476Y-107788095D02*
X123952380Y-107550000D01*
X123476190Y-107311904D01*
X122285714Y-107311904D01*
X121809523Y-107550000D01*
X121571428Y-107788095D01*
X121333333Y-108264285D01*
X121333333Y-108740476D01*
X121571428Y-109454761D01*
X124428571Y-112311904D01*
X121333333Y-112311904D01*
X118238095Y-107311904D02*
X117761904Y-107311904D01*
X117285714Y-107550000D01*
X117047619Y-107788095D01*
X116809523Y-108264285D01*
X116571428Y-109216666D01*
X116571428Y-110407142D01*
X116809523Y-111359523D01*
X117047619Y-111835714D01*
X117285714Y-112073809D01*
X117761904Y-112311904D01*
X118238095Y-112311904D01*
X118714285Y-112073809D01*
X118952380Y-111835714D01*
X119190476Y-111359523D01*
X119428571Y-110407142D01*
X119428571Y-109216666D01*
X119190476Y-108264285D01*
X118952380Y-107788095D01*
X118714285Y-107550000D01*
X118238095Y-107311904D01*
X114666666Y-107788095D02*
X114428571Y-107550000D01*
X113952380Y-107311904D01*
X112761904Y-107311904D01*
X112285714Y-107550000D01*
X112047619Y-107788095D01*
X111809523Y-108264285D01*
X111809523Y-108740476D01*
X112047619Y-109454761D01*
X114904761Y-112311904D01*
X111809523Y-112311904D01*
X110142857Y-107311904D02*
X107047619Y-107311904D01*
X108714285Y-109216666D01*
X108000000Y-109216666D01*
X107523809Y-109454761D01*
X107285714Y-109692857D01*
X107047619Y-110169047D01*
X107047619Y-111359523D01*
X107285714Y-111835714D01*
X107523809Y-112073809D01*
X108000000Y-112311904D01*
X109428571Y-112311904D01*
X109904761Y-112073809D01*
X110142857Y-111835714D01*
M02*
