M48
; DRILL file {KiCad (6.0.7)} date Mon Jun 26 07:17:28 2023
; FORMAT={-:-/ absolute / inch / decimal}
; #@! TF.CreationDate,2023-06-26T07:17:28-07:00
; #@! TF.GenerationSoftware,Kicad,Pcbnew,(6.0.7)
; #@! TF.FileFunction,Plated,1,2,PTH
FMAT,2
INCH
; #@! TA.AperFunction,Plated,PTH,ViaDrill
T1C0.0236
; #@! TA.AperFunction,Plated,PTH,ComponentDrill
T2C0.0276
; #@! TA.AperFunction,Plated,PTH,ComponentDrill
T3C0.0295
; #@! TA.AperFunction,Plated,PTH,ComponentDrill
T4C0.0315
; #@! TA.AperFunction,Plated,PTH,ComponentDrill
T5C0.0354
; #@! TA.AperFunction,Plated,PTH,ComponentDrill
T6C0.0402
%
G90
G05
T1
X8.0945Y-2.7598
X8.0984Y-4.2638
X8.1024Y-3.7638
X8.126Y-3.2677
X8.3425Y-4.2913
X8.5689Y-2.7618
X8.5709Y-3.7717
X8.5709Y-4.2756
T2
X7.5591Y-3.472
X7.5591Y-3.772
X7.7244Y-3.472
X7.7244Y-3.772
X9.0197Y-2.9917
X9.0197Y-3.2917
X9.6063Y-2.6571
X9.6063Y-2.9571
X9.7953Y-2.6571
X9.7953Y-2.9571
X10.122Y-3.3461
X10.122Y-3.6461
X10.122Y-2.6138
X10.122Y-2.9138
T3
X9.0217Y-3.4606
X9.0717Y-3.4606
X9.1217Y-3.4606
T4
X9.2913Y-2.674
X9.2913Y-2.874
X9.3913Y-2.774
X9.7087Y-3.1378
X9.7087Y-3.437
T5
X7.5591Y-3.2035
X7.5591Y-3.3035
X7.7244Y-3.2035
X7.7244Y-3.3035
X10.122Y-3.1352
X10.122Y-3.2352
T6
X7.9768Y-2.5618
X7.9768Y-2.6618
X7.9768Y-2.7618
X7.9768Y-2.8618
X7.9768Y-2.9618
X7.9768Y-3.0618
X7.9768Y-3.1618
X7.9768Y-3.2618
X7.9768Y-3.3618
X7.9768Y-3.4618
X7.9768Y-3.5618
X7.9768Y-3.6618
X7.9768Y-3.7618
X7.9768Y-3.8618
X7.9768Y-3.9618
X7.9768Y-4.0618
X7.9768Y-4.1618
X7.9768Y-4.2618
X7.9768Y-4.3618
X7.9768Y-4.4618
X8.2268Y-4.4528
X8.3268Y-4.4528
X8.4268Y-4.4528
X8.6768Y-2.5618
X8.6768Y-2.6618
X8.6768Y-2.7618
X8.6768Y-2.8618
X8.6768Y-2.9618
X8.6768Y-3.0618
X8.6768Y-3.1618
X8.6768Y-3.2618
X8.6768Y-3.3618
X8.6768Y-3.4618
X8.6768Y-3.5618
X8.6768Y-3.6618
X8.6768Y-3.7618
X8.6768Y-3.8618
X8.6768Y-3.9618
X8.6768Y-4.0618
X8.6768Y-4.1618
X8.6768Y-4.2618
X8.6768Y-4.3618
X8.6768Y-4.4618
T0
M30
