%TF.GenerationSoftware,KiCad,Pcbnew,(6.0.7)*%
%TF.CreationDate,2023-06-25T15:11:42-07:00*%
%TF.ProjectId,WaterSensor,57617465-7253-4656-9e73-6f722e6b6963,rev?*%
%TF.SameCoordinates,Original*%
%TF.FileFunction,Copper,L1,Top*%
%TF.FilePolarity,Positive*%
%FSLAX46Y46*%
G04 Gerber Fmt 4.6, Leading zero omitted, Abs format (unit mm)*
G04 Created by KiCad (PCBNEW (6.0.7)) date 2023-06-25 15:11:42*
%MOMM*%
%LPD*%
G01*
G04 APERTURE LIST*
%TA.AperFunction,ComponentPad*%
%ADD10R,1.800000X1.800000*%
%TD*%
%TA.AperFunction,ComponentPad*%
%ADD11C,1.800000*%
%TD*%
%TA.AperFunction,ComponentPad*%
%ADD12C,1.400000*%
%TD*%
%TA.AperFunction,ComponentPad*%
%ADD13O,1.400000X1.400000*%
%TD*%
%TA.AperFunction,ComponentPad*%
%ADD14R,2.500000X2.500000*%
%TD*%
%TA.AperFunction,ComponentPad*%
%ADD15C,2.500000*%
%TD*%
%TA.AperFunction,ComponentPad*%
%ADD16R,1.050000X1.300000*%
%TD*%
%TA.AperFunction,ComponentPad*%
%ADD17O,1.050000X1.300000*%
%TD*%
%TA.AperFunction,ComponentPad*%
%ADD18C,1.440000*%
%TD*%
%TA.AperFunction,SMDPad,CuDef*%
%ADD19C,4.000000*%
%TD*%
%TA.AperFunction,SMDPad,CuDef*%
%ADD20R,3.500000X1.700000*%
%TD*%
%TA.AperFunction,ComponentPad*%
%ADD21O,1.700000X1.700000*%
%TD*%
%TA.AperFunction,ComponentPad*%
%ADD22R,1.700000X1.700000*%
%TD*%
%TA.AperFunction,SMDPad,CuDef*%
%ADD23R,1.700000X3.500000*%
%TD*%
%TA.AperFunction,ViaPad*%
%ADD24C,0.800000*%
%TD*%
%TA.AperFunction,Conductor*%
%ADD25C,2.500000*%
%TD*%
%TA.AperFunction,Conductor*%
%ADD26C,1.000000*%
%TD*%
G04 APERTURE END LIST*
D10*
%TO.P,Power,1,K*%
%TO.N,Net-(Power1-Pad1)*%
X196200000Y-83910000D03*
D11*
%TO.P,Power,2,A*%
%TO.N,BatGood*%
X196200000Y-81370000D03*
%TD*%
D12*
%TO.P,R7,1*%
%TO.N,Net-(Power2-Pad1)*%
X192000000Y-88190000D03*
D13*
%TO.P,R7,2*%
%TO.N,GND*%
X192000000Y-95810000D03*
%TD*%
D12*
%TO.P,R6,1*%
%TO.N,Net-(Power1-Pad1)*%
X196200000Y-88190000D03*
D13*
%TO.P,R6,2*%
%TO.N,GND*%
X196200000Y-95810000D03*
%TD*%
D10*
%TO.P,Power2,1,K*%
%TO.N,Net-(Power2-Pad1)*%
X192000000Y-83910000D03*
D11*
%TO.P,Power2,2,A*%
%TO.N,BatLow*%
X192000000Y-81370000D03*
%TD*%
D14*
%TO.P,111,1,1*%
%TO.N,Net-(Q1-Pad2)*%
X246600000Y-87300000D03*
D15*
%TO.P,111,2,2*%
%TO.N,Net-(D1-Pad2)*%
X246600000Y-79700000D03*
%TD*%
D12*
%TO.P,R5,1*%
%TO.N,BatteryLevel*%
X244000000Y-75110000D03*
D13*
%TO.P,R5,2*%
%TO.N,AGND*%
X244000000Y-67490000D03*
%TD*%
D12*
%TO.P,R4,1*%
%TO.N,+5V*%
X248800000Y-67490000D03*
D13*
%TO.P,R4,2*%
%TO.N,BatteryLevel*%
X248800000Y-75110000D03*
%TD*%
D16*
%TO.P,Q1,1,B*%
%TO.N,AnalogOut*%
X229150000Y-87900000D03*
D17*
%TO.P,Q1,2,C*%
%TO.N,Net-(Q1-Pad2)*%
X230420000Y-87900000D03*
%TO.P,Q1,3,E*%
%TO.N,GND*%
X231690000Y-87900000D03*
%TD*%
D18*
%TO.P,RV1,1,1*%
%TO.N,Net-(R1-Pad1)*%
X236000000Y-73000000D03*
%TO.P,RV1,2,2*%
%TO.N,AGND*%
X238540000Y-70460000D03*
%TO.P,RV1,3,3*%
X236000000Y-67920000D03*
%TD*%
D12*
%TO.P,R2,1*%
%TO.N,Net-(D1-Pad1)*%
X257099999Y-84989998D03*
D13*
%TO.P,R2,2*%
%TO.N,Net-(Q1-Pad2)*%
X257099999Y-92609998D03*
%TD*%
D10*
%TO.P,Alert,1,K*%
%TO.N,Net-(D1-Pad1)*%
X257099999Y-82174999D03*
D11*
%TO.P,Alert,2,A*%
%TO.N,Net-(D1-Pad2)*%
X257099999Y-79634999D03*
%TD*%
D19*
%TO.P,Probe B,1,1*%
%TO.N,Net-(R1-Pad1)*%
X269900000Y-82000000D03*
%TD*%
%TO.P,Probe A,1,1*%
%TO.N,+5V*%
X270200000Y-69000000D03*
%TD*%
D12*
%TO.P,R3,1*%
%TO.N,+5V*%
X257100000Y-66389999D03*
D13*
%TO.P,R3,2*%
%TO.N,Net-(D1-Pad2)*%
X257100000Y-74009999D03*
%TD*%
D20*
%TO.P,U1,1,GPIO0*%
%TO.N,unconnected-(U1-Pad1)*%
X201710000Y-65070000D03*
D21*
X202610000Y-65070000D03*
%TO.P,U1,2,GPIO1*%
%TO.N,unconnected-(U1-Pad2)*%
X202610000Y-67610000D03*
D20*
X201710000Y-67610000D03*
D22*
%TO.P,U1,3,GND*%
%TO.N,GND*%
X202610000Y-70150000D03*
D20*
X201710000Y-70150000D03*
%TO.P,U1,4,GPIO2*%
%TO.N,BatLow*%
X201710000Y-72690000D03*
D21*
X202610000Y-72690000D03*
%TO.P,U1,5,GPIO3*%
%TO.N,BatGood*%
X202610000Y-75230000D03*
D20*
X201710000Y-75230000D03*
%TO.P,U1,6,GPIO4*%
%TO.N,unconnected-(U1-Pad6)*%
X201710000Y-77770000D03*
D21*
X202610000Y-77770000D03*
D20*
%TO.P,U1,7,GPIO5*%
%TO.N,unconnected-(U1-Pad7)*%
X201710000Y-80310000D03*
D21*
X202610000Y-80310000D03*
D20*
%TO.P,U1,8,GND*%
%TO.N,GND*%
X201710000Y-82850000D03*
D22*
X202610000Y-82850000D03*
D20*
%TO.P,U1,9,GPIO6*%
%TO.N,unconnected-(U1-Pad9)*%
X201710000Y-85390000D03*
D21*
X202610000Y-85390000D03*
%TO.P,U1,10,GPIO7*%
%TO.N,unconnected-(U1-Pad10)*%
X202610000Y-87930000D03*
D20*
X201710000Y-87930000D03*
D21*
%TO.P,U1,11,GPIO8*%
%TO.N,unconnected-(U1-Pad11)*%
X202610000Y-90470000D03*
D20*
X201710000Y-90470000D03*
%TO.P,U1,12,GPIO9*%
%TO.N,unconnected-(U1-Pad12)*%
X201710000Y-93010000D03*
D21*
X202610000Y-93010000D03*
D20*
%TO.P,U1,13,GND*%
%TO.N,GND*%
X201710000Y-95550000D03*
D22*
X202610000Y-95550000D03*
D21*
%TO.P,U1,14,GPIO10*%
%TO.N,unconnected-(U1-Pad14)*%
X202610000Y-98090000D03*
D20*
X201710000Y-98090000D03*
D21*
%TO.P,U1,15,GPIO11*%
%TO.N,unconnected-(U1-Pad15)*%
X202610000Y-100630000D03*
D20*
X201710000Y-100630000D03*
D21*
%TO.P,U1,16,GPIO12*%
%TO.N,unconnected-(U1-Pad16)*%
X202610000Y-103170000D03*
D20*
X201710000Y-103170000D03*
%TO.P,U1,17,GPIO13*%
%TO.N,unconnected-(U1-Pad17)*%
X201710000Y-105710000D03*
D21*
X202610000Y-105710000D03*
D20*
%TO.P,U1,18,GND*%
%TO.N,GND*%
X201710000Y-108250000D03*
D22*
X202610000Y-108250000D03*
D20*
%TO.P,U1,19,GPIO14*%
%TO.N,unconnected-(U1-Pad19)*%
X201710000Y-110790000D03*
D21*
X202610000Y-110790000D03*
%TO.P,U1,20,GPIO15*%
%TO.N,unconnected-(U1-Pad20)*%
X202610000Y-113330000D03*
D20*
X201710000Y-113330000D03*
D21*
%TO.P,U1,21,GPIO16*%
%TO.N,unconnected-(U1-Pad21)*%
X220390000Y-113330000D03*
D20*
X221290000Y-113330000D03*
D21*
%TO.P,U1,22,GPIO17*%
%TO.N,unconnected-(U1-Pad22)*%
X220390000Y-110790000D03*
D20*
X221290000Y-110790000D03*
D22*
%TO.P,U1,23,GND*%
%TO.N,GND*%
X220390000Y-108250000D03*
D20*
X221290000Y-108250000D03*
%TO.P,U1,24,GPIO18*%
%TO.N,unconnected-(U1-Pad24)*%
X221290000Y-105710000D03*
D21*
X220390000Y-105710000D03*
%TO.P,U1,25,GPIO19*%
%TO.N,unconnected-(U1-Pad25)*%
X220390000Y-103170000D03*
D20*
X221290000Y-103170000D03*
D21*
%TO.P,U1,26,GPIO20*%
%TO.N,unconnected-(U1-Pad26)*%
X220390000Y-100630000D03*
D20*
X221290000Y-100630000D03*
%TO.P,U1,27,GPIO21*%
%TO.N,unconnected-(U1-Pad27)*%
X221290000Y-98090000D03*
D21*
X220390000Y-98090000D03*
D20*
%TO.P,U1,28,GND*%
%TO.N,GND*%
X221290000Y-95550000D03*
D22*
X220390000Y-95550000D03*
D20*
%TO.P,U1,29,GPIO22*%
%TO.N,unconnected-(U1-Pad29)*%
X221290000Y-93010000D03*
D21*
X220390000Y-93010000D03*
%TO.P,U1,30,RUN*%
%TO.N,unconnected-(U1-Pad30)*%
X220390000Y-90470000D03*
D20*
X221290000Y-90470000D03*
D21*
%TO.P,U1,31,GPIO26_ADC0*%
%TO.N,AnalogOut*%
X220390000Y-87930000D03*
D20*
X221290000Y-87930000D03*
D21*
%TO.P,U1,32,GPIO27_ADC1*%
%TO.N,BatteryLevel*%
X220390000Y-85390000D03*
D20*
X221290000Y-85390000D03*
D22*
%TO.P,U1,33,AGND*%
%TO.N,AGND*%
X220390000Y-82850000D03*
D20*
X221290000Y-82850000D03*
D21*
%TO.P,U1,34,GPIO28_ADC2*%
%TO.N,unconnected-(U1-Pad34)*%
X220390000Y-80310000D03*
D20*
X221290000Y-80310000D03*
%TO.P,U1,35,ADC_VREF*%
%TO.N,unconnected-(U1-Pad35)*%
X221290000Y-77770000D03*
D21*
X220390000Y-77770000D03*
D20*
%TO.P,U1,36,3V3*%
%TO.N,unconnected-(U1-Pad36)*%
X221290000Y-75230000D03*
D21*
X220390000Y-75230000D03*
D20*
%TO.P,U1,37,3V3_EN*%
%TO.N,unconnected-(U1-Pad37)*%
X221290000Y-72690000D03*
D21*
X220390000Y-72690000D03*
D20*
%TO.P,U1,38,GND*%
%TO.N,GND*%
X221290000Y-70150000D03*
D22*
X220390000Y-70150000D03*
D20*
%TO.P,U1,39,VSYS*%
%TO.N,unconnected-(U1-Pad39)*%
X221290000Y-67610000D03*
D21*
X220390000Y-67610000D03*
D20*
%TO.P,U1,40,VBUS*%
%TO.N,+5V*%
X221290000Y-65070000D03*
D21*
X220390000Y-65070000D03*
%TO.P,U1,41,SWCLK*%
%TO.N,unconnected-(U1-Pad41)*%
X208960000Y-113100000D03*
D23*
X208960000Y-114000000D03*
%TO.P,U1,42,GND*%
%TO.N,GND*%
X211500000Y-114000000D03*
D22*
X211500000Y-113100000D03*
D21*
%TO.P,U1,43,SWDIO*%
%TO.N,unconnected-(U1-Pad43)*%
X214040000Y-113100000D03*
D23*
X214040000Y-114000000D03*
%TD*%
D12*
%TO.P,R1,1*%
%TO.N,Net-(R1-Pad1)*%
X229100000Y-75990000D03*
D13*
%TO.P,R1,2*%
%TO.N,AnalogOut*%
X229100000Y-83610000D03*
%TD*%
D24*
%TO.N,GND*%
X206400000Y-83000000D03*
X205800000Y-95600000D03*
X205700000Y-108300000D03*
X205600000Y-70100000D03*
X217650000Y-70150000D03*
X217700000Y-108600000D03*
X217700000Y-95800000D03*
X211900000Y-109000000D03*
%TD*%
D25*
%TO.N,+5V*%
X257100000Y-66389999D02*
X267589999Y-66389999D01*
X267589999Y-66389999D02*
X270200000Y-69000000D01*
D26*
%TO.N,Net-(Power2-Pad1)*%
X192000000Y-83910000D02*
X192000000Y-88190000D01*
%TO.N,Net-(Power1-Pad1)*%
X196200000Y-83910000D02*
X196200000Y-88190000D01*
%TO.N,BatLow*%
X192000000Y-80187208D02*
X199497208Y-72690000D01*
X192000000Y-81370000D02*
X192000000Y-80187208D01*
%TO.N,BatGood*%
X200250000Y-75230000D02*
X202610000Y-75230000D01*
X196200000Y-81370000D02*
X196200000Y-79280000D01*
X196200000Y-79280000D02*
X200250000Y-75230000D01*
%TO.N,BatLow*%
X199497208Y-72690000D02*
X202610000Y-72690000D01*
%TO.N,BatGood*%
X199957208Y-75230000D02*
X202610000Y-75230000D01*
%TO.N,BatteryLevel*%
X229100000Y-79600000D02*
X223310000Y-85390000D01*
X233100000Y-79600000D02*
X229100000Y-79600000D01*
X223310000Y-85390000D02*
X220390000Y-85390000D01*
X237590000Y-75110000D02*
X233100000Y-79600000D01*
X244000000Y-75110000D02*
X237590000Y-75110000D01*
X248800000Y-75110000D02*
X244000000Y-75110000D01*
D25*
%TO.N,+5V*%
X249900001Y-66389999D02*
X248800000Y-67490000D01*
X257100000Y-66389999D02*
X249900001Y-66389999D01*
D26*
%TO.N,AGND*%
X241030000Y-70460000D02*
X244000000Y-67490000D01*
X238540000Y-70460000D02*
X241030000Y-70460000D01*
%TO.N,Net-(D1-Pad2)*%
X257100000Y-74009999D02*
X257099999Y-79634999D01*
X252290001Y-74009999D02*
X246600000Y-79700000D01*
X257100000Y-74009999D02*
X252290001Y-74009999D01*
%TO.N,Net-(D1-Pad1)*%
X257099999Y-82174999D02*
X257099999Y-84989998D01*
%TO.N,AnalogOut*%
X220420000Y-87900000D02*
X220390000Y-87930000D01*
X229100000Y-87850000D02*
X229150000Y-87900000D01*
X229100000Y-83610000D02*
X229100000Y-87850000D01*
X229150000Y-87900000D02*
X220420000Y-87900000D01*
%TO.N,GND*%
X220390000Y-108250000D02*
X218050000Y-108250000D01*
X205650000Y-108250000D02*
X205700000Y-108300000D01*
X206250000Y-82850000D02*
X206400000Y-83000000D01*
X202610000Y-95550000D02*
X205750000Y-95550000D01*
X220390000Y-95550000D02*
X217950000Y-95550000D01*
X202610000Y-70150000D02*
X205550000Y-70150000D01*
X205550000Y-70150000D02*
X205600000Y-70100000D01*
X220390000Y-70150000D02*
X217650000Y-70150000D01*
X217950000Y-95550000D02*
X217700000Y-95800000D01*
X202610000Y-82850000D02*
X206250000Y-82850000D01*
X202610000Y-108250000D02*
X205650000Y-108250000D01*
X205750000Y-95550000D02*
X205800000Y-95600000D01*
X211500000Y-113100000D02*
X211500000Y-109400000D01*
X211500000Y-109400000D02*
X211900000Y-109000000D01*
X218050000Y-108250000D02*
X217700000Y-108600000D01*
D25*
%TO.N,+5V*%
X257100000Y-66389999D02*
X255780001Y-65070000D01*
X255780001Y-65070000D02*
X220390000Y-65070000D01*
D26*
%TO.N,Net-(Q1-Pad2)*%
X251909998Y-92609998D02*
X246600000Y-87300000D01*
X245850000Y-86550000D02*
X231182588Y-86550000D01*
X246600000Y-87300000D02*
X245850000Y-86550000D01*
X257099999Y-92609998D02*
X251909998Y-92609998D01*
X230420000Y-87312588D02*
X230420000Y-87900000D01*
X231182588Y-86550000D02*
X230420000Y-87312588D01*
%TO.N,Net-(R1-Pad1)*%
X245000000Y-73000000D02*
X236000000Y-73000000D01*
X247000000Y-71000000D02*
X245000000Y-73000000D01*
X229100000Y-75990000D02*
X233010000Y-75990000D01*
X269900000Y-82000000D02*
X258900000Y-71000000D01*
X258900000Y-71000000D02*
X247000000Y-71000000D01*
X233010000Y-75990000D02*
X236000000Y-73000000D01*
%TO.N,AGND*%
X226000000Y-72000000D02*
X230080000Y-67920000D01*
X220390000Y-82850000D02*
X224150000Y-82850000D01*
X226000000Y-81000000D02*
X226000000Y-72000000D01*
X238540000Y-70460000D02*
X236000000Y-67920000D01*
X230080000Y-67920000D02*
X236000000Y-67920000D01*
X224150000Y-82850000D02*
X226000000Y-81000000D01*
%TD*%
M02*
