%TF.GenerationSoftware,KiCad,Pcbnew,(6.0.7)*%
%TF.CreationDate,2023-06-25T15:11:42-07:00*%
%TF.ProjectId,WaterSensor,57617465-7253-4656-9e73-6f722e6b6963,rev?*%
%TF.SameCoordinates,Original*%
%TF.FileFunction,Copper,L2,Bot*%
%TF.FilePolarity,Positive*%
%FSLAX46Y46*%
G04 Gerber Fmt 4.6, Leading zero omitted, Abs format (unit mm)*
G04 Created by KiCad (PCBNEW (6.0.7)) date 2023-06-25 15:11:42*
%MOMM*%
%LPD*%
G01*
G04 APERTURE LIST*
%TA.AperFunction,ComponentPad*%
%ADD10R,1.800000X1.800000*%
%TD*%
%TA.AperFunction,ComponentPad*%
%ADD11C,1.800000*%
%TD*%
%TA.AperFunction,ComponentPad*%
%ADD12C,1.400000*%
%TD*%
%TA.AperFunction,ComponentPad*%
%ADD13O,1.400000X1.400000*%
%TD*%
%TA.AperFunction,ComponentPad*%
%ADD14R,2.500000X2.500000*%
%TD*%
%TA.AperFunction,ComponentPad*%
%ADD15C,2.500000*%
%TD*%
%TA.AperFunction,ComponentPad*%
%ADD16R,1.050000X1.300000*%
%TD*%
%TA.AperFunction,ComponentPad*%
%ADD17O,1.050000X1.300000*%
%TD*%
%TA.AperFunction,ComponentPad*%
%ADD18C,1.440000*%
%TD*%
%TA.AperFunction,ComponentPad*%
%ADD19O,1.700000X1.700000*%
%TD*%
%TA.AperFunction,ComponentPad*%
%ADD20R,1.700000X1.700000*%
%TD*%
%TA.AperFunction,ViaPad*%
%ADD21C,0.800000*%
%TD*%
G04 APERTURE END LIST*
D10*
%TO.P,Power,1,K*%
%TO.N,Net-(Power1-Pad1)*%
X196200000Y-83910000D03*
D11*
%TO.P,Power,2,A*%
%TO.N,BatGood*%
X196200000Y-81370000D03*
%TD*%
D12*
%TO.P,R7,1*%
%TO.N,Net-(Power2-Pad1)*%
X192000000Y-88190000D03*
D13*
%TO.P,R7,2*%
%TO.N,GND*%
X192000000Y-95810000D03*
%TD*%
D12*
%TO.P,R6,1*%
%TO.N,Net-(Power1-Pad1)*%
X196200000Y-88190000D03*
D13*
%TO.P,R6,2*%
%TO.N,GND*%
X196200000Y-95810000D03*
%TD*%
D10*
%TO.P,Power2,1,K*%
%TO.N,Net-(Power2-Pad1)*%
X192000000Y-83910000D03*
D11*
%TO.P,Power2,2,A*%
%TO.N,BatLow*%
X192000000Y-81370000D03*
%TD*%
D14*
%TO.P,111,1,1*%
%TO.N,Net-(Q1-Pad2)*%
X246600000Y-87300000D03*
D15*
%TO.P,111,2,2*%
%TO.N,Net-(D1-Pad2)*%
X246600000Y-79700000D03*
%TD*%
D12*
%TO.P,R5,1*%
%TO.N,BatteryLevel*%
X244000000Y-75110000D03*
D13*
%TO.P,R5,2*%
%TO.N,AGND*%
X244000000Y-67490000D03*
%TD*%
D12*
%TO.P,R4,1*%
%TO.N,+5V*%
X248800000Y-67490000D03*
D13*
%TO.P,R4,2*%
%TO.N,BatteryLevel*%
X248800000Y-75110000D03*
%TD*%
D16*
%TO.P,Q1,1,B*%
%TO.N,AnalogOut*%
X229150000Y-87900000D03*
D17*
%TO.P,Q1,2,C*%
%TO.N,Net-(Q1-Pad2)*%
X230420000Y-87900000D03*
%TO.P,Q1,3,E*%
%TO.N,GND*%
X231690000Y-87900000D03*
%TD*%
D18*
%TO.P,RV1,1,1*%
%TO.N,Net-(R1-Pad1)*%
X236000000Y-73000000D03*
%TO.P,RV1,2,2*%
%TO.N,AGND*%
X238540000Y-70460000D03*
%TO.P,RV1,3,3*%
X236000000Y-67920000D03*
%TD*%
D12*
%TO.P,R2,1*%
%TO.N,Net-(D1-Pad1)*%
X257099999Y-84989998D03*
D13*
%TO.P,R2,2*%
%TO.N,Net-(Q1-Pad2)*%
X257099999Y-92609998D03*
%TD*%
D10*
%TO.P,Alert,1,K*%
%TO.N,Net-(D1-Pad1)*%
X257099999Y-82174999D03*
D11*
%TO.P,Alert,2,A*%
%TO.N,Net-(D1-Pad2)*%
X257099999Y-79634999D03*
%TD*%
D12*
%TO.P,R3,1*%
%TO.N,+5V*%
X257100000Y-66389999D03*
D13*
%TO.P,R3,2*%
%TO.N,Net-(D1-Pad2)*%
X257100000Y-74009999D03*
%TD*%
D19*
%TO.P,U1,1,GPIO0*%
%TO.N,unconnected-(U1-Pad1)*%
X202610000Y-65070000D03*
%TO.P,U1,2,GPIO1*%
%TO.N,unconnected-(U1-Pad2)*%
X202610000Y-67610000D03*
D20*
%TO.P,U1,3,GND*%
%TO.N,GND*%
X202610000Y-70150000D03*
D19*
%TO.P,U1,4,GPIO2*%
%TO.N,BatLow*%
X202610000Y-72690000D03*
%TO.P,U1,5,GPIO3*%
%TO.N,BatGood*%
X202610000Y-75230000D03*
%TO.P,U1,6,GPIO4*%
%TO.N,unconnected-(U1-Pad6)*%
X202610000Y-77770000D03*
%TO.P,U1,7,GPIO5*%
%TO.N,unconnected-(U1-Pad7)*%
X202610000Y-80310000D03*
D20*
%TO.P,U1,8,GND*%
%TO.N,GND*%
X202610000Y-82850000D03*
D19*
%TO.P,U1,9,GPIO6*%
%TO.N,unconnected-(U1-Pad9)*%
X202610000Y-85390000D03*
%TO.P,U1,10,GPIO7*%
%TO.N,unconnected-(U1-Pad10)*%
X202610000Y-87930000D03*
%TO.P,U1,11,GPIO8*%
%TO.N,unconnected-(U1-Pad11)*%
X202610000Y-90470000D03*
%TO.P,U1,12,GPIO9*%
%TO.N,unconnected-(U1-Pad12)*%
X202610000Y-93010000D03*
D20*
%TO.P,U1,13,GND*%
%TO.N,GND*%
X202610000Y-95550000D03*
D19*
%TO.P,U1,14,GPIO10*%
%TO.N,unconnected-(U1-Pad14)*%
X202610000Y-98090000D03*
%TO.P,U1,15,GPIO11*%
%TO.N,unconnected-(U1-Pad15)*%
X202610000Y-100630000D03*
%TO.P,U1,16,GPIO12*%
%TO.N,unconnected-(U1-Pad16)*%
X202610000Y-103170000D03*
%TO.P,U1,17,GPIO13*%
%TO.N,unconnected-(U1-Pad17)*%
X202610000Y-105710000D03*
D20*
%TO.P,U1,18,GND*%
%TO.N,GND*%
X202610000Y-108250000D03*
D19*
%TO.P,U1,19,GPIO14*%
%TO.N,unconnected-(U1-Pad19)*%
X202610000Y-110790000D03*
%TO.P,U1,20,GPIO15*%
%TO.N,unconnected-(U1-Pad20)*%
X202610000Y-113330000D03*
%TO.P,U1,21,GPIO16*%
%TO.N,unconnected-(U1-Pad21)*%
X220390000Y-113330000D03*
%TO.P,U1,22,GPIO17*%
%TO.N,unconnected-(U1-Pad22)*%
X220390000Y-110790000D03*
D20*
%TO.P,U1,23,GND*%
%TO.N,GND*%
X220390000Y-108250000D03*
D19*
%TO.P,U1,24,GPIO18*%
%TO.N,unconnected-(U1-Pad24)*%
X220390000Y-105710000D03*
%TO.P,U1,25,GPIO19*%
%TO.N,unconnected-(U1-Pad25)*%
X220390000Y-103170000D03*
%TO.P,U1,26,GPIO20*%
%TO.N,unconnected-(U1-Pad26)*%
X220390000Y-100630000D03*
%TO.P,U1,27,GPIO21*%
%TO.N,unconnected-(U1-Pad27)*%
X220390000Y-98090000D03*
D20*
%TO.P,U1,28,GND*%
%TO.N,GND*%
X220390000Y-95550000D03*
D19*
%TO.P,U1,29,GPIO22*%
%TO.N,unconnected-(U1-Pad29)*%
X220390000Y-93010000D03*
%TO.P,U1,30,RUN*%
%TO.N,unconnected-(U1-Pad30)*%
X220390000Y-90470000D03*
%TO.P,U1,31,GPIO26_ADC0*%
%TO.N,AnalogOut*%
X220390000Y-87930000D03*
%TO.P,U1,32,GPIO27_ADC1*%
%TO.N,BatteryLevel*%
X220390000Y-85390000D03*
D20*
%TO.P,U1,33,AGND*%
%TO.N,AGND*%
X220390000Y-82850000D03*
D19*
%TO.P,U1,34,GPIO28_ADC2*%
%TO.N,unconnected-(U1-Pad34)*%
X220390000Y-80310000D03*
%TO.P,U1,35,ADC_VREF*%
%TO.N,unconnected-(U1-Pad35)*%
X220390000Y-77770000D03*
%TO.P,U1,36,3V3*%
%TO.N,unconnected-(U1-Pad36)*%
X220390000Y-75230000D03*
%TO.P,U1,37,3V3_EN*%
%TO.N,unconnected-(U1-Pad37)*%
X220390000Y-72690000D03*
D20*
%TO.P,U1,38,GND*%
%TO.N,GND*%
X220390000Y-70150000D03*
D19*
%TO.P,U1,39,VSYS*%
%TO.N,unconnected-(U1-Pad39)*%
X220390000Y-67610000D03*
%TO.P,U1,40,VBUS*%
%TO.N,+5V*%
X220390000Y-65070000D03*
%TO.P,U1,41,SWCLK*%
%TO.N,unconnected-(U1-Pad41)*%
X208960000Y-113100000D03*
D20*
%TO.P,U1,42,GND*%
%TO.N,GND*%
X211500000Y-113100000D03*
D19*
%TO.P,U1,43,SWDIO*%
%TO.N,unconnected-(U1-Pad43)*%
X214040000Y-113100000D03*
%TD*%
D12*
%TO.P,R1,1*%
%TO.N,Net-(R1-Pad1)*%
X229100000Y-75990000D03*
D13*
%TO.P,R1,2*%
%TO.N,AnalogOut*%
X229100000Y-83610000D03*
%TD*%
D21*
%TO.N,GND*%
X206400000Y-83000000D03*
X205800000Y-95600000D03*
X205700000Y-108300000D03*
X205600000Y-70100000D03*
X217650000Y-70150000D03*
X217700000Y-108600000D03*
X217700000Y-95800000D03*
X211900000Y-109000000D03*
%TD*%
%TA.AperFunction,Conductor*%
%TO.N,GND*%
G36*
X269015517Y-63021002D02*
G01*
X269036491Y-63037905D01*
X274962095Y-68963509D01*
X274996121Y-69025821D01*
X274999000Y-69052604D01*
X274999000Y-90947396D01*
X274978998Y-91015517D01*
X274962095Y-91036491D01*
X270036491Y-95962095D01*
X269974179Y-95996121D01*
X269947396Y-95999000D01*
X239000198Y-95999000D01*
X239000000Y-95998918D01*
X238999802Y-95999000D01*
X238999235Y-95999235D01*
X238999153Y-95999433D01*
X233999433Y-100999153D01*
X233999235Y-100999235D01*
X233999153Y-100999433D01*
X233998918Y-101000000D01*
X233999000Y-101000198D01*
X233999000Y-109947396D01*
X233978998Y-110015517D01*
X233962095Y-110036491D01*
X227036491Y-116962095D01*
X226974179Y-116996121D01*
X226947396Y-116999000D01*
X200048735Y-116999000D01*
X199980614Y-116978998D01*
X199964445Y-116966655D01*
X197176639Y-114457629D01*
X195907342Y-113315262D01*
X201554520Y-113315262D01*
X201555036Y-113321406D01*
X201570418Y-113504578D01*
X201571759Y-113520553D01*
X201573458Y-113526478D01*
X201615134Y-113671818D01*
X201628544Y-113718586D01*
X201631359Y-113724063D01*
X201631360Y-113724066D01*
X201652247Y-113764707D01*
X201722712Y-113901818D01*
X201850677Y-114063270D01*
X202007564Y-114196791D01*
X202187398Y-114297297D01*
X202282238Y-114328113D01*
X202377471Y-114359056D01*
X202377475Y-114359057D01*
X202383329Y-114360959D01*
X202587894Y-114385351D01*
X202594029Y-114384879D01*
X202594031Y-114384879D01*
X202650039Y-114380569D01*
X202793300Y-114369546D01*
X202799230Y-114367890D01*
X202799232Y-114367890D01*
X202985797Y-114315800D01*
X202985796Y-114315800D01*
X202991725Y-114314145D01*
X202997214Y-114311372D01*
X202997220Y-114311370D01*
X203170116Y-114224033D01*
X203175610Y-114221258D01*
X203218110Y-114188054D01*
X203333101Y-114098213D01*
X203337951Y-114094424D01*
X203361100Y-114067606D01*
X203468540Y-113943134D01*
X203468540Y-113943133D01*
X203472564Y-113938472D01*
X203493387Y-113901818D01*
X203532327Y-113833270D01*
X203574323Y-113759344D01*
X203639351Y-113563863D01*
X203665171Y-113359474D01*
X203665583Y-113330000D01*
X203645480Y-113124970D01*
X203633491Y-113085262D01*
X207904520Y-113085262D01*
X207921759Y-113290553D01*
X207923458Y-113296478D01*
X207942527Y-113362978D01*
X207978544Y-113488586D01*
X207981359Y-113494063D01*
X207981360Y-113494066D01*
X208045666Y-113619192D01*
X208072712Y-113671818D01*
X208200677Y-113833270D01*
X208205370Y-113837264D01*
X208205371Y-113837265D01*
X208317994Y-113933114D01*
X208357564Y-113966791D01*
X208537398Y-114067297D01*
X208620886Y-114094424D01*
X208727471Y-114129056D01*
X208727475Y-114129057D01*
X208733329Y-114130959D01*
X208937894Y-114155351D01*
X208944029Y-114154879D01*
X208944031Y-114154879D01*
X209000039Y-114150569D01*
X209143300Y-114139546D01*
X209149230Y-114137890D01*
X209149232Y-114137890D01*
X209291339Y-114098213D01*
X209341725Y-114084145D01*
X209347214Y-114081372D01*
X209347220Y-114081370D01*
X209520116Y-113994033D01*
X209525610Y-113991258D01*
X209687951Y-113864424D01*
X209822564Y-113708472D01*
X209843387Y-113671818D01*
X209906445Y-113560815D01*
X209957484Y-113511464D01*
X210027102Y-113497542D01*
X210093196Y-113523468D01*
X210134781Y-113581011D01*
X210142001Y-113623052D01*
X210142001Y-113994669D01*
X210142371Y-114001490D01*
X210147895Y-114052352D01*
X210151521Y-114067604D01*
X210196676Y-114188054D01*
X210205214Y-114203649D01*
X210281715Y-114305724D01*
X210294276Y-114318285D01*
X210396351Y-114394786D01*
X210411946Y-114403324D01*
X210532394Y-114448478D01*
X210547649Y-114452105D01*
X210598514Y-114457631D01*
X210605328Y-114458000D01*
X211227885Y-114458000D01*
X211243124Y-114453525D01*
X211244329Y-114452135D01*
X211246000Y-114444452D01*
X211246000Y-114439884D01*
X211754000Y-114439884D01*
X211758475Y-114455123D01*
X211759865Y-114456328D01*
X211767548Y-114457999D01*
X212394669Y-114457999D01*
X212401490Y-114457629D01*
X212452352Y-114452105D01*
X212467604Y-114448479D01*
X212588054Y-114403324D01*
X212603649Y-114394786D01*
X212705724Y-114318285D01*
X212718285Y-114305724D01*
X212794786Y-114203649D01*
X212803324Y-114188054D01*
X212848478Y-114067606D01*
X212852105Y-114052351D01*
X212857631Y-114001486D01*
X212858000Y-113994672D01*
X212858000Y-113619192D01*
X212878002Y-113551071D01*
X212931658Y-113504578D01*
X213001932Y-113494474D01*
X213066512Y-113523968D01*
X213096067Y-113561598D01*
X213152712Y-113671818D01*
X213280677Y-113833270D01*
X213285370Y-113837264D01*
X213285371Y-113837265D01*
X213397994Y-113933114D01*
X213437564Y-113966791D01*
X213617398Y-114067297D01*
X213700886Y-114094424D01*
X213807471Y-114129056D01*
X213807475Y-114129057D01*
X213813329Y-114130959D01*
X214017894Y-114155351D01*
X214024029Y-114154879D01*
X214024031Y-114154879D01*
X214080039Y-114150569D01*
X214223300Y-114139546D01*
X214229230Y-114137890D01*
X214229232Y-114137890D01*
X214371339Y-114098213D01*
X214421725Y-114084145D01*
X214427214Y-114081372D01*
X214427220Y-114081370D01*
X214600116Y-113994033D01*
X214605610Y-113991258D01*
X214767951Y-113864424D01*
X214902564Y-113708472D01*
X214923387Y-113671818D01*
X214986445Y-113560815D01*
X215004323Y-113529344D01*
X215069351Y-113333863D01*
X215071701Y-113315262D01*
X219334520Y-113315262D01*
X219335036Y-113321406D01*
X219350418Y-113504578D01*
X219351759Y-113520553D01*
X219353458Y-113526478D01*
X219395134Y-113671818D01*
X219408544Y-113718586D01*
X219411359Y-113724063D01*
X219411360Y-113724066D01*
X219432247Y-113764707D01*
X219502712Y-113901818D01*
X219630677Y-114063270D01*
X219787564Y-114196791D01*
X219967398Y-114297297D01*
X220062238Y-114328113D01*
X220157471Y-114359056D01*
X220157475Y-114359057D01*
X220163329Y-114360959D01*
X220367894Y-114385351D01*
X220374029Y-114384879D01*
X220374031Y-114384879D01*
X220430039Y-114380569D01*
X220573300Y-114369546D01*
X220579230Y-114367890D01*
X220579232Y-114367890D01*
X220765797Y-114315800D01*
X220765796Y-114315800D01*
X220771725Y-114314145D01*
X220777214Y-114311372D01*
X220777220Y-114311370D01*
X220950116Y-114224033D01*
X220955610Y-114221258D01*
X220998110Y-114188054D01*
X221113101Y-114098213D01*
X221117951Y-114094424D01*
X221141100Y-114067606D01*
X221248540Y-113943134D01*
X221248540Y-113943133D01*
X221252564Y-113938472D01*
X221273387Y-113901818D01*
X221312327Y-113833270D01*
X221354323Y-113759344D01*
X221419351Y-113563863D01*
X221445171Y-113359474D01*
X221445583Y-113330000D01*
X221425480Y-113124970D01*
X221365935Y-112927749D01*
X221269218Y-112745849D01*
X221182151Y-112639095D01*
X221142906Y-112590975D01*
X221142903Y-112590972D01*
X221139011Y-112586200D01*
X221132173Y-112580543D01*
X220985025Y-112458811D01*
X220985021Y-112458809D01*
X220980275Y-112454882D01*
X220799055Y-112356897D01*
X220602254Y-112295977D01*
X220596129Y-112295333D01*
X220596128Y-112295333D01*
X220403498Y-112275087D01*
X220403496Y-112275087D01*
X220397369Y-112274443D01*
X220310529Y-112282346D01*
X220198342Y-112292555D01*
X220198339Y-112292556D01*
X220192203Y-112293114D01*
X219994572Y-112351280D01*
X219812002Y-112446726D01*
X219807201Y-112450586D01*
X219807198Y-112450588D01*
X219656254Y-112571950D01*
X219651447Y-112575815D01*
X219519024Y-112733630D01*
X219516056Y-112739028D01*
X219516053Y-112739033D01*
X219430327Y-112894970D01*
X219419776Y-112914162D01*
X219357484Y-113110532D01*
X219356798Y-113116649D01*
X219356797Y-113116653D01*
X219336627Y-113296478D01*
X219334520Y-113315262D01*
X215071701Y-113315262D01*
X215095171Y-113129474D01*
X215095583Y-113100000D01*
X215094741Y-113091406D01*
X215078694Y-112927749D01*
X215075480Y-112894970D01*
X215015935Y-112697749D01*
X214919218Y-112515849D01*
X214845859Y-112425902D01*
X214792906Y-112360975D01*
X214792903Y-112360972D01*
X214789011Y-112356200D01*
X214782173Y-112350543D01*
X214635025Y-112228811D01*
X214635021Y-112228809D01*
X214630275Y-112224882D01*
X214449055Y-112126897D01*
X214252254Y-112065977D01*
X214246129Y-112065333D01*
X214246128Y-112065333D01*
X214053498Y-112045087D01*
X214053496Y-112045087D01*
X214047369Y-112044443D01*
X213960529Y-112052346D01*
X213848342Y-112062555D01*
X213848339Y-112062556D01*
X213842203Y-112063114D01*
X213644572Y-112121280D01*
X213462002Y-112216726D01*
X213457201Y-112220586D01*
X213457198Y-112220588D01*
X213446971Y-112228811D01*
X213301447Y-112345815D01*
X213169024Y-112503630D01*
X213166054Y-112509033D01*
X213166053Y-112509034D01*
X213094414Y-112639345D01*
X213044068Y-112689404D01*
X212974651Y-112704297D01*
X212908202Y-112679296D01*
X212865818Y-112622339D01*
X212857999Y-112578644D01*
X212857999Y-112205331D01*
X212857629Y-112198510D01*
X212852105Y-112147648D01*
X212848479Y-112132396D01*
X212803324Y-112011946D01*
X212794786Y-111996351D01*
X212718285Y-111894276D01*
X212705724Y-111881715D01*
X212603649Y-111805214D01*
X212588054Y-111796676D01*
X212467606Y-111751522D01*
X212452351Y-111747895D01*
X212401486Y-111742369D01*
X212394672Y-111742000D01*
X211772115Y-111742000D01*
X211756876Y-111746475D01*
X211755671Y-111747865D01*
X211754000Y-111755548D01*
X211754000Y-114439884D01*
X211246000Y-114439884D01*
X211246000Y-111760116D01*
X211241525Y-111744877D01*
X211240135Y-111743672D01*
X211232452Y-111742001D01*
X210605331Y-111742001D01*
X210598510Y-111742371D01*
X210547648Y-111747895D01*
X210532396Y-111751521D01*
X210411946Y-111796676D01*
X210396351Y-111805214D01*
X210294276Y-111881715D01*
X210281715Y-111894276D01*
X210205214Y-111996351D01*
X210196676Y-112011946D01*
X210151522Y-112132394D01*
X210147895Y-112147649D01*
X210142369Y-112198514D01*
X210142000Y-112205328D01*
X210142000Y-112579942D01*
X210121998Y-112648063D01*
X210068342Y-112694556D01*
X209998068Y-112704660D01*
X209933488Y-112675166D01*
X209904748Y-112639095D01*
X209873297Y-112579942D01*
X209839218Y-112515849D01*
X209765859Y-112425902D01*
X209712906Y-112360975D01*
X209712903Y-112360972D01*
X209709011Y-112356200D01*
X209702173Y-112350543D01*
X209555025Y-112228811D01*
X209555021Y-112228809D01*
X209550275Y-112224882D01*
X209369055Y-112126897D01*
X209172254Y-112065977D01*
X209166129Y-112065333D01*
X209166128Y-112065333D01*
X208973498Y-112045087D01*
X208973496Y-112045087D01*
X208967369Y-112044443D01*
X208880529Y-112052346D01*
X208768342Y-112062555D01*
X208768339Y-112062556D01*
X208762203Y-112063114D01*
X208564572Y-112121280D01*
X208382002Y-112216726D01*
X208377201Y-112220586D01*
X208377198Y-112220588D01*
X208366971Y-112228811D01*
X208221447Y-112345815D01*
X208089024Y-112503630D01*
X208086056Y-112509028D01*
X208086053Y-112509033D01*
X207994722Y-112675166D01*
X207989776Y-112684162D01*
X207927484Y-112880532D01*
X207926798Y-112886649D01*
X207926797Y-112886653D01*
X207921526Y-112933649D01*
X207904520Y-113085262D01*
X203633491Y-113085262D01*
X203585935Y-112927749D01*
X203489218Y-112745849D01*
X203402151Y-112639095D01*
X203362906Y-112590975D01*
X203362903Y-112590972D01*
X203359011Y-112586200D01*
X203352173Y-112580543D01*
X203205025Y-112458811D01*
X203205021Y-112458809D01*
X203200275Y-112454882D01*
X203019055Y-112356897D01*
X202822254Y-112295977D01*
X202816129Y-112295333D01*
X202816128Y-112295333D01*
X202623498Y-112275087D01*
X202623496Y-112275087D01*
X202617369Y-112274443D01*
X202530529Y-112282346D01*
X202418342Y-112292555D01*
X202418339Y-112292556D01*
X202412203Y-112293114D01*
X202214572Y-112351280D01*
X202032002Y-112446726D01*
X202027201Y-112450586D01*
X202027198Y-112450588D01*
X201876254Y-112571950D01*
X201871447Y-112575815D01*
X201739024Y-112733630D01*
X201736056Y-112739028D01*
X201736053Y-112739033D01*
X201650327Y-112894970D01*
X201639776Y-112914162D01*
X201577484Y-113110532D01*
X201576798Y-113116649D01*
X201576797Y-113116653D01*
X201556627Y-113296478D01*
X201554520Y-113315262D01*
X195907342Y-113315262D01*
X191273350Y-109144669D01*
X201252001Y-109144669D01*
X201252371Y-109151490D01*
X201257895Y-109202352D01*
X201261521Y-109217604D01*
X201306676Y-109338054D01*
X201315214Y-109353649D01*
X201391715Y-109455724D01*
X201404276Y-109468285D01*
X201506351Y-109544786D01*
X201521946Y-109553324D01*
X201642394Y-109598478D01*
X201657649Y-109602105D01*
X201708514Y-109607631D01*
X201715328Y-109608000D01*
X202090432Y-109608000D01*
X202158553Y-109628002D01*
X202205046Y-109681658D01*
X202215150Y-109751932D01*
X202185656Y-109816512D01*
X202148812Y-109845659D01*
X202032002Y-109906726D01*
X202027201Y-109910586D01*
X202027198Y-109910588D01*
X201896693Y-110015517D01*
X201871447Y-110035815D01*
X201739024Y-110193630D01*
X201736056Y-110199028D01*
X201736053Y-110199033D01*
X201729315Y-110211290D01*
X201639776Y-110374162D01*
X201577484Y-110570532D01*
X201576798Y-110576649D01*
X201576797Y-110576653D01*
X201555207Y-110769137D01*
X201554520Y-110775262D01*
X201571759Y-110980553D01*
X201628544Y-111178586D01*
X201631359Y-111184063D01*
X201631360Y-111184066D01*
X201652247Y-111224707D01*
X201722712Y-111361818D01*
X201850677Y-111523270D01*
X202007564Y-111656791D01*
X202187398Y-111757297D01*
X202282238Y-111788113D01*
X202377471Y-111819056D01*
X202377475Y-111819057D01*
X202383329Y-111820959D01*
X202587894Y-111845351D01*
X202594029Y-111844879D01*
X202594031Y-111844879D01*
X202650039Y-111840569D01*
X202793300Y-111829546D01*
X202799230Y-111827890D01*
X202799232Y-111827890D01*
X202985797Y-111775800D01*
X202985796Y-111775800D01*
X202991725Y-111774145D01*
X202997214Y-111771372D01*
X202997220Y-111771370D01*
X203170116Y-111684033D01*
X203175610Y-111681258D01*
X203337951Y-111554424D01*
X203472564Y-111398472D01*
X203493387Y-111361818D01*
X203571276Y-111224707D01*
X203574323Y-111219344D01*
X203639351Y-111023863D01*
X203665171Y-110819474D01*
X203665583Y-110790000D01*
X203645480Y-110584970D01*
X203585935Y-110387749D01*
X203489218Y-110205849D01*
X203415859Y-110115902D01*
X203362906Y-110050975D01*
X203362903Y-110050972D01*
X203359011Y-110046200D01*
X203304090Y-110000765D01*
X203205025Y-109918811D01*
X203205021Y-109918809D01*
X203200275Y-109914882D01*
X203072255Y-109845662D01*
X203070726Y-109844835D01*
X203020317Y-109794840D01*
X203004940Y-109725529D01*
X203029476Y-109658907D01*
X203086136Y-109616126D01*
X203130655Y-109607999D01*
X203504669Y-109607999D01*
X203511490Y-109607629D01*
X203562352Y-109602105D01*
X203577604Y-109598479D01*
X203698054Y-109553324D01*
X203713649Y-109544786D01*
X203815724Y-109468285D01*
X203828285Y-109455724D01*
X203904786Y-109353649D01*
X203913324Y-109338054D01*
X203958478Y-109217606D01*
X203962105Y-109202351D01*
X203967631Y-109151486D01*
X203968000Y-109144672D01*
X203968000Y-109144669D01*
X219032001Y-109144669D01*
X219032371Y-109151490D01*
X219037895Y-109202352D01*
X219041521Y-109217604D01*
X219086676Y-109338054D01*
X219095214Y-109353649D01*
X219171715Y-109455724D01*
X219184276Y-109468285D01*
X219286351Y-109544786D01*
X219301946Y-109553324D01*
X219422394Y-109598478D01*
X219437649Y-109602105D01*
X219488514Y-109607631D01*
X219495328Y-109608000D01*
X219870432Y-109608000D01*
X219938553Y-109628002D01*
X219985046Y-109681658D01*
X219995150Y-109751932D01*
X219965656Y-109816512D01*
X219928812Y-109845659D01*
X219812002Y-109906726D01*
X219807201Y-109910586D01*
X219807198Y-109910588D01*
X219676693Y-110015517D01*
X219651447Y-110035815D01*
X219519024Y-110193630D01*
X219516056Y-110199028D01*
X219516053Y-110199033D01*
X219509315Y-110211290D01*
X219419776Y-110374162D01*
X219357484Y-110570532D01*
X219356798Y-110576649D01*
X219356797Y-110576653D01*
X219335207Y-110769137D01*
X219334520Y-110775262D01*
X219351759Y-110980553D01*
X219408544Y-111178586D01*
X219411359Y-111184063D01*
X219411360Y-111184066D01*
X219432247Y-111224707D01*
X219502712Y-111361818D01*
X219630677Y-111523270D01*
X219787564Y-111656791D01*
X219967398Y-111757297D01*
X220062238Y-111788113D01*
X220157471Y-111819056D01*
X220157475Y-111819057D01*
X220163329Y-111820959D01*
X220367894Y-111845351D01*
X220374029Y-111844879D01*
X220374031Y-111844879D01*
X220430039Y-111840569D01*
X220573300Y-111829546D01*
X220579230Y-111827890D01*
X220579232Y-111827890D01*
X220765797Y-111775800D01*
X220765796Y-111775800D01*
X220771725Y-111774145D01*
X220777214Y-111771372D01*
X220777220Y-111771370D01*
X220950116Y-111684033D01*
X220955610Y-111681258D01*
X221117951Y-111554424D01*
X221252564Y-111398472D01*
X221273387Y-111361818D01*
X221351276Y-111224707D01*
X221354323Y-111219344D01*
X221419351Y-111023863D01*
X221445171Y-110819474D01*
X221445583Y-110790000D01*
X221425480Y-110584970D01*
X221365935Y-110387749D01*
X221269218Y-110205849D01*
X221195859Y-110115902D01*
X221142906Y-110050975D01*
X221142903Y-110050972D01*
X221139011Y-110046200D01*
X221084090Y-110000765D01*
X220985025Y-109918811D01*
X220985021Y-109918809D01*
X220980275Y-109914882D01*
X220852255Y-109845662D01*
X220850726Y-109844835D01*
X220800317Y-109794840D01*
X220784940Y-109725529D01*
X220809476Y-109658907D01*
X220866136Y-109616126D01*
X220910655Y-109607999D01*
X221284669Y-109607999D01*
X221291490Y-109607629D01*
X221342352Y-109602105D01*
X221357604Y-109598479D01*
X221478054Y-109553324D01*
X221493649Y-109544786D01*
X221595724Y-109468285D01*
X221608285Y-109455724D01*
X221684786Y-109353649D01*
X221693324Y-109338054D01*
X221738478Y-109217606D01*
X221742105Y-109202351D01*
X221747631Y-109151486D01*
X221748000Y-109144672D01*
X221748000Y-108522115D01*
X221743525Y-108506876D01*
X221742135Y-108505671D01*
X221734452Y-108504000D01*
X219050116Y-108504000D01*
X219034877Y-108508475D01*
X219033672Y-108509865D01*
X219032001Y-108517548D01*
X219032001Y-109144669D01*
X203968000Y-109144669D01*
X203968000Y-108522115D01*
X203963525Y-108506876D01*
X203962135Y-108505671D01*
X203954452Y-108504000D01*
X201270116Y-108504000D01*
X201254877Y-108508475D01*
X201253672Y-108509865D01*
X201252001Y-108517548D01*
X201252001Y-109144669D01*
X191273350Y-109144669D01*
X190042710Y-108037093D01*
X190006215Y-107977885D01*
X201252000Y-107977885D01*
X201256475Y-107993124D01*
X201257865Y-107994329D01*
X201265548Y-107996000D01*
X203949884Y-107996000D01*
X203965123Y-107991525D01*
X203966328Y-107990135D01*
X203967999Y-107982452D01*
X203967999Y-107977885D01*
X219032000Y-107977885D01*
X219036475Y-107993124D01*
X219037865Y-107994329D01*
X219045548Y-107996000D01*
X221729884Y-107996000D01*
X221745123Y-107991525D01*
X221746328Y-107990135D01*
X221747999Y-107982452D01*
X221747999Y-107355331D01*
X221747629Y-107348510D01*
X221742105Y-107297648D01*
X221738479Y-107282396D01*
X221693324Y-107161946D01*
X221684786Y-107146351D01*
X221608285Y-107044276D01*
X221595724Y-107031715D01*
X221493649Y-106955214D01*
X221478054Y-106946676D01*
X221357606Y-106901522D01*
X221342351Y-106897895D01*
X221291486Y-106892369D01*
X221284672Y-106892000D01*
X220908932Y-106892000D01*
X220840811Y-106871998D01*
X220794318Y-106818342D01*
X220784214Y-106748068D01*
X220813708Y-106683488D01*
X220852121Y-106653534D01*
X220950116Y-106604033D01*
X220955610Y-106601258D01*
X221117951Y-106474424D01*
X221252564Y-106318472D01*
X221273387Y-106281818D01*
X221351276Y-106144707D01*
X221354323Y-106139344D01*
X221419351Y-105943863D01*
X221445171Y-105739474D01*
X221445583Y-105710000D01*
X221425480Y-105504970D01*
X221365935Y-105307749D01*
X221269218Y-105125849D01*
X221195859Y-105035902D01*
X221142906Y-104970975D01*
X221142903Y-104970972D01*
X221139011Y-104966200D01*
X221121786Y-104951950D01*
X220985025Y-104838811D01*
X220985021Y-104838809D01*
X220980275Y-104834882D01*
X220799055Y-104736897D01*
X220602254Y-104675977D01*
X220596129Y-104675333D01*
X220596128Y-104675333D01*
X220403498Y-104655087D01*
X220403496Y-104655087D01*
X220397369Y-104654443D01*
X220310529Y-104662346D01*
X220198342Y-104672555D01*
X220198339Y-104672556D01*
X220192203Y-104673114D01*
X219994572Y-104731280D01*
X219812002Y-104826726D01*
X219807201Y-104830586D01*
X219807198Y-104830588D01*
X219796971Y-104838811D01*
X219651447Y-104955815D01*
X219519024Y-105113630D01*
X219516056Y-105119028D01*
X219516053Y-105119033D01*
X219509315Y-105131290D01*
X219419776Y-105294162D01*
X219357484Y-105490532D01*
X219356798Y-105496649D01*
X219356797Y-105496653D01*
X219335207Y-105689137D01*
X219334520Y-105695262D01*
X219351759Y-105900553D01*
X219408544Y-106098586D01*
X219411359Y-106104063D01*
X219411360Y-106104066D01*
X219432247Y-106144707D01*
X219502712Y-106281818D01*
X219630677Y-106443270D01*
X219787564Y-106576791D01*
X219836308Y-106604033D01*
X219929315Y-106656013D01*
X219979020Y-106706707D01*
X219993428Y-106776226D01*
X219967964Y-106842499D01*
X219910713Y-106884484D01*
X219867844Y-106892001D01*
X219495331Y-106892001D01*
X219488510Y-106892371D01*
X219437648Y-106897895D01*
X219422396Y-106901521D01*
X219301946Y-106946676D01*
X219286351Y-106955214D01*
X219184276Y-107031715D01*
X219171715Y-107044276D01*
X219095214Y-107146351D01*
X219086676Y-107161946D01*
X219041522Y-107282394D01*
X219037895Y-107297649D01*
X219032369Y-107348514D01*
X219032000Y-107355328D01*
X219032000Y-107977885D01*
X203967999Y-107977885D01*
X203967999Y-107355331D01*
X203967629Y-107348510D01*
X203962105Y-107297648D01*
X203958479Y-107282396D01*
X203913324Y-107161946D01*
X203904786Y-107146351D01*
X203828285Y-107044276D01*
X203815724Y-107031715D01*
X203713649Y-106955214D01*
X203698054Y-106946676D01*
X203577606Y-106901522D01*
X203562351Y-106897895D01*
X203511486Y-106892369D01*
X203504672Y-106892000D01*
X203128932Y-106892000D01*
X203060811Y-106871998D01*
X203014318Y-106818342D01*
X203004214Y-106748068D01*
X203033708Y-106683488D01*
X203072121Y-106653534D01*
X203170116Y-106604033D01*
X203175610Y-106601258D01*
X203337951Y-106474424D01*
X203472564Y-106318472D01*
X203493387Y-106281818D01*
X203571276Y-106144707D01*
X203574323Y-106139344D01*
X203639351Y-105943863D01*
X203665171Y-105739474D01*
X203665583Y-105710000D01*
X203645480Y-105504970D01*
X203585935Y-105307749D01*
X203489218Y-105125849D01*
X203415859Y-105035902D01*
X203362906Y-104970975D01*
X203362903Y-104970972D01*
X203359011Y-104966200D01*
X203341786Y-104951950D01*
X203205025Y-104838811D01*
X203205021Y-104838809D01*
X203200275Y-104834882D01*
X203019055Y-104736897D01*
X202822254Y-104675977D01*
X202816129Y-104675333D01*
X202816128Y-104675333D01*
X202623498Y-104655087D01*
X202623496Y-104655087D01*
X202617369Y-104654443D01*
X202530529Y-104662346D01*
X202418342Y-104672555D01*
X202418339Y-104672556D01*
X202412203Y-104673114D01*
X202214572Y-104731280D01*
X202032002Y-104826726D01*
X202027201Y-104830586D01*
X202027198Y-104830588D01*
X202016971Y-104838811D01*
X201871447Y-104955815D01*
X201739024Y-105113630D01*
X201736056Y-105119028D01*
X201736053Y-105119033D01*
X201729315Y-105131290D01*
X201639776Y-105294162D01*
X201577484Y-105490532D01*
X201576798Y-105496649D01*
X201576797Y-105496653D01*
X201555207Y-105689137D01*
X201554520Y-105695262D01*
X201571759Y-105900553D01*
X201628544Y-106098586D01*
X201631359Y-106104063D01*
X201631360Y-106104066D01*
X201652247Y-106144707D01*
X201722712Y-106281818D01*
X201850677Y-106443270D01*
X202007564Y-106576791D01*
X202056308Y-106604033D01*
X202149315Y-106656013D01*
X202199020Y-106706707D01*
X202213428Y-106776226D01*
X202187964Y-106842499D01*
X202130713Y-106884484D01*
X202087844Y-106892001D01*
X201715331Y-106892001D01*
X201708510Y-106892371D01*
X201657648Y-106897895D01*
X201642396Y-106901521D01*
X201521946Y-106946676D01*
X201506351Y-106955214D01*
X201404276Y-107031715D01*
X201391715Y-107044276D01*
X201315214Y-107146351D01*
X201306676Y-107161946D01*
X201261522Y-107282394D01*
X201257895Y-107297649D01*
X201252369Y-107348514D01*
X201252000Y-107355328D01*
X201252000Y-107977885D01*
X190006215Y-107977885D01*
X190005457Y-107976655D01*
X190001000Y-107943438D01*
X190001000Y-103155262D01*
X201554520Y-103155262D01*
X201571759Y-103360553D01*
X201628544Y-103558586D01*
X201631359Y-103564063D01*
X201631360Y-103564066D01*
X201652247Y-103604707D01*
X201722712Y-103741818D01*
X201850677Y-103903270D01*
X202007564Y-104036791D01*
X202187398Y-104137297D01*
X202282238Y-104168113D01*
X202377471Y-104199056D01*
X202377475Y-104199057D01*
X202383329Y-104200959D01*
X202587894Y-104225351D01*
X202594029Y-104224879D01*
X202594031Y-104224879D01*
X202650039Y-104220569D01*
X202793300Y-104209546D01*
X202799230Y-104207890D01*
X202799232Y-104207890D01*
X202985797Y-104155800D01*
X202985796Y-104155800D01*
X202991725Y-104154145D01*
X202997214Y-104151372D01*
X202997220Y-104151370D01*
X203170116Y-104064033D01*
X203175610Y-104061258D01*
X203337951Y-103934424D01*
X203472564Y-103778472D01*
X203493387Y-103741818D01*
X203571276Y-103604707D01*
X203574323Y-103599344D01*
X203639351Y-103403863D01*
X203665171Y-103199474D01*
X203665583Y-103170000D01*
X203664138Y-103155262D01*
X219334520Y-103155262D01*
X219351759Y-103360553D01*
X219408544Y-103558586D01*
X219411359Y-103564063D01*
X219411360Y-103564066D01*
X219432247Y-103604707D01*
X219502712Y-103741818D01*
X219630677Y-103903270D01*
X219787564Y-104036791D01*
X219967398Y-104137297D01*
X220062238Y-104168113D01*
X220157471Y-104199056D01*
X220157475Y-104199057D01*
X220163329Y-104200959D01*
X220367894Y-104225351D01*
X220374029Y-104224879D01*
X220374031Y-104224879D01*
X220430039Y-104220569D01*
X220573300Y-104209546D01*
X220579230Y-104207890D01*
X220579232Y-104207890D01*
X220765797Y-104155800D01*
X220765796Y-104155800D01*
X220771725Y-104154145D01*
X220777214Y-104151372D01*
X220777220Y-104151370D01*
X220950116Y-104064033D01*
X220955610Y-104061258D01*
X221117951Y-103934424D01*
X221252564Y-103778472D01*
X221273387Y-103741818D01*
X221351276Y-103604707D01*
X221354323Y-103599344D01*
X221419351Y-103403863D01*
X221445171Y-103199474D01*
X221445583Y-103170000D01*
X221425480Y-102964970D01*
X221365935Y-102767749D01*
X221269218Y-102585849D01*
X221195859Y-102495902D01*
X221142906Y-102430975D01*
X221142903Y-102430972D01*
X221139011Y-102426200D01*
X221121786Y-102411950D01*
X220985025Y-102298811D01*
X220985021Y-102298809D01*
X220980275Y-102294882D01*
X220799055Y-102196897D01*
X220602254Y-102135977D01*
X220596129Y-102135333D01*
X220596128Y-102135333D01*
X220403498Y-102115087D01*
X220403496Y-102115087D01*
X220397369Y-102114443D01*
X220310529Y-102122346D01*
X220198342Y-102132555D01*
X220198339Y-102132556D01*
X220192203Y-102133114D01*
X219994572Y-102191280D01*
X219812002Y-102286726D01*
X219807201Y-102290586D01*
X219807198Y-102290588D01*
X219796971Y-102298811D01*
X219651447Y-102415815D01*
X219519024Y-102573630D01*
X219516056Y-102579028D01*
X219516053Y-102579033D01*
X219509315Y-102591290D01*
X219419776Y-102754162D01*
X219357484Y-102950532D01*
X219356798Y-102956649D01*
X219356797Y-102956653D01*
X219335207Y-103149137D01*
X219334520Y-103155262D01*
X203664138Y-103155262D01*
X203645480Y-102964970D01*
X203585935Y-102767749D01*
X203489218Y-102585849D01*
X203415859Y-102495902D01*
X203362906Y-102430975D01*
X203362903Y-102430972D01*
X203359011Y-102426200D01*
X203341786Y-102411950D01*
X203205025Y-102298811D01*
X203205021Y-102298809D01*
X203200275Y-102294882D01*
X203019055Y-102196897D01*
X202822254Y-102135977D01*
X202816129Y-102135333D01*
X202816128Y-102135333D01*
X202623498Y-102115087D01*
X202623496Y-102115087D01*
X202617369Y-102114443D01*
X202530529Y-102122346D01*
X202418342Y-102132555D01*
X202418339Y-102132556D01*
X202412203Y-102133114D01*
X202214572Y-102191280D01*
X202032002Y-102286726D01*
X202027201Y-102290586D01*
X202027198Y-102290588D01*
X202016971Y-102298811D01*
X201871447Y-102415815D01*
X201739024Y-102573630D01*
X201736056Y-102579028D01*
X201736053Y-102579033D01*
X201729315Y-102591290D01*
X201639776Y-102754162D01*
X201577484Y-102950532D01*
X201576798Y-102956649D01*
X201576797Y-102956653D01*
X201555207Y-103149137D01*
X201554520Y-103155262D01*
X190001000Y-103155262D01*
X190001000Y-100615262D01*
X201554520Y-100615262D01*
X201571759Y-100820553D01*
X201573458Y-100826478D01*
X201623215Y-101000000D01*
X201628544Y-101018586D01*
X201631359Y-101024063D01*
X201631360Y-101024066D01*
X201652247Y-101064707D01*
X201722712Y-101201818D01*
X201850677Y-101363270D01*
X202007564Y-101496791D01*
X202187398Y-101597297D01*
X202282238Y-101628113D01*
X202377471Y-101659056D01*
X202377475Y-101659057D01*
X202383329Y-101660959D01*
X202587894Y-101685351D01*
X202594029Y-101684879D01*
X202594031Y-101684879D01*
X202650039Y-101680569D01*
X202793300Y-101669546D01*
X202799230Y-101667890D01*
X202799232Y-101667890D01*
X202985797Y-101615800D01*
X202985796Y-101615800D01*
X202991725Y-101614145D01*
X202997214Y-101611372D01*
X202997220Y-101611370D01*
X203170116Y-101524033D01*
X203175610Y-101521258D01*
X203337951Y-101394424D01*
X203472564Y-101238472D01*
X203493387Y-101201818D01*
X203571276Y-101064707D01*
X203574323Y-101059344D01*
X203639351Y-100863863D01*
X203665171Y-100659474D01*
X203665583Y-100630000D01*
X203664138Y-100615262D01*
X219334520Y-100615262D01*
X219351759Y-100820553D01*
X219353458Y-100826478D01*
X219403215Y-101000000D01*
X219408544Y-101018586D01*
X219411359Y-101024063D01*
X219411360Y-101024066D01*
X219432247Y-101064707D01*
X219502712Y-101201818D01*
X219630677Y-101363270D01*
X219787564Y-101496791D01*
X219967398Y-101597297D01*
X220062238Y-101628113D01*
X220157471Y-101659056D01*
X220157475Y-101659057D01*
X220163329Y-101660959D01*
X220367894Y-101685351D01*
X220374029Y-101684879D01*
X220374031Y-101684879D01*
X220430039Y-101680569D01*
X220573300Y-101669546D01*
X220579230Y-101667890D01*
X220579232Y-101667890D01*
X220765797Y-101615800D01*
X220765796Y-101615800D01*
X220771725Y-101614145D01*
X220777214Y-101611372D01*
X220777220Y-101611370D01*
X220950116Y-101524033D01*
X220955610Y-101521258D01*
X221117951Y-101394424D01*
X221252564Y-101238472D01*
X221273387Y-101201818D01*
X221351276Y-101064707D01*
X221354323Y-101059344D01*
X221419351Y-100863863D01*
X221445171Y-100659474D01*
X221445583Y-100630000D01*
X221425480Y-100424970D01*
X221365935Y-100227749D01*
X221269218Y-100045849D01*
X221195859Y-99955902D01*
X221142906Y-99890975D01*
X221142903Y-99890972D01*
X221139011Y-99886200D01*
X221121786Y-99871950D01*
X220985025Y-99758811D01*
X220985021Y-99758809D01*
X220980275Y-99754882D01*
X220799055Y-99656897D01*
X220602254Y-99595977D01*
X220596129Y-99595333D01*
X220596128Y-99595333D01*
X220403498Y-99575087D01*
X220403496Y-99575087D01*
X220397369Y-99574443D01*
X220310529Y-99582346D01*
X220198342Y-99592555D01*
X220198339Y-99592556D01*
X220192203Y-99593114D01*
X219994572Y-99651280D01*
X219812002Y-99746726D01*
X219807201Y-99750586D01*
X219807198Y-99750588D01*
X219796971Y-99758811D01*
X219651447Y-99875815D01*
X219519024Y-100033630D01*
X219516056Y-100039028D01*
X219516053Y-100039033D01*
X219509315Y-100051290D01*
X219419776Y-100214162D01*
X219357484Y-100410532D01*
X219356798Y-100416649D01*
X219356797Y-100416653D01*
X219335207Y-100609137D01*
X219334520Y-100615262D01*
X203664138Y-100615262D01*
X203645480Y-100424970D01*
X203585935Y-100227749D01*
X203489218Y-100045849D01*
X203415859Y-99955902D01*
X203362906Y-99890975D01*
X203362903Y-99890972D01*
X203359011Y-99886200D01*
X203341786Y-99871950D01*
X203205025Y-99758811D01*
X203205021Y-99758809D01*
X203200275Y-99754882D01*
X203019055Y-99656897D01*
X202822254Y-99595977D01*
X202816129Y-99595333D01*
X202816128Y-99595333D01*
X202623498Y-99575087D01*
X202623496Y-99575087D01*
X202617369Y-99574443D01*
X202530529Y-99582346D01*
X202418342Y-99592555D01*
X202418339Y-99592556D01*
X202412203Y-99593114D01*
X202214572Y-99651280D01*
X202032002Y-99746726D01*
X202027201Y-99750586D01*
X202027198Y-99750588D01*
X202016971Y-99758811D01*
X201871447Y-99875815D01*
X201739024Y-100033630D01*
X201736056Y-100039028D01*
X201736053Y-100039033D01*
X201729315Y-100051290D01*
X201639776Y-100214162D01*
X201577484Y-100410532D01*
X201576798Y-100416649D01*
X201576797Y-100416653D01*
X201555207Y-100609137D01*
X201554520Y-100615262D01*
X190001000Y-100615262D01*
X190001000Y-96076522D01*
X190820801Y-96076522D01*
X190859092Y-96219423D01*
X190862842Y-96229727D01*
X190947521Y-96411323D01*
X190952998Y-96420811D01*
X191067925Y-96584942D01*
X191074981Y-96593350D01*
X191216650Y-96735019D01*
X191225058Y-96742075D01*
X191389189Y-96857002D01*
X191398677Y-96862479D01*
X191580273Y-96947158D01*
X191590577Y-96950908D01*
X191728503Y-96987866D01*
X191742599Y-96987530D01*
X191746000Y-96979588D01*
X191746000Y-96974439D01*
X192254000Y-96974439D01*
X192257973Y-96987970D01*
X192266522Y-96989199D01*
X192409423Y-96950908D01*
X192419727Y-96947158D01*
X192601323Y-96862479D01*
X192610811Y-96857002D01*
X192774942Y-96742075D01*
X192783350Y-96735019D01*
X192925019Y-96593350D01*
X192932075Y-96584942D01*
X193047002Y-96420811D01*
X193052479Y-96411323D01*
X193137158Y-96229727D01*
X193140908Y-96219423D01*
X193177866Y-96081497D01*
X193177747Y-96076522D01*
X195020801Y-96076522D01*
X195059092Y-96219423D01*
X195062842Y-96229727D01*
X195147521Y-96411323D01*
X195152998Y-96420811D01*
X195267925Y-96584942D01*
X195274981Y-96593350D01*
X195416650Y-96735019D01*
X195425058Y-96742075D01*
X195589189Y-96857002D01*
X195598677Y-96862479D01*
X195780273Y-96947158D01*
X195790577Y-96950908D01*
X195928503Y-96987866D01*
X195942599Y-96987530D01*
X195946000Y-96979588D01*
X195946000Y-96974439D01*
X196454000Y-96974439D01*
X196457973Y-96987970D01*
X196466522Y-96989199D01*
X196609423Y-96950908D01*
X196619727Y-96947158D01*
X196801323Y-96862479D01*
X196810811Y-96857002D01*
X196974942Y-96742075D01*
X196983350Y-96735019D01*
X197125019Y-96593350D01*
X197132075Y-96584942D01*
X197230296Y-96444669D01*
X201252001Y-96444669D01*
X201252371Y-96451490D01*
X201257895Y-96502352D01*
X201261521Y-96517604D01*
X201306676Y-96638054D01*
X201315214Y-96653649D01*
X201391715Y-96755724D01*
X201404276Y-96768285D01*
X201506351Y-96844786D01*
X201521946Y-96853324D01*
X201642394Y-96898478D01*
X201657649Y-96902105D01*
X201708514Y-96907631D01*
X201715328Y-96908000D01*
X202090432Y-96908000D01*
X202158553Y-96928002D01*
X202205046Y-96981658D01*
X202215150Y-97051932D01*
X202185656Y-97116512D01*
X202148812Y-97145659D01*
X202032002Y-97206726D01*
X202027201Y-97210586D01*
X202027198Y-97210588D01*
X202016971Y-97218811D01*
X201871447Y-97335815D01*
X201739024Y-97493630D01*
X201736056Y-97499028D01*
X201736053Y-97499033D01*
X201729315Y-97511290D01*
X201639776Y-97674162D01*
X201577484Y-97870532D01*
X201576798Y-97876649D01*
X201576797Y-97876653D01*
X201555207Y-98069137D01*
X201554520Y-98075262D01*
X201571759Y-98280553D01*
X201628544Y-98478586D01*
X201631359Y-98484063D01*
X201631360Y-98484066D01*
X201652247Y-98524707D01*
X201722712Y-98661818D01*
X201850677Y-98823270D01*
X202007564Y-98956791D01*
X202187398Y-99057297D01*
X202282238Y-99088112D01*
X202377471Y-99119056D01*
X202377475Y-99119057D01*
X202383329Y-99120959D01*
X202587894Y-99145351D01*
X202594029Y-99144879D01*
X202594031Y-99144879D01*
X202650039Y-99140569D01*
X202793300Y-99129546D01*
X202799230Y-99127890D01*
X202799232Y-99127890D01*
X202985797Y-99075800D01*
X202985796Y-99075800D01*
X202991725Y-99074145D01*
X202997214Y-99071372D01*
X202997220Y-99071370D01*
X203170116Y-98984033D01*
X203175610Y-98981258D01*
X203337951Y-98854424D01*
X203472564Y-98698472D01*
X203493387Y-98661818D01*
X203571276Y-98524707D01*
X203574323Y-98519344D01*
X203639351Y-98323863D01*
X203665171Y-98119474D01*
X203665583Y-98090000D01*
X203645480Y-97884970D01*
X203585935Y-97687749D01*
X203489218Y-97505849D01*
X203415859Y-97415902D01*
X203362906Y-97350975D01*
X203362903Y-97350972D01*
X203359011Y-97346200D01*
X203341786Y-97331950D01*
X203205025Y-97218811D01*
X203205021Y-97218809D01*
X203200275Y-97214882D01*
X203072255Y-97145662D01*
X203070726Y-97144835D01*
X203020317Y-97094840D01*
X203004940Y-97025529D01*
X203029476Y-96958907D01*
X203086136Y-96916126D01*
X203130655Y-96907999D01*
X203504669Y-96907999D01*
X203511490Y-96907629D01*
X203562352Y-96902105D01*
X203577604Y-96898479D01*
X203698054Y-96853324D01*
X203713649Y-96844786D01*
X203815724Y-96768285D01*
X203828285Y-96755724D01*
X203904786Y-96653649D01*
X203913324Y-96638054D01*
X203958478Y-96517606D01*
X203962105Y-96502351D01*
X203967631Y-96451486D01*
X203968000Y-96444672D01*
X203968000Y-96444669D01*
X219032001Y-96444669D01*
X219032371Y-96451490D01*
X219037895Y-96502352D01*
X219041521Y-96517604D01*
X219086676Y-96638054D01*
X219095214Y-96653649D01*
X219171715Y-96755724D01*
X219184276Y-96768285D01*
X219286351Y-96844786D01*
X219301946Y-96853324D01*
X219422394Y-96898478D01*
X219437649Y-96902105D01*
X219488514Y-96907631D01*
X219495328Y-96908000D01*
X219870432Y-96908000D01*
X219938553Y-96928002D01*
X219985046Y-96981658D01*
X219995150Y-97051932D01*
X219965656Y-97116512D01*
X219928812Y-97145659D01*
X219812002Y-97206726D01*
X219807201Y-97210586D01*
X219807198Y-97210588D01*
X219796971Y-97218811D01*
X219651447Y-97335815D01*
X219519024Y-97493630D01*
X219516056Y-97499028D01*
X219516053Y-97499033D01*
X219509315Y-97511290D01*
X219419776Y-97674162D01*
X219357484Y-97870532D01*
X219356798Y-97876649D01*
X219356797Y-97876653D01*
X219335207Y-98069137D01*
X219334520Y-98075262D01*
X219351759Y-98280553D01*
X219408544Y-98478586D01*
X219411359Y-98484063D01*
X219411360Y-98484066D01*
X219432247Y-98524707D01*
X219502712Y-98661818D01*
X219630677Y-98823270D01*
X219787564Y-98956791D01*
X219967398Y-99057297D01*
X220062238Y-99088112D01*
X220157471Y-99119056D01*
X220157475Y-99119057D01*
X220163329Y-99120959D01*
X220367894Y-99145351D01*
X220374029Y-99144879D01*
X220374031Y-99144879D01*
X220430039Y-99140569D01*
X220573300Y-99129546D01*
X220579230Y-99127890D01*
X220579232Y-99127890D01*
X220765797Y-99075800D01*
X220765796Y-99075800D01*
X220771725Y-99074145D01*
X220777214Y-99071372D01*
X220777220Y-99071370D01*
X220950116Y-98984033D01*
X220955610Y-98981258D01*
X221117951Y-98854424D01*
X221252564Y-98698472D01*
X221273387Y-98661818D01*
X221351276Y-98524707D01*
X221354323Y-98519344D01*
X221419351Y-98323863D01*
X221445171Y-98119474D01*
X221445583Y-98090000D01*
X221425480Y-97884970D01*
X221365935Y-97687749D01*
X221269218Y-97505849D01*
X221195859Y-97415902D01*
X221142906Y-97350975D01*
X221142903Y-97350972D01*
X221139011Y-97346200D01*
X221121786Y-97331950D01*
X220985025Y-97218811D01*
X220985021Y-97218809D01*
X220980275Y-97214882D01*
X220852255Y-97145662D01*
X220850726Y-97144835D01*
X220800317Y-97094840D01*
X220784940Y-97025529D01*
X220809476Y-96958907D01*
X220866136Y-96916126D01*
X220910655Y-96907999D01*
X221284669Y-96907999D01*
X221291490Y-96907629D01*
X221342352Y-96902105D01*
X221357604Y-96898479D01*
X221478054Y-96853324D01*
X221493649Y-96844786D01*
X221595724Y-96768285D01*
X221608285Y-96755724D01*
X221684786Y-96653649D01*
X221693324Y-96638054D01*
X221738478Y-96517606D01*
X221742105Y-96502351D01*
X221747631Y-96451486D01*
X221748000Y-96444672D01*
X221748000Y-95822115D01*
X221743525Y-95806876D01*
X221742135Y-95805671D01*
X221734452Y-95804000D01*
X219050116Y-95804000D01*
X219034877Y-95808475D01*
X219033672Y-95809865D01*
X219032001Y-95817548D01*
X219032001Y-96444669D01*
X203968000Y-96444669D01*
X203968000Y-95822115D01*
X203963525Y-95806876D01*
X203962135Y-95805671D01*
X203954452Y-95804000D01*
X201270116Y-95804000D01*
X201254877Y-95808475D01*
X201253672Y-95809865D01*
X201252001Y-95817548D01*
X201252001Y-96444669D01*
X197230296Y-96444669D01*
X197247002Y-96420811D01*
X197252479Y-96411323D01*
X197337158Y-96229727D01*
X197340908Y-96219423D01*
X197377866Y-96081497D01*
X197377530Y-96067401D01*
X197369588Y-96064000D01*
X196472115Y-96064000D01*
X196456876Y-96068475D01*
X196455671Y-96069865D01*
X196454000Y-96077548D01*
X196454000Y-96974439D01*
X195946000Y-96974439D01*
X195946000Y-96082115D01*
X195941525Y-96066876D01*
X195940135Y-96065671D01*
X195932452Y-96064000D01*
X195035561Y-96064000D01*
X195022030Y-96067973D01*
X195020801Y-96076522D01*
X193177747Y-96076522D01*
X193177530Y-96067401D01*
X193169588Y-96064000D01*
X192272115Y-96064000D01*
X192256876Y-96068475D01*
X192255671Y-96069865D01*
X192254000Y-96077548D01*
X192254000Y-96974439D01*
X191746000Y-96974439D01*
X191746000Y-96082115D01*
X191741525Y-96066876D01*
X191740135Y-96065671D01*
X191732452Y-96064000D01*
X190835561Y-96064000D01*
X190822030Y-96067973D01*
X190820801Y-96076522D01*
X190001000Y-96076522D01*
X190001000Y-95538503D01*
X190822134Y-95538503D01*
X190822470Y-95552599D01*
X190830412Y-95556000D01*
X191727885Y-95556000D01*
X191743124Y-95551525D01*
X191744329Y-95550135D01*
X191746000Y-95542452D01*
X191746000Y-95537885D01*
X192254000Y-95537885D01*
X192258475Y-95553124D01*
X192259865Y-95554329D01*
X192267548Y-95556000D01*
X193164439Y-95556000D01*
X193177970Y-95552027D01*
X193179199Y-95543478D01*
X193177866Y-95538503D01*
X195022134Y-95538503D01*
X195022470Y-95552599D01*
X195030412Y-95556000D01*
X195927885Y-95556000D01*
X195943124Y-95551525D01*
X195944329Y-95550135D01*
X195946000Y-95542452D01*
X195946000Y-95537885D01*
X196454000Y-95537885D01*
X196458475Y-95553124D01*
X196459865Y-95554329D01*
X196467548Y-95556000D01*
X197364439Y-95556000D01*
X197377970Y-95552027D01*
X197379199Y-95543478D01*
X197340908Y-95400577D01*
X197337158Y-95390273D01*
X197284751Y-95277885D01*
X201252000Y-95277885D01*
X201256475Y-95293124D01*
X201257865Y-95294329D01*
X201265548Y-95296000D01*
X203949884Y-95296000D01*
X203965123Y-95291525D01*
X203966328Y-95290135D01*
X203967999Y-95282452D01*
X203967999Y-95277885D01*
X219032000Y-95277885D01*
X219036475Y-95293124D01*
X219037865Y-95294329D01*
X219045548Y-95296000D01*
X221729884Y-95296000D01*
X221745123Y-95291525D01*
X221746328Y-95290135D01*
X221747999Y-95282452D01*
X221747999Y-94655331D01*
X221747629Y-94648510D01*
X221742105Y-94597648D01*
X221738479Y-94582396D01*
X221693324Y-94461946D01*
X221684786Y-94446351D01*
X221608285Y-94344276D01*
X221595724Y-94331715D01*
X221493649Y-94255214D01*
X221478054Y-94246676D01*
X221357606Y-94201522D01*
X221342351Y-94197895D01*
X221291486Y-94192369D01*
X221284672Y-94192000D01*
X220908932Y-94192000D01*
X220840811Y-94171998D01*
X220794318Y-94118342D01*
X220784214Y-94048068D01*
X220813708Y-93983488D01*
X220852121Y-93953534D01*
X220950116Y-93904033D01*
X220955610Y-93901258D01*
X221117951Y-93774424D01*
X221252564Y-93618472D01*
X221273387Y-93581818D01*
X221336259Y-93471142D01*
X221354323Y-93439344D01*
X221419351Y-93243863D01*
X221445171Y-93039474D01*
X221445583Y-93010000D01*
X221425480Y-92804970D01*
X221366614Y-92609998D01*
X256194539Y-92609998D01*
X256214325Y-92798254D01*
X256272820Y-92978282D01*
X256276123Y-92984004D01*
X256276124Y-92984005D01*
X256289108Y-93006494D01*
X256367466Y-93142214D01*
X256371884Y-93147121D01*
X256371885Y-93147122D01*
X256464261Y-93249715D01*
X256494128Y-93282886D01*
X256647269Y-93394149D01*
X256820196Y-93471142D01*
X256918211Y-93491976D01*
X256998896Y-93509126D01*
X256998900Y-93509126D01*
X257005353Y-93510498D01*
X257194645Y-93510498D01*
X257201098Y-93509126D01*
X257201102Y-93509126D01*
X257281787Y-93491976D01*
X257379802Y-93471142D01*
X257552729Y-93394149D01*
X257705870Y-93282886D01*
X257735738Y-93249715D01*
X257828113Y-93147122D01*
X257828114Y-93147121D01*
X257832532Y-93142214D01*
X257910890Y-93006494D01*
X257923874Y-92984005D01*
X257923875Y-92984004D01*
X257927178Y-92978282D01*
X257985673Y-92798254D01*
X258005459Y-92609998D01*
X257985673Y-92421742D01*
X257927178Y-92241714D01*
X257863020Y-92130588D01*
X257835835Y-92083503D01*
X257832532Y-92077782D01*
X257795719Y-92036897D01*
X257710285Y-91942013D01*
X257710283Y-91942012D01*
X257705870Y-91937110D01*
X257552729Y-91825847D01*
X257379802Y-91748854D01*
X257281787Y-91728020D01*
X257201102Y-91710870D01*
X257201098Y-91710870D01*
X257194645Y-91709498D01*
X257005353Y-91709498D01*
X256998900Y-91710870D01*
X256998896Y-91710870D01*
X256918211Y-91728020D01*
X256820196Y-91748854D01*
X256647269Y-91825847D01*
X256494128Y-91937110D01*
X256489715Y-91942012D01*
X256489713Y-91942013D01*
X256404279Y-92036897D01*
X256367466Y-92077782D01*
X256364163Y-92083503D01*
X256336979Y-92130588D01*
X256272820Y-92241714D01*
X256214325Y-92421742D01*
X256194539Y-92609998D01*
X221366614Y-92609998D01*
X221365935Y-92607749D01*
X221269218Y-92425849D01*
X221195859Y-92335902D01*
X221142906Y-92270975D01*
X221142903Y-92270972D01*
X221139011Y-92266200D01*
X221102495Y-92235991D01*
X220985025Y-92138811D01*
X220985021Y-92138809D01*
X220980275Y-92134882D01*
X220799055Y-92036897D01*
X220602254Y-91975977D01*
X220596129Y-91975333D01*
X220596128Y-91975333D01*
X220403498Y-91955087D01*
X220403496Y-91955087D01*
X220397369Y-91954443D01*
X220310529Y-91962346D01*
X220198342Y-91972555D01*
X220198339Y-91972556D01*
X220192203Y-91973114D01*
X219994572Y-92031280D01*
X219812002Y-92126726D01*
X219807201Y-92130586D01*
X219807198Y-92130588D01*
X219796971Y-92138811D01*
X219651447Y-92255815D01*
X219519024Y-92413630D01*
X219516056Y-92419028D01*
X219516053Y-92419033D01*
X219510956Y-92428305D01*
X219419776Y-92594162D01*
X219357484Y-92790532D01*
X219356798Y-92796649D01*
X219356797Y-92796653D01*
X219337130Y-92971997D01*
X219334520Y-92995262D01*
X219351759Y-93200553D01*
X219353458Y-93206478D01*
X219375368Y-93282886D01*
X219408544Y-93398586D01*
X219411359Y-93404063D01*
X219411360Y-93404066D01*
X219499897Y-93576341D01*
X219502712Y-93581818D01*
X219630677Y-93743270D01*
X219787564Y-93876791D01*
X219836308Y-93904033D01*
X219929315Y-93956013D01*
X219979020Y-94006707D01*
X219993428Y-94076226D01*
X219967964Y-94142499D01*
X219910713Y-94184484D01*
X219867844Y-94192001D01*
X219495331Y-94192001D01*
X219488510Y-94192371D01*
X219437648Y-94197895D01*
X219422396Y-94201521D01*
X219301946Y-94246676D01*
X219286351Y-94255214D01*
X219184276Y-94331715D01*
X219171715Y-94344276D01*
X219095214Y-94446351D01*
X219086676Y-94461946D01*
X219041522Y-94582394D01*
X219037895Y-94597649D01*
X219032369Y-94648514D01*
X219032000Y-94655328D01*
X219032000Y-95277885D01*
X203967999Y-95277885D01*
X203967999Y-94655331D01*
X203967629Y-94648510D01*
X203962105Y-94597648D01*
X203958479Y-94582396D01*
X203913324Y-94461946D01*
X203904786Y-94446351D01*
X203828285Y-94344276D01*
X203815724Y-94331715D01*
X203713649Y-94255214D01*
X203698054Y-94246676D01*
X203577606Y-94201522D01*
X203562351Y-94197895D01*
X203511486Y-94192369D01*
X203504672Y-94192000D01*
X203128932Y-94192000D01*
X203060811Y-94171998D01*
X203014318Y-94118342D01*
X203004214Y-94048068D01*
X203033708Y-93983488D01*
X203072121Y-93953534D01*
X203170116Y-93904033D01*
X203175610Y-93901258D01*
X203337951Y-93774424D01*
X203472564Y-93618472D01*
X203493387Y-93581818D01*
X203556259Y-93471142D01*
X203574323Y-93439344D01*
X203639351Y-93243863D01*
X203665171Y-93039474D01*
X203665583Y-93010000D01*
X203645480Y-92804970D01*
X203585935Y-92607749D01*
X203489218Y-92425849D01*
X203415859Y-92335902D01*
X203362906Y-92270975D01*
X203362903Y-92270972D01*
X203359011Y-92266200D01*
X203322495Y-92235991D01*
X203205025Y-92138811D01*
X203205021Y-92138809D01*
X203200275Y-92134882D01*
X203019055Y-92036897D01*
X202822254Y-91975977D01*
X202816129Y-91975333D01*
X202816128Y-91975333D01*
X202623498Y-91955087D01*
X202623496Y-91955087D01*
X202617369Y-91954443D01*
X202530529Y-91962346D01*
X202418342Y-91972555D01*
X202418339Y-91972556D01*
X202412203Y-91973114D01*
X202214572Y-92031280D01*
X202032002Y-92126726D01*
X202027201Y-92130586D01*
X202027198Y-92130588D01*
X202016971Y-92138811D01*
X201871447Y-92255815D01*
X201739024Y-92413630D01*
X201736056Y-92419028D01*
X201736053Y-92419033D01*
X201730956Y-92428305D01*
X201639776Y-92594162D01*
X201577484Y-92790532D01*
X201576798Y-92796649D01*
X201576797Y-92796653D01*
X201557130Y-92971997D01*
X201554520Y-92995262D01*
X201571759Y-93200553D01*
X201573458Y-93206478D01*
X201595368Y-93282886D01*
X201628544Y-93398586D01*
X201631359Y-93404063D01*
X201631360Y-93404066D01*
X201719897Y-93576341D01*
X201722712Y-93581818D01*
X201850677Y-93743270D01*
X202007564Y-93876791D01*
X202056308Y-93904033D01*
X202149315Y-93956013D01*
X202199020Y-94006707D01*
X202213428Y-94076226D01*
X202187964Y-94142499D01*
X202130713Y-94184484D01*
X202087844Y-94192001D01*
X201715331Y-94192001D01*
X201708510Y-94192371D01*
X201657648Y-94197895D01*
X201642396Y-94201521D01*
X201521946Y-94246676D01*
X201506351Y-94255214D01*
X201404276Y-94331715D01*
X201391715Y-94344276D01*
X201315214Y-94446351D01*
X201306676Y-94461946D01*
X201261522Y-94582394D01*
X201257895Y-94597649D01*
X201252369Y-94648514D01*
X201252000Y-94655328D01*
X201252000Y-95277885D01*
X197284751Y-95277885D01*
X197252479Y-95208677D01*
X197247002Y-95199189D01*
X197132075Y-95035058D01*
X197125019Y-95026650D01*
X196983350Y-94884981D01*
X196974942Y-94877925D01*
X196810811Y-94762998D01*
X196801323Y-94757521D01*
X196619727Y-94672842D01*
X196609423Y-94669092D01*
X196471497Y-94632134D01*
X196457401Y-94632470D01*
X196454000Y-94640412D01*
X196454000Y-95537885D01*
X195946000Y-95537885D01*
X195946000Y-94645561D01*
X195942027Y-94632030D01*
X195933478Y-94630801D01*
X195790577Y-94669092D01*
X195780273Y-94672842D01*
X195598677Y-94757521D01*
X195589189Y-94762998D01*
X195425058Y-94877925D01*
X195416650Y-94884981D01*
X195274981Y-95026650D01*
X195267925Y-95035058D01*
X195152998Y-95199189D01*
X195147521Y-95208677D01*
X195062842Y-95390273D01*
X195059092Y-95400577D01*
X195022134Y-95538503D01*
X193177866Y-95538503D01*
X193140908Y-95400577D01*
X193137158Y-95390273D01*
X193052479Y-95208677D01*
X193047002Y-95199189D01*
X192932075Y-95035058D01*
X192925019Y-95026650D01*
X192783350Y-94884981D01*
X192774942Y-94877925D01*
X192610811Y-94762998D01*
X192601323Y-94757521D01*
X192419727Y-94672842D01*
X192409423Y-94669092D01*
X192271497Y-94632134D01*
X192257401Y-94632470D01*
X192254000Y-94640412D01*
X192254000Y-95537885D01*
X191746000Y-95537885D01*
X191746000Y-94645561D01*
X191742027Y-94632030D01*
X191733478Y-94630801D01*
X191590577Y-94669092D01*
X191580273Y-94672842D01*
X191398677Y-94757521D01*
X191389189Y-94762998D01*
X191225058Y-94877925D01*
X191216650Y-94884981D01*
X191074981Y-95026650D01*
X191067925Y-95035058D01*
X190952998Y-95199189D01*
X190947521Y-95208677D01*
X190862842Y-95390273D01*
X190859092Y-95400577D01*
X190822134Y-95538503D01*
X190001000Y-95538503D01*
X190001000Y-90455262D01*
X201554520Y-90455262D01*
X201571759Y-90660553D01*
X201628544Y-90858586D01*
X201631359Y-90864063D01*
X201631360Y-90864066D01*
X201701656Y-91000847D01*
X201722712Y-91041818D01*
X201850677Y-91203270D01*
X202007564Y-91336791D01*
X202187398Y-91437297D01*
X202282238Y-91468113D01*
X202377471Y-91499056D01*
X202377475Y-91499057D01*
X202383329Y-91500959D01*
X202587894Y-91525351D01*
X202594029Y-91524879D01*
X202594031Y-91524879D01*
X202650039Y-91520569D01*
X202793300Y-91509546D01*
X202799230Y-91507890D01*
X202799232Y-91507890D01*
X202985797Y-91455800D01*
X202985796Y-91455800D01*
X202991725Y-91454145D01*
X202997214Y-91451372D01*
X202997220Y-91451370D01*
X203170116Y-91364033D01*
X203175610Y-91361258D01*
X203337951Y-91234424D01*
X203472564Y-91078472D01*
X203493387Y-91041818D01*
X203517378Y-90999586D01*
X203574323Y-90899344D01*
X203639351Y-90703863D01*
X203665171Y-90499474D01*
X203665583Y-90470000D01*
X203664138Y-90455262D01*
X219334520Y-90455262D01*
X219351759Y-90660553D01*
X219408544Y-90858586D01*
X219411359Y-90864063D01*
X219411360Y-90864066D01*
X219481656Y-91000847D01*
X219502712Y-91041818D01*
X219630677Y-91203270D01*
X219787564Y-91336791D01*
X219967398Y-91437297D01*
X220062238Y-91468113D01*
X220157471Y-91499056D01*
X220157475Y-91499057D01*
X220163329Y-91500959D01*
X220367894Y-91525351D01*
X220374029Y-91524879D01*
X220374031Y-91524879D01*
X220430039Y-91520569D01*
X220573300Y-91509546D01*
X220579230Y-91507890D01*
X220579232Y-91507890D01*
X220765797Y-91455800D01*
X220765796Y-91455800D01*
X220771725Y-91454145D01*
X220777214Y-91451372D01*
X220777220Y-91451370D01*
X220950116Y-91364033D01*
X220955610Y-91361258D01*
X221117951Y-91234424D01*
X221252564Y-91078472D01*
X221273387Y-91041818D01*
X221297378Y-90999586D01*
X221354323Y-90899344D01*
X221419351Y-90703863D01*
X221445171Y-90499474D01*
X221445583Y-90470000D01*
X221425480Y-90264970D01*
X221365935Y-90067749D01*
X221269218Y-89885849D01*
X221195859Y-89795902D01*
X221142906Y-89730975D01*
X221142903Y-89730972D01*
X221139011Y-89726200D01*
X221121786Y-89711950D01*
X220985025Y-89598811D01*
X220985021Y-89598809D01*
X220980275Y-89594882D01*
X220799055Y-89496897D01*
X220602254Y-89435977D01*
X220596129Y-89435333D01*
X220596128Y-89435333D01*
X220403498Y-89415087D01*
X220403496Y-89415087D01*
X220397369Y-89414443D01*
X220310529Y-89422346D01*
X220198342Y-89432555D01*
X220198339Y-89432556D01*
X220192203Y-89433114D01*
X219994572Y-89491280D01*
X219812002Y-89586726D01*
X219807201Y-89590586D01*
X219807198Y-89590588D01*
X219796971Y-89598811D01*
X219651447Y-89715815D01*
X219519024Y-89873630D01*
X219516056Y-89879028D01*
X219516053Y-89879033D01*
X219509315Y-89891290D01*
X219419776Y-90054162D01*
X219357484Y-90250532D01*
X219356798Y-90256649D01*
X219356797Y-90256653D01*
X219335207Y-90449137D01*
X219334520Y-90455262D01*
X203664138Y-90455262D01*
X203645480Y-90264970D01*
X203585935Y-90067749D01*
X203489218Y-89885849D01*
X203415859Y-89795902D01*
X203362906Y-89730975D01*
X203362903Y-89730972D01*
X203359011Y-89726200D01*
X203341786Y-89711950D01*
X203205025Y-89598811D01*
X203205021Y-89598809D01*
X203200275Y-89594882D01*
X203019055Y-89496897D01*
X202822254Y-89435977D01*
X202816129Y-89435333D01*
X202816128Y-89435333D01*
X202623498Y-89415087D01*
X202623496Y-89415087D01*
X202617369Y-89414443D01*
X202530529Y-89422346D01*
X202418342Y-89432555D01*
X202418339Y-89432556D01*
X202412203Y-89433114D01*
X202214572Y-89491280D01*
X202032002Y-89586726D01*
X202027201Y-89590586D01*
X202027198Y-89590588D01*
X202016971Y-89598811D01*
X201871447Y-89715815D01*
X201739024Y-89873630D01*
X201736056Y-89879028D01*
X201736053Y-89879033D01*
X201729315Y-89891290D01*
X201639776Y-90054162D01*
X201577484Y-90250532D01*
X201576798Y-90256649D01*
X201576797Y-90256653D01*
X201555207Y-90449137D01*
X201554520Y-90455262D01*
X190001000Y-90455262D01*
X190001000Y-88190000D01*
X191094540Y-88190000D01*
X191095230Y-88196565D01*
X191108631Y-88324066D01*
X191114326Y-88378256D01*
X191172821Y-88558284D01*
X191176124Y-88564006D01*
X191176125Y-88564007D01*
X191206237Y-88616162D01*
X191267467Y-88722216D01*
X191271885Y-88727123D01*
X191271886Y-88727124D01*
X191359144Y-88824033D01*
X191394129Y-88862888D01*
X191399468Y-88866767D01*
X191540932Y-88969546D01*
X191547270Y-88974151D01*
X191720197Y-89051144D01*
X191818212Y-89071978D01*
X191898897Y-89089128D01*
X191898901Y-89089128D01*
X191905354Y-89090500D01*
X192094646Y-89090500D01*
X192101099Y-89089128D01*
X192101103Y-89089128D01*
X192181788Y-89071978D01*
X192279803Y-89051144D01*
X192452730Y-88974151D01*
X192459069Y-88969546D01*
X192600532Y-88866767D01*
X192605871Y-88862888D01*
X192640857Y-88824033D01*
X192728114Y-88727124D01*
X192728115Y-88727123D01*
X192732533Y-88722216D01*
X192793763Y-88616162D01*
X192823875Y-88564007D01*
X192823876Y-88564006D01*
X192827179Y-88558284D01*
X192885674Y-88378256D01*
X192891370Y-88324066D01*
X192904770Y-88196565D01*
X192905460Y-88190000D01*
X195294540Y-88190000D01*
X195295230Y-88196565D01*
X195308631Y-88324066D01*
X195314326Y-88378256D01*
X195372821Y-88558284D01*
X195376124Y-88564006D01*
X195376125Y-88564007D01*
X195406237Y-88616162D01*
X195467467Y-88722216D01*
X195471885Y-88727123D01*
X195471886Y-88727124D01*
X195559144Y-88824033D01*
X195594129Y-88862888D01*
X195599468Y-88866767D01*
X195740932Y-88969546D01*
X195747270Y-88974151D01*
X195920197Y-89051144D01*
X196018212Y-89071978D01*
X196098897Y-89089128D01*
X196098901Y-89089128D01*
X196105354Y-89090500D01*
X196294646Y-89090500D01*
X196301099Y-89089128D01*
X196301103Y-89089128D01*
X196381788Y-89071978D01*
X196479803Y-89051144D01*
X196652730Y-88974151D01*
X196659069Y-88969546D01*
X196800532Y-88866767D01*
X196805871Y-88862888D01*
X196840857Y-88824033D01*
X196928114Y-88727124D01*
X196928115Y-88727123D01*
X196932533Y-88722216D01*
X196993763Y-88616162D01*
X197023875Y-88564007D01*
X197023876Y-88564006D01*
X197027179Y-88558284D01*
X197085674Y-88378256D01*
X197091370Y-88324066D01*
X197104770Y-88196565D01*
X197105460Y-88190000D01*
X197097607Y-88115283D01*
X197086364Y-88008307D01*
X197086364Y-88008305D01*
X197085674Y-88001744D01*
X197057574Y-87915262D01*
X201554520Y-87915262D01*
X201571759Y-88120553D01*
X201573458Y-88126478D01*
X201583032Y-88159865D01*
X201628544Y-88318586D01*
X201631359Y-88324063D01*
X201631360Y-88324066D01*
X201690586Y-88439308D01*
X201722712Y-88501818D01*
X201850677Y-88663270D01*
X201855370Y-88667264D01*
X201855371Y-88667265D01*
X201966564Y-88761897D01*
X202007564Y-88796791D01*
X202187398Y-88897297D01*
X202282238Y-88928112D01*
X202377471Y-88959056D01*
X202377475Y-88959057D01*
X202383329Y-88960959D01*
X202587894Y-88985351D01*
X202594029Y-88984879D01*
X202594031Y-88984879D01*
X202650039Y-88980569D01*
X202793300Y-88969546D01*
X202799230Y-88967890D01*
X202799232Y-88967890D01*
X202985797Y-88915800D01*
X202985796Y-88915800D01*
X202991725Y-88914145D01*
X202997214Y-88911372D01*
X202997220Y-88911370D01*
X203170116Y-88824033D01*
X203175610Y-88821258D01*
X203337951Y-88694424D01*
X203346743Y-88684239D01*
X203468540Y-88543134D01*
X203468540Y-88543133D01*
X203472564Y-88538472D01*
X203493387Y-88501818D01*
X203563579Y-88378256D01*
X203574323Y-88359344D01*
X203639351Y-88163863D01*
X203665171Y-87959474D01*
X203665583Y-87930000D01*
X203664138Y-87915262D01*
X219334520Y-87915262D01*
X219351759Y-88120553D01*
X219353458Y-88126478D01*
X219363032Y-88159865D01*
X219408544Y-88318586D01*
X219411359Y-88324063D01*
X219411360Y-88324066D01*
X219470586Y-88439308D01*
X219502712Y-88501818D01*
X219630677Y-88663270D01*
X219635370Y-88667264D01*
X219635371Y-88667265D01*
X219746564Y-88761897D01*
X219787564Y-88796791D01*
X219967398Y-88897297D01*
X220062238Y-88928112D01*
X220157471Y-88959056D01*
X220157475Y-88959057D01*
X220163329Y-88960959D01*
X220367894Y-88985351D01*
X220374029Y-88984879D01*
X220374031Y-88984879D01*
X220430039Y-88980569D01*
X220573300Y-88969546D01*
X220579230Y-88967890D01*
X220579232Y-88967890D01*
X220765797Y-88915800D01*
X220765796Y-88915800D01*
X220771725Y-88914145D01*
X220777214Y-88911372D01*
X220777220Y-88911370D01*
X220950116Y-88824033D01*
X220955610Y-88821258D01*
X221117951Y-88694424D01*
X221126743Y-88684239D01*
X221225568Y-88569748D01*
X228424500Y-88569748D01*
X228436133Y-88628231D01*
X228480448Y-88694552D01*
X228546769Y-88738867D01*
X228558938Y-88741288D01*
X228558939Y-88741288D01*
X228599184Y-88749293D01*
X228605252Y-88750500D01*
X229694748Y-88750500D01*
X229700816Y-88749293D01*
X229741061Y-88741288D01*
X229741062Y-88741288D01*
X229753231Y-88738867D01*
X229819552Y-88694552D01*
X229826443Y-88684239D01*
X229826447Y-88684235D01*
X229840117Y-88663776D01*
X229894593Y-88618248D01*
X229965036Y-88609399D01*
X230008167Y-88624823D01*
X230128738Y-88694856D01*
X230135740Y-88696977D01*
X230135743Y-88696978D01*
X230194879Y-88714888D01*
X230290650Y-88743895D01*
X230297959Y-88744348D01*
X230297962Y-88744349D01*
X230369338Y-88748777D01*
X230459501Y-88754370D01*
X230466717Y-88753130D01*
X230466719Y-88753130D01*
X230619017Y-88726960D01*
X230626233Y-88725720D01*
X230683288Y-88701443D01*
X230763452Y-88667333D01*
X230833966Y-88659067D01*
X230897755Y-88690236D01*
X230910428Y-88703638D01*
X230949572Y-88751634D01*
X230958216Y-88760338D01*
X231104809Y-88881610D01*
X231114980Y-88888470D01*
X231282342Y-88978962D01*
X231293647Y-88983714D01*
X231418692Y-89022422D01*
X231432795Y-89022628D01*
X231436000Y-89015873D01*
X231436000Y-89008986D01*
X231944000Y-89008986D01*
X231947973Y-89022517D01*
X231955768Y-89023637D01*
X232072932Y-88989154D01*
X232084300Y-88984561D01*
X232252911Y-88896414D01*
X232263173Y-88889698D01*
X232411443Y-88770485D01*
X232420213Y-88761897D01*
X232542499Y-88616162D01*
X232549437Y-88606031D01*
X232569384Y-88569748D01*
X245149500Y-88569748D01*
X245161133Y-88628231D01*
X245205448Y-88694552D01*
X245271769Y-88738867D01*
X245283938Y-88741288D01*
X245283939Y-88741288D01*
X245324184Y-88749293D01*
X245330252Y-88750500D01*
X247869748Y-88750500D01*
X247875816Y-88749293D01*
X247916061Y-88741288D01*
X247916062Y-88741288D01*
X247928231Y-88738867D01*
X247994552Y-88694552D01*
X248038867Y-88628231D01*
X248050500Y-88569748D01*
X248050500Y-86030252D01*
X248038867Y-85971769D01*
X247994552Y-85905448D01*
X247928231Y-85861133D01*
X247916062Y-85858712D01*
X247916061Y-85858712D01*
X247875816Y-85850707D01*
X247869748Y-85849500D01*
X245330252Y-85849500D01*
X245324184Y-85850707D01*
X245283939Y-85858712D01*
X245283938Y-85858712D01*
X245271769Y-85861133D01*
X245205448Y-85905448D01*
X245161133Y-85971769D01*
X245149500Y-86030252D01*
X245149500Y-88569748D01*
X232569384Y-88569748D01*
X232641094Y-88439308D01*
X232645924Y-88428038D01*
X232703451Y-88246687D01*
X232706002Y-88234690D01*
X232713033Y-88172004D01*
X232710481Y-88157473D01*
X232697936Y-88154000D01*
X231962115Y-88154000D01*
X231946876Y-88158475D01*
X231945671Y-88159865D01*
X231944000Y-88167548D01*
X231944000Y-89008986D01*
X231436000Y-89008986D01*
X231436000Y-87627885D01*
X231944000Y-87627885D01*
X231948475Y-87643124D01*
X231949865Y-87644329D01*
X231957548Y-87646000D01*
X232697234Y-87646000D01*
X232711661Y-87641764D01*
X232713722Y-87629410D01*
X232708830Y-87579519D01*
X232706447Y-87567481D01*
X232651458Y-87385349D01*
X232646783Y-87374007D01*
X232557465Y-87206023D01*
X232550678Y-87195807D01*
X232430428Y-87048366D01*
X232421784Y-87039662D01*
X232275191Y-86918390D01*
X232265020Y-86911530D01*
X232097658Y-86821038D01*
X232086353Y-86816286D01*
X231961308Y-86777578D01*
X231947205Y-86777372D01*
X231944000Y-86784127D01*
X231944000Y-87627885D01*
X231436000Y-87627885D01*
X231436000Y-86791014D01*
X231432027Y-86777483D01*
X231424232Y-86776363D01*
X231307068Y-86810846D01*
X231295700Y-86815439D01*
X231127089Y-86903586D01*
X231116827Y-86910302D01*
X230968556Y-87029516D01*
X230959789Y-87038101D01*
X230908669Y-87099022D01*
X230849559Y-87138348D01*
X230778571Y-87139474D01*
X230748862Y-87126984D01*
X230717589Y-87108819D01*
X230711262Y-87105144D01*
X230704260Y-87103023D01*
X230704257Y-87103022D01*
X230609358Y-87074280D01*
X230549350Y-87056105D01*
X230542041Y-87055652D01*
X230542038Y-87055651D01*
X230462337Y-87050707D01*
X230380499Y-87045630D01*
X230373283Y-87046870D01*
X230373281Y-87046870D01*
X230220983Y-87073040D01*
X230213767Y-87074280D01*
X230058098Y-87140518D01*
X230052207Y-87144853D01*
X230052204Y-87144855D01*
X230032192Y-87159582D01*
X230029651Y-87161453D01*
X230020090Y-87168489D01*
X229953370Y-87192756D01*
X229884121Y-87177099D01*
X229840642Y-87137010D01*
X229826445Y-87115763D01*
X229826443Y-87115761D01*
X229819552Y-87105448D01*
X229753231Y-87061133D01*
X229741062Y-87058712D01*
X229741061Y-87058712D01*
X229700816Y-87050707D01*
X229694748Y-87049500D01*
X228605252Y-87049500D01*
X228599184Y-87050707D01*
X228558939Y-87058712D01*
X228558938Y-87058712D01*
X228546769Y-87061133D01*
X228480448Y-87105448D01*
X228436133Y-87171769D01*
X228433712Y-87183938D01*
X228433712Y-87183939D01*
X228429319Y-87206023D01*
X228424500Y-87230252D01*
X228424500Y-88569748D01*
X221225568Y-88569748D01*
X221248540Y-88543134D01*
X221248540Y-88543133D01*
X221252564Y-88538472D01*
X221273387Y-88501818D01*
X221343579Y-88378256D01*
X221354323Y-88359344D01*
X221419351Y-88163863D01*
X221445171Y-87959474D01*
X221445583Y-87930000D01*
X221425480Y-87724970D01*
X221365935Y-87527749D01*
X221269218Y-87345849D01*
X221195859Y-87255902D01*
X221142906Y-87190975D01*
X221142903Y-87190972D01*
X221139011Y-87186200D01*
X221079551Y-87137010D01*
X220985025Y-87058811D01*
X220985021Y-87058809D01*
X220980275Y-87054882D01*
X220799055Y-86956897D01*
X220602254Y-86895977D01*
X220596129Y-86895333D01*
X220596128Y-86895333D01*
X220403498Y-86875087D01*
X220403496Y-86875087D01*
X220397369Y-86874443D01*
X220310529Y-86882346D01*
X220198342Y-86892555D01*
X220198339Y-86892556D01*
X220192203Y-86893114D01*
X219994572Y-86951280D01*
X219812002Y-87046726D01*
X219807201Y-87050586D01*
X219807198Y-87050588D01*
X219669310Y-87161453D01*
X219651447Y-87175815D01*
X219519024Y-87333630D01*
X219516056Y-87339028D01*
X219516053Y-87339033D01*
X219456182Y-87447939D01*
X219419776Y-87514162D01*
X219357484Y-87710532D01*
X219356798Y-87716649D01*
X219356797Y-87716653D01*
X219345655Y-87815993D01*
X219334520Y-87915262D01*
X203664138Y-87915262D01*
X203645480Y-87724970D01*
X203585935Y-87527749D01*
X203489218Y-87345849D01*
X203415859Y-87255902D01*
X203362906Y-87190975D01*
X203362903Y-87190972D01*
X203359011Y-87186200D01*
X203299551Y-87137010D01*
X203205025Y-87058811D01*
X203205021Y-87058809D01*
X203200275Y-87054882D01*
X203019055Y-86956897D01*
X202822254Y-86895977D01*
X202816129Y-86895333D01*
X202816128Y-86895333D01*
X202623498Y-86875087D01*
X202623496Y-86875087D01*
X202617369Y-86874443D01*
X202530529Y-86882346D01*
X202418342Y-86892555D01*
X202418339Y-86892556D01*
X202412203Y-86893114D01*
X202214572Y-86951280D01*
X202032002Y-87046726D01*
X202027201Y-87050586D01*
X202027198Y-87050588D01*
X201889310Y-87161453D01*
X201871447Y-87175815D01*
X201739024Y-87333630D01*
X201736056Y-87339028D01*
X201736053Y-87339033D01*
X201676182Y-87447939D01*
X201639776Y-87514162D01*
X201577484Y-87710532D01*
X201576798Y-87716649D01*
X201576797Y-87716653D01*
X201565655Y-87815993D01*
X201554520Y-87915262D01*
X197057574Y-87915262D01*
X197027179Y-87821716D01*
X196932533Y-87657784D01*
X196919333Y-87643124D01*
X196810286Y-87522015D01*
X196810284Y-87522014D01*
X196805871Y-87517112D01*
X196652730Y-87405849D01*
X196479803Y-87328856D01*
X196374437Y-87306460D01*
X196301103Y-87290872D01*
X196301099Y-87290872D01*
X196294646Y-87289500D01*
X196105354Y-87289500D01*
X196098901Y-87290872D01*
X196098897Y-87290872D01*
X196025563Y-87306460D01*
X195920197Y-87328856D01*
X195747270Y-87405849D01*
X195594129Y-87517112D01*
X195589716Y-87522014D01*
X195589714Y-87522015D01*
X195480667Y-87643124D01*
X195467467Y-87657784D01*
X195372821Y-87821716D01*
X195314326Y-88001744D01*
X195313636Y-88008305D01*
X195313636Y-88008307D01*
X195302393Y-88115283D01*
X195294540Y-88190000D01*
X192905460Y-88190000D01*
X192897607Y-88115283D01*
X192886364Y-88008307D01*
X192886364Y-88008305D01*
X192885674Y-88001744D01*
X192827179Y-87821716D01*
X192732533Y-87657784D01*
X192719333Y-87643124D01*
X192610286Y-87522015D01*
X192610284Y-87522014D01*
X192605871Y-87517112D01*
X192452730Y-87405849D01*
X192279803Y-87328856D01*
X192174437Y-87306460D01*
X192101103Y-87290872D01*
X192101099Y-87290872D01*
X192094646Y-87289500D01*
X191905354Y-87289500D01*
X191898901Y-87290872D01*
X191898897Y-87290872D01*
X191825563Y-87306460D01*
X191720197Y-87328856D01*
X191547270Y-87405849D01*
X191394129Y-87517112D01*
X191389716Y-87522014D01*
X191389714Y-87522015D01*
X191280667Y-87643124D01*
X191267467Y-87657784D01*
X191172821Y-87821716D01*
X191114326Y-88001744D01*
X191113636Y-88008305D01*
X191113636Y-88008307D01*
X191102393Y-88115283D01*
X191094540Y-88190000D01*
X190001000Y-88190000D01*
X190001000Y-84829748D01*
X190899500Y-84829748D01*
X190911133Y-84888231D01*
X190955448Y-84954552D01*
X191021769Y-84998867D01*
X191033938Y-85001288D01*
X191033939Y-85001288D01*
X191074184Y-85009293D01*
X191080252Y-85010500D01*
X192919748Y-85010500D01*
X192925816Y-85009293D01*
X192966061Y-85001288D01*
X192966062Y-85001288D01*
X192978231Y-84998867D01*
X193044552Y-84954552D01*
X193088867Y-84888231D01*
X193100500Y-84829748D01*
X195099500Y-84829748D01*
X195111133Y-84888231D01*
X195155448Y-84954552D01*
X195221769Y-84998867D01*
X195233938Y-85001288D01*
X195233939Y-85001288D01*
X195274184Y-85009293D01*
X195280252Y-85010500D01*
X197119748Y-85010500D01*
X197125816Y-85009293D01*
X197166061Y-85001288D01*
X197166062Y-85001288D01*
X197178231Y-84998867D01*
X197244552Y-84954552D01*
X197288867Y-84888231D01*
X197300500Y-84829748D01*
X197300500Y-83744669D01*
X201252001Y-83744669D01*
X201252371Y-83751490D01*
X201257895Y-83802352D01*
X201261521Y-83817604D01*
X201306676Y-83938054D01*
X201315214Y-83953649D01*
X201391715Y-84055724D01*
X201404276Y-84068285D01*
X201506351Y-84144786D01*
X201521946Y-84153324D01*
X201642394Y-84198478D01*
X201657649Y-84202105D01*
X201708514Y-84207631D01*
X201715328Y-84208000D01*
X202090432Y-84208000D01*
X202158553Y-84228002D01*
X202205046Y-84281658D01*
X202215150Y-84351932D01*
X202185656Y-84416512D01*
X202148812Y-84445659D01*
X202032002Y-84506726D01*
X202027201Y-84510586D01*
X202027198Y-84510588D01*
X202016971Y-84518811D01*
X201871447Y-84635815D01*
X201739024Y-84793630D01*
X201736056Y-84799028D01*
X201736053Y-84799033D01*
X201656226Y-84944239D01*
X201639776Y-84974162D01*
X201577484Y-85170532D01*
X201576798Y-85176649D01*
X201576797Y-85176653D01*
X201557130Y-85351997D01*
X201554520Y-85375262D01*
X201571759Y-85580553D01*
X201573458Y-85586478D01*
X201595368Y-85662886D01*
X201628544Y-85778586D01*
X201631359Y-85784063D01*
X201631360Y-85784066D01*
X201690200Y-85898557D01*
X201722712Y-85961818D01*
X201850677Y-86123270D01*
X202007564Y-86256791D01*
X202187398Y-86357297D01*
X202282238Y-86388113D01*
X202377471Y-86419056D01*
X202377475Y-86419057D01*
X202383329Y-86420959D01*
X202587894Y-86445351D01*
X202594029Y-86444879D01*
X202594031Y-86444879D01*
X202650039Y-86440569D01*
X202793300Y-86429546D01*
X202799230Y-86427890D01*
X202799232Y-86427890D01*
X202985797Y-86375800D01*
X202985796Y-86375800D01*
X202991725Y-86374145D01*
X202997214Y-86371372D01*
X202997220Y-86371370D01*
X203170116Y-86284033D01*
X203175610Y-86281258D01*
X203337951Y-86154424D01*
X203445133Y-86030252D01*
X203468540Y-86003134D01*
X203468540Y-86003133D01*
X203472564Y-85998472D01*
X203487734Y-85971769D01*
X203546668Y-85868026D01*
X203574323Y-85819344D01*
X203639351Y-85623863D01*
X203665171Y-85419474D01*
X203665583Y-85390000D01*
X203664138Y-85375262D01*
X219334520Y-85375262D01*
X219351759Y-85580553D01*
X219353458Y-85586478D01*
X219375368Y-85662886D01*
X219408544Y-85778586D01*
X219411359Y-85784063D01*
X219411360Y-85784066D01*
X219470200Y-85898557D01*
X219502712Y-85961818D01*
X219630677Y-86123270D01*
X219787564Y-86256791D01*
X219967398Y-86357297D01*
X220062238Y-86388113D01*
X220157471Y-86419056D01*
X220157475Y-86419057D01*
X220163329Y-86420959D01*
X220367894Y-86445351D01*
X220374029Y-86444879D01*
X220374031Y-86444879D01*
X220430039Y-86440569D01*
X220573300Y-86429546D01*
X220579230Y-86427890D01*
X220579232Y-86427890D01*
X220765797Y-86375800D01*
X220765796Y-86375800D01*
X220771725Y-86374145D01*
X220777214Y-86371372D01*
X220777220Y-86371370D01*
X220950116Y-86284033D01*
X220955610Y-86281258D01*
X221117951Y-86154424D01*
X221225133Y-86030252D01*
X221248540Y-86003134D01*
X221248540Y-86003133D01*
X221252564Y-85998472D01*
X221267734Y-85971769D01*
X221326668Y-85868026D01*
X221354323Y-85819344D01*
X221419351Y-85623863D01*
X221445171Y-85419474D01*
X221445583Y-85390000D01*
X221425480Y-85184970D01*
X221366614Y-84989998D01*
X256194539Y-84989998D01*
X256214325Y-85178254D01*
X256272820Y-85358282D01*
X256276123Y-85364004D01*
X256276124Y-85364005D01*
X256289108Y-85386494D01*
X256367466Y-85522214D01*
X256371884Y-85527121D01*
X256371885Y-85527122D01*
X256464261Y-85629715D01*
X256494128Y-85662886D01*
X256647269Y-85774149D01*
X256820196Y-85851142D01*
X256899630Y-85868026D01*
X256998896Y-85889126D01*
X256998900Y-85889126D01*
X257005353Y-85890498D01*
X257194645Y-85890498D01*
X257201098Y-85889126D01*
X257201102Y-85889126D01*
X257300368Y-85868026D01*
X257379802Y-85851142D01*
X257552729Y-85774149D01*
X257705870Y-85662886D01*
X257735738Y-85629715D01*
X257828113Y-85527122D01*
X257828114Y-85527121D01*
X257832532Y-85522214D01*
X257910890Y-85386494D01*
X257923874Y-85364005D01*
X257923875Y-85364004D01*
X257927178Y-85358282D01*
X257985673Y-85178254D01*
X258005459Y-84989998D01*
X257989254Y-84835816D01*
X257986363Y-84808305D01*
X257986363Y-84808303D01*
X257985673Y-84801742D01*
X257927178Y-84621714D01*
X257863020Y-84510588D01*
X257835835Y-84463503D01*
X257832532Y-84457782D01*
X257821619Y-84445662D01*
X257710285Y-84322013D01*
X257710283Y-84322012D01*
X257705870Y-84317110D01*
X257552729Y-84205847D01*
X257379802Y-84128854D01*
X257281787Y-84108020D01*
X257201102Y-84090870D01*
X257201098Y-84090870D01*
X257194645Y-84089498D01*
X257005353Y-84089498D01*
X256998900Y-84090870D01*
X256998896Y-84090870D01*
X256918211Y-84108020D01*
X256820196Y-84128854D01*
X256647269Y-84205847D01*
X256494128Y-84317110D01*
X256489715Y-84322012D01*
X256489713Y-84322013D01*
X256378379Y-84445662D01*
X256367466Y-84457782D01*
X256364163Y-84463503D01*
X256336979Y-84510588D01*
X256272820Y-84621714D01*
X256214325Y-84801742D01*
X256213635Y-84808303D01*
X256213635Y-84808305D01*
X256210744Y-84835816D01*
X256194539Y-84989998D01*
X221366614Y-84989998D01*
X221365935Y-84987749D01*
X221269218Y-84805849D01*
X221195859Y-84715902D01*
X221142906Y-84650975D01*
X221142903Y-84650972D01*
X221139011Y-84646200D01*
X221102495Y-84615991D01*
X220985025Y-84518811D01*
X220985021Y-84518809D01*
X220980275Y-84514882D01*
X220799055Y-84416897D01*
X220602254Y-84355977D01*
X220596129Y-84355333D01*
X220596128Y-84355333D01*
X220403498Y-84335087D01*
X220403496Y-84335087D01*
X220397369Y-84334443D01*
X220310529Y-84342346D01*
X220198342Y-84352555D01*
X220198339Y-84352556D01*
X220192203Y-84353114D01*
X219994572Y-84411280D01*
X219812002Y-84506726D01*
X219807201Y-84510586D01*
X219807198Y-84510588D01*
X219796971Y-84518811D01*
X219651447Y-84635815D01*
X219519024Y-84793630D01*
X219516056Y-84799028D01*
X219516053Y-84799033D01*
X219436226Y-84944239D01*
X219419776Y-84974162D01*
X219357484Y-85170532D01*
X219356798Y-85176649D01*
X219356797Y-85176653D01*
X219337130Y-85351997D01*
X219334520Y-85375262D01*
X203664138Y-85375262D01*
X203645480Y-85184970D01*
X203585935Y-84987749D01*
X203489218Y-84805849D01*
X203415859Y-84715902D01*
X203362906Y-84650975D01*
X203362903Y-84650972D01*
X203359011Y-84646200D01*
X203322495Y-84615991D01*
X203205025Y-84518811D01*
X203205021Y-84518809D01*
X203200275Y-84514882D01*
X203162252Y-84494323D01*
X203070726Y-84444835D01*
X203020317Y-84394840D01*
X203004940Y-84325529D01*
X203029476Y-84258907D01*
X203086136Y-84216126D01*
X203130655Y-84207999D01*
X203504669Y-84207999D01*
X203511490Y-84207629D01*
X203562352Y-84202105D01*
X203577604Y-84198479D01*
X203698054Y-84153324D01*
X203713649Y-84144786D01*
X203815724Y-84068285D01*
X203828285Y-84055724D01*
X203904786Y-83953649D01*
X203913324Y-83938054D01*
X203958478Y-83817606D01*
X203962105Y-83802351D01*
X203967631Y-83751486D01*
X203968000Y-83744672D01*
X203968000Y-83719748D01*
X219339500Y-83719748D01*
X219351133Y-83778231D01*
X219395448Y-83844552D01*
X219461769Y-83888867D01*
X219473938Y-83891288D01*
X219473939Y-83891288D01*
X219514184Y-83899293D01*
X219520252Y-83900500D01*
X221259748Y-83900500D01*
X221265816Y-83899293D01*
X221306061Y-83891288D01*
X221306062Y-83891288D01*
X221318231Y-83888867D01*
X221384552Y-83844552D01*
X221428867Y-83778231D01*
X221440500Y-83719748D01*
X221440500Y-83610000D01*
X228194540Y-83610000D01*
X228195230Y-83616565D01*
X228213306Y-83788547D01*
X228214326Y-83798256D01*
X228272821Y-83978284D01*
X228367467Y-84142216D01*
X228371885Y-84147123D01*
X228371886Y-84147124D01*
X228418127Y-84198479D01*
X228494129Y-84282888D01*
X228499468Y-84286767D01*
X228597236Y-84357799D01*
X228647270Y-84394151D01*
X228820197Y-84471144D01*
X228918212Y-84491978D01*
X228998897Y-84509128D01*
X228998901Y-84509128D01*
X229005354Y-84510500D01*
X229194646Y-84510500D01*
X229201099Y-84509128D01*
X229201103Y-84509128D01*
X229281788Y-84491978D01*
X229379803Y-84471144D01*
X229552730Y-84394151D01*
X229602765Y-84357799D01*
X229700532Y-84286767D01*
X229705871Y-84282888D01*
X229781874Y-84198479D01*
X229828114Y-84147124D01*
X229828115Y-84147123D01*
X229832533Y-84142216D01*
X229927179Y-83978284D01*
X229985674Y-83798256D01*
X229986695Y-83788547D01*
X230004770Y-83616565D01*
X230005460Y-83610000D01*
X229985674Y-83421744D01*
X229927179Y-83241716D01*
X229842327Y-83094747D01*
X255999499Y-83094747D01*
X256011132Y-83153230D01*
X256055447Y-83219551D01*
X256121768Y-83263866D01*
X256133937Y-83266287D01*
X256133938Y-83266287D01*
X256174183Y-83274292D01*
X256180251Y-83275499D01*
X258019747Y-83275499D01*
X258025815Y-83274292D01*
X258066060Y-83266287D01*
X258066061Y-83266287D01*
X258078230Y-83263866D01*
X258144551Y-83219551D01*
X258188866Y-83153230D01*
X258200499Y-83094747D01*
X258200499Y-81255251D01*
X258188866Y-81196768D01*
X258172850Y-81172798D01*
X258151442Y-81140760D01*
X258144551Y-81130447D01*
X258078230Y-81086132D01*
X258066061Y-81083711D01*
X258066060Y-81083711D01*
X258025815Y-81075706D01*
X258019747Y-81074499D01*
X256180251Y-81074499D01*
X256174183Y-81075706D01*
X256133938Y-81083711D01*
X256133937Y-81083711D01*
X256121768Y-81086132D01*
X256055447Y-81130447D01*
X256048556Y-81140760D01*
X256027149Y-81172798D01*
X256011132Y-81196768D01*
X255999499Y-81255251D01*
X255999499Y-83094747D01*
X229842327Y-83094747D01*
X229832533Y-83077784D01*
X229828114Y-83072876D01*
X229710286Y-82942015D01*
X229710284Y-82942014D01*
X229705871Y-82937112D01*
X229552730Y-82825849D01*
X229379803Y-82748856D01*
X229281788Y-82728022D01*
X229201103Y-82710872D01*
X229201099Y-82710872D01*
X229194646Y-82709500D01*
X229005354Y-82709500D01*
X228998901Y-82710872D01*
X228998897Y-82710872D01*
X228918212Y-82728022D01*
X228820197Y-82748856D01*
X228647270Y-82825849D01*
X228494129Y-82937112D01*
X228489716Y-82942014D01*
X228489714Y-82942015D01*
X228371886Y-83072876D01*
X228367467Y-83077784D01*
X228272821Y-83241716D01*
X228214326Y-83421744D01*
X228194540Y-83610000D01*
X221440500Y-83610000D01*
X221440500Y-81980252D01*
X221428867Y-81921769D01*
X221384552Y-81855448D01*
X221318231Y-81811133D01*
X221306062Y-81808712D01*
X221306061Y-81808712D01*
X221265816Y-81800707D01*
X221259748Y-81799500D01*
X219520252Y-81799500D01*
X219514184Y-81800707D01*
X219473939Y-81808712D01*
X219473938Y-81808712D01*
X219461769Y-81811133D01*
X219395448Y-81855448D01*
X219351133Y-81921769D01*
X219339500Y-81980252D01*
X219339500Y-83719748D01*
X203968000Y-83719748D01*
X203968000Y-83122115D01*
X203963525Y-83106876D01*
X203962135Y-83105671D01*
X203954452Y-83104000D01*
X201270116Y-83104000D01*
X201254877Y-83108475D01*
X201253672Y-83109865D01*
X201252001Y-83117548D01*
X201252001Y-83744669D01*
X197300500Y-83744669D01*
X197300500Y-82990252D01*
X197288867Y-82931769D01*
X197244552Y-82865448D01*
X197178231Y-82821133D01*
X197166062Y-82818712D01*
X197166061Y-82818712D01*
X197125816Y-82810707D01*
X197119748Y-82809500D01*
X195280252Y-82809500D01*
X195274184Y-82810707D01*
X195233939Y-82818712D01*
X195233938Y-82818712D01*
X195221769Y-82821133D01*
X195155448Y-82865448D01*
X195111133Y-82931769D01*
X195099500Y-82990252D01*
X195099500Y-84829748D01*
X193100500Y-84829748D01*
X193100500Y-82990252D01*
X193088867Y-82931769D01*
X193044552Y-82865448D01*
X192978231Y-82821133D01*
X192966062Y-82818712D01*
X192966061Y-82818712D01*
X192925816Y-82810707D01*
X192919748Y-82809500D01*
X191080252Y-82809500D01*
X191074184Y-82810707D01*
X191033939Y-82818712D01*
X191033938Y-82818712D01*
X191021769Y-82821133D01*
X190955448Y-82865448D01*
X190911133Y-82931769D01*
X190899500Y-82990252D01*
X190899500Y-84829748D01*
X190001000Y-84829748D01*
X190001000Y-82577885D01*
X201252000Y-82577885D01*
X201256475Y-82593124D01*
X201257865Y-82594329D01*
X201265548Y-82596000D01*
X203949884Y-82596000D01*
X203965123Y-82591525D01*
X203966328Y-82590135D01*
X203967999Y-82582452D01*
X203967999Y-81955331D01*
X203967629Y-81948510D01*
X203962105Y-81897648D01*
X203958479Y-81882396D01*
X203913324Y-81761946D01*
X203904786Y-81746351D01*
X203828285Y-81644276D01*
X203815724Y-81631715D01*
X203713649Y-81555214D01*
X203698054Y-81546676D01*
X203577606Y-81501522D01*
X203562351Y-81497895D01*
X203511486Y-81492369D01*
X203504672Y-81492000D01*
X203128932Y-81492000D01*
X203060811Y-81471998D01*
X203014318Y-81418342D01*
X203004214Y-81348068D01*
X203033708Y-81283488D01*
X203072121Y-81253534D01*
X203175610Y-81201258D01*
X203210054Y-81174348D01*
X203274925Y-81123665D01*
X203337951Y-81074424D01*
X203354610Y-81055125D01*
X203468540Y-80923134D01*
X203468540Y-80923133D01*
X203472564Y-80918472D01*
X203485977Y-80894862D01*
X203511056Y-80850714D01*
X203574323Y-80739344D01*
X203639351Y-80543863D01*
X203665171Y-80339474D01*
X203665583Y-80310000D01*
X203664138Y-80295262D01*
X219334520Y-80295262D01*
X219336053Y-80313522D01*
X219350881Y-80490093D01*
X219351759Y-80500553D01*
X219353458Y-80506478D01*
X219404970Y-80686121D01*
X219408544Y-80698586D01*
X219411359Y-80704063D01*
X219411360Y-80704066D01*
X219468208Y-80814681D01*
X219502712Y-80881818D01*
X219630677Y-81043270D01*
X219635370Y-81047264D01*
X219635371Y-81047265D01*
X219750707Y-81145423D01*
X219787564Y-81176791D01*
X219792942Y-81179797D01*
X219792944Y-81179798D01*
X219824563Y-81197469D01*
X219967398Y-81277297D01*
X220062238Y-81308113D01*
X220157471Y-81339056D01*
X220157475Y-81339057D01*
X220163329Y-81340959D01*
X220367894Y-81365351D01*
X220374029Y-81364879D01*
X220374031Y-81364879D01*
X220430039Y-81360569D01*
X220573300Y-81349546D01*
X220579230Y-81347890D01*
X220579232Y-81347890D01*
X220765797Y-81295800D01*
X220765796Y-81295800D01*
X220771725Y-81294145D01*
X220777214Y-81291372D01*
X220777220Y-81291370D01*
X220950116Y-81204033D01*
X220955610Y-81201258D01*
X220990054Y-81174348D01*
X221054925Y-81123665D01*
X221117951Y-81074424D01*
X221134610Y-81055125D01*
X221248540Y-80923134D01*
X221248540Y-80923133D01*
X221252564Y-80918472D01*
X221265977Y-80894862D01*
X221291056Y-80850714D01*
X221354323Y-80739344D01*
X221419351Y-80543863D01*
X221445171Y-80339474D01*
X221445583Y-80310000D01*
X221425480Y-80104970D01*
X221365935Y-79907749D01*
X221269218Y-79725849D01*
X221219134Y-79664440D01*
X245144963Y-79664440D01*
X245145260Y-79669592D01*
X245145260Y-79669596D01*
X245158396Y-79897403D01*
X245158397Y-79897409D01*
X245158694Y-79902562D01*
X245182360Y-80007577D01*
X245201055Y-80090532D01*
X245211131Y-80135245D01*
X245213075Y-80140032D01*
X245213076Y-80140036D01*
X245263997Y-80265438D01*
X245300867Y-80356239D01*
X245303572Y-80360654D01*
X245303573Y-80360655D01*
X245317332Y-80383107D01*
X245425493Y-80559609D01*
X245581660Y-80739894D01*
X245765176Y-80892252D01*
X245971112Y-81012591D01*
X246193937Y-81097680D01*
X246199005Y-81098711D01*
X246199008Y-81098712D01*
X246314267Y-81122162D01*
X246427666Y-81145233D01*
X246432839Y-81145423D01*
X246432842Y-81145423D01*
X246660861Y-81153784D01*
X246660865Y-81153784D01*
X246666025Y-81153973D01*
X246671146Y-81153317D01*
X246897489Y-81124321D01*
X246897490Y-81124321D01*
X246902609Y-81123665D01*
X247131068Y-81055125D01*
X247345264Y-80950191D01*
X247389733Y-80918472D01*
X247535242Y-80814681D01*
X247539445Y-80811683D01*
X247587776Y-80763521D01*
X247704736Y-80646968D01*
X247708397Y-80643320D01*
X247735640Y-80605408D01*
X247844564Y-80453823D01*
X247847582Y-80449623D01*
X247879400Y-80385246D01*
X247950969Y-80240437D01*
X247950970Y-80240435D01*
X247953263Y-80235795D01*
X248022600Y-80007577D01*
X248035743Y-79907749D01*
X248053296Y-79774421D01*
X248053297Y-79774414D01*
X248053733Y-79771099D01*
X248055138Y-79713630D01*
X248055389Y-79703364D01*
X248055389Y-79703360D01*
X248055471Y-79700000D01*
X248047749Y-79606068D01*
X255995163Y-79606068D01*
X256008391Y-79807893D01*
X256058177Y-80003927D01*
X256142855Y-80187606D01*
X256146188Y-80192322D01*
X256229565Y-80310298D01*
X256259587Y-80352779D01*
X256263729Y-80356814D01*
X256296076Y-80388325D01*
X256404465Y-80493912D01*
X256572636Y-80606281D01*
X256577939Y-80608559D01*
X256577942Y-80608561D01*
X256753162Y-80683841D01*
X256758469Y-80686121D01*
X256955739Y-80730759D01*
X256961508Y-80730986D01*
X256961511Y-80730986D01*
X257037682Y-80733978D01*
X257157841Y-80738699D01*
X257244131Y-80726188D01*
X257352285Y-80710507D01*
X257352290Y-80710506D01*
X257358006Y-80709677D01*
X257363478Y-80707819D01*
X257363480Y-80707819D01*
X257544066Y-80646518D01*
X257544068Y-80646517D01*
X257549530Y-80644663D01*
X257701406Y-80559609D01*
X257720963Y-80548657D01*
X257720964Y-80548656D01*
X257726000Y-80545836D01*
X257788432Y-80493912D01*
X257877072Y-80420190D01*
X257881504Y-80416504D01*
X258004791Y-80268268D01*
X258007145Y-80265438D01*
X258010836Y-80261000D01*
X258109663Y-80084530D01*
X258169673Y-79907749D01*
X258172819Y-79898480D01*
X258172819Y-79898478D01*
X258174677Y-79893006D01*
X258175506Y-79887290D01*
X258175507Y-79887285D01*
X258198913Y-79725849D01*
X258203699Y-79692841D01*
X258205214Y-79634999D01*
X258186707Y-79433590D01*
X258183966Y-79423869D01*
X258157362Y-79329540D01*
X258131806Y-79238925D01*
X258042350Y-79057526D01*
X258024078Y-79033056D01*
X257924787Y-78900090D01*
X257924786Y-78900089D01*
X257921334Y-78895466D01*
X257898349Y-78874219D01*
X257777052Y-78762093D01*
X257777050Y-78762091D01*
X257772811Y-78758173D01*
X257742742Y-78739201D01*
X257606636Y-78653324D01*
X257601756Y-78650245D01*
X257413897Y-78575297D01*
X257215525Y-78535838D01*
X257209751Y-78535762D01*
X257209747Y-78535762D01*
X257107256Y-78534421D01*
X257013285Y-78533191D01*
X257007588Y-78534170D01*
X257007587Y-78534170D01*
X256819645Y-78566464D01*
X256819644Y-78566464D01*
X256813948Y-78567443D01*
X256624192Y-78637448D01*
X256619231Y-78640400D01*
X256619230Y-78640400D01*
X256456361Y-78737297D01*
X256450370Y-78740861D01*
X256298304Y-78874219D01*
X256173088Y-79033056D01*
X256078913Y-79212052D01*
X256018936Y-79405212D01*
X255995163Y-79606068D01*
X248047749Y-79606068D01*
X248044148Y-79562271D01*
X248036351Y-79467435D01*
X248036350Y-79467429D01*
X248035927Y-79462284D01*
X247989588Y-79277799D01*
X247979080Y-79235963D01*
X247979079Y-79235959D01*
X247977821Y-79230952D01*
X247975762Y-79226216D01*
X247884772Y-79016953D01*
X247884770Y-79016950D01*
X247882712Y-79012216D01*
X247753155Y-78811951D01*
X247743817Y-78801688D01*
X247596107Y-78639358D01*
X247596105Y-78639357D01*
X247592629Y-78635536D01*
X247588578Y-78632337D01*
X247588574Y-78632333D01*
X247409500Y-78490909D01*
X247409496Y-78490907D01*
X247405445Y-78487707D01*
X247366125Y-78466001D01*
X247216010Y-78383134D01*
X247196631Y-78372436D01*
X247191762Y-78370712D01*
X247191758Y-78370710D01*
X246976663Y-78294541D01*
X246976661Y-78294540D01*
X246971794Y-78292817D01*
X246854383Y-78271902D01*
X246742060Y-78251894D01*
X246742056Y-78251894D01*
X246736972Y-78250988D01*
X246653140Y-78249964D01*
X246503640Y-78248137D01*
X246503638Y-78248137D01*
X246498471Y-78248074D01*
X246262698Y-78284153D01*
X246035982Y-78358255D01*
X246031394Y-78360643D01*
X246031390Y-78360645D01*
X245829003Y-78466001D01*
X245824414Y-78468390D01*
X245820281Y-78471493D01*
X245820278Y-78471495D01*
X245683529Y-78574170D01*
X245633675Y-78611602D01*
X245468887Y-78784042D01*
X245334475Y-78981082D01*
X245234051Y-79197428D01*
X245170309Y-79427272D01*
X245169760Y-79432409D01*
X245154952Y-79570975D01*
X245144963Y-79664440D01*
X221219134Y-79664440D01*
X221192109Y-79631304D01*
X221142906Y-79570975D01*
X221142903Y-79570972D01*
X221139011Y-79566200D01*
X221019625Y-79467435D01*
X220985025Y-79438811D01*
X220985021Y-79438809D01*
X220980275Y-79434882D01*
X220799055Y-79336897D01*
X220602254Y-79275977D01*
X220596129Y-79275333D01*
X220596128Y-79275333D01*
X220403498Y-79255087D01*
X220403496Y-79255087D01*
X220397369Y-79254443D01*
X220310529Y-79262346D01*
X220198342Y-79272555D01*
X220198339Y-79272556D01*
X220192203Y-79273114D01*
X219994572Y-79331280D01*
X219812002Y-79426726D01*
X219807201Y-79430586D01*
X219807198Y-79430588D01*
X219761370Y-79467435D01*
X219651447Y-79555815D01*
X219519024Y-79713630D01*
X219516056Y-79719028D01*
X219516053Y-79719033D01*
X219464123Y-79813495D01*
X219419776Y-79894162D01*
X219357484Y-80090532D01*
X219356798Y-80096649D01*
X219356797Y-80096653D01*
X219337268Y-80270763D01*
X219334520Y-80295262D01*
X203664138Y-80295262D01*
X203645480Y-80104970D01*
X203585935Y-79907749D01*
X203489218Y-79725849D01*
X203412109Y-79631304D01*
X203362906Y-79570975D01*
X203362903Y-79570972D01*
X203359011Y-79566200D01*
X203239625Y-79467435D01*
X203205025Y-79438811D01*
X203205021Y-79438809D01*
X203200275Y-79434882D01*
X203019055Y-79336897D01*
X202822254Y-79275977D01*
X202816129Y-79275333D01*
X202816128Y-79275333D01*
X202623498Y-79255087D01*
X202623496Y-79255087D01*
X202617369Y-79254443D01*
X202530529Y-79262346D01*
X202418342Y-79272555D01*
X202418339Y-79272556D01*
X202412203Y-79273114D01*
X202214572Y-79331280D01*
X202032002Y-79426726D01*
X202027201Y-79430586D01*
X202027198Y-79430588D01*
X201981370Y-79467435D01*
X201871447Y-79555815D01*
X201739024Y-79713630D01*
X201736056Y-79719028D01*
X201736053Y-79719033D01*
X201684123Y-79813495D01*
X201639776Y-79894162D01*
X201577484Y-80090532D01*
X201576798Y-80096649D01*
X201576797Y-80096653D01*
X201557268Y-80270763D01*
X201554520Y-80295262D01*
X201556053Y-80313522D01*
X201570881Y-80490093D01*
X201571759Y-80500553D01*
X201573458Y-80506478D01*
X201624970Y-80686121D01*
X201628544Y-80698586D01*
X201631359Y-80704063D01*
X201631360Y-80704066D01*
X201688208Y-80814681D01*
X201722712Y-80881818D01*
X201850677Y-81043270D01*
X201855370Y-81047264D01*
X201855371Y-81047265D01*
X201970707Y-81145423D01*
X202007564Y-81176791D01*
X202149315Y-81256013D01*
X202199020Y-81306707D01*
X202213428Y-81376226D01*
X202187964Y-81442499D01*
X202130713Y-81484484D01*
X202087844Y-81492001D01*
X201715331Y-81492001D01*
X201708510Y-81492371D01*
X201657648Y-81497895D01*
X201642396Y-81501521D01*
X201521946Y-81546676D01*
X201506351Y-81555214D01*
X201404276Y-81631715D01*
X201391715Y-81644276D01*
X201315214Y-81746351D01*
X201306676Y-81761946D01*
X201261522Y-81882394D01*
X201257895Y-81897649D01*
X201252369Y-81948514D01*
X201252000Y-81955328D01*
X201252000Y-82577885D01*
X190001000Y-82577885D01*
X190001000Y-81341069D01*
X190895164Y-81341069D01*
X190908392Y-81542894D01*
X190958178Y-81738928D01*
X191042856Y-81922607D01*
X191159588Y-82087780D01*
X191304466Y-82228913D01*
X191472637Y-82341282D01*
X191477940Y-82343560D01*
X191477943Y-82343562D01*
X191566291Y-82381519D01*
X191658470Y-82421122D01*
X191855740Y-82465760D01*
X191861509Y-82465987D01*
X191861512Y-82465987D01*
X191937683Y-82468979D01*
X192057842Y-82473700D01*
X192144132Y-82461189D01*
X192252286Y-82445508D01*
X192252291Y-82445507D01*
X192258007Y-82444678D01*
X192263479Y-82442820D01*
X192263481Y-82442820D01*
X192444067Y-82381519D01*
X192444069Y-82381518D01*
X192449531Y-82379664D01*
X192626001Y-82280837D01*
X192688433Y-82228913D01*
X192777073Y-82155191D01*
X192781505Y-82151505D01*
X192910837Y-81996001D01*
X193009664Y-81819531D01*
X193034506Y-81746351D01*
X193072820Y-81633481D01*
X193072820Y-81633479D01*
X193074678Y-81628007D01*
X193075507Y-81622291D01*
X193075508Y-81622286D01*
X193103167Y-81431516D01*
X193103700Y-81427842D01*
X193105215Y-81370000D01*
X193102557Y-81341069D01*
X195095164Y-81341069D01*
X195108392Y-81542894D01*
X195158178Y-81738928D01*
X195242856Y-81922607D01*
X195359588Y-82087780D01*
X195504466Y-82228913D01*
X195672637Y-82341282D01*
X195677940Y-82343560D01*
X195677943Y-82343562D01*
X195766291Y-82381519D01*
X195858470Y-82421122D01*
X196055740Y-82465760D01*
X196061509Y-82465987D01*
X196061512Y-82465987D01*
X196137683Y-82468979D01*
X196257842Y-82473700D01*
X196344132Y-82461189D01*
X196452286Y-82445508D01*
X196452291Y-82445507D01*
X196458007Y-82444678D01*
X196463479Y-82442820D01*
X196463481Y-82442820D01*
X196644067Y-82381519D01*
X196644069Y-82381518D01*
X196649531Y-82379664D01*
X196826001Y-82280837D01*
X196888433Y-82228913D01*
X196977073Y-82155191D01*
X196981505Y-82151505D01*
X197110837Y-81996001D01*
X197209664Y-81819531D01*
X197234506Y-81746351D01*
X197272820Y-81633481D01*
X197272820Y-81633479D01*
X197274678Y-81628007D01*
X197275507Y-81622291D01*
X197275508Y-81622286D01*
X197303167Y-81431516D01*
X197303700Y-81427842D01*
X197305215Y-81370000D01*
X197286708Y-81168591D01*
X197280121Y-81145233D01*
X197243231Y-81014434D01*
X197231807Y-80973926D01*
X197142351Y-80792527D01*
X197124079Y-80768057D01*
X197024788Y-80635091D01*
X197024787Y-80635090D01*
X197021335Y-80630467D01*
X196995171Y-80606281D01*
X196877053Y-80497094D01*
X196877051Y-80497092D01*
X196872812Y-80493174D01*
X196845374Y-80475862D01*
X196706637Y-80388325D01*
X196701757Y-80385246D01*
X196513898Y-80310298D01*
X196315526Y-80270839D01*
X196309752Y-80270763D01*
X196309748Y-80270763D01*
X196207257Y-80269422D01*
X196113286Y-80268192D01*
X196107589Y-80269171D01*
X196107588Y-80269171D01*
X195919646Y-80301465D01*
X195919645Y-80301465D01*
X195913949Y-80302444D01*
X195724193Y-80372449D01*
X195719232Y-80375401D01*
X195719231Y-80375401D01*
X195657593Y-80412072D01*
X195550371Y-80475862D01*
X195398305Y-80609220D01*
X195273089Y-80768057D01*
X195178914Y-80947053D01*
X195118937Y-81140213D01*
X195095164Y-81341069D01*
X193102557Y-81341069D01*
X193086708Y-81168591D01*
X193080121Y-81145233D01*
X193043231Y-81014434D01*
X193031807Y-80973926D01*
X192942351Y-80792527D01*
X192924079Y-80768057D01*
X192824788Y-80635091D01*
X192824787Y-80635090D01*
X192821335Y-80630467D01*
X192795171Y-80606281D01*
X192677053Y-80497094D01*
X192677051Y-80497092D01*
X192672812Y-80493174D01*
X192645374Y-80475862D01*
X192506637Y-80388325D01*
X192501757Y-80385246D01*
X192313898Y-80310298D01*
X192115526Y-80270839D01*
X192109752Y-80270763D01*
X192109748Y-80270763D01*
X192007257Y-80269422D01*
X191913286Y-80268192D01*
X191907589Y-80269171D01*
X191907588Y-80269171D01*
X191719646Y-80301465D01*
X191719645Y-80301465D01*
X191713949Y-80302444D01*
X191524193Y-80372449D01*
X191519232Y-80375401D01*
X191519231Y-80375401D01*
X191457593Y-80412072D01*
X191350371Y-80475862D01*
X191198305Y-80609220D01*
X191073089Y-80768057D01*
X190978914Y-80947053D01*
X190918937Y-81140213D01*
X190895164Y-81341069D01*
X190001000Y-81341069D01*
X190001000Y-77755262D01*
X201554520Y-77755262D01*
X201571759Y-77960553D01*
X201628544Y-78158586D01*
X201631359Y-78164063D01*
X201631360Y-78164066D01*
X201692674Y-78283371D01*
X201722712Y-78341818D01*
X201850677Y-78503270D01*
X201855370Y-78507264D01*
X201855371Y-78507265D01*
X201974319Y-78608497D01*
X202007564Y-78636791D01*
X202012942Y-78639797D01*
X202012944Y-78639798D01*
X202031637Y-78650245D01*
X202187398Y-78737297D01*
X202251648Y-78758173D01*
X202377471Y-78799056D01*
X202377475Y-78799057D01*
X202383329Y-78800959D01*
X202587894Y-78825351D01*
X202594029Y-78824879D01*
X202594031Y-78824879D01*
X202650039Y-78820569D01*
X202793300Y-78809546D01*
X202799230Y-78807890D01*
X202799232Y-78807890D01*
X202985797Y-78755800D01*
X202985796Y-78755800D01*
X202991725Y-78754145D01*
X202997214Y-78751372D01*
X202997220Y-78751370D01*
X203170116Y-78664033D01*
X203175610Y-78661258D01*
X203337951Y-78534424D01*
X203392270Y-78471495D01*
X203468540Y-78383134D01*
X203468540Y-78383133D01*
X203472564Y-78378472D01*
X203476974Y-78370710D01*
X203511056Y-78310714D01*
X203574323Y-78199344D01*
X203639351Y-78003863D01*
X203665171Y-77799474D01*
X203665583Y-77770000D01*
X203664138Y-77755262D01*
X219334520Y-77755262D01*
X219351759Y-77960553D01*
X219408544Y-78158586D01*
X219411359Y-78164063D01*
X219411360Y-78164066D01*
X219472674Y-78283371D01*
X219502712Y-78341818D01*
X219630677Y-78503270D01*
X219635370Y-78507264D01*
X219635371Y-78507265D01*
X219754319Y-78608497D01*
X219787564Y-78636791D01*
X219792942Y-78639797D01*
X219792944Y-78639798D01*
X219811637Y-78650245D01*
X219967398Y-78737297D01*
X220031648Y-78758173D01*
X220157471Y-78799056D01*
X220157475Y-78799057D01*
X220163329Y-78800959D01*
X220367894Y-78825351D01*
X220374029Y-78824879D01*
X220374031Y-78824879D01*
X220430039Y-78820569D01*
X220573300Y-78809546D01*
X220579230Y-78807890D01*
X220579232Y-78807890D01*
X220765797Y-78755800D01*
X220765796Y-78755800D01*
X220771725Y-78754145D01*
X220777214Y-78751372D01*
X220777220Y-78751370D01*
X220950116Y-78664033D01*
X220955610Y-78661258D01*
X221117951Y-78534424D01*
X221172270Y-78471495D01*
X221248540Y-78383134D01*
X221248540Y-78383133D01*
X221252564Y-78378472D01*
X221256974Y-78370710D01*
X221291056Y-78310714D01*
X221354323Y-78199344D01*
X221419351Y-78003863D01*
X221445171Y-77799474D01*
X221445583Y-77770000D01*
X221425480Y-77564970D01*
X221365935Y-77367749D01*
X221269218Y-77185849D01*
X221195859Y-77095902D01*
X221142906Y-77030975D01*
X221142903Y-77030972D01*
X221139011Y-77026200D01*
X221121786Y-77011950D01*
X220985025Y-76898811D01*
X220985021Y-76898809D01*
X220980275Y-76894882D01*
X220799055Y-76796897D01*
X220602254Y-76735977D01*
X220596129Y-76735333D01*
X220596128Y-76735333D01*
X220403498Y-76715087D01*
X220403496Y-76715087D01*
X220397369Y-76714443D01*
X220310529Y-76722346D01*
X220198342Y-76732555D01*
X220198339Y-76732556D01*
X220192203Y-76733114D01*
X219994572Y-76791280D01*
X219812002Y-76886726D01*
X219807201Y-76890586D01*
X219807198Y-76890588D01*
X219796971Y-76898811D01*
X219651447Y-77015815D01*
X219519024Y-77173630D01*
X219516056Y-77179028D01*
X219516053Y-77179033D01*
X219509315Y-77191290D01*
X219419776Y-77354162D01*
X219357484Y-77550532D01*
X219356798Y-77556649D01*
X219356797Y-77556653D01*
X219335207Y-77749137D01*
X219334520Y-77755262D01*
X203664138Y-77755262D01*
X203645480Y-77564970D01*
X203585935Y-77367749D01*
X203489218Y-77185849D01*
X203415859Y-77095902D01*
X203362906Y-77030975D01*
X203362903Y-77030972D01*
X203359011Y-77026200D01*
X203341786Y-77011950D01*
X203205025Y-76898811D01*
X203205021Y-76898809D01*
X203200275Y-76894882D01*
X203019055Y-76796897D01*
X202822254Y-76735977D01*
X202816129Y-76735333D01*
X202816128Y-76735333D01*
X202623498Y-76715087D01*
X202623496Y-76715087D01*
X202617369Y-76714443D01*
X202530529Y-76722346D01*
X202418342Y-76732555D01*
X202418339Y-76732556D01*
X202412203Y-76733114D01*
X202214572Y-76791280D01*
X202032002Y-76886726D01*
X202027201Y-76890586D01*
X202027198Y-76890588D01*
X202016971Y-76898811D01*
X201871447Y-77015815D01*
X201739024Y-77173630D01*
X201736056Y-77179028D01*
X201736053Y-77179033D01*
X201729315Y-77191290D01*
X201639776Y-77354162D01*
X201577484Y-77550532D01*
X201576798Y-77556649D01*
X201576797Y-77556653D01*
X201555207Y-77749137D01*
X201554520Y-77755262D01*
X190001000Y-77755262D01*
X190001000Y-75215262D01*
X201554520Y-75215262D01*
X201571759Y-75420553D01*
X201628544Y-75618586D01*
X201631359Y-75624063D01*
X201631360Y-75624066D01*
X201719897Y-75796341D01*
X201722712Y-75801818D01*
X201850677Y-75963270D01*
X201855370Y-75967264D01*
X201855371Y-75967265D01*
X201889799Y-75996565D01*
X202007564Y-76096791D01*
X202187398Y-76197297D01*
X202282238Y-76228113D01*
X202377471Y-76259056D01*
X202377475Y-76259057D01*
X202383329Y-76260959D01*
X202587894Y-76285351D01*
X202594029Y-76284879D01*
X202594031Y-76284879D01*
X202650039Y-76280569D01*
X202793300Y-76269546D01*
X202799230Y-76267890D01*
X202799232Y-76267890D01*
X202985797Y-76215800D01*
X202985796Y-76215800D01*
X202991725Y-76214145D01*
X202997214Y-76211372D01*
X202997220Y-76211370D01*
X203170116Y-76124033D01*
X203175610Y-76121258D01*
X203337951Y-75994424D01*
X203347437Y-75983435D01*
X203468540Y-75843134D01*
X203468540Y-75843133D01*
X203472564Y-75838472D01*
X203493387Y-75801818D01*
X203571276Y-75664707D01*
X203574323Y-75659344D01*
X203639351Y-75463863D01*
X203665171Y-75259474D01*
X203665583Y-75230000D01*
X203664138Y-75215262D01*
X219334520Y-75215262D01*
X219351759Y-75420553D01*
X219408544Y-75618586D01*
X219411359Y-75624063D01*
X219411360Y-75624066D01*
X219499897Y-75796341D01*
X219502712Y-75801818D01*
X219630677Y-75963270D01*
X219635370Y-75967264D01*
X219635371Y-75967265D01*
X219669799Y-75996565D01*
X219787564Y-76096791D01*
X219967398Y-76197297D01*
X220062238Y-76228113D01*
X220157471Y-76259056D01*
X220157475Y-76259057D01*
X220163329Y-76260959D01*
X220367894Y-76285351D01*
X220374029Y-76284879D01*
X220374031Y-76284879D01*
X220430039Y-76280569D01*
X220573300Y-76269546D01*
X220579230Y-76267890D01*
X220579232Y-76267890D01*
X220765797Y-76215800D01*
X220765796Y-76215800D01*
X220771725Y-76214145D01*
X220777214Y-76211372D01*
X220777220Y-76211370D01*
X220950116Y-76124033D01*
X220955610Y-76121258D01*
X221117951Y-75994424D01*
X221121770Y-75990000D01*
X228194540Y-75990000D01*
X228214326Y-76178256D01*
X228272821Y-76358284D01*
X228367467Y-76522216D01*
X228494129Y-76662888D01*
X228499468Y-76666767D01*
X228597236Y-76737799D01*
X228647270Y-76774151D01*
X228820197Y-76851144D01*
X228918212Y-76871978D01*
X228998897Y-76889128D01*
X228998901Y-76889128D01*
X229005354Y-76890500D01*
X229194646Y-76890500D01*
X229201099Y-76889128D01*
X229201103Y-76889128D01*
X229281788Y-76871978D01*
X229379803Y-76851144D01*
X229552730Y-76774151D01*
X229602765Y-76737799D01*
X229700532Y-76666767D01*
X229705871Y-76662888D01*
X229832533Y-76522216D01*
X229927179Y-76358284D01*
X229985674Y-76178256D01*
X230005460Y-75990000D01*
X230002143Y-75958439D01*
X229986364Y-75808307D01*
X229986364Y-75808305D01*
X229985674Y-75801744D01*
X229927179Y-75621716D01*
X229832533Y-75457784D01*
X229705871Y-75317112D01*
X229581146Y-75226494D01*
X229558072Y-75209730D01*
X229558071Y-75209729D01*
X229552730Y-75205849D01*
X229379803Y-75128856D01*
X229291092Y-75110000D01*
X243094540Y-75110000D01*
X243095230Y-75116565D01*
X243104332Y-75203163D01*
X243114326Y-75298256D01*
X243172821Y-75478284D01*
X243267467Y-75642216D01*
X243394129Y-75782888D01*
X243547270Y-75894151D01*
X243720197Y-75971144D01*
X243818212Y-75991978D01*
X243898897Y-76009128D01*
X243898901Y-76009128D01*
X243905354Y-76010500D01*
X244094646Y-76010500D01*
X244101099Y-76009128D01*
X244101103Y-76009128D01*
X244181788Y-75991978D01*
X244279803Y-75971144D01*
X244452730Y-75894151D01*
X244605871Y-75782888D01*
X244732533Y-75642216D01*
X244827179Y-75478284D01*
X244885674Y-75298256D01*
X244895669Y-75203163D01*
X244904770Y-75116565D01*
X244905460Y-75110000D01*
X247894540Y-75110000D01*
X247895230Y-75116565D01*
X247904332Y-75203163D01*
X247914326Y-75298256D01*
X247972821Y-75478284D01*
X248067467Y-75642216D01*
X248194129Y-75782888D01*
X248347270Y-75894151D01*
X248520197Y-75971144D01*
X248618212Y-75991978D01*
X248698897Y-76009128D01*
X248698901Y-76009128D01*
X248705354Y-76010500D01*
X248894646Y-76010500D01*
X248901099Y-76009128D01*
X248901103Y-76009128D01*
X248981788Y-75991978D01*
X249079803Y-75971144D01*
X249252730Y-75894151D01*
X249405871Y-75782888D01*
X249532533Y-75642216D01*
X249627179Y-75478284D01*
X249685674Y-75298256D01*
X249695669Y-75203163D01*
X249704770Y-75116565D01*
X249705460Y-75110000D01*
X249695006Y-75010532D01*
X249686364Y-74928307D01*
X249686364Y-74928305D01*
X249685674Y-74921744D01*
X249627179Y-74741716D01*
X249532533Y-74577784D01*
X249504926Y-74547123D01*
X249410286Y-74442015D01*
X249410284Y-74442014D01*
X249405871Y-74437112D01*
X249316249Y-74371998D01*
X249258072Y-74329730D01*
X249258071Y-74329729D01*
X249252730Y-74325849D01*
X249079803Y-74248856D01*
X248981788Y-74228022D01*
X248901103Y-74210872D01*
X248901099Y-74210872D01*
X248894646Y-74209500D01*
X248705354Y-74209500D01*
X248698901Y-74210872D01*
X248698897Y-74210872D01*
X248618212Y-74228022D01*
X248520197Y-74248856D01*
X248347270Y-74325849D01*
X248341929Y-74329729D01*
X248341928Y-74329730D01*
X248283751Y-74371998D01*
X248194129Y-74437112D01*
X248189716Y-74442014D01*
X248189714Y-74442015D01*
X248095074Y-74547123D01*
X248067467Y-74577784D01*
X247972821Y-74741716D01*
X247914326Y-74921744D01*
X247913636Y-74928305D01*
X247913636Y-74928307D01*
X247904994Y-75010532D01*
X247894540Y-75110000D01*
X244905460Y-75110000D01*
X244895006Y-75010532D01*
X244886364Y-74928307D01*
X244886364Y-74928305D01*
X244885674Y-74921744D01*
X244827179Y-74741716D01*
X244732533Y-74577784D01*
X244704926Y-74547123D01*
X244610286Y-74442015D01*
X244610284Y-74442014D01*
X244605871Y-74437112D01*
X244516249Y-74371998D01*
X244458072Y-74329730D01*
X244458071Y-74329729D01*
X244452730Y-74325849D01*
X244279803Y-74248856D01*
X244181788Y-74228022D01*
X244101103Y-74210872D01*
X244101099Y-74210872D01*
X244094646Y-74209500D01*
X243905354Y-74209500D01*
X243898901Y-74210872D01*
X243898897Y-74210872D01*
X243818212Y-74228022D01*
X243720197Y-74248856D01*
X243547270Y-74325849D01*
X243541929Y-74329729D01*
X243541928Y-74329730D01*
X243483751Y-74371998D01*
X243394129Y-74437112D01*
X243389716Y-74442014D01*
X243389714Y-74442015D01*
X243295074Y-74547123D01*
X243267467Y-74577784D01*
X243172821Y-74741716D01*
X243114326Y-74921744D01*
X243113636Y-74928305D01*
X243113636Y-74928307D01*
X243104994Y-75010532D01*
X243094540Y-75110000D01*
X229291092Y-75110000D01*
X229260206Y-75103435D01*
X229201103Y-75090872D01*
X229201099Y-75090872D01*
X229194646Y-75089500D01*
X229005354Y-75089500D01*
X228998901Y-75090872D01*
X228998897Y-75090872D01*
X228939794Y-75103435D01*
X228820197Y-75128856D01*
X228647270Y-75205849D01*
X228641929Y-75209729D01*
X228641928Y-75209730D01*
X228618854Y-75226494D01*
X228494129Y-75317112D01*
X228367467Y-75457784D01*
X228272821Y-75621716D01*
X228214326Y-75801744D01*
X228213636Y-75808305D01*
X228213636Y-75808307D01*
X228197857Y-75958439D01*
X228194540Y-75990000D01*
X221121770Y-75990000D01*
X221127437Y-75983435D01*
X221248540Y-75843134D01*
X221248540Y-75843133D01*
X221252564Y-75838472D01*
X221273387Y-75801818D01*
X221351276Y-75664707D01*
X221354323Y-75659344D01*
X221419351Y-75463863D01*
X221445171Y-75259474D01*
X221445583Y-75230000D01*
X221425480Y-75024970D01*
X221365935Y-74827749D01*
X221269218Y-74645849D01*
X221180030Y-74536494D01*
X221142906Y-74490975D01*
X221142903Y-74490972D01*
X221139011Y-74486200D01*
X221015480Y-74384006D01*
X220985025Y-74358811D01*
X220985021Y-74358809D01*
X220980275Y-74354882D01*
X220799055Y-74256897D01*
X220602254Y-74195977D01*
X220596129Y-74195333D01*
X220596128Y-74195333D01*
X220403498Y-74175087D01*
X220403496Y-74175087D01*
X220397369Y-74174443D01*
X220310529Y-74182346D01*
X220198342Y-74192555D01*
X220198339Y-74192556D01*
X220192203Y-74193114D01*
X219994572Y-74251280D01*
X219812002Y-74346726D01*
X219807201Y-74350586D01*
X219807198Y-74350588D01*
X219699584Y-74437112D01*
X219651447Y-74475815D01*
X219519024Y-74633630D01*
X219516056Y-74639028D01*
X219516053Y-74639033D01*
X219459603Y-74741716D01*
X219419776Y-74814162D01*
X219357484Y-75010532D01*
X219356798Y-75016649D01*
X219356797Y-75016653D01*
X219344366Y-75127483D01*
X219334520Y-75215262D01*
X203664138Y-75215262D01*
X203645480Y-75024970D01*
X203585935Y-74827749D01*
X203489218Y-74645849D01*
X203400030Y-74536494D01*
X203362906Y-74490975D01*
X203362903Y-74490972D01*
X203359011Y-74486200D01*
X203235480Y-74384006D01*
X203205025Y-74358811D01*
X203205021Y-74358809D01*
X203200275Y-74354882D01*
X203019055Y-74256897D01*
X202822254Y-74195977D01*
X202816129Y-74195333D01*
X202816128Y-74195333D01*
X202623498Y-74175087D01*
X202623496Y-74175087D01*
X202617369Y-74174443D01*
X202530529Y-74182346D01*
X202418342Y-74192555D01*
X202418339Y-74192556D01*
X202412203Y-74193114D01*
X202214572Y-74251280D01*
X202032002Y-74346726D01*
X202027201Y-74350586D01*
X202027198Y-74350588D01*
X201919584Y-74437112D01*
X201871447Y-74475815D01*
X201739024Y-74633630D01*
X201736056Y-74639028D01*
X201736053Y-74639033D01*
X201679603Y-74741716D01*
X201639776Y-74814162D01*
X201577484Y-75010532D01*
X201576798Y-75016649D01*
X201576797Y-75016653D01*
X201564366Y-75127483D01*
X201554520Y-75215262D01*
X190001000Y-75215262D01*
X190001000Y-74009999D01*
X256194540Y-74009999D01*
X256214326Y-74198255D01*
X256272821Y-74378283D01*
X256276124Y-74384005D01*
X256276125Y-74384006D01*
X256329131Y-74475815D01*
X256367467Y-74542215D01*
X256371885Y-74547122D01*
X256371886Y-74547123D01*
X256460780Y-74645849D01*
X256494129Y-74682887D01*
X256647270Y-74794150D01*
X256820197Y-74871143D01*
X256918212Y-74891977D01*
X256998897Y-74909127D01*
X256998901Y-74909127D01*
X257005354Y-74910499D01*
X257194646Y-74910499D01*
X257201099Y-74909127D01*
X257201103Y-74909127D01*
X257281788Y-74891977D01*
X257379803Y-74871143D01*
X257552730Y-74794150D01*
X257705871Y-74682887D01*
X257739221Y-74645849D01*
X257828114Y-74547123D01*
X257828115Y-74547122D01*
X257832533Y-74542215D01*
X257870869Y-74475815D01*
X257923875Y-74384006D01*
X257923876Y-74384005D01*
X257927179Y-74378283D01*
X257985674Y-74198255D01*
X258005460Y-74009999D01*
X257995909Y-73919128D01*
X257986364Y-73828306D01*
X257986364Y-73828304D01*
X257985674Y-73821743D01*
X257927179Y-73641715D01*
X257832533Y-73477783D01*
X257814912Y-73458213D01*
X257710286Y-73342014D01*
X257710284Y-73342013D01*
X257705871Y-73337111D01*
X257700532Y-73333232D01*
X257558072Y-73229729D01*
X257558071Y-73229728D01*
X257552730Y-73225848D01*
X257379803Y-73148855D01*
X257266195Y-73124707D01*
X257201103Y-73110871D01*
X257201099Y-73110871D01*
X257194646Y-73109499D01*
X257005354Y-73109499D01*
X256998901Y-73110871D01*
X256998897Y-73110871D01*
X256933805Y-73124707D01*
X256820197Y-73148855D01*
X256647270Y-73225848D01*
X256641929Y-73229728D01*
X256641928Y-73229729D01*
X256499468Y-73333232D01*
X256494129Y-73337111D01*
X256489716Y-73342013D01*
X256489714Y-73342014D01*
X256385088Y-73458213D01*
X256367467Y-73477783D01*
X256272821Y-73641715D01*
X256214326Y-73821743D01*
X256213636Y-73828304D01*
X256213636Y-73828306D01*
X256204091Y-73919128D01*
X256194540Y-74009999D01*
X190001000Y-74009999D01*
X190001000Y-71044669D01*
X201252001Y-71044669D01*
X201252371Y-71051490D01*
X201257895Y-71102352D01*
X201261521Y-71117604D01*
X201306676Y-71238054D01*
X201315214Y-71253649D01*
X201391715Y-71355724D01*
X201404276Y-71368285D01*
X201506351Y-71444786D01*
X201521946Y-71453324D01*
X201642394Y-71498478D01*
X201657649Y-71502105D01*
X201708514Y-71507631D01*
X201715328Y-71508000D01*
X202090432Y-71508000D01*
X202158553Y-71528002D01*
X202205046Y-71581658D01*
X202215150Y-71651932D01*
X202185656Y-71716512D01*
X202148812Y-71745659D01*
X202032002Y-71806726D01*
X202027201Y-71810586D01*
X202027198Y-71810588D01*
X202016971Y-71818811D01*
X201871447Y-71935815D01*
X201739024Y-72093630D01*
X201736056Y-72099028D01*
X201736053Y-72099033D01*
X201642743Y-72268765D01*
X201639776Y-72274162D01*
X201577484Y-72470532D01*
X201576798Y-72476649D01*
X201576797Y-72476653D01*
X201560964Y-72617814D01*
X201554520Y-72675262D01*
X201555036Y-72681406D01*
X201565103Y-72801284D01*
X201571759Y-72880553D01*
X201628544Y-73078586D01*
X201631359Y-73084063D01*
X201631360Y-73084066D01*
X201719897Y-73256341D01*
X201722712Y-73261818D01*
X201850677Y-73423270D01*
X202007564Y-73556791D01*
X202187398Y-73657297D01*
X202281378Y-73687833D01*
X202377471Y-73719056D01*
X202377475Y-73719057D01*
X202383329Y-73720959D01*
X202587894Y-73745351D01*
X202594029Y-73744879D01*
X202594031Y-73744879D01*
X202650039Y-73740569D01*
X202793300Y-73729546D01*
X202799230Y-73727890D01*
X202799232Y-73727890D01*
X202985797Y-73675800D01*
X202985796Y-73675800D01*
X202991725Y-73674145D01*
X202997214Y-73671372D01*
X202997220Y-73671370D01*
X203170116Y-73584033D01*
X203175610Y-73581258D01*
X203337951Y-73454424D01*
X203472564Y-73298472D01*
X203493387Y-73261818D01*
X203571276Y-73124707D01*
X203574323Y-73119344D01*
X203639351Y-72923863D01*
X203665171Y-72719474D01*
X203665583Y-72690000D01*
X203645480Y-72484970D01*
X203585935Y-72287749D01*
X203489218Y-72105849D01*
X203415859Y-72015902D01*
X203362906Y-71950975D01*
X203362903Y-71950972D01*
X203359011Y-71946200D01*
X203341786Y-71931950D01*
X203205025Y-71818811D01*
X203205021Y-71818809D01*
X203200275Y-71814882D01*
X203072255Y-71745662D01*
X203070726Y-71744835D01*
X203020317Y-71694840D01*
X203004940Y-71625529D01*
X203029476Y-71558907D01*
X203086136Y-71516126D01*
X203130655Y-71507999D01*
X203504669Y-71507999D01*
X203511490Y-71507629D01*
X203562352Y-71502105D01*
X203577604Y-71498479D01*
X203698054Y-71453324D01*
X203713649Y-71444786D01*
X203815724Y-71368285D01*
X203828285Y-71355724D01*
X203904786Y-71253649D01*
X203913324Y-71238054D01*
X203958478Y-71117606D01*
X203962105Y-71102351D01*
X203967631Y-71051486D01*
X203968000Y-71044672D01*
X203968000Y-71044669D01*
X219032001Y-71044669D01*
X219032371Y-71051490D01*
X219037895Y-71102352D01*
X219041521Y-71117604D01*
X219086676Y-71238054D01*
X219095214Y-71253649D01*
X219171715Y-71355724D01*
X219184276Y-71368285D01*
X219286351Y-71444786D01*
X219301946Y-71453324D01*
X219422394Y-71498478D01*
X219437649Y-71502105D01*
X219488514Y-71507631D01*
X219495328Y-71508000D01*
X219870432Y-71508000D01*
X219938553Y-71528002D01*
X219985046Y-71581658D01*
X219995150Y-71651932D01*
X219965656Y-71716512D01*
X219928812Y-71745659D01*
X219812002Y-71806726D01*
X219807201Y-71810586D01*
X219807198Y-71810588D01*
X219796971Y-71818811D01*
X219651447Y-71935815D01*
X219519024Y-72093630D01*
X219516056Y-72099028D01*
X219516053Y-72099033D01*
X219422743Y-72268765D01*
X219419776Y-72274162D01*
X219357484Y-72470532D01*
X219356798Y-72476649D01*
X219356797Y-72476653D01*
X219340964Y-72617814D01*
X219334520Y-72675262D01*
X219335036Y-72681406D01*
X219345103Y-72801284D01*
X219351759Y-72880553D01*
X219408544Y-73078586D01*
X219411359Y-73084063D01*
X219411360Y-73084066D01*
X219499897Y-73256341D01*
X219502712Y-73261818D01*
X219630677Y-73423270D01*
X219787564Y-73556791D01*
X219967398Y-73657297D01*
X220061378Y-73687833D01*
X220157471Y-73719056D01*
X220157475Y-73719057D01*
X220163329Y-73720959D01*
X220367894Y-73745351D01*
X220374029Y-73744879D01*
X220374031Y-73744879D01*
X220430039Y-73740569D01*
X220573300Y-73729546D01*
X220579230Y-73727890D01*
X220579232Y-73727890D01*
X220765797Y-73675800D01*
X220765796Y-73675800D01*
X220771725Y-73674145D01*
X220777214Y-73671372D01*
X220777220Y-73671370D01*
X220950116Y-73584033D01*
X220955610Y-73581258D01*
X221117951Y-73454424D01*
X221252564Y-73298472D01*
X221273387Y-73261818D01*
X221351276Y-73124707D01*
X221354323Y-73119344D01*
X221394024Y-73000000D01*
X235074430Y-73000000D01*
X235094656Y-73192437D01*
X235154450Y-73376463D01*
X235251198Y-73544036D01*
X235255616Y-73548943D01*
X235255617Y-73548944D01*
X235265390Y-73559798D01*
X235380673Y-73687833D01*
X235386015Y-73691714D01*
X235386017Y-73691716D01*
X235459190Y-73744879D01*
X235537215Y-73801567D01*
X235543243Y-73804251D01*
X235543245Y-73804252D01*
X235707952Y-73877584D01*
X235713983Y-73880269D01*
X235808618Y-73900385D01*
X235896795Y-73919128D01*
X235896800Y-73919128D01*
X235903252Y-73920500D01*
X236096748Y-73920500D01*
X236103200Y-73919128D01*
X236103205Y-73919128D01*
X236191382Y-73900385D01*
X236286017Y-73880269D01*
X236292048Y-73877584D01*
X236456755Y-73804252D01*
X236456757Y-73804251D01*
X236462785Y-73801567D01*
X236540810Y-73744879D01*
X236613983Y-73691716D01*
X236613985Y-73691714D01*
X236619327Y-73687833D01*
X236734610Y-73559798D01*
X236744383Y-73548944D01*
X236744384Y-73548943D01*
X236748802Y-73544036D01*
X236845550Y-73376463D01*
X236905344Y-73192437D01*
X236925570Y-73000000D01*
X236905344Y-72807563D01*
X236845550Y-72623537D01*
X236748802Y-72455964D01*
X236619327Y-72312167D01*
X236613985Y-72308286D01*
X236613983Y-72308284D01*
X236468127Y-72202314D01*
X236468126Y-72202313D01*
X236462785Y-72198433D01*
X236456757Y-72195749D01*
X236456755Y-72195748D01*
X236292048Y-72122416D01*
X236292047Y-72122416D01*
X236286017Y-72119731D01*
X236188642Y-72099033D01*
X236103205Y-72080872D01*
X236103200Y-72080872D01*
X236096748Y-72079500D01*
X235903252Y-72079500D01*
X235896800Y-72080872D01*
X235896795Y-72080872D01*
X235811358Y-72099033D01*
X235713983Y-72119731D01*
X235707953Y-72122416D01*
X235707952Y-72122416D01*
X235543245Y-72195748D01*
X235543243Y-72195749D01*
X235537215Y-72198433D01*
X235531874Y-72202313D01*
X235531873Y-72202314D01*
X235386017Y-72308284D01*
X235386015Y-72308286D01*
X235380673Y-72312167D01*
X235251198Y-72455964D01*
X235154450Y-72623537D01*
X235094656Y-72807563D01*
X235074430Y-73000000D01*
X221394024Y-73000000D01*
X221419351Y-72923863D01*
X221445171Y-72719474D01*
X221445583Y-72690000D01*
X221425480Y-72484970D01*
X221365935Y-72287749D01*
X221269218Y-72105849D01*
X221195859Y-72015902D01*
X221142906Y-71950975D01*
X221142903Y-71950972D01*
X221139011Y-71946200D01*
X221121786Y-71931950D01*
X220985025Y-71818811D01*
X220985021Y-71818809D01*
X220980275Y-71814882D01*
X220852255Y-71745662D01*
X220850726Y-71744835D01*
X220800317Y-71694840D01*
X220784940Y-71625529D01*
X220809476Y-71558907D01*
X220866136Y-71516126D01*
X220910655Y-71507999D01*
X221284669Y-71507999D01*
X221291490Y-71507629D01*
X221342352Y-71502105D01*
X221357604Y-71498479D01*
X221478054Y-71453324D01*
X221493649Y-71444786D01*
X221595724Y-71368285D01*
X221608285Y-71355724D01*
X221684786Y-71253649D01*
X221693324Y-71238054D01*
X221738478Y-71117606D01*
X221742105Y-71102351D01*
X221747631Y-71051486D01*
X221748000Y-71044672D01*
X221748000Y-70460000D01*
X237614430Y-70460000D01*
X237634656Y-70652437D01*
X237694450Y-70836463D01*
X237791198Y-71004036D01*
X237795616Y-71008943D01*
X237795617Y-71008944D01*
X237916251Y-71142922D01*
X237920673Y-71147833D01*
X237926015Y-71151714D01*
X237926017Y-71151716D01*
X238044852Y-71238054D01*
X238077215Y-71261567D01*
X238083243Y-71264251D01*
X238083245Y-71264252D01*
X238247952Y-71337584D01*
X238253983Y-71340269D01*
X238326692Y-71355724D01*
X238436795Y-71379128D01*
X238436800Y-71379128D01*
X238443252Y-71380500D01*
X238636748Y-71380500D01*
X238643200Y-71379128D01*
X238643205Y-71379128D01*
X238753308Y-71355724D01*
X238826017Y-71340269D01*
X238832048Y-71337584D01*
X238996755Y-71264252D01*
X238996757Y-71264251D01*
X239002785Y-71261567D01*
X239035148Y-71238054D01*
X239153983Y-71151716D01*
X239153985Y-71151714D01*
X239159327Y-71147833D01*
X239163749Y-71142922D01*
X239284383Y-71008944D01*
X239284384Y-71008943D01*
X239288802Y-71004036D01*
X239385550Y-70836463D01*
X239445344Y-70652437D01*
X239465570Y-70460000D01*
X239460301Y-70409865D01*
X239446034Y-70274127D01*
X239446034Y-70274126D01*
X239445344Y-70267563D01*
X239385550Y-70083537D01*
X239288802Y-69915964D01*
X239270827Y-69896000D01*
X239163749Y-69777078D01*
X239163748Y-69777077D01*
X239159327Y-69772167D01*
X239153985Y-69768286D01*
X239153983Y-69768284D01*
X239008127Y-69662314D01*
X239008126Y-69662313D01*
X239002785Y-69658433D01*
X238996757Y-69655749D01*
X238996755Y-69655748D01*
X238832048Y-69582416D01*
X238832047Y-69582416D01*
X238826017Y-69579731D01*
X238731382Y-69559615D01*
X238643205Y-69540872D01*
X238643200Y-69540872D01*
X238636748Y-69539500D01*
X238443252Y-69539500D01*
X238436800Y-69540872D01*
X238436795Y-69540872D01*
X238348618Y-69559615D01*
X238253983Y-69579731D01*
X238247953Y-69582416D01*
X238247952Y-69582416D01*
X238083245Y-69655748D01*
X238083243Y-69655749D01*
X238077215Y-69658433D01*
X238071874Y-69662313D01*
X238071873Y-69662314D01*
X237926017Y-69768284D01*
X237926015Y-69768286D01*
X237920673Y-69772167D01*
X237916252Y-69777077D01*
X237916251Y-69777078D01*
X237809174Y-69896000D01*
X237791198Y-69915964D01*
X237694450Y-70083537D01*
X237634656Y-70267563D01*
X237633966Y-70274126D01*
X237633966Y-70274127D01*
X237619699Y-70409865D01*
X237614430Y-70460000D01*
X221748000Y-70460000D01*
X221748000Y-70422115D01*
X221743525Y-70406876D01*
X221742135Y-70405671D01*
X221734452Y-70404000D01*
X219050116Y-70404000D01*
X219034877Y-70408475D01*
X219033672Y-70409865D01*
X219032001Y-70417548D01*
X219032001Y-71044669D01*
X203968000Y-71044669D01*
X203968000Y-70422115D01*
X203963525Y-70406876D01*
X203962135Y-70405671D01*
X203954452Y-70404000D01*
X201270116Y-70404000D01*
X201254877Y-70408475D01*
X201253672Y-70409865D01*
X201252001Y-70417548D01*
X201252001Y-71044669D01*
X190001000Y-71044669D01*
X190001000Y-69877885D01*
X201252000Y-69877885D01*
X201256475Y-69893124D01*
X201257865Y-69894329D01*
X201265548Y-69896000D01*
X203949884Y-69896000D01*
X203965123Y-69891525D01*
X203966328Y-69890135D01*
X203967999Y-69882452D01*
X203967999Y-69877885D01*
X219032000Y-69877885D01*
X219036475Y-69893124D01*
X219037865Y-69894329D01*
X219045548Y-69896000D01*
X221729884Y-69896000D01*
X221745123Y-69891525D01*
X221746328Y-69890135D01*
X221747999Y-69882452D01*
X221747999Y-69255331D01*
X221747629Y-69248510D01*
X221742105Y-69197648D01*
X221738479Y-69182396D01*
X221693324Y-69061946D01*
X221684786Y-69046351D01*
X221608285Y-68944276D01*
X221595724Y-68931715D01*
X221493649Y-68855214D01*
X221478054Y-68846676D01*
X221357606Y-68801522D01*
X221342351Y-68797895D01*
X221291486Y-68792369D01*
X221284672Y-68792000D01*
X220908932Y-68792000D01*
X220840811Y-68771998D01*
X220794318Y-68718342D01*
X220784214Y-68648068D01*
X220813708Y-68583488D01*
X220852121Y-68553534D01*
X220950116Y-68504033D01*
X220955610Y-68501258D01*
X220975021Y-68486093D01*
X221036780Y-68437841D01*
X221117951Y-68374424D01*
X221136861Y-68352517D01*
X221248540Y-68223134D01*
X221248540Y-68223133D01*
X221252564Y-68218472D01*
X221273387Y-68181818D01*
X221316529Y-68105873D01*
X221354323Y-68039344D01*
X221394024Y-67920000D01*
X235074430Y-67920000D01*
X235094656Y-68112437D01*
X235096696Y-68118714D01*
X235096696Y-68118716D01*
X235111049Y-68162888D01*
X235154450Y-68296463D01*
X235251198Y-68464036D01*
X235255616Y-68468943D01*
X235255617Y-68468944D01*
X235265387Y-68479795D01*
X235380673Y-68607833D01*
X235386015Y-68611714D01*
X235386017Y-68611716D01*
X235474808Y-68676226D01*
X235537215Y-68721567D01*
X235543243Y-68724251D01*
X235543245Y-68724252D01*
X235707952Y-68797584D01*
X235713983Y-68800269D01*
X235808618Y-68820385D01*
X235896795Y-68839128D01*
X235896800Y-68839128D01*
X235903252Y-68840500D01*
X236096748Y-68840500D01*
X236103200Y-68839128D01*
X236103205Y-68839128D01*
X236191382Y-68820385D01*
X236286017Y-68800269D01*
X236292048Y-68797584D01*
X236456755Y-68724252D01*
X236456757Y-68724251D01*
X236462785Y-68721567D01*
X236525192Y-68676226D01*
X236613983Y-68611716D01*
X236613985Y-68611714D01*
X236619327Y-68607833D01*
X236734613Y-68479795D01*
X236744383Y-68468944D01*
X236744384Y-68468943D01*
X236748802Y-68464036D01*
X236845550Y-68296463D01*
X236888951Y-68162888D01*
X236903304Y-68118716D01*
X236903304Y-68118714D01*
X236905344Y-68112437D01*
X236925570Y-67920000D01*
X236905344Y-67727563D01*
X236893803Y-67692042D01*
X236847592Y-67549822D01*
X236845550Y-67543537D01*
X236814641Y-67490000D01*
X243094540Y-67490000D01*
X243114326Y-67678256D01*
X243172821Y-67858284D01*
X243176124Y-67864006D01*
X243176125Y-67864007D01*
X243185044Y-67879455D01*
X243267467Y-68022216D01*
X243271885Y-68027123D01*
X243271886Y-68027124D01*
X243348703Y-68112437D01*
X243394129Y-68162888D01*
X243547270Y-68274151D01*
X243720197Y-68351144D01*
X243818212Y-68371978D01*
X243898897Y-68389128D01*
X243898901Y-68389128D01*
X243905354Y-68390500D01*
X244094646Y-68390500D01*
X244101099Y-68389128D01*
X244101103Y-68389128D01*
X244181788Y-68371978D01*
X244279803Y-68351144D01*
X244452730Y-68274151D01*
X244605871Y-68162888D01*
X244651298Y-68112437D01*
X244728114Y-68027124D01*
X244728115Y-68027123D01*
X244732533Y-68022216D01*
X244814956Y-67879455D01*
X244823875Y-67864007D01*
X244823876Y-67864006D01*
X244827179Y-67858284D01*
X244885674Y-67678256D01*
X244905460Y-67490000D01*
X247894540Y-67490000D01*
X247914326Y-67678256D01*
X247972821Y-67858284D01*
X247976124Y-67864006D01*
X247976125Y-67864007D01*
X247985044Y-67879455D01*
X248067467Y-68022216D01*
X248071885Y-68027123D01*
X248071886Y-68027124D01*
X248148703Y-68112437D01*
X248194129Y-68162888D01*
X248347270Y-68274151D01*
X248520197Y-68351144D01*
X248618212Y-68371978D01*
X248698897Y-68389128D01*
X248698901Y-68389128D01*
X248705354Y-68390500D01*
X248894646Y-68390500D01*
X248901099Y-68389128D01*
X248901103Y-68389128D01*
X248981788Y-68371978D01*
X249079803Y-68351144D01*
X249252730Y-68274151D01*
X249405871Y-68162888D01*
X249451298Y-68112437D01*
X249528114Y-68027124D01*
X249528115Y-68027123D01*
X249532533Y-68022216D01*
X249614956Y-67879455D01*
X249623875Y-67864007D01*
X249623876Y-67864006D01*
X249627179Y-67858284D01*
X249685674Y-67678256D01*
X249705460Y-67490000D01*
X249695006Y-67390532D01*
X249686364Y-67308307D01*
X249686364Y-67308305D01*
X249685674Y-67301744D01*
X249627179Y-67121716D01*
X249623734Y-67115748D01*
X249535836Y-66963505D01*
X249532533Y-66957784D01*
X249504926Y-66927123D01*
X249410286Y-66822015D01*
X249410284Y-66822014D01*
X249405871Y-66817112D01*
X249316249Y-66751998D01*
X249258072Y-66709730D01*
X249258071Y-66709729D01*
X249252730Y-66705849D01*
X249079803Y-66628856D01*
X248981788Y-66608022D01*
X248901103Y-66590872D01*
X248901099Y-66590872D01*
X248894646Y-66589500D01*
X248705354Y-66589500D01*
X248698901Y-66590872D01*
X248698897Y-66590872D01*
X248618212Y-66608022D01*
X248520197Y-66628856D01*
X248347270Y-66705849D01*
X248341929Y-66709729D01*
X248341928Y-66709730D01*
X248283751Y-66751998D01*
X248194129Y-66817112D01*
X248189716Y-66822014D01*
X248189714Y-66822015D01*
X248095074Y-66927123D01*
X248067467Y-66957784D01*
X248064164Y-66963505D01*
X247976267Y-67115748D01*
X247972821Y-67121716D01*
X247914326Y-67301744D01*
X247913636Y-67308305D01*
X247913636Y-67308307D01*
X247904994Y-67390532D01*
X247894540Y-67490000D01*
X244905460Y-67490000D01*
X244895006Y-67390532D01*
X244886364Y-67308307D01*
X244886364Y-67308305D01*
X244885674Y-67301744D01*
X244827179Y-67121716D01*
X244823734Y-67115748D01*
X244735836Y-66963505D01*
X244732533Y-66957784D01*
X244704926Y-66927123D01*
X244610286Y-66822015D01*
X244610284Y-66822014D01*
X244605871Y-66817112D01*
X244516249Y-66751998D01*
X244458072Y-66709730D01*
X244458071Y-66709729D01*
X244452730Y-66705849D01*
X244279803Y-66628856D01*
X244181788Y-66608022D01*
X244101103Y-66590872D01*
X244101099Y-66590872D01*
X244094646Y-66589500D01*
X243905354Y-66589500D01*
X243898901Y-66590872D01*
X243898897Y-66590872D01*
X243818212Y-66608022D01*
X243720197Y-66628856D01*
X243547270Y-66705849D01*
X243541929Y-66709729D01*
X243541928Y-66709730D01*
X243483751Y-66751998D01*
X243394129Y-66817112D01*
X243389716Y-66822014D01*
X243389714Y-66822015D01*
X243295074Y-66927123D01*
X243267467Y-66957784D01*
X243264164Y-66963505D01*
X243176267Y-67115748D01*
X243172821Y-67121716D01*
X243114326Y-67301744D01*
X243113636Y-67308305D01*
X243113636Y-67308307D01*
X243104994Y-67390532D01*
X243094540Y-67490000D01*
X236814641Y-67490000D01*
X236805034Y-67473361D01*
X236748802Y-67375964D01*
X236730646Y-67355799D01*
X236623749Y-67237078D01*
X236623748Y-67237077D01*
X236619327Y-67232167D01*
X236613985Y-67228286D01*
X236613983Y-67228284D01*
X236468127Y-67122314D01*
X236468126Y-67122313D01*
X236462785Y-67118433D01*
X236456757Y-67115749D01*
X236456755Y-67115748D01*
X236292048Y-67042416D01*
X236292047Y-67042416D01*
X236286017Y-67039731D01*
X236188642Y-67019033D01*
X236103205Y-67000872D01*
X236103200Y-67000872D01*
X236096748Y-66999500D01*
X235903252Y-66999500D01*
X235896800Y-67000872D01*
X235896795Y-67000872D01*
X235811358Y-67019033D01*
X235713983Y-67039731D01*
X235707953Y-67042416D01*
X235707952Y-67042416D01*
X235543245Y-67115748D01*
X235543243Y-67115749D01*
X235537215Y-67118433D01*
X235531874Y-67122313D01*
X235531873Y-67122314D01*
X235386017Y-67228284D01*
X235386015Y-67228286D01*
X235380673Y-67232167D01*
X235376252Y-67237077D01*
X235376251Y-67237078D01*
X235269355Y-67355799D01*
X235251198Y-67375964D01*
X235194966Y-67473361D01*
X235185360Y-67490000D01*
X235154450Y-67543537D01*
X235152408Y-67549822D01*
X235106198Y-67692042D01*
X235094656Y-67727563D01*
X235074430Y-67920000D01*
X221394024Y-67920000D01*
X221419351Y-67843863D01*
X221445171Y-67639474D01*
X221445583Y-67610000D01*
X221425480Y-67404970D01*
X221365935Y-67207749D01*
X221269218Y-67025849D01*
X221180030Y-66916494D01*
X221142906Y-66870975D01*
X221142903Y-66870972D01*
X221139011Y-66866200D01*
X221015480Y-66764006D01*
X220985025Y-66738811D01*
X220985021Y-66738809D01*
X220980275Y-66734882D01*
X220799055Y-66636897D01*
X220602254Y-66575977D01*
X220596129Y-66575333D01*
X220596128Y-66575333D01*
X220403498Y-66555087D01*
X220403496Y-66555087D01*
X220397369Y-66554443D01*
X220310529Y-66562346D01*
X220198342Y-66572555D01*
X220198339Y-66572556D01*
X220192203Y-66573114D01*
X219994572Y-66631280D01*
X219812002Y-66726726D01*
X219807201Y-66730586D01*
X219807198Y-66730588D01*
X219699584Y-66817112D01*
X219651447Y-66855815D01*
X219519024Y-67013630D01*
X219516056Y-67019028D01*
X219516053Y-67019033D01*
X219456148Y-67128001D01*
X219419776Y-67194162D01*
X219357484Y-67390532D01*
X219356798Y-67396649D01*
X219356797Y-67396653D01*
X219340322Y-67543537D01*
X219334520Y-67595262D01*
X219336053Y-67613522D01*
X219345103Y-67721284D01*
X219351759Y-67800553D01*
X219353458Y-67806478D01*
X219403187Y-67979903D01*
X219408544Y-67998586D01*
X219411359Y-68004063D01*
X219411360Y-68004066D01*
X219492983Y-68162888D01*
X219502712Y-68181818D01*
X219630677Y-68343270D01*
X219635370Y-68347264D01*
X219635371Y-68347265D01*
X219685625Y-68390034D01*
X219787564Y-68476791D01*
X219836308Y-68504033D01*
X219929315Y-68556013D01*
X219979020Y-68606707D01*
X219993428Y-68676226D01*
X219967964Y-68742499D01*
X219910713Y-68784484D01*
X219867844Y-68792001D01*
X219495331Y-68792001D01*
X219488510Y-68792371D01*
X219437648Y-68797895D01*
X219422396Y-68801521D01*
X219301946Y-68846676D01*
X219286351Y-68855214D01*
X219184276Y-68931715D01*
X219171715Y-68944276D01*
X219095214Y-69046351D01*
X219086676Y-69061946D01*
X219041522Y-69182394D01*
X219037895Y-69197649D01*
X219032369Y-69248514D01*
X219032000Y-69255328D01*
X219032000Y-69877885D01*
X203967999Y-69877885D01*
X203967999Y-69255331D01*
X203967629Y-69248510D01*
X203962105Y-69197648D01*
X203958479Y-69182396D01*
X203913324Y-69061946D01*
X203904786Y-69046351D01*
X203828285Y-68944276D01*
X203815724Y-68931715D01*
X203713649Y-68855214D01*
X203698054Y-68846676D01*
X203577606Y-68801522D01*
X203562351Y-68797895D01*
X203511486Y-68792369D01*
X203504672Y-68792000D01*
X203128932Y-68792000D01*
X203060811Y-68771998D01*
X203014318Y-68718342D01*
X203004214Y-68648068D01*
X203033708Y-68583488D01*
X203072121Y-68553534D01*
X203170116Y-68504033D01*
X203175610Y-68501258D01*
X203195021Y-68486093D01*
X203256780Y-68437841D01*
X203337951Y-68374424D01*
X203356861Y-68352517D01*
X203420210Y-68279126D01*
X208070541Y-68279126D01*
X208100935Y-68480097D01*
X208171119Y-68670852D01*
X208174479Y-68676272D01*
X208174480Y-68676273D01*
X208274863Y-68838176D01*
X208274866Y-68838180D01*
X208278226Y-68843599D01*
X208282612Y-68848237D01*
X208373432Y-68944276D01*
X208417881Y-68991280D01*
X208584379Y-69107863D01*
X208770919Y-69188586D01*
X208814301Y-69197649D01*
X208965144Y-69229162D01*
X208965149Y-69229163D01*
X208969880Y-69230151D01*
X208974762Y-69230407D01*
X208974871Y-69230413D01*
X208974887Y-69230413D01*
X208976539Y-69230500D01*
X209125800Y-69230500D01*
X209173793Y-69225625D01*
X209270868Y-69215765D01*
X209270870Y-69215765D01*
X209277216Y-69215120D01*
X209471172Y-69154338D01*
X209648944Y-69055797D01*
X209803271Y-68923523D01*
X209927848Y-68762919D01*
X210017587Y-68580545D01*
X210044613Y-68476791D01*
X210067212Y-68390034D01*
X210067212Y-68390031D01*
X210068822Y-68383852D01*
X210074310Y-68279126D01*
X212920541Y-68279126D01*
X212950935Y-68480097D01*
X213021119Y-68670852D01*
X213024479Y-68676272D01*
X213024480Y-68676273D01*
X213124863Y-68838176D01*
X213124866Y-68838180D01*
X213128226Y-68843599D01*
X213132612Y-68848237D01*
X213223432Y-68944276D01*
X213267881Y-68991280D01*
X213434379Y-69107863D01*
X213620919Y-69188586D01*
X213664301Y-69197649D01*
X213815144Y-69229162D01*
X213815149Y-69229163D01*
X213819880Y-69230151D01*
X213824762Y-69230407D01*
X213824871Y-69230413D01*
X213824887Y-69230413D01*
X213826539Y-69230500D01*
X213975800Y-69230500D01*
X214023793Y-69225625D01*
X214120868Y-69215765D01*
X214120870Y-69215765D01*
X214127216Y-69215120D01*
X214321172Y-69154338D01*
X214498944Y-69055797D01*
X214653271Y-68923523D01*
X214777848Y-68762919D01*
X214867587Y-68580545D01*
X214894613Y-68476791D01*
X214917212Y-68390034D01*
X214917212Y-68390031D01*
X214918822Y-68383852D01*
X214924774Y-68270270D01*
X214929125Y-68187256D01*
X214929125Y-68187252D01*
X214929459Y-68180874D01*
X214899065Y-67979903D01*
X214828881Y-67789148D01*
X214775345Y-67702802D01*
X214725137Y-67621824D01*
X214725134Y-67621820D01*
X214721774Y-67616401D01*
X214608451Y-67496565D01*
X214586508Y-67473361D01*
X214586507Y-67473360D01*
X214582119Y-67468720D01*
X214415621Y-67352137D01*
X214229081Y-67271414D01*
X214183053Y-67261798D01*
X214034856Y-67230838D01*
X214034851Y-67230837D01*
X214030120Y-67229849D01*
X214025238Y-67229593D01*
X214025129Y-67229587D01*
X214025113Y-67229587D01*
X214023461Y-67229500D01*
X213874200Y-67229500D01*
X213826207Y-67234375D01*
X213729132Y-67244235D01*
X213729130Y-67244235D01*
X213722784Y-67244880D01*
X213528828Y-67305662D01*
X213351056Y-67404203D01*
X213196729Y-67536477D01*
X213192822Y-67541514D01*
X213192820Y-67541516D01*
X213155882Y-67589137D01*
X213072152Y-67697081D01*
X212982413Y-67879455D01*
X212980804Y-67885633D01*
X212980803Y-67885635D01*
X212940765Y-68039344D01*
X212931178Y-68076148D01*
X212930844Y-68082527D01*
X212923720Y-68218472D01*
X212920541Y-68279126D01*
X210074310Y-68279126D01*
X210074774Y-68270270D01*
X210079125Y-68187256D01*
X210079125Y-68187252D01*
X210079459Y-68180874D01*
X210049065Y-67979903D01*
X209978881Y-67789148D01*
X209925345Y-67702802D01*
X209875137Y-67621824D01*
X209875134Y-67621820D01*
X209871774Y-67616401D01*
X209758451Y-67496565D01*
X209736508Y-67473361D01*
X209736507Y-67473360D01*
X209732119Y-67468720D01*
X209565621Y-67352137D01*
X209379081Y-67271414D01*
X209333053Y-67261798D01*
X209184856Y-67230838D01*
X209184851Y-67230837D01*
X209180120Y-67229849D01*
X209175238Y-67229593D01*
X209175129Y-67229587D01*
X209175113Y-67229587D01*
X209173461Y-67229500D01*
X209024200Y-67229500D01*
X208976207Y-67234375D01*
X208879132Y-67244235D01*
X208879130Y-67244235D01*
X208872784Y-67244880D01*
X208678828Y-67305662D01*
X208501056Y-67404203D01*
X208346729Y-67536477D01*
X208342822Y-67541514D01*
X208342820Y-67541516D01*
X208305882Y-67589137D01*
X208222152Y-67697081D01*
X208132413Y-67879455D01*
X208130804Y-67885633D01*
X208130803Y-67885635D01*
X208090765Y-68039344D01*
X208081178Y-68076148D01*
X208080844Y-68082527D01*
X208073720Y-68218472D01*
X208070541Y-68279126D01*
X203420210Y-68279126D01*
X203468540Y-68223134D01*
X203468540Y-68223133D01*
X203472564Y-68218472D01*
X203493387Y-68181818D01*
X203536529Y-68105873D01*
X203574323Y-68039344D01*
X203639351Y-67843863D01*
X203665171Y-67639474D01*
X203665583Y-67610000D01*
X203645480Y-67404970D01*
X203585935Y-67207749D01*
X203489218Y-67025849D01*
X203400030Y-66916494D01*
X203362906Y-66870975D01*
X203362903Y-66870972D01*
X203359011Y-66866200D01*
X203235480Y-66764006D01*
X203205025Y-66738811D01*
X203205021Y-66738809D01*
X203200275Y-66734882D01*
X203019055Y-66636897D01*
X202822254Y-66575977D01*
X202816129Y-66575333D01*
X202816128Y-66575333D01*
X202623498Y-66555087D01*
X202623496Y-66555087D01*
X202617369Y-66554443D01*
X202530529Y-66562346D01*
X202418342Y-66572555D01*
X202418339Y-66572556D01*
X202412203Y-66573114D01*
X202214572Y-66631280D01*
X202032002Y-66726726D01*
X202027201Y-66730586D01*
X202027198Y-66730588D01*
X201919584Y-66817112D01*
X201871447Y-66855815D01*
X201739024Y-67013630D01*
X201736056Y-67019028D01*
X201736053Y-67019033D01*
X201676148Y-67128001D01*
X201639776Y-67194162D01*
X201577484Y-67390532D01*
X201576798Y-67396649D01*
X201576797Y-67396653D01*
X201560322Y-67543537D01*
X201554520Y-67595262D01*
X201556053Y-67613522D01*
X201565103Y-67721284D01*
X201571759Y-67800553D01*
X201573458Y-67806478D01*
X201623187Y-67979903D01*
X201628544Y-67998586D01*
X201631359Y-68004063D01*
X201631360Y-68004066D01*
X201712983Y-68162888D01*
X201722712Y-68181818D01*
X201850677Y-68343270D01*
X201855370Y-68347264D01*
X201855371Y-68347265D01*
X201905625Y-68390034D01*
X202007564Y-68476791D01*
X202056308Y-68504033D01*
X202149315Y-68556013D01*
X202199020Y-68606707D01*
X202213428Y-68676226D01*
X202187964Y-68742499D01*
X202130713Y-68784484D01*
X202087844Y-68792001D01*
X201715331Y-68792001D01*
X201708510Y-68792371D01*
X201657648Y-68797895D01*
X201642396Y-68801521D01*
X201521946Y-68846676D01*
X201506351Y-68855214D01*
X201404276Y-68931715D01*
X201391715Y-68944276D01*
X201315214Y-69046351D01*
X201306676Y-69061946D01*
X201261522Y-69182394D01*
X201257895Y-69197649D01*
X201252369Y-69248514D01*
X201252000Y-69255328D01*
X201252000Y-69877885D01*
X190001000Y-69877885D01*
X190001000Y-69052604D01*
X190021002Y-68984483D01*
X190037905Y-68963509D01*
X192611415Y-66389999D01*
X256194540Y-66389999D01*
X256214326Y-66578255D01*
X256272821Y-66758283D01*
X256276124Y-66764005D01*
X256276125Y-66764006D01*
X256329131Y-66855815D01*
X256367467Y-66922215D01*
X256371885Y-66927122D01*
X256371886Y-66927123D01*
X256475697Y-67042416D01*
X256494129Y-67062887D01*
X256499468Y-67066766D01*
X256575924Y-67122314D01*
X256647270Y-67174150D01*
X256820197Y-67251143D01*
X256909421Y-67270108D01*
X256998897Y-67289127D01*
X256998901Y-67289127D01*
X257005354Y-67290499D01*
X257194646Y-67290499D01*
X257201099Y-67289127D01*
X257201103Y-67289127D01*
X257290579Y-67270108D01*
X257379803Y-67251143D01*
X257552730Y-67174150D01*
X257624077Y-67122314D01*
X257700532Y-67066766D01*
X257705871Y-67062887D01*
X257724304Y-67042416D01*
X257828114Y-66927123D01*
X257828115Y-66927122D01*
X257832533Y-66922215D01*
X257870869Y-66855815D01*
X257923875Y-66764006D01*
X257923876Y-66764005D01*
X257927179Y-66758283D01*
X257985674Y-66578255D01*
X258005460Y-66389999D01*
X257985674Y-66201743D01*
X257927179Y-66021715D01*
X257832533Y-65857783D01*
X257814912Y-65838213D01*
X257710286Y-65722014D01*
X257710284Y-65722013D01*
X257705871Y-65717111D01*
X257671321Y-65692009D01*
X257558072Y-65609729D01*
X257558071Y-65609728D01*
X257552730Y-65605848D01*
X257379803Y-65528855D01*
X257265080Y-65504470D01*
X257201103Y-65490871D01*
X257201099Y-65490871D01*
X257194646Y-65489499D01*
X257005354Y-65489499D01*
X256998901Y-65490871D01*
X256998897Y-65490871D01*
X256934920Y-65504470D01*
X256820197Y-65528855D01*
X256647270Y-65605848D01*
X256641929Y-65609728D01*
X256641928Y-65609729D01*
X256528679Y-65692009D01*
X256494129Y-65717111D01*
X256489716Y-65722013D01*
X256489714Y-65722014D01*
X256385088Y-65838213D01*
X256367467Y-65857783D01*
X256272821Y-66021715D01*
X256214326Y-66201743D01*
X256194540Y-66389999D01*
X192611415Y-66389999D01*
X193946152Y-65055262D01*
X201554520Y-65055262D01*
X201571759Y-65260553D01*
X201628544Y-65458586D01*
X201631359Y-65464063D01*
X201631360Y-65464066D01*
X201719897Y-65636341D01*
X201722712Y-65641818D01*
X201850677Y-65803270D01*
X202007564Y-65936791D01*
X202187398Y-66037297D01*
X202253119Y-66058651D01*
X202377471Y-66099056D01*
X202377475Y-66099057D01*
X202383329Y-66100959D01*
X202587894Y-66125351D01*
X202594029Y-66124879D01*
X202594031Y-66124879D01*
X202650039Y-66120569D01*
X202793300Y-66109546D01*
X202799230Y-66107890D01*
X202799232Y-66107890D01*
X202985797Y-66055800D01*
X202985796Y-66055800D01*
X202991725Y-66054145D01*
X202997214Y-66051372D01*
X202997220Y-66051370D01*
X203170116Y-65964033D01*
X203175610Y-65961258D01*
X203337951Y-65834424D01*
X203432788Y-65724554D01*
X203468540Y-65683134D01*
X203468540Y-65683133D01*
X203472564Y-65678472D01*
X203493387Y-65641818D01*
X203571276Y-65504707D01*
X203574323Y-65499344D01*
X203639351Y-65303863D01*
X203641020Y-65290654D01*
X207623133Y-65290654D01*
X207658941Y-65499047D01*
X207732127Y-65697425D01*
X207735079Y-65702386D01*
X207735079Y-65702387D01*
X207827530Y-65857783D01*
X207840238Y-65879144D01*
X207979655Y-66038119D01*
X208145708Y-66169024D01*
X208150819Y-66171713D01*
X208150822Y-66171715D01*
X208245638Y-66221600D01*
X208332836Y-66267477D01*
X208534773Y-66330180D01*
X208540510Y-66330859D01*
X208702768Y-66350064D01*
X208702775Y-66350064D01*
X208706455Y-66350500D01*
X208828641Y-66350500D01*
X208985560Y-66336081D01*
X208991122Y-66334512D01*
X208991124Y-66334512D01*
X209047225Y-66318690D01*
X209189069Y-66278686D01*
X209194247Y-66276133D01*
X209194251Y-66276131D01*
X209373531Y-66187719D01*
X209378710Y-66185165D01*
X209548133Y-66058651D01*
X209641665Y-65957469D01*
X209687743Y-65907622D01*
X209687745Y-65907620D01*
X209691663Y-65903381D01*
X209704215Y-65883488D01*
X209801416Y-65729434D01*
X209801416Y-65729433D01*
X209804495Y-65724554D01*
X209882848Y-65528160D01*
X209883973Y-65522503D01*
X209883975Y-65522497D01*
X209922972Y-65326442D01*
X209922972Y-65326440D01*
X209924099Y-65320775D01*
X209924321Y-65303863D01*
X209924494Y-65290654D01*
X213073133Y-65290654D01*
X213108941Y-65499047D01*
X213182127Y-65697425D01*
X213185079Y-65702386D01*
X213185079Y-65702387D01*
X213277530Y-65857783D01*
X213290238Y-65879144D01*
X213429655Y-66038119D01*
X213595708Y-66169024D01*
X213600819Y-66171713D01*
X213600822Y-66171715D01*
X213695638Y-66221600D01*
X213782836Y-66267477D01*
X213984773Y-66330180D01*
X213990510Y-66330859D01*
X214152768Y-66350064D01*
X214152775Y-66350064D01*
X214156455Y-66350500D01*
X214278641Y-66350500D01*
X214435560Y-66336081D01*
X214441122Y-66334512D01*
X214441124Y-66334512D01*
X214497225Y-66318690D01*
X214639069Y-66278686D01*
X214644247Y-66276133D01*
X214644251Y-66276131D01*
X214823531Y-66187719D01*
X214828710Y-66185165D01*
X214998133Y-66058651D01*
X215091665Y-65957469D01*
X215137743Y-65907622D01*
X215137745Y-65907620D01*
X215141663Y-65903381D01*
X215154215Y-65883488D01*
X215251416Y-65729434D01*
X215251416Y-65729433D01*
X215254495Y-65724554D01*
X215332848Y-65528160D01*
X215333973Y-65522503D01*
X215333975Y-65522497D01*
X215372972Y-65326442D01*
X215372972Y-65326440D01*
X215374099Y-65320775D01*
X215374321Y-65303863D01*
X215376791Y-65115128D01*
X215376867Y-65109346D01*
X215367574Y-65055262D01*
X219334520Y-65055262D01*
X219351759Y-65260553D01*
X219408544Y-65458586D01*
X219411359Y-65464063D01*
X219411360Y-65464066D01*
X219499897Y-65636341D01*
X219502712Y-65641818D01*
X219630677Y-65803270D01*
X219787564Y-65936791D01*
X219967398Y-66037297D01*
X220033119Y-66058651D01*
X220157471Y-66099056D01*
X220157475Y-66099057D01*
X220163329Y-66100959D01*
X220367894Y-66125351D01*
X220374029Y-66124879D01*
X220374031Y-66124879D01*
X220430039Y-66120569D01*
X220573300Y-66109546D01*
X220579230Y-66107890D01*
X220579232Y-66107890D01*
X220765797Y-66055800D01*
X220765796Y-66055800D01*
X220771725Y-66054145D01*
X220777214Y-66051372D01*
X220777220Y-66051370D01*
X220950116Y-65964033D01*
X220955610Y-65961258D01*
X221117951Y-65834424D01*
X221212788Y-65724554D01*
X221248540Y-65683134D01*
X221248540Y-65683133D01*
X221252564Y-65678472D01*
X221273387Y-65641818D01*
X221351276Y-65504707D01*
X221354323Y-65499344D01*
X221419351Y-65303863D01*
X221445171Y-65099474D01*
X221445583Y-65070000D01*
X221425480Y-64864970D01*
X221365935Y-64667749D01*
X221269218Y-64485849D01*
X221168112Y-64361881D01*
X221142906Y-64330975D01*
X221142903Y-64330972D01*
X221139011Y-64326200D01*
X221121786Y-64311950D01*
X220985025Y-64198811D01*
X220985021Y-64198809D01*
X220980275Y-64194882D01*
X220799055Y-64096897D01*
X220602254Y-64035977D01*
X220596129Y-64035333D01*
X220596128Y-64035333D01*
X220403498Y-64015087D01*
X220403496Y-64015087D01*
X220397369Y-64014443D01*
X220310529Y-64022346D01*
X220198342Y-64032555D01*
X220198339Y-64032556D01*
X220192203Y-64033114D01*
X219994572Y-64091280D01*
X219812002Y-64186726D01*
X219807201Y-64190586D01*
X219807198Y-64190588D01*
X219752517Y-64234553D01*
X219651447Y-64315815D01*
X219519024Y-64473630D01*
X219516056Y-64479028D01*
X219516053Y-64479033D01*
X219422743Y-64648765D01*
X219419776Y-64654162D01*
X219357484Y-64850532D01*
X219356798Y-64856649D01*
X219356797Y-64856653D01*
X219351828Y-64900953D01*
X219334520Y-65055262D01*
X215367574Y-65055262D01*
X215341059Y-64900953D01*
X215267873Y-64702575D01*
X215243918Y-64662310D01*
X215162716Y-64525821D01*
X215162715Y-64525820D01*
X215159762Y-64520856D01*
X215020345Y-64361881D01*
X214854292Y-64230976D01*
X214849181Y-64228287D01*
X214849178Y-64228285D01*
X214754362Y-64178400D01*
X214667164Y-64132523D01*
X214465227Y-64069820D01*
X214450801Y-64068113D01*
X214297232Y-64049936D01*
X214297225Y-64049936D01*
X214293545Y-64049500D01*
X214171359Y-64049500D01*
X214014440Y-64063919D01*
X214008878Y-64065488D01*
X214008876Y-64065488D01*
X213952775Y-64081310D01*
X213810931Y-64121314D01*
X213805753Y-64123867D01*
X213805749Y-64123869D01*
X213653783Y-64198811D01*
X213621290Y-64214835D01*
X213616662Y-64218291D01*
X213477416Y-64322271D01*
X213451867Y-64341349D01*
X213428877Y-64366220D01*
X213318293Y-64485849D01*
X213308337Y-64496619D01*
X213305256Y-64501502D01*
X213212340Y-64648765D01*
X213195505Y-64675446D01*
X213117152Y-64871840D01*
X213116027Y-64877497D01*
X213116025Y-64877503D01*
X213081886Y-65049137D01*
X213075901Y-65079225D01*
X213075825Y-65085000D01*
X213075825Y-65085004D01*
X213075431Y-65115128D01*
X213073133Y-65290654D01*
X209924494Y-65290654D01*
X209926791Y-65115128D01*
X209926867Y-65109346D01*
X209891059Y-64900953D01*
X209817873Y-64702575D01*
X209793918Y-64662310D01*
X209712716Y-64525821D01*
X209712715Y-64525820D01*
X209709762Y-64520856D01*
X209570345Y-64361881D01*
X209404292Y-64230976D01*
X209399181Y-64228287D01*
X209399178Y-64228285D01*
X209304362Y-64178400D01*
X209217164Y-64132523D01*
X209015227Y-64069820D01*
X209000801Y-64068113D01*
X208847232Y-64049936D01*
X208847225Y-64049936D01*
X208843545Y-64049500D01*
X208721359Y-64049500D01*
X208564440Y-64063919D01*
X208558878Y-64065488D01*
X208558876Y-64065488D01*
X208502775Y-64081310D01*
X208360931Y-64121314D01*
X208355753Y-64123867D01*
X208355749Y-64123869D01*
X208203783Y-64198811D01*
X208171290Y-64214835D01*
X208166662Y-64218291D01*
X208027416Y-64322271D01*
X208001867Y-64341349D01*
X207978877Y-64366220D01*
X207868293Y-64485849D01*
X207858337Y-64496619D01*
X207855256Y-64501502D01*
X207762340Y-64648765D01*
X207745505Y-64675446D01*
X207667152Y-64871840D01*
X207666027Y-64877497D01*
X207666025Y-64877503D01*
X207631886Y-65049137D01*
X207625901Y-65079225D01*
X207625825Y-65085000D01*
X207625825Y-65085004D01*
X207625431Y-65115128D01*
X207623133Y-65290654D01*
X203641020Y-65290654D01*
X203665171Y-65099474D01*
X203665583Y-65070000D01*
X203645480Y-64864970D01*
X203585935Y-64667749D01*
X203489218Y-64485849D01*
X203388112Y-64361881D01*
X203362906Y-64330975D01*
X203362903Y-64330972D01*
X203359011Y-64326200D01*
X203341786Y-64311950D01*
X203205025Y-64198811D01*
X203205021Y-64198809D01*
X203200275Y-64194882D01*
X203019055Y-64096897D01*
X202822254Y-64035977D01*
X202816129Y-64035333D01*
X202816128Y-64035333D01*
X202623498Y-64015087D01*
X202623496Y-64015087D01*
X202617369Y-64014443D01*
X202530529Y-64022346D01*
X202418342Y-64032555D01*
X202418339Y-64032556D01*
X202412203Y-64033114D01*
X202214572Y-64091280D01*
X202032002Y-64186726D01*
X202027201Y-64190586D01*
X202027198Y-64190588D01*
X201972517Y-64234553D01*
X201871447Y-64315815D01*
X201739024Y-64473630D01*
X201736056Y-64479028D01*
X201736053Y-64479033D01*
X201642743Y-64648765D01*
X201639776Y-64654162D01*
X201577484Y-64850532D01*
X201576798Y-64856649D01*
X201576797Y-64856653D01*
X201571828Y-64900953D01*
X201554520Y-65055262D01*
X193946152Y-65055262D01*
X195963509Y-63037905D01*
X196025821Y-63003879D01*
X196052604Y-63001000D01*
X268947396Y-63001000D01*
X269015517Y-63021002D01*
G37*
%TD.AperFunction*%
%TD*%
M02*
