%TF.GenerationSoftware,KiCad,Pcbnew,(6.0.7)*%
%TF.CreationDate,2023-06-25T15:11:42-07:00*%
%TF.ProjectId,WaterSensor,57617465-7253-4656-9e73-6f722e6b6963,rev?*%
%TF.SameCoordinates,Original*%
%TF.FileFunction,Legend,Top*%
%TF.FilePolarity,Positive*%
%FSLAX46Y46*%
G04 Gerber Fmt 4.6, Leading zero omitted, Abs format (unit mm)*
G04 Created by KiCad (PCBNEW (6.0.7)) date 2023-06-25 15:11:42*
%MOMM*%
%LPD*%
G01*
G04 APERTURE LIST*
%ADD10C,0.125000*%
%ADD11C,0.150000*%
%ADD12C,0.254000*%
%ADD13C,0.120000*%
%ADD14C,0.200000*%
%ADD15C,0.100000*%
G04 APERTURE END LIST*
D10*
X195521428Y-85250000D02*
X195473809Y-85226190D01*
X195402380Y-85226190D01*
X195330952Y-85250000D01*
X195283333Y-85297619D01*
X195259523Y-85345238D01*
X195235714Y-85440476D01*
X195235714Y-85511904D01*
X195259523Y-85607142D01*
X195283333Y-85654761D01*
X195330952Y-85702380D01*
X195402380Y-85726190D01*
X195450000Y-85726190D01*
X195521428Y-85702380D01*
X195545238Y-85678571D01*
X195545238Y-85511904D01*
X195450000Y-85511904D01*
X195759523Y-85726190D02*
X195759523Y-85392857D01*
X195759523Y-85488095D02*
X195783333Y-85440476D01*
X195807142Y-85416666D01*
X195854761Y-85392857D01*
X195902380Y-85392857D01*
X196259523Y-85702380D02*
X196211904Y-85726190D01*
X196116666Y-85726190D01*
X196069047Y-85702380D01*
X196045238Y-85654761D01*
X196045238Y-85464285D01*
X196069047Y-85416666D01*
X196116666Y-85392857D01*
X196211904Y-85392857D01*
X196259523Y-85416666D01*
X196283333Y-85464285D01*
X196283333Y-85511904D01*
X196045238Y-85559523D01*
X196688095Y-85702380D02*
X196640476Y-85726190D01*
X196545238Y-85726190D01*
X196497619Y-85702380D01*
X196473809Y-85654761D01*
X196473809Y-85464285D01*
X196497619Y-85416666D01*
X196545238Y-85392857D01*
X196640476Y-85392857D01*
X196688095Y-85416666D01*
X196711904Y-85464285D01*
X196711904Y-85511904D01*
X196473809Y-85559523D01*
X196926190Y-85392857D02*
X196926190Y-85726190D01*
X196926190Y-85440476D02*
X196950000Y-85416666D01*
X196997619Y-85392857D01*
X197069047Y-85392857D01*
X197116666Y-85416666D01*
X197140476Y-85464285D01*
X197140476Y-85726190D01*
X191714285Y-85726190D02*
X191547619Y-85488095D01*
X191428571Y-85726190D02*
X191428571Y-85226190D01*
X191619047Y-85226190D01*
X191666666Y-85250000D01*
X191690476Y-85273809D01*
X191714285Y-85321428D01*
X191714285Y-85392857D01*
X191690476Y-85440476D01*
X191666666Y-85464285D01*
X191619047Y-85488095D01*
X191428571Y-85488095D01*
X192119047Y-85702380D02*
X192071428Y-85726190D01*
X191976190Y-85726190D01*
X191928571Y-85702380D01*
X191904761Y-85654761D01*
X191904761Y-85464285D01*
X191928571Y-85416666D01*
X191976190Y-85392857D01*
X192071428Y-85392857D01*
X192119047Y-85416666D01*
X192142857Y-85464285D01*
X192142857Y-85511904D01*
X191904761Y-85559523D01*
X192571428Y-85726190D02*
X192571428Y-85226190D01*
X192571428Y-85702380D02*
X192523809Y-85726190D01*
X192428571Y-85726190D01*
X192380952Y-85702380D01*
X192357142Y-85678571D01*
X192333333Y-85630952D01*
X192333333Y-85488095D01*
X192357142Y-85440476D01*
X192380952Y-85416666D01*
X192428571Y-85392857D01*
X192523809Y-85392857D01*
X192571428Y-85416666D01*
D11*
X229058142Y-109757142D02*
X229958142Y-109542857D01*
X229315285Y-109371428D01*
X229958142Y-109200000D01*
X229058142Y-108985714D01*
X229958142Y-108257142D02*
X229486714Y-108257142D01*
X229401000Y-108300000D01*
X229358142Y-108385714D01*
X229358142Y-108557142D01*
X229401000Y-108642857D01*
X229915285Y-108257142D02*
X229958142Y-108342857D01*
X229958142Y-108557142D01*
X229915285Y-108642857D01*
X229829571Y-108685714D01*
X229743857Y-108685714D01*
X229658142Y-108642857D01*
X229615285Y-108557142D01*
X229615285Y-108342857D01*
X229572428Y-108257142D01*
X229358142Y-107957142D02*
X229358142Y-107614285D01*
X229058142Y-107828571D02*
X229829571Y-107828571D01*
X229915285Y-107785714D01*
X229958142Y-107700000D01*
X229958142Y-107614285D01*
X229915285Y-106971428D02*
X229958142Y-107057142D01*
X229958142Y-107228571D01*
X229915285Y-107314285D01*
X229829571Y-107357142D01*
X229486714Y-107357142D01*
X229401000Y-107314285D01*
X229358142Y-107228571D01*
X229358142Y-107057142D01*
X229401000Y-106971428D01*
X229486714Y-106928571D01*
X229572428Y-106928571D01*
X229658142Y-107357142D01*
X229958142Y-106542857D02*
X229358142Y-106542857D01*
X229529571Y-106542857D02*
X229443857Y-106500000D01*
X229401000Y-106457142D01*
X229358142Y-106371428D01*
X229358142Y-106285714D01*
X229958142Y-104871428D02*
X229958142Y-105300000D01*
X229058142Y-105300000D01*
X229915285Y-104228571D02*
X229958142Y-104314285D01*
X229958142Y-104485714D01*
X229915285Y-104571428D01*
X229829571Y-104614285D01*
X229486714Y-104614285D01*
X229401000Y-104571428D01*
X229358142Y-104485714D01*
X229358142Y-104314285D01*
X229401000Y-104228571D01*
X229486714Y-104185714D01*
X229572428Y-104185714D01*
X229658142Y-104614285D01*
X229958142Y-103414285D02*
X229486714Y-103414285D01*
X229401000Y-103457142D01*
X229358142Y-103542857D01*
X229358142Y-103714285D01*
X229401000Y-103800000D01*
X229915285Y-103414285D02*
X229958142Y-103500000D01*
X229958142Y-103714285D01*
X229915285Y-103800000D01*
X229829571Y-103842857D01*
X229743857Y-103842857D01*
X229658142Y-103800000D01*
X229615285Y-103714285D01*
X229615285Y-103500000D01*
X229572428Y-103414285D01*
X229958142Y-102985714D02*
X229058142Y-102985714D01*
X229615285Y-102900000D02*
X229958142Y-102642857D01*
X229358142Y-102642857D02*
X229701000Y-102985714D01*
X229701000Y-101614285D02*
X229701000Y-101185714D01*
X229958142Y-101700000D02*
X229058142Y-101400000D01*
X229958142Y-101100000D01*
X229958142Y-100671428D02*
X229915285Y-100757142D01*
X229829571Y-100800000D01*
X229058142Y-100800000D01*
X229915285Y-99985714D02*
X229958142Y-100071428D01*
X229958142Y-100242857D01*
X229915285Y-100328571D01*
X229829571Y-100371428D01*
X229486714Y-100371428D01*
X229401000Y-100328571D01*
X229358142Y-100242857D01*
X229358142Y-100071428D01*
X229401000Y-99985714D01*
X229486714Y-99942857D01*
X229572428Y-99942857D01*
X229658142Y-100371428D01*
X229958142Y-99557142D02*
X229358142Y-99557142D01*
X229529571Y-99557142D02*
X229443857Y-99514285D01*
X229401000Y-99471428D01*
X229358142Y-99385714D01*
X229358142Y-99300000D01*
X229358142Y-99128571D02*
X229358142Y-98785714D01*
X229058142Y-99000000D02*
X229829571Y-99000000D01*
X229915285Y-98957142D01*
X229958142Y-98871428D01*
X229958142Y-98785714D01*
X229486714Y-97500000D02*
X229529571Y-97371428D01*
X229572428Y-97328571D01*
X229658142Y-97285714D01*
X229786714Y-97285714D01*
X229872428Y-97328571D01*
X229915285Y-97371428D01*
X229958142Y-97457142D01*
X229958142Y-97800000D01*
X229058142Y-97800000D01*
X229058142Y-97500000D01*
X229101000Y-97414285D01*
X229143857Y-97371428D01*
X229229571Y-97328571D01*
X229315285Y-97328571D01*
X229401000Y-97371428D01*
X229443857Y-97414285D01*
X229486714Y-97500000D01*
X229486714Y-97800000D01*
X229958142Y-96771428D02*
X229915285Y-96857142D01*
X229872428Y-96900000D01*
X229786714Y-96942857D01*
X229529571Y-96942857D01*
X229443857Y-96900000D01*
X229401000Y-96857142D01*
X229358142Y-96771428D01*
X229358142Y-96642857D01*
X229401000Y-96557142D01*
X229443857Y-96514285D01*
X229529571Y-96471428D01*
X229786714Y-96471428D01*
X229872428Y-96514285D01*
X229915285Y-96557142D01*
X229958142Y-96642857D01*
X229958142Y-96771428D01*
X229958142Y-95700000D02*
X229486714Y-95700000D01*
X229401000Y-95742857D01*
X229358142Y-95828571D01*
X229358142Y-96000000D01*
X229401000Y-96085714D01*
X229915285Y-95700000D02*
X229958142Y-95785714D01*
X229958142Y-96000000D01*
X229915285Y-96085714D01*
X229829571Y-96128571D01*
X229743857Y-96128571D01*
X229658142Y-96085714D01*
X229615285Y-96000000D01*
X229615285Y-95785714D01*
X229572428Y-95700000D01*
X229958142Y-95271428D02*
X229358142Y-95271428D01*
X229529571Y-95271428D02*
X229443857Y-95228571D01*
X229401000Y-95185714D01*
X229358142Y-95100000D01*
X229358142Y-95014285D01*
X229958142Y-94328571D02*
X229058142Y-94328571D01*
X229915285Y-94328571D02*
X229958142Y-94414285D01*
X229958142Y-94585714D01*
X229915285Y-94671428D01*
X229872428Y-94714285D01*
X229786714Y-94757142D01*
X229529571Y-94757142D01*
X229443857Y-94714285D01*
X229401000Y-94671428D01*
X229358142Y-94585714D01*
X229358142Y-94414285D01*
X229401000Y-94328571D01*
X231407142Y-107207142D02*
X230507142Y-107207142D01*
X231150000Y-106907142D01*
X230507142Y-106607142D01*
X231407142Y-106607142D01*
X231407142Y-106178571D02*
X230807142Y-106178571D01*
X230507142Y-106178571D02*
X230550000Y-106221428D01*
X230592857Y-106178571D01*
X230550000Y-106135714D01*
X230507142Y-106178571D01*
X230592857Y-106178571D01*
X231364285Y-105364285D02*
X231407142Y-105450000D01*
X231407142Y-105621428D01*
X231364285Y-105707142D01*
X231321428Y-105750000D01*
X231235714Y-105792857D01*
X230978571Y-105792857D01*
X230892857Y-105750000D01*
X230850000Y-105707142D01*
X230807142Y-105621428D01*
X230807142Y-105450000D01*
X230850000Y-105364285D01*
X231407142Y-104978571D02*
X230507142Y-104978571D01*
X231407142Y-104592857D02*
X230935714Y-104592857D01*
X230850000Y-104635714D01*
X230807142Y-104721428D01*
X230807142Y-104850000D01*
X230850000Y-104935714D01*
X230892857Y-104978571D01*
X231407142Y-103778571D02*
X230935714Y-103778571D01*
X230850000Y-103821428D01*
X230807142Y-103907142D01*
X230807142Y-104078571D01*
X230850000Y-104164285D01*
X231364285Y-103778571D02*
X231407142Y-103864285D01*
X231407142Y-104078571D01*
X231364285Y-104164285D01*
X231278571Y-104207142D01*
X231192857Y-104207142D01*
X231107142Y-104164285D01*
X231064285Y-104078571D01*
X231064285Y-103864285D01*
X231021428Y-103778571D01*
X231364285Y-103007142D02*
X231407142Y-103092857D01*
X231407142Y-103264285D01*
X231364285Y-103350000D01*
X231278571Y-103392857D01*
X230935714Y-103392857D01*
X230850000Y-103350000D01*
X230807142Y-103264285D01*
X230807142Y-103092857D01*
X230850000Y-103007142D01*
X230935714Y-102964285D01*
X231021428Y-102964285D01*
X231107142Y-103392857D01*
X231407142Y-102450000D02*
X231364285Y-102535714D01*
X231278571Y-102578571D01*
X230507142Y-102578571D01*
X230550000Y-100950000D02*
X230507142Y-101035714D01*
X230507142Y-101164285D01*
X230550000Y-101292857D01*
X230635714Y-101378571D01*
X230721428Y-101421428D01*
X230892857Y-101464285D01*
X231021428Y-101464285D01*
X231192857Y-101421428D01*
X231278571Y-101378571D01*
X231364285Y-101292857D01*
X231407142Y-101164285D01*
X231407142Y-101078571D01*
X231364285Y-100950000D01*
X231321428Y-100907142D01*
X231021428Y-100907142D01*
X231021428Y-101078571D01*
X231407142Y-100135714D02*
X230935714Y-100135714D01*
X230850000Y-100178571D01*
X230807142Y-100264285D01*
X230807142Y-100435714D01*
X230850000Y-100521428D01*
X231364285Y-100135714D02*
X231407142Y-100221428D01*
X231407142Y-100435714D01*
X231364285Y-100521428D01*
X231278571Y-100564285D01*
X231192857Y-100564285D01*
X231107142Y-100521428D01*
X231064285Y-100435714D01*
X231064285Y-100221428D01*
X231021428Y-100135714D01*
X231407142Y-99707142D02*
X230807142Y-99707142D01*
X230892857Y-99707142D02*
X230850000Y-99664285D01*
X230807142Y-99578571D01*
X230807142Y-99450000D01*
X230850000Y-99364285D01*
X230935714Y-99321428D01*
X231407142Y-99321428D01*
X230935714Y-99321428D02*
X230850000Y-99278571D01*
X230807142Y-99192857D01*
X230807142Y-99064285D01*
X230850000Y-98978571D01*
X230935714Y-98935714D01*
X231407142Y-98935714D01*
X231407142Y-98378571D02*
X231364285Y-98464285D01*
X231321428Y-98507142D01*
X231235714Y-98550000D01*
X230978571Y-98550000D01*
X230892857Y-98507142D01*
X230850000Y-98464285D01*
X230807142Y-98378571D01*
X230807142Y-98250000D01*
X230850000Y-98164285D01*
X230892857Y-98121428D01*
X230978571Y-98078571D01*
X231235714Y-98078571D01*
X231321428Y-98121428D01*
X231364285Y-98164285D01*
X231407142Y-98250000D01*
X231407142Y-98378571D01*
X230807142Y-97821428D02*
X230807142Y-97478571D01*
X230507142Y-97692857D02*
X231278571Y-97692857D01*
X231364285Y-97650000D01*
X231407142Y-97564285D01*
X231407142Y-97478571D01*
X231407142Y-96792857D02*
X230935714Y-96792857D01*
X230850000Y-96835714D01*
X230807142Y-96921428D01*
X230807142Y-97092857D01*
X230850000Y-97178571D01*
X231364285Y-96792857D02*
X231407142Y-96878571D01*
X231407142Y-97092857D01*
X231364285Y-97178571D01*
X231278571Y-97221428D01*
X231192857Y-97221428D01*
X231107142Y-97178571D01*
X231064285Y-97092857D01*
X231064285Y-96878571D01*
X231021428Y-96792857D01*
X231956142Y-105342857D02*
X231956142Y-105514285D01*
X231999000Y-105600000D01*
X232041857Y-105642857D01*
X232170428Y-105728571D01*
X232341857Y-105771428D01*
X232684714Y-105771428D01*
X232770428Y-105728571D01*
X232813285Y-105685714D01*
X232856142Y-105600000D01*
X232856142Y-105428571D01*
X232813285Y-105342857D01*
X232770428Y-105300000D01*
X232684714Y-105257142D01*
X232470428Y-105257142D01*
X232384714Y-105300000D01*
X232341857Y-105342857D01*
X232299000Y-105428571D01*
X232299000Y-105600000D01*
X232341857Y-105685714D01*
X232384714Y-105728571D01*
X232470428Y-105771428D01*
X231913285Y-104228571D02*
X233070428Y-105000000D01*
X232041857Y-103971428D02*
X231999000Y-103928571D01*
X231956142Y-103842857D01*
X231956142Y-103628571D01*
X231999000Y-103542857D01*
X232041857Y-103500000D01*
X232127571Y-103457142D01*
X232213285Y-103457142D01*
X232341857Y-103500000D01*
X232856142Y-104014285D01*
X232856142Y-103457142D01*
X231956142Y-102642857D02*
X231956142Y-103071428D01*
X232384714Y-103114285D01*
X232341857Y-103071428D01*
X232299000Y-102985714D01*
X232299000Y-102771428D01*
X232341857Y-102685714D01*
X232384714Y-102642857D01*
X232470428Y-102600000D01*
X232684714Y-102600000D01*
X232770428Y-102642857D01*
X232813285Y-102685714D01*
X232856142Y-102771428D01*
X232856142Y-102985714D01*
X232813285Y-103071428D01*
X232770428Y-103114285D01*
X231913285Y-101571428D02*
X233070428Y-102342857D01*
X232041857Y-101314285D02*
X231999000Y-101271428D01*
X231956142Y-101185714D01*
X231956142Y-100971428D01*
X231999000Y-100885714D01*
X232041857Y-100842857D01*
X232127571Y-100800000D01*
X232213285Y-100800000D01*
X232341857Y-100842857D01*
X232856142Y-101357142D01*
X232856142Y-100800000D01*
X231956142Y-100242857D02*
X231956142Y-100157142D01*
X231999000Y-100071428D01*
X232041857Y-100028571D01*
X232127571Y-99985714D01*
X232299000Y-99942857D01*
X232513285Y-99942857D01*
X232684714Y-99985714D01*
X232770428Y-100028571D01*
X232813285Y-100071428D01*
X232856142Y-100157142D01*
X232856142Y-100242857D01*
X232813285Y-100328571D01*
X232770428Y-100371428D01*
X232684714Y-100414285D01*
X232513285Y-100457142D01*
X232299000Y-100457142D01*
X232127571Y-100414285D01*
X232041857Y-100371428D01*
X231999000Y-100328571D01*
X231956142Y-100242857D01*
X232041857Y-99600000D02*
X231999000Y-99557142D01*
X231956142Y-99471428D01*
X231956142Y-99257142D01*
X231999000Y-99171428D01*
X232041857Y-99128571D01*
X232127571Y-99085714D01*
X232213285Y-99085714D01*
X232341857Y-99128571D01*
X232856142Y-99642857D01*
X232856142Y-99085714D01*
X231956142Y-98785714D02*
X231956142Y-98228571D01*
X232299000Y-98528571D01*
X232299000Y-98400000D01*
X232341857Y-98314285D01*
X232384714Y-98271428D01*
X232470428Y-98228571D01*
X232684714Y-98228571D01*
X232770428Y-98271428D01*
X232813285Y-98314285D01*
X232856142Y-98400000D01*
X232856142Y-98657142D01*
X232813285Y-98742857D01*
X232770428Y-98785714D01*
%TO.C,Power*%
X192323809Y-79352380D02*
X192323809Y-78352380D01*
X192704761Y-78352380D01*
X192800000Y-78400000D01*
X192847619Y-78447619D01*
X192895238Y-78542857D01*
X192895238Y-78685714D01*
X192847619Y-78780952D01*
X192800000Y-78828571D01*
X192704761Y-78876190D01*
X192323809Y-78876190D01*
X193466666Y-79352380D02*
X193371428Y-79304761D01*
X193323809Y-79257142D01*
X193276190Y-79161904D01*
X193276190Y-78876190D01*
X193323809Y-78780952D01*
X193371428Y-78733333D01*
X193466666Y-78685714D01*
X193609523Y-78685714D01*
X193704761Y-78733333D01*
X193752380Y-78780952D01*
X193800000Y-78876190D01*
X193800000Y-79161904D01*
X193752380Y-79257142D01*
X193704761Y-79304761D01*
X193609523Y-79352380D01*
X193466666Y-79352380D01*
X194133333Y-78685714D02*
X194323809Y-79352380D01*
X194514285Y-78876190D01*
X194704761Y-79352380D01*
X194895238Y-78685714D01*
X195657142Y-79304761D02*
X195561904Y-79352380D01*
X195371428Y-79352380D01*
X195276190Y-79304761D01*
X195228571Y-79209523D01*
X195228571Y-78828571D01*
X195276190Y-78733333D01*
X195371428Y-78685714D01*
X195561904Y-78685714D01*
X195657142Y-78733333D01*
X195704761Y-78828571D01*
X195704761Y-78923809D01*
X195228571Y-79019047D01*
X196133333Y-79352380D02*
X196133333Y-78685714D01*
X196133333Y-78876190D02*
X196180952Y-78780952D01*
X196228571Y-78733333D01*
X196323809Y-78685714D01*
X196419047Y-78685714D01*
%TO.C,R7*%
X191833333Y-98152380D02*
X191500000Y-97676190D01*
X191261904Y-98152380D02*
X191261904Y-97152380D01*
X191642857Y-97152380D01*
X191738095Y-97200000D01*
X191785714Y-97247619D01*
X191833333Y-97342857D01*
X191833333Y-97485714D01*
X191785714Y-97580952D01*
X191738095Y-97628571D01*
X191642857Y-97676190D01*
X191261904Y-97676190D01*
X192166666Y-97152380D02*
X192833333Y-97152380D01*
X192404761Y-98152380D01*
%TO.C,R6*%
X195933333Y-98152380D02*
X195600000Y-97676190D01*
X195361904Y-98152380D02*
X195361904Y-97152380D01*
X195742857Y-97152380D01*
X195838095Y-97200000D01*
X195885714Y-97247619D01*
X195933333Y-97342857D01*
X195933333Y-97485714D01*
X195885714Y-97580952D01*
X195838095Y-97628571D01*
X195742857Y-97676190D01*
X195361904Y-97676190D01*
X196790476Y-97152380D02*
X196600000Y-97152380D01*
X196504761Y-97200000D01*
X196457142Y-97247619D01*
X196361904Y-97390476D01*
X196314285Y-97580952D01*
X196314285Y-97961904D01*
X196361904Y-98057142D01*
X196409523Y-98104761D01*
X196504761Y-98152380D01*
X196695238Y-98152380D01*
X196790476Y-98104761D01*
X196838095Y-98057142D01*
X196885714Y-97961904D01*
X196885714Y-97723809D01*
X196838095Y-97628571D01*
X196790476Y-97580952D01*
X196695238Y-97533333D01*
X196504761Y-97533333D01*
X196409523Y-97580952D01*
X196361904Y-97628571D01*
X196314285Y-97723809D01*
D12*
%TO.C,111*%
X245753333Y-84074523D02*
X245027619Y-84074523D01*
X245390476Y-84074523D02*
X245390476Y-82804523D01*
X245269523Y-82985952D01*
X245148571Y-83106904D01*
X245027619Y-83167380D01*
X246962857Y-84074523D02*
X246237142Y-84074523D01*
X246600000Y-84074523D02*
X246600000Y-82804523D01*
X246479047Y-82985952D01*
X246358095Y-83106904D01*
X246237142Y-83167380D01*
X248172380Y-84074523D02*
X247446666Y-84074523D01*
X247809523Y-84074523D02*
X247809523Y-82804523D01*
X247688571Y-82985952D01*
X247567619Y-83106904D01*
X247446666Y-83167380D01*
D11*
%TO.C,R5*%
X242532380Y-71466666D02*
X242056190Y-71800000D01*
X242532380Y-72038095D02*
X241532380Y-72038095D01*
X241532380Y-71657142D01*
X241580000Y-71561904D01*
X241627619Y-71514285D01*
X241722857Y-71466666D01*
X241865714Y-71466666D01*
X241960952Y-71514285D01*
X242008571Y-71561904D01*
X242056190Y-71657142D01*
X242056190Y-72038095D01*
X241532380Y-70561904D02*
X241532380Y-71038095D01*
X242008571Y-71085714D01*
X241960952Y-71038095D01*
X241913333Y-70942857D01*
X241913333Y-70704761D01*
X241960952Y-70609523D01*
X242008571Y-70561904D01*
X242103809Y-70514285D01*
X242341904Y-70514285D01*
X242437142Y-70561904D01*
X242484761Y-70609523D01*
X242532380Y-70704761D01*
X242532380Y-70942857D01*
X242484761Y-71038095D01*
X242437142Y-71085714D01*
%TO.C,R4*%
X251172380Y-71466666D02*
X250696190Y-71800000D01*
X251172380Y-72038095D02*
X250172380Y-72038095D01*
X250172380Y-71657142D01*
X250220000Y-71561904D01*
X250267619Y-71514285D01*
X250362857Y-71466666D01*
X250505714Y-71466666D01*
X250600952Y-71514285D01*
X250648571Y-71561904D01*
X250696190Y-71657142D01*
X250696190Y-72038095D01*
X250505714Y-70609523D02*
X251172380Y-70609523D01*
X250124761Y-70847619D02*
X250839047Y-71085714D01*
X250839047Y-70466666D01*
%TO.C,Q1*%
X230324761Y-86097619D02*
X230229523Y-86050000D01*
X230134285Y-85954761D01*
X229991428Y-85811904D01*
X229896190Y-85764285D01*
X229800952Y-85764285D01*
X229848571Y-86002380D02*
X229753333Y-85954761D01*
X229658095Y-85859523D01*
X229610476Y-85669047D01*
X229610476Y-85335714D01*
X229658095Y-85145238D01*
X229753333Y-85050000D01*
X229848571Y-85002380D01*
X230039047Y-85002380D01*
X230134285Y-85050000D01*
X230229523Y-85145238D01*
X230277142Y-85335714D01*
X230277142Y-85669047D01*
X230229523Y-85859523D01*
X230134285Y-85954761D01*
X230039047Y-86002380D01*
X229848571Y-86002380D01*
X231229523Y-86002380D02*
X230658095Y-86002380D01*
X230943809Y-86002380D02*
X230943809Y-85002380D01*
X230848571Y-85145238D01*
X230753333Y-85240476D01*
X230658095Y-85288095D01*
%TO.C,RV1*%
X235389761Y-64897380D02*
X235056428Y-64421190D01*
X234818333Y-64897380D02*
X234818333Y-63897380D01*
X235199285Y-63897380D01*
X235294523Y-63945000D01*
X235342142Y-63992619D01*
X235389761Y-64087857D01*
X235389761Y-64230714D01*
X235342142Y-64325952D01*
X235294523Y-64373571D01*
X235199285Y-64421190D01*
X234818333Y-64421190D01*
X235675476Y-63897380D02*
X236008809Y-64897380D01*
X236342142Y-63897380D01*
X237199285Y-64897380D02*
X236627857Y-64897380D01*
X236913571Y-64897380D02*
X236913571Y-63897380D01*
X236818333Y-64040238D01*
X236723095Y-64135476D01*
X236627857Y-64183095D01*
%TO.C,R2*%
X255752380Y-88966664D02*
X255276190Y-89299998D01*
X255752380Y-89538093D02*
X254752380Y-89538093D01*
X254752380Y-89157140D01*
X254800000Y-89061902D01*
X254847619Y-89014283D01*
X254942857Y-88966664D01*
X255085714Y-88966664D01*
X255180952Y-89014283D01*
X255228571Y-89061902D01*
X255276190Y-89157140D01*
X255276190Y-89538093D01*
X254847619Y-88585712D02*
X254800000Y-88538093D01*
X254752380Y-88442855D01*
X254752380Y-88204759D01*
X254800000Y-88109521D01*
X254847619Y-88061902D01*
X254942857Y-88014283D01*
X255038095Y-88014283D01*
X255180952Y-88061902D01*
X255752380Y-88633331D01*
X255752380Y-88014283D01*
%TO.C,Alert*%
X255006665Y-82428808D02*
X255006665Y-81952618D01*
X255292379Y-82524046D02*
X254292379Y-82190713D01*
X255292379Y-81857379D01*
X255292379Y-81381189D02*
X255244760Y-81476427D01*
X255149522Y-81524046D01*
X254292379Y-81524046D01*
X255244760Y-80619284D02*
X255292379Y-80714522D01*
X255292379Y-80904999D01*
X255244760Y-81000237D01*
X255149522Y-81047856D01*
X254768570Y-81047856D01*
X254673332Y-81000237D01*
X254625713Y-80904999D01*
X254625713Y-80714522D01*
X254673332Y-80619284D01*
X254768570Y-80571665D01*
X254863808Y-80571665D01*
X254959046Y-81047856D01*
X255292379Y-80143094D02*
X254625713Y-80143094D01*
X254816189Y-80143094D02*
X254720951Y-80095475D01*
X254673332Y-80047856D01*
X254625713Y-79952618D01*
X254625713Y-79857379D01*
X254625713Y-79666903D02*
X254625713Y-79285951D01*
X254292379Y-79524046D02*
X255149522Y-79524046D01*
X255244760Y-79476427D01*
X255292379Y-79381189D01*
X255292379Y-79285951D01*
%TO.C,Probe B*%
X267114285Y-78452380D02*
X267114285Y-77452380D01*
X267495238Y-77452380D01*
X267590476Y-77500000D01*
X267638095Y-77547619D01*
X267685714Y-77642857D01*
X267685714Y-77785714D01*
X267638095Y-77880952D01*
X267590476Y-77928571D01*
X267495238Y-77976190D01*
X267114285Y-77976190D01*
X268114285Y-78452380D02*
X268114285Y-77785714D01*
X268114285Y-77976190D02*
X268161904Y-77880952D01*
X268209523Y-77833333D01*
X268304761Y-77785714D01*
X268400000Y-77785714D01*
X268876190Y-78452380D02*
X268780952Y-78404761D01*
X268733333Y-78357142D01*
X268685714Y-78261904D01*
X268685714Y-77976190D01*
X268733333Y-77880952D01*
X268780952Y-77833333D01*
X268876190Y-77785714D01*
X269019047Y-77785714D01*
X269114285Y-77833333D01*
X269161904Y-77880952D01*
X269209523Y-77976190D01*
X269209523Y-78261904D01*
X269161904Y-78357142D01*
X269114285Y-78404761D01*
X269019047Y-78452380D01*
X268876190Y-78452380D01*
X269638095Y-78452380D02*
X269638095Y-77452380D01*
X269638095Y-77833333D02*
X269733333Y-77785714D01*
X269923809Y-77785714D01*
X270019047Y-77833333D01*
X270066666Y-77880952D01*
X270114285Y-77976190D01*
X270114285Y-78261904D01*
X270066666Y-78357142D01*
X270019047Y-78404761D01*
X269923809Y-78452380D01*
X269733333Y-78452380D01*
X269638095Y-78404761D01*
X270923809Y-78404761D02*
X270828571Y-78452380D01*
X270638095Y-78452380D01*
X270542857Y-78404761D01*
X270495238Y-78309523D01*
X270495238Y-77928571D01*
X270542857Y-77833333D01*
X270638095Y-77785714D01*
X270828571Y-77785714D01*
X270923809Y-77833333D01*
X270971428Y-77928571D01*
X270971428Y-78023809D01*
X270495238Y-78119047D01*
X272495238Y-77928571D02*
X272638095Y-77976190D01*
X272685714Y-78023809D01*
X272733333Y-78119047D01*
X272733333Y-78261904D01*
X272685714Y-78357142D01*
X272638095Y-78404761D01*
X272542857Y-78452380D01*
X272161904Y-78452380D01*
X272161904Y-77452380D01*
X272495238Y-77452380D01*
X272590476Y-77500000D01*
X272638095Y-77547619D01*
X272685714Y-77642857D01*
X272685714Y-77738095D01*
X272638095Y-77833333D01*
X272590476Y-77880952D01*
X272495238Y-77928571D01*
X272161904Y-77928571D01*
%TO.C,Probe A*%
X267485714Y-73452380D02*
X267485714Y-72452380D01*
X267866666Y-72452380D01*
X267961904Y-72500000D01*
X268009523Y-72547619D01*
X268057142Y-72642857D01*
X268057142Y-72785714D01*
X268009523Y-72880952D01*
X267961904Y-72928571D01*
X267866666Y-72976190D01*
X267485714Y-72976190D01*
X268485714Y-73452380D02*
X268485714Y-72785714D01*
X268485714Y-72976190D02*
X268533333Y-72880952D01*
X268580952Y-72833333D01*
X268676190Y-72785714D01*
X268771428Y-72785714D01*
X269247619Y-73452380D02*
X269152380Y-73404761D01*
X269104761Y-73357142D01*
X269057142Y-73261904D01*
X269057142Y-72976190D01*
X269104761Y-72880952D01*
X269152380Y-72833333D01*
X269247619Y-72785714D01*
X269390476Y-72785714D01*
X269485714Y-72833333D01*
X269533333Y-72880952D01*
X269580952Y-72976190D01*
X269580952Y-73261904D01*
X269533333Y-73357142D01*
X269485714Y-73404761D01*
X269390476Y-73452380D01*
X269247619Y-73452380D01*
X270009523Y-73452380D02*
X270009523Y-72452380D01*
X270009523Y-72833333D02*
X270104761Y-72785714D01*
X270295238Y-72785714D01*
X270390476Y-72833333D01*
X270438095Y-72880952D01*
X270485714Y-72976190D01*
X270485714Y-73261904D01*
X270438095Y-73357142D01*
X270390476Y-73404761D01*
X270295238Y-73452380D01*
X270104761Y-73452380D01*
X270009523Y-73404761D01*
X271295238Y-73404761D02*
X271200000Y-73452380D01*
X271009523Y-73452380D01*
X270914285Y-73404761D01*
X270866666Y-73309523D01*
X270866666Y-72928571D01*
X270914285Y-72833333D01*
X271009523Y-72785714D01*
X271200000Y-72785714D01*
X271295238Y-72833333D01*
X271342857Y-72928571D01*
X271342857Y-73023809D01*
X270866666Y-73119047D01*
X272485714Y-73166666D02*
X272961904Y-73166666D01*
X272390476Y-73452380D02*
X272723809Y-72452380D01*
X273057142Y-73452380D01*
%TO.C,R3*%
X259472380Y-70366665D02*
X258996190Y-70699999D01*
X259472380Y-70938094D02*
X258472380Y-70938094D01*
X258472380Y-70557141D01*
X258520000Y-70461903D01*
X258567619Y-70414284D01*
X258662857Y-70366665D01*
X258805714Y-70366665D01*
X258900952Y-70414284D01*
X258948571Y-70461903D01*
X258996190Y-70557141D01*
X258996190Y-70938094D01*
X258472380Y-70033332D02*
X258472380Y-69414284D01*
X258853333Y-69747618D01*
X258853333Y-69604760D01*
X258900952Y-69509522D01*
X258948571Y-69461903D01*
X259043809Y-69414284D01*
X259281904Y-69414284D01*
X259377142Y-69461903D01*
X259424761Y-69509522D01*
X259472380Y-69604760D01*
X259472380Y-69890475D01*
X259424761Y-69985713D01*
X259377142Y-70033332D01*
%TO.C,U1*%
X210738095Y-88652380D02*
X210738095Y-89461904D01*
X210785714Y-89557142D01*
X210833333Y-89604761D01*
X210928571Y-89652380D01*
X211119047Y-89652380D01*
X211214285Y-89604761D01*
X211261904Y-89557142D01*
X211309523Y-89461904D01*
X211309523Y-88652380D01*
X212309523Y-89652380D02*
X211738095Y-89652380D01*
X212023809Y-89652380D02*
X212023809Y-88652380D01*
X211928571Y-88795238D01*
X211833333Y-88890476D01*
X211738095Y-88938095D01*
X198013096Y-85511218D02*
X197932284Y-85538155D01*
X197851471Y-85618967D01*
X197797597Y-85726717D01*
X197797597Y-85834467D01*
X197824534Y-85915279D01*
X197905346Y-86049966D01*
X197986158Y-86130778D01*
X198120845Y-86211590D01*
X198201658Y-86238528D01*
X198309407Y-86238528D01*
X198417157Y-86184653D01*
X198471032Y-86130778D01*
X198524906Y-86023028D01*
X198524906Y-85969154D01*
X198336345Y-85780592D01*
X198228595Y-85888341D01*
X198821218Y-85780592D02*
X198255532Y-85214906D01*
X198471032Y-84999407D01*
X198551844Y-84972470D01*
X198605719Y-84972470D01*
X198686531Y-84999407D01*
X198767343Y-85080219D01*
X198794280Y-85161032D01*
X198794280Y-85214906D01*
X198767343Y-85295719D01*
X198551844Y-85511218D01*
X199063654Y-84406784D02*
X198955905Y-84514534D01*
X198928967Y-84595346D01*
X198928967Y-84649221D01*
X198955905Y-84783908D01*
X199036717Y-84918595D01*
X199252216Y-85134094D01*
X199333028Y-85161032D01*
X199386903Y-85161032D01*
X199467715Y-85134094D01*
X199575465Y-85026345D01*
X199602402Y-84945532D01*
X199602402Y-84891658D01*
X199575465Y-84810845D01*
X199440778Y-84676158D01*
X199359966Y-84649221D01*
X199306091Y-84649221D01*
X199225279Y-84676158D01*
X199117529Y-84783908D01*
X199090592Y-84864720D01*
X199090592Y-84918595D01*
X199117529Y-84999407D01*
X198013096Y-90591218D02*
X197932284Y-90618155D01*
X197851471Y-90698967D01*
X197797597Y-90806717D01*
X197797597Y-90914467D01*
X197824534Y-90995279D01*
X197905346Y-91129966D01*
X197986158Y-91210778D01*
X198120845Y-91291590D01*
X198201658Y-91318528D01*
X198309407Y-91318528D01*
X198417157Y-91264653D01*
X198471032Y-91210778D01*
X198524906Y-91103028D01*
X198524906Y-91049154D01*
X198336345Y-90860592D01*
X198228595Y-90968341D01*
X198821218Y-90860592D02*
X198255532Y-90294906D01*
X198471032Y-90079407D01*
X198551844Y-90052470D01*
X198605719Y-90052470D01*
X198686531Y-90079407D01*
X198767343Y-90160219D01*
X198794280Y-90241032D01*
X198794280Y-90294906D01*
X198767343Y-90375719D01*
X198551844Y-90591218D01*
X199144467Y-89890845D02*
X199063654Y-89917783D01*
X199009780Y-89917783D01*
X198928967Y-89890845D01*
X198902030Y-89863908D01*
X198875093Y-89783096D01*
X198875093Y-89729221D01*
X198902030Y-89648409D01*
X199009780Y-89540659D01*
X199090592Y-89513722D01*
X199144467Y-89513722D01*
X199225279Y-89540659D01*
X199252216Y-89567597D01*
X199279154Y-89648409D01*
X199279154Y-89702284D01*
X199252216Y-89783096D01*
X199144467Y-89890845D01*
X199117529Y-89971658D01*
X199117529Y-90025532D01*
X199144467Y-90106345D01*
X199252216Y-90214094D01*
X199333028Y-90241032D01*
X199386903Y-90241032D01*
X199467715Y-90214094D01*
X199575465Y-90106345D01*
X199602402Y-90025532D01*
X199602402Y-89971658D01*
X199575465Y-89890845D01*
X199467715Y-89783096D01*
X199386903Y-89756158D01*
X199333028Y-89756158D01*
X199252216Y-89783096D01*
X223586158Y-70298155D02*
X223505346Y-70325093D01*
X223424534Y-70405905D01*
X223370659Y-70513654D01*
X223370659Y-70621404D01*
X223397597Y-70702216D01*
X223478409Y-70836903D01*
X223559221Y-70917715D01*
X223693908Y-70998528D01*
X223774720Y-71025465D01*
X223882470Y-71025465D01*
X223990219Y-70971590D01*
X224044094Y-70917715D01*
X224097969Y-70809966D01*
X224097969Y-70756091D01*
X223909407Y-70567529D01*
X223801658Y-70675279D01*
X224394280Y-70567529D02*
X223828595Y-70001844D01*
X224717529Y-70244280D01*
X224151844Y-69678595D01*
X224986903Y-69974906D02*
X224421218Y-69409221D01*
X224555905Y-69274534D01*
X224663654Y-69220659D01*
X224771404Y-69220659D01*
X224852216Y-69247597D01*
X224986903Y-69328409D01*
X225067715Y-69409221D01*
X225148528Y-69543908D01*
X225175465Y-69624720D01*
X225175465Y-69732470D01*
X225121590Y-69840219D01*
X224986903Y-69974906D01*
X223597722Y-101020592D02*
X223516910Y-101047529D01*
X223436097Y-101128341D01*
X223382223Y-101236091D01*
X223382223Y-101343841D01*
X223409160Y-101424653D01*
X223489972Y-101559340D01*
X223570784Y-101640152D01*
X223705471Y-101720964D01*
X223786284Y-101747902D01*
X223894033Y-101747902D01*
X224001783Y-101694027D01*
X224055658Y-101640152D01*
X224109532Y-101532402D01*
X224109532Y-101478528D01*
X223920971Y-101289966D01*
X223813221Y-101397715D01*
X224405844Y-101289966D02*
X223840158Y-100724280D01*
X224055658Y-100508781D01*
X224136470Y-100481844D01*
X224190345Y-100481844D01*
X224271157Y-100508781D01*
X224351969Y-100589593D01*
X224378906Y-100670406D01*
X224378906Y-100724280D01*
X224351969Y-100805093D01*
X224136470Y-101020592D01*
X224432781Y-100239407D02*
X224432781Y-100185532D01*
X224459719Y-100104720D01*
X224594406Y-99970033D01*
X224675218Y-99943096D01*
X224729093Y-99943096D01*
X224809905Y-99970033D01*
X224863780Y-100023908D01*
X224917654Y-100131658D01*
X224917654Y-100778155D01*
X225267841Y-100427969D01*
X225052341Y-99512097D02*
X225106216Y-99458223D01*
X225187028Y-99431285D01*
X225240903Y-99431285D01*
X225321715Y-99458223D01*
X225456402Y-99539035D01*
X225591089Y-99673722D01*
X225671902Y-99808409D01*
X225698839Y-99889221D01*
X225698839Y-99943096D01*
X225671902Y-100023908D01*
X225618027Y-100077783D01*
X225537215Y-100104720D01*
X225483340Y-100104720D01*
X225402528Y-100077783D01*
X225267841Y-99996971D01*
X225133154Y-99862284D01*
X225052341Y-99727597D01*
X225025404Y-99646784D01*
X225025404Y-99592910D01*
X225052341Y-99512097D01*
X198113096Y-88021218D02*
X198032284Y-88048155D01*
X197951471Y-88128967D01*
X197897597Y-88236717D01*
X197897597Y-88344467D01*
X197924534Y-88425279D01*
X198005346Y-88559966D01*
X198086158Y-88640778D01*
X198220845Y-88721590D01*
X198301658Y-88748528D01*
X198409407Y-88748528D01*
X198517157Y-88694653D01*
X198571032Y-88640778D01*
X198624906Y-88533028D01*
X198624906Y-88479154D01*
X198436345Y-88290592D01*
X198328595Y-88398341D01*
X198921218Y-88290592D02*
X198355532Y-87724906D01*
X198571032Y-87509407D01*
X198651844Y-87482470D01*
X198705719Y-87482470D01*
X198786531Y-87509407D01*
X198867343Y-87590219D01*
X198894280Y-87671032D01*
X198894280Y-87724906D01*
X198867343Y-87805719D01*
X198651844Y-88021218D01*
X198867343Y-87213096D02*
X199244467Y-86835972D01*
X199567715Y-87644094D01*
X197986158Y-108398155D02*
X197905346Y-108425093D01*
X197824534Y-108505905D01*
X197770659Y-108613654D01*
X197770659Y-108721404D01*
X197797597Y-108802216D01*
X197878409Y-108936903D01*
X197959221Y-109017715D01*
X198093908Y-109098528D01*
X198174720Y-109125465D01*
X198282470Y-109125465D01*
X198390219Y-109071590D01*
X198444094Y-109017715D01*
X198497969Y-108909966D01*
X198497969Y-108856091D01*
X198309407Y-108667529D01*
X198201658Y-108775279D01*
X198794280Y-108667529D02*
X198228595Y-108101844D01*
X199117529Y-108344280D01*
X198551844Y-107778595D01*
X199386903Y-108074906D02*
X198821218Y-107509221D01*
X198955905Y-107374534D01*
X199063654Y-107320659D01*
X199171404Y-107320659D01*
X199252216Y-107347597D01*
X199386903Y-107428409D01*
X199467715Y-107509221D01*
X199548528Y-107643908D01*
X199575465Y-107724720D01*
X199575465Y-107832470D01*
X199521590Y-107940219D01*
X199386903Y-108074906D01*
X223597722Y-103560592D02*
X223516910Y-103587529D01*
X223436097Y-103668341D01*
X223382223Y-103776091D01*
X223382223Y-103883841D01*
X223409160Y-103964653D01*
X223489972Y-104099340D01*
X223570784Y-104180152D01*
X223705471Y-104260964D01*
X223786284Y-104287902D01*
X223894033Y-104287902D01*
X224001783Y-104234027D01*
X224055658Y-104180152D01*
X224109532Y-104072402D01*
X224109532Y-104018528D01*
X223920971Y-103829966D01*
X223813221Y-103937715D01*
X224405844Y-103829966D02*
X223840158Y-103264280D01*
X224055658Y-103048781D01*
X224136470Y-103021844D01*
X224190345Y-103021844D01*
X224271157Y-103048781D01*
X224351969Y-103129593D01*
X224378906Y-103210406D01*
X224378906Y-103264280D01*
X224351969Y-103345093D01*
X224136470Y-103560592D01*
X225267841Y-102967969D02*
X224944592Y-103291218D01*
X225106216Y-103129593D02*
X224540531Y-102563908D01*
X224567468Y-102698595D01*
X224567468Y-102806345D01*
X224540531Y-102887157D01*
X225537215Y-102698595D02*
X225644964Y-102590845D01*
X225671902Y-102510033D01*
X225671902Y-102456158D01*
X225644964Y-102321471D01*
X225564152Y-102186784D01*
X225348653Y-101971285D01*
X225267841Y-101944348D01*
X225213966Y-101944348D01*
X225133154Y-101971285D01*
X225025404Y-102079035D01*
X224998467Y-102159847D01*
X224998467Y-102213722D01*
X225025404Y-102294534D01*
X225160091Y-102429221D01*
X225240903Y-102456158D01*
X225294778Y-102456158D01*
X225375590Y-102429221D01*
X225483340Y-102321471D01*
X225510277Y-102240659D01*
X225510277Y-102186784D01*
X225483340Y-102105972D01*
X197986158Y-82998155D02*
X197905346Y-83025093D01*
X197824534Y-83105905D01*
X197770659Y-83213654D01*
X197770659Y-83321404D01*
X197797597Y-83402216D01*
X197878409Y-83536903D01*
X197959221Y-83617715D01*
X198093908Y-83698528D01*
X198174720Y-83725465D01*
X198282470Y-83725465D01*
X198390219Y-83671590D01*
X198444094Y-83617715D01*
X198497969Y-83509966D01*
X198497969Y-83456091D01*
X198309407Y-83267529D01*
X198201658Y-83375279D01*
X198794280Y-83267529D02*
X198228595Y-82701844D01*
X199117529Y-82944280D01*
X198551844Y-82378595D01*
X199386903Y-82674906D02*
X198821218Y-82109221D01*
X198955905Y-81974534D01*
X199063654Y-81920659D01*
X199171404Y-81920659D01*
X199252216Y-81947597D01*
X199386903Y-82028409D01*
X199467715Y-82109221D01*
X199548528Y-82243908D01*
X199575465Y-82324720D01*
X199575465Y-82432470D01*
X199521590Y-82540219D01*
X199386903Y-82674906D01*
X223597722Y-93400592D02*
X223516910Y-93427529D01*
X223436097Y-93508341D01*
X223382223Y-93616091D01*
X223382223Y-93723841D01*
X223409160Y-93804653D01*
X223489972Y-93939340D01*
X223570784Y-94020152D01*
X223705471Y-94100964D01*
X223786284Y-94127902D01*
X223894033Y-94127902D01*
X224001783Y-94074027D01*
X224055658Y-94020152D01*
X224109532Y-93912402D01*
X224109532Y-93858528D01*
X223920971Y-93669966D01*
X223813221Y-93777715D01*
X224405844Y-93669966D02*
X223840158Y-93104280D01*
X224055658Y-92888781D01*
X224136470Y-92861844D01*
X224190345Y-92861844D01*
X224271157Y-92888781D01*
X224351969Y-92969593D01*
X224378906Y-93050406D01*
X224378906Y-93104280D01*
X224351969Y-93185093D01*
X224136470Y-93400592D01*
X224432781Y-92619407D02*
X224432781Y-92565532D01*
X224459719Y-92484720D01*
X224594406Y-92350033D01*
X224675218Y-92323096D01*
X224729093Y-92323096D01*
X224809905Y-92350033D01*
X224863780Y-92403908D01*
X224917654Y-92511658D01*
X224917654Y-93158155D01*
X225267841Y-92807969D01*
X224971529Y-92080659D02*
X224971529Y-92026784D01*
X224998467Y-91945972D01*
X225133154Y-91811285D01*
X225213966Y-91784348D01*
X225267841Y-91784348D01*
X225348653Y-91811285D01*
X225402528Y-91865160D01*
X225456402Y-91972910D01*
X225456402Y-92619407D01*
X225806589Y-92269221D01*
X223586158Y-95698155D02*
X223505346Y-95725093D01*
X223424534Y-95805905D01*
X223370659Y-95913654D01*
X223370659Y-96021404D01*
X223397597Y-96102216D01*
X223478409Y-96236903D01*
X223559221Y-96317715D01*
X223693908Y-96398528D01*
X223774720Y-96425465D01*
X223882470Y-96425465D01*
X223990219Y-96371590D01*
X224044094Y-96317715D01*
X224097969Y-96209966D01*
X224097969Y-96156091D01*
X223909407Y-95967529D01*
X223801658Y-96075279D01*
X224394280Y-95967529D02*
X223828595Y-95401844D01*
X224717529Y-95644280D01*
X224151844Y-95078595D01*
X224986903Y-95374906D02*
X224421218Y-94809221D01*
X224555905Y-94674534D01*
X224663654Y-94620659D01*
X224771404Y-94620659D01*
X224852216Y-94647597D01*
X224986903Y-94728409D01*
X225067715Y-94809221D01*
X225148528Y-94943908D01*
X225175465Y-95024720D01*
X225175465Y-95132470D01*
X225121590Y-95240219D01*
X224986903Y-95374906D01*
X198013096Y-77891218D02*
X197932284Y-77918155D01*
X197851471Y-77998967D01*
X197797597Y-78106717D01*
X197797597Y-78214467D01*
X197824534Y-78295279D01*
X197905346Y-78429966D01*
X197986158Y-78510778D01*
X198120845Y-78591590D01*
X198201658Y-78618528D01*
X198309407Y-78618528D01*
X198417157Y-78564653D01*
X198471032Y-78510778D01*
X198524906Y-78403028D01*
X198524906Y-78349154D01*
X198336345Y-78160592D01*
X198228595Y-78268341D01*
X198821218Y-78160592D02*
X198255532Y-77594906D01*
X198471032Y-77379407D01*
X198551844Y-77352470D01*
X198605719Y-77352470D01*
X198686531Y-77379407D01*
X198767343Y-77460219D01*
X198794280Y-77541032D01*
X198794280Y-77594906D01*
X198767343Y-77675719D01*
X198551844Y-77891218D01*
X199252216Y-76975346D02*
X199629340Y-77352470D01*
X198902030Y-76894534D02*
X199171404Y-77433282D01*
X199521590Y-77083096D01*
X223597722Y-111180592D02*
X223516910Y-111207529D01*
X223436097Y-111288341D01*
X223382223Y-111396091D01*
X223382223Y-111503841D01*
X223409160Y-111584653D01*
X223489972Y-111719340D01*
X223570784Y-111800152D01*
X223705471Y-111880964D01*
X223786284Y-111907902D01*
X223894033Y-111907902D01*
X224001783Y-111854027D01*
X224055658Y-111800152D01*
X224109532Y-111692402D01*
X224109532Y-111638528D01*
X223920971Y-111449966D01*
X223813221Y-111557715D01*
X224405844Y-111449966D02*
X223840158Y-110884280D01*
X224055658Y-110668781D01*
X224136470Y-110641844D01*
X224190345Y-110641844D01*
X224271157Y-110668781D01*
X224351969Y-110749593D01*
X224378906Y-110830406D01*
X224378906Y-110884280D01*
X224351969Y-110965093D01*
X224136470Y-111180592D01*
X225267841Y-110587969D02*
X224944592Y-110911218D01*
X225106216Y-110749593D02*
X224540531Y-110183908D01*
X224567468Y-110318595D01*
X224567468Y-110426345D01*
X224540531Y-110507157D01*
X224890717Y-109833722D02*
X225267841Y-109456598D01*
X225591089Y-110264720D01*
X197343722Y-101020592D02*
X197262910Y-101047529D01*
X197182097Y-101128341D01*
X197128223Y-101236091D01*
X197128223Y-101343841D01*
X197155160Y-101424653D01*
X197235972Y-101559340D01*
X197316784Y-101640152D01*
X197451471Y-101720964D01*
X197532284Y-101747902D01*
X197640033Y-101747902D01*
X197747783Y-101694027D01*
X197801658Y-101640152D01*
X197855532Y-101532402D01*
X197855532Y-101478528D01*
X197666971Y-101289966D01*
X197559221Y-101397715D01*
X198151844Y-101289966D02*
X197586158Y-100724280D01*
X197801658Y-100508781D01*
X197882470Y-100481844D01*
X197936345Y-100481844D01*
X198017157Y-100508781D01*
X198097969Y-100589593D01*
X198124906Y-100670406D01*
X198124906Y-100724280D01*
X198097969Y-100805093D01*
X197882470Y-101020592D01*
X199013841Y-100427969D02*
X198690592Y-100751218D01*
X198852216Y-100589593D02*
X198286531Y-100023908D01*
X198313468Y-100158595D01*
X198313468Y-100266345D01*
X198286531Y-100347157D01*
X199552589Y-99889221D02*
X199229340Y-100212470D01*
X199390964Y-100050845D02*
X198825279Y-99485160D01*
X198852216Y-99619847D01*
X198852216Y-99727597D01*
X198825279Y-99808409D01*
X223597722Y-106100592D02*
X223516910Y-106127529D01*
X223436097Y-106208341D01*
X223382223Y-106316091D01*
X223382223Y-106423841D01*
X223409160Y-106504653D01*
X223489972Y-106639340D01*
X223570784Y-106720152D01*
X223705471Y-106800964D01*
X223786284Y-106827902D01*
X223894033Y-106827902D01*
X224001783Y-106774027D01*
X224055658Y-106720152D01*
X224109532Y-106612402D01*
X224109532Y-106558528D01*
X223920971Y-106369966D01*
X223813221Y-106477715D01*
X224405844Y-106369966D02*
X223840158Y-105804280D01*
X224055658Y-105588781D01*
X224136470Y-105561844D01*
X224190345Y-105561844D01*
X224271157Y-105588781D01*
X224351969Y-105669593D01*
X224378906Y-105750406D01*
X224378906Y-105804280D01*
X224351969Y-105885093D01*
X224136470Y-106100592D01*
X225267841Y-105507969D02*
X224944592Y-105831218D01*
X225106216Y-105669593D02*
X224540531Y-105103908D01*
X224567468Y-105238595D01*
X224567468Y-105346345D01*
X224540531Y-105427157D01*
X225267841Y-104861471D02*
X225187028Y-104888409D01*
X225133154Y-104888409D01*
X225052341Y-104861471D01*
X225025404Y-104834534D01*
X224998467Y-104753722D01*
X224998467Y-104699847D01*
X225025404Y-104619035D01*
X225133154Y-104511285D01*
X225213966Y-104484348D01*
X225267841Y-104484348D01*
X225348653Y-104511285D01*
X225375590Y-104538223D01*
X225402528Y-104619035D01*
X225402528Y-104672910D01*
X225375590Y-104753722D01*
X225267841Y-104861471D01*
X225240903Y-104942284D01*
X225240903Y-104996158D01*
X225267841Y-105076971D01*
X225375590Y-105184720D01*
X225456402Y-105211658D01*
X225510277Y-105211658D01*
X225591089Y-105184720D01*
X225698839Y-105076971D01*
X225725776Y-104996158D01*
X225725776Y-104942284D01*
X225698839Y-104861471D01*
X225591089Y-104753722D01*
X225510277Y-104726784D01*
X225456402Y-104726784D01*
X225375590Y-104753722D01*
X223597722Y-85790592D02*
X223516910Y-85817529D01*
X223436097Y-85898341D01*
X223382223Y-86006091D01*
X223382223Y-86113841D01*
X223409160Y-86194653D01*
X223489972Y-86329340D01*
X223570784Y-86410152D01*
X223705471Y-86490964D01*
X223786284Y-86517902D01*
X223894033Y-86517902D01*
X224001783Y-86464027D01*
X224055658Y-86410152D01*
X224109532Y-86302402D01*
X224109532Y-86248528D01*
X223920971Y-86059966D01*
X223813221Y-86167715D01*
X224405844Y-86059966D02*
X223840158Y-85494280D01*
X224055658Y-85278781D01*
X224136470Y-85251844D01*
X224190345Y-85251844D01*
X224271157Y-85278781D01*
X224351969Y-85359593D01*
X224378906Y-85440406D01*
X224378906Y-85494280D01*
X224351969Y-85575093D01*
X224136470Y-85790592D01*
X224432781Y-85009407D02*
X224432781Y-84955532D01*
X224459719Y-84874720D01*
X224594406Y-84740033D01*
X224675218Y-84713096D01*
X224729093Y-84713096D01*
X224809905Y-84740033D01*
X224863780Y-84793908D01*
X224917654Y-84901658D01*
X224917654Y-85548155D01*
X225267841Y-85197969D01*
X224890717Y-84443722D02*
X225267841Y-84066598D01*
X225591089Y-84874720D01*
X197489722Y-98480592D02*
X197408910Y-98507529D01*
X197328097Y-98588341D01*
X197274223Y-98696091D01*
X197274223Y-98803841D01*
X197301160Y-98884653D01*
X197381972Y-99019340D01*
X197462784Y-99100152D01*
X197597471Y-99180964D01*
X197678284Y-99207902D01*
X197786033Y-99207902D01*
X197893783Y-99154027D01*
X197947658Y-99100152D01*
X198001532Y-98992402D01*
X198001532Y-98938528D01*
X197812971Y-98749966D01*
X197705221Y-98857715D01*
X198297844Y-98749966D02*
X197732158Y-98184280D01*
X197947658Y-97968781D01*
X198028470Y-97941844D01*
X198082345Y-97941844D01*
X198163157Y-97968781D01*
X198243969Y-98049593D01*
X198270906Y-98130406D01*
X198270906Y-98184280D01*
X198243969Y-98265093D01*
X198028470Y-98480592D01*
X199159841Y-97887969D02*
X198836592Y-98211218D01*
X198998216Y-98049593D02*
X198432531Y-97483908D01*
X198459468Y-97618595D01*
X198459468Y-97726345D01*
X198432531Y-97807157D01*
X198944341Y-96972097D02*
X198998216Y-96918223D01*
X199079028Y-96891285D01*
X199132903Y-96891285D01*
X199213715Y-96918223D01*
X199348402Y-96999035D01*
X199483089Y-97133722D01*
X199563902Y-97268409D01*
X199590839Y-97349221D01*
X199590839Y-97403096D01*
X199563902Y-97483908D01*
X199510027Y-97537783D01*
X199429215Y-97564720D01*
X199375340Y-97564720D01*
X199294528Y-97537783D01*
X199159841Y-97456971D01*
X199025154Y-97322284D01*
X198944341Y-97187597D01*
X198917404Y-97106784D01*
X198917404Y-97052910D01*
X198944341Y-96972097D01*
X223586158Y-108398155D02*
X223505346Y-108425093D01*
X223424534Y-108505905D01*
X223370659Y-108613654D01*
X223370659Y-108721404D01*
X223397597Y-108802216D01*
X223478409Y-108936903D01*
X223559221Y-109017715D01*
X223693908Y-109098528D01*
X223774720Y-109125465D01*
X223882470Y-109125465D01*
X223990219Y-109071590D01*
X224044094Y-109017715D01*
X224097969Y-108909966D01*
X224097969Y-108856091D01*
X223909407Y-108667529D01*
X223801658Y-108775279D01*
X224394280Y-108667529D02*
X223828595Y-108101844D01*
X224717529Y-108344280D01*
X224151844Y-107778595D01*
X224986903Y-108074906D02*
X224421218Y-107509221D01*
X224555905Y-107374534D01*
X224663654Y-107320659D01*
X224771404Y-107320659D01*
X224852216Y-107347597D01*
X224986903Y-107428409D01*
X225067715Y-107509221D01*
X225148528Y-107643908D01*
X225175465Y-107724720D01*
X225175465Y-107832470D01*
X225121590Y-107940219D01*
X224986903Y-108074906D01*
X197489722Y-113720592D02*
X197408910Y-113747529D01*
X197328097Y-113828341D01*
X197274223Y-113936091D01*
X197274223Y-114043841D01*
X197301160Y-114124653D01*
X197381972Y-114259340D01*
X197462784Y-114340152D01*
X197597471Y-114420964D01*
X197678284Y-114447902D01*
X197786033Y-114447902D01*
X197893783Y-114394027D01*
X197947658Y-114340152D01*
X198001532Y-114232402D01*
X198001532Y-114178528D01*
X197812971Y-113989966D01*
X197705221Y-114097715D01*
X198297844Y-113989966D02*
X197732158Y-113424280D01*
X197947658Y-113208781D01*
X198028470Y-113181844D01*
X198082345Y-113181844D01*
X198163157Y-113208781D01*
X198243969Y-113289593D01*
X198270906Y-113370406D01*
X198270906Y-113424280D01*
X198243969Y-113505093D01*
X198028470Y-113720592D01*
X199159841Y-113127969D02*
X198836592Y-113451218D01*
X198998216Y-113289593D02*
X198432531Y-112723908D01*
X198459468Y-112858595D01*
X198459468Y-112966345D01*
X198432531Y-113047157D01*
X199105966Y-112050473D02*
X198836592Y-112319847D01*
X199079028Y-112616158D01*
X199079028Y-112562284D01*
X199105966Y-112481471D01*
X199240653Y-112346784D01*
X199321465Y-112319847D01*
X199375340Y-112319847D01*
X199456152Y-112346784D01*
X199590839Y-112481471D01*
X199617776Y-112562284D01*
X199617776Y-112616158D01*
X199590839Y-112696971D01*
X199456152Y-112831658D01*
X199375340Y-112858595D01*
X199321465Y-112858595D01*
X223597722Y-88320592D02*
X223516910Y-88347529D01*
X223436097Y-88428341D01*
X223382223Y-88536091D01*
X223382223Y-88643841D01*
X223409160Y-88724653D01*
X223489972Y-88859340D01*
X223570784Y-88940152D01*
X223705471Y-89020964D01*
X223786284Y-89047902D01*
X223894033Y-89047902D01*
X224001783Y-88994027D01*
X224055658Y-88940152D01*
X224109532Y-88832402D01*
X224109532Y-88778528D01*
X223920971Y-88589966D01*
X223813221Y-88697715D01*
X224405844Y-88589966D02*
X223840158Y-88024280D01*
X224055658Y-87808781D01*
X224136470Y-87781844D01*
X224190345Y-87781844D01*
X224271157Y-87808781D01*
X224351969Y-87889593D01*
X224378906Y-87970406D01*
X224378906Y-88024280D01*
X224351969Y-88105093D01*
X224136470Y-88320592D01*
X224432781Y-87539407D02*
X224432781Y-87485532D01*
X224459719Y-87404720D01*
X224594406Y-87270033D01*
X224675218Y-87243096D01*
X224729093Y-87243096D01*
X224809905Y-87270033D01*
X224863780Y-87323908D01*
X224917654Y-87431658D01*
X224917654Y-88078155D01*
X225267841Y-87727969D01*
X225187028Y-86677410D02*
X225079279Y-86785160D01*
X225052341Y-86865972D01*
X225052341Y-86919847D01*
X225079279Y-87054534D01*
X225160091Y-87189221D01*
X225375590Y-87404720D01*
X225456402Y-87431658D01*
X225510277Y-87431658D01*
X225591089Y-87404720D01*
X225698839Y-87296971D01*
X225725776Y-87216158D01*
X225725776Y-87162284D01*
X225698839Y-87081471D01*
X225564152Y-86946784D01*
X225483340Y-86919847D01*
X225429465Y-86919847D01*
X225348653Y-86946784D01*
X225240903Y-87054534D01*
X225213966Y-87135346D01*
X225213966Y-87189221D01*
X225240903Y-87270033D01*
X197986158Y-95698155D02*
X197905346Y-95725093D01*
X197824534Y-95805905D01*
X197770659Y-95913654D01*
X197770659Y-96021404D01*
X197797597Y-96102216D01*
X197878409Y-96236903D01*
X197959221Y-96317715D01*
X198093908Y-96398528D01*
X198174720Y-96425465D01*
X198282470Y-96425465D01*
X198390219Y-96371590D01*
X198444094Y-96317715D01*
X198497969Y-96209966D01*
X198497969Y-96156091D01*
X198309407Y-95967529D01*
X198201658Y-96075279D01*
X198794280Y-95967529D02*
X198228595Y-95401844D01*
X199117529Y-95644280D01*
X198551844Y-95078595D01*
X199386903Y-95374906D02*
X198821218Y-94809221D01*
X198955905Y-94674534D01*
X199063654Y-94620659D01*
X199171404Y-94620659D01*
X199252216Y-94647597D01*
X199386903Y-94728409D01*
X199467715Y-94809221D01*
X199548528Y-94943908D01*
X199575465Y-95024720D01*
X199575465Y-95132470D01*
X199521590Y-95240219D01*
X199386903Y-95374906D01*
X223453129Y-65727309D02*
X224207377Y-66104433D01*
X223830253Y-65350186D01*
X224476751Y-65242436D02*
X224584500Y-65188561D01*
X224638375Y-65188561D01*
X224719187Y-65215499D01*
X224800000Y-65296311D01*
X224826937Y-65377123D01*
X224826937Y-65430998D01*
X224800000Y-65511810D01*
X224584500Y-65727309D01*
X224018815Y-65161624D01*
X224207377Y-64973062D01*
X224288189Y-64946125D01*
X224342064Y-64946125D01*
X224422876Y-64973062D01*
X224476751Y-65026937D01*
X224503688Y-65107749D01*
X224503688Y-65161624D01*
X224476751Y-65242436D01*
X224288189Y-65430998D01*
X224584500Y-64595938D02*
X225042436Y-65053874D01*
X225123248Y-65080812D01*
X225177123Y-65080812D01*
X225257935Y-65053874D01*
X225365685Y-64946125D01*
X225392622Y-64865312D01*
X225392622Y-64811438D01*
X225365685Y-64730625D01*
X224907749Y-64272690D01*
X225688934Y-64569001D02*
X225796683Y-64515126D01*
X225931370Y-64380439D01*
X225958308Y-64299627D01*
X225958308Y-64245752D01*
X225931370Y-64164940D01*
X225877496Y-64111065D01*
X225796683Y-64084128D01*
X225742809Y-64084128D01*
X225661996Y-64111065D01*
X225527309Y-64191877D01*
X225446497Y-64218815D01*
X225392622Y-64218815D01*
X225311810Y-64191877D01*
X225257935Y-64138003D01*
X225230998Y-64057190D01*
X225230998Y-64003316D01*
X225257935Y-63922503D01*
X225392622Y-63787816D01*
X225500372Y-63733942D01*
X223422131Y-73158308D02*
X223772317Y-72808122D01*
X223799255Y-73212183D01*
X223880067Y-73131370D01*
X223960879Y-73104433D01*
X224014754Y-73104433D01*
X224095566Y-73131370D01*
X224230253Y-73266057D01*
X224257190Y-73346870D01*
X224257190Y-73400744D01*
X224230253Y-73481557D01*
X224068629Y-73643181D01*
X223987816Y-73670118D01*
X223933942Y-73670118D01*
X223933942Y-72646497D02*
X224688189Y-73023621D01*
X224311065Y-72269374D01*
X224445752Y-72134687D02*
X224795938Y-71784500D01*
X224822876Y-72188561D01*
X224903688Y-72107749D01*
X224984500Y-72080812D01*
X225038375Y-72080812D01*
X225119187Y-72107749D01*
X225253874Y-72242436D01*
X225280812Y-72323248D01*
X225280812Y-72377123D01*
X225253874Y-72457935D01*
X225092250Y-72619560D01*
X225011438Y-72646497D01*
X224957563Y-72646497D01*
X225523248Y-72296311D02*
X225954247Y-71865312D01*
X225738748Y-71380439D02*
X225927309Y-71191877D01*
X226304433Y-71407377D02*
X226035059Y-71676751D01*
X225469374Y-71111065D01*
X225738748Y-70841691D01*
X226546870Y-71164940D02*
X225981184Y-70599255D01*
X226870118Y-70841691D01*
X226304433Y-70276006D01*
X215404761Y-115723809D02*
X215519047Y-115761904D01*
X215709523Y-115761904D01*
X215785714Y-115723809D01*
X215823809Y-115685714D01*
X215861904Y-115609523D01*
X215861904Y-115533333D01*
X215823809Y-115457142D01*
X215785714Y-115419047D01*
X215709523Y-115380952D01*
X215557142Y-115342857D01*
X215480952Y-115304761D01*
X215442857Y-115266666D01*
X215404761Y-115190476D01*
X215404761Y-115114285D01*
X215442857Y-115038095D01*
X215480952Y-115000000D01*
X215557142Y-114961904D01*
X215747619Y-114961904D01*
X215861904Y-115000000D01*
X216128571Y-114961904D02*
X216319047Y-115761904D01*
X216471428Y-115190476D01*
X216623809Y-115761904D01*
X216814285Y-114961904D01*
X217119047Y-115761904D02*
X217119047Y-114961904D01*
X217309523Y-114961904D01*
X217423809Y-115000000D01*
X217500000Y-115076190D01*
X217538095Y-115152380D01*
X217576190Y-115304761D01*
X217576190Y-115419047D01*
X217538095Y-115571428D01*
X217500000Y-115647619D01*
X217423809Y-115723809D01*
X217309523Y-115761904D01*
X217119047Y-115761904D01*
X217919047Y-115761904D02*
X217919047Y-114961904D01*
X218452380Y-114961904D02*
X218604761Y-114961904D01*
X218680952Y-115000000D01*
X218757142Y-115076190D01*
X218795238Y-115228571D01*
X218795238Y-115495238D01*
X218757142Y-115647619D01*
X218680952Y-115723809D01*
X218604761Y-115761904D01*
X218452380Y-115761904D01*
X218376190Y-115723809D01*
X218300000Y-115647619D01*
X218261904Y-115495238D01*
X218261904Y-115228571D01*
X218300000Y-115076190D01*
X218376190Y-115000000D01*
X218452380Y-114961904D01*
X197443722Y-111180592D02*
X197362910Y-111207529D01*
X197282097Y-111288341D01*
X197228223Y-111396091D01*
X197228223Y-111503841D01*
X197255160Y-111584653D01*
X197335972Y-111719340D01*
X197416784Y-111800152D01*
X197551471Y-111880964D01*
X197632284Y-111907902D01*
X197740033Y-111907902D01*
X197847783Y-111854027D01*
X197901658Y-111800152D01*
X197955532Y-111692402D01*
X197955532Y-111638528D01*
X197766971Y-111449966D01*
X197659221Y-111557715D01*
X198251844Y-111449966D02*
X197686158Y-110884280D01*
X197901658Y-110668781D01*
X197982470Y-110641844D01*
X198036345Y-110641844D01*
X198117157Y-110668781D01*
X198197969Y-110749593D01*
X198224906Y-110830406D01*
X198224906Y-110884280D01*
X198197969Y-110965093D01*
X197982470Y-111180592D01*
X199113841Y-110587969D02*
X198790592Y-110911218D01*
X198952216Y-110749593D02*
X198386531Y-110183908D01*
X198413468Y-110318595D01*
X198413468Y-110426345D01*
X198386531Y-110507157D01*
X199221590Y-109725972D02*
X199598714Y-110103096D01*
X198871404Y-109645160D02*
X199140778Y-110183908D01*
X199490964Y-109833722D01*
X198013096Y-80431218D02*
X197932284Y-80458155D01*
X197851471Y-80538967D01*
X197797597Y-80646717D01*
X197797597Y-80754467D01*
X197824534Y-80835279D01*
X197905346Y-80969966D01*
X197986158Y-81050778D01*
X198120845Y-81131590D01*
X198201658Y-81158528D01*
X198309407Y-81158528D01*
X198417157Y-81104653D01*
X198471032Y-81050778D01*
X198524906Y-80943028D01*
X198524906Y-80889154D01*
X198336345Y-80700592D01*
X198228595Y-80808341D01*
X198821218Y-80700592D02*
X198255532Y-80134906D01*
X198471032Y-79919407D01*
X198551844Y-79892470D01*
X198605719Y-79892470D01*
X198686531Y-79919407D01*
X198767343Y-80000219D01*
X198794280Y-80081032D01*
X198794280Y-80134906D01*
X198767343Y-80215719D01*
X198551844Y-80431218D01*
X199090592Y-79299847D02*
X198821218Y-79569221D01*
X199063654Y-79865532D01*
X199063654Y-79811658D01*
X199090592Y-79730845D01*
X199225279Y-79596158D01*
X199306091Y-79569221D01*
X199359966Y-79569221D01*
X199440778Y-79596158D01*
X199575465Y-79730845D01*
X199602402Y-79811658D01*
X199602402Y-79865532D01*
X199575465Y-79946345D01*
X199440778Y-80081032D01*
X199359966Y-80107969D01*
X199306091Y-80107969D01*
X223597722Y-98490592D02*
X223516910Y-98517529D01*
X223436097Y-98598341D01*
X223382223Y-98706091D01*
X223382223Y-98813841D01*
X223409160Y-98894653D01*
X223489972Y-99029340D01*
X223570784Y-99110152D01*
X223705471Y-99190964D01*
X223786284Y-99217902D01*
X223894033Y-99217902D01*
X224001783Y-99164027D01*
X224055658Y-99110152D01*
X224109532Y-99002402D01*
X224109532Y-98948528D01*
X223920971Y-98759966D01*
X223813221Y-98867715D01*
X224405844Y-98759966D02*
X223840158Y-98194280D01*
X224055658Y-97978781D01*
X224136470Y-97951844D01*
X224190345Y-97951844D01*
X224271157Y-97978781D01*
X224351969Y-98059593D01*
X224378906Y-98140406D01*
X224378906Y-98194280D01*
X224351969Y-98275093D01*
X224136470Y-98490592D01*
X224432781Y-97709407D02*
X224432781Y-97655532D01*
X224459719Y-97574720D01*
X224594406Y-97440033D01*
X224675218Y-97413096D01*
X224729093Y-97413096D01*
X224809905Y-97440033D01*
X224863780Y-97493908D01*
X224917654Y-97601658D01*
X224917654Y-98248155D01*
X225267841Y-97897969D01*
X225806589Y-97359221D02*
X225483340Y-97682470D01*
X225644964Y-97520845D02*
X225079279Y-96955160D01*
X225106216Y-97089847D01*
X225106216Y-97197597D01*
X225079279Y-97278409D01*
X198013096Y-75351218D02*
X197932284Y-75378155D01*
X197851471Y-75458967D01*
X197797597Y-75566717D01*
X197797597Y-75674467D01*
X197824534Y-75755279D01*
X197905346Y-75889966D01*
X197986158Y-75970778D01*
X198120845Y-76051590D01*
X198201658Y-76078528D01*
X198309407Y-76078528D01*
X198417157Y-76024653D01*
X198471032Y-75970778D01*
X198524906Y-75863028D01*
X198524906Y-75809154D01*
X198336345Y-75620592D01*
X198228595Y-75728341D01*
X198821218Y-75620592D02*
X198255532Y-75054906D01*
X198471032Y-74839407D01*
X198551844Y-74812470D01*
X198605719Y-74812470D01*
X198686531Y-74839407D01*
X198767343Y-74920219D01*
X198794280Y-75001032D01*
X198794280Y-75054906D01*
X198767343Y-75135719D01*
X198551844Y-75351218D01*
X198767343Y-74543096D02*
X199117529Y-74192910D01*
X199144467Y-74596971D01*
X199225279Y-74516158D01*
X199306091Y-74489221D01*
X199359966Y-74489221D01*
X199440778Y-74516158D01*
X199575465Y-74650845D01*
X199602402Y-74731658D01*
X199602402Y-74785532D01*
X199575465Y-74866345D01*
X199413841Y-75027969D01*
X199333028Y-75054906D01*
X199279154Y-75054906D01*
X197986158Y-70298155D02*
X197905346Y-70325093D01*
X197824534Y-70405905D01*
X197770659Y-70513654D01*
X197770659Y-70621404D01*
X197797597Y-70702216D01*
X197878409Y-70836903D01*
X197959221Y-70917715D01*
X198093908Y-70998528D01*
X198174720Y-71025465D01*
X198282470Y-71025465D01*
X198390219Y-70971590D01*
X198444094Y-70917715D01*
X198497969Y-70809966D01*
X198497969Y-70756091D01*
X198309407Y-70567529D01*
X198201658Y-70675279D01*
X198794280Y-70567529D02*
X198228595Y-70001844D01*
X199117529Y-70244280D01*
X198551844Y-69678595D01*
X199386903Y-69974906D02*
X198821218Y-69409221D01*
X198955905Y-69274534D01*
X199063654Y-69220659D01*
X199171404Y-69220659D01*
X199252216Y-69247597D01*
X199386903Y-69328409D01*
X199467715Y-69409221D01*
X199548528Y-69543908D01*
X199575465Y-69624720D01*
X199575465Y-69732470D01*
X199521590Y-69840219D01*
X199386903Y-69974906D01*
X223389847Y-75690592D02*
X223740033Y-75340406D01*
X223766971Y-75744467D01*
X223847783Y-75663654D01*
X223928595Y-75636717D01*
X223982470Y-75636717D01*
X224063282Y-75663654D01*
X224197969Y-75798341D01*
X224224906Y-75879154D01*
X224224906Y-75933028D01*
X224197969Y-76013841D01*
X224036345Y-76175465D01*
X223955532Y-76202402D01*
X223901658Y-76202402D01*
X223901658Y-75178781D02*
X224655905Y-75555905D01*
X224278781Y-74801658D01*
X224413468Y-74666971D02*
X224763654Y-74316784D01*
X224790592Y-74720845D01*
X224871404Y-74640033D01*
X224952216Y-74613096D01*
X225006091Y-74613096D01*
X225086903Y-74640033D01*
X225221590Y-74774720D01*
X225248528Y-74855532D01*
X225248528Y-74909407D01*
X225221590Y-74990219D01*
X225059966Y-75151844D01*
X224979154Y-75178781D01*
X224925279Y-75178781D01*
X223420473Y-68269966D02*
X224174720Y-68647089D01*
X223797597Y-67892842D01*
X224497969Y-68269966D02*
X224605719Y-68216091D01*
X224740406Y-68081404D01*
X224767343Y-68000592D01*
X224767343Y-67946717D01*
X224740406Y-67865905D01*
X224686531Y-67812030D01*
X224605719Y-67785093D01*
X224551844Y-67785093D01*
X224471032Y-67812030D01*
X224336345Y-67892842D01*
X224255532Y-67919780D01*
X224201658Y-67919780D01*
X224120845Y-67892842D01*
X224066971Y-67838967D01*
X224040033Y-67758155D01*
X224040033Y-67704280D01*
X224066971Y-67623468D01*
X224201658Y-67488781D01*
X224309407Y-67434906D01*
X224928967Y-67354094D02*
X225198341Y-67623468D01*
X224444094Y-67246345D02*
X224928967Y-67354094D01*
X224821218Y-66869221D01*
X225521590Y-67246345D02*
X225629340Y-67192470D01*
X225764027Y-67057783D01*
X225790964Y-66976971D01*
X225790964Y-66923096D01*
X225764027Y-66842284D01*
X225710152Y-66788409D01*
X225629340Y-66761471D01*
X225575465Y-66761471D01*
X225494653Y-66788409D01*
X225359966Y-66869221D01*
X225279154Y-66896158D01*
X225225279Y-66896158D01*
X225144467Y-66869221D01*
X225090592Y-66815346D01*
X225063654Y-66734534D01*
X225063654Y-66680659D01*
X225090592Y-66599847D01*
X225225279Y-66465160D01*
X225333028Y-66411285D01*
X223597722Y-80446592D02*
X223516910Y-80473529D01*
X223436097Y-80554341D01*
X223382223Y-80662091D01*
X223382223Y-80769841D01*
X223409160Y-80850653D01*
X223489972Y-80985340D01*
X223570784Y-81066152D01*
X223705471Y-81146964D01*
X223786284Y-81173902D01*
X223894033Y-81173902D01*
X224001783Y-81120027D01*
X224055658Y-81066152D01*
X224109532Y-80958402D01*
X224109532Y-80904528D01*
X223920971Y-80715966D01*
X223813221Y-80823715D01*
X224405844Y-80715966D02*
X223840158Y-80150280D01*
X224055658Y-79934781D01*
X224136470Y-79907844D01*
X224190345Y-79907844D01*
X224271157Y-79934781D01*
X224351969Y-80015593D01*
X224378906Y-80096406D01*
X224378906Y-80150280D01*
X224351969Y-80231093D01*
X224136470Y-80446592D01*
X224432781Y-79665407D02*
X224432781Y-79611532D01*
X224459719Y-79530720D01*
X224594406Y-79396033D01*
X224675218Y-79369096D01*
X224729093Y-79369096D01*
X224809905Y-79396033D01*
X224863780Y-79449908D01*
X224917654Y-79557658D01*
X224917654Y-80204155D01*
X225267841Y-79853969D01*
X225267841Y-79207471D02*
X225187028Y-79234409D01*
X225133154Y-79234409D01*
X225052341Y-79207471D01*
X225025404Y-79180534D01*
X224998467Y-79099722D01*
X224998467Y-79045847D01*
X225025404Y-78965035D01*
X225133154Y-78857285D01*
X225213966Y-78830348D01*
X225267841Y-78830348D01*
X225348653Y-78857285D01*
X225375590Y-78884223D01*
X225402528Y-78965035D01*
X225402528Y-79018910D01*
X225375590Y-79099722D01*
X225267841Y-79207471D01*
X225240903Y-79288284D01*
X225240903Y-79342158D01*
X225267841Y-79422971D01*
X225375590Y-79530720D01*
X225456402Y-79557658D01*
X225510277Y-79557658D01*
X225591089Y-79530720D01*
X225698839Y-79422971D01*
X225725776Y-79342158D01*
X225725776Y-79288284D01*
X225698839Y-79207471D01*
X225591089Y-79099722D01*
X225510277Y-79072784D01*
X225456402Y-79072784D01*
X225375590Y-79099722D01*
X223597722Y-113720592D02*
X223516910Y-113747529D01*
X223436097Y-113828341D01*
X223382223Y-113936091D01*
X223382223Y-114043841D01*
X223409160Y-114124653D01*
X223489972Y-114259340D01*
X223570784Y-114340152D01*
X223705471Y-114420964D01*
X223786284Y-114447902D01*
X223894033Y-114447902D01*
X224001783Y-114394027D01*
X224055658Y-114340152D01*
X224109532Y-114232402D01*
X224109532Y-114178528D01*
X223920971Y-113989966D01*
X223813221Y-114097715D01*
X224405844Y-113989966D02*
X223840158Y-113424280D01*
X224055658Y-113208781D01*
X224136470Y-113181844D01*
X224190345Y-113181844D01*
X224271157Y-113208781D01*
X224351969Y-113289593D01*
X224378906Y-113370406D01*
X224378906Y-113424280D01*
X224351969Y-113505093D01*
X224136470Y-113720592D01*
X225267841Y-113127969D02*
X224944592Y-113451218D01*
X225106216Y-113289593D02*
X224540531Y-112723908D01*
X224567468Y-112858595D01*
X224567468Y-112966345D01*
X224540531Y-113047157D01*
X225187028Y-112077410D02*
X225079279Y-112185160D01*
X225052341Y-112265972D01*
X225052341Y-112319847D01*
X225079279Y-112454534D01*
X225160091Y-112589221D01*
X225375590Y-112804720D01*
X225456402Y-112831658D01*
X225510277Y-112831658D01*
X225591089Y-112804720D01*
X225698839Y-112696971D01*
X225725776Y-112616158D01*
X225725776Y-112562284D01*
X225698839Y-112481471D01*
X225564152Y-112346784D01*
X225483340Y-112319847D01*
X225429465Y-112319847D01*
X225348653Y-112346784D01*
X225240903Y-112454534D01*
X225213966Y-112535346D01*
X225213966Y-112589221D01*
X225240903Y-112670033D01*
X203990476Y-115723809D02*
X204104761Y-115761904D01*
X204295238Y-115761904D01*
X204371428Y-115723809D01*
X204409523Y-115685714D01*
X204447619Y-115609523D01*
X204447619Y-115533333D01*
X204409523Y-115457142D01*
X204371428Y-115419047D01*
X204295238Y-115380952D01*
X204142857Y-115342857D01*
X204066666Y-115304761D01*
X204028571Y-115266666D01*
X203990476Y-115190476D01*
X203990476Y-115114285D01*
X204028571Y-115038095D01*
X204066666Y-115000000D01*
X204142857Y-114961904D01*
X204333333Y-114961904D01*
X204447619Y-115000000D01*
X204714285Y-114961904D02*
X204904761Y-115761904D01*
X205057142Y-115190476D01*
X205209523Y-115761904D01*
X205400000Y-114961904D01*
X206161904Y-115685714D02*
X206123809Y-115723809D01*
X206009523Y-115761904D01*
X205933333Y-115761904D01*
X205819047Y-115723809D01*
X205742857Y-115647619D01*
X205704761Y-115571428D01*
X205666666Y-115419047D01*
X205666666Y-115304761D01*
X205704761Y-115152380D01*
X205742857Y-115076190D01*
X205819047Y-115000000D01*
X205933333Y-114961904D01*
X206009523Y-114961904D01*
X206123809Y-115000000D01*
X206161904Y-115038095D01*
X206885714Y-115761904D02*
X206504761Y-115761904D01*
X206504761Y-114961904D01*
X207152380Y-115761904D02*
X207152380Y-114961904D01*
X207609523Y-115761904D02*
X207266666Y-115304761D01*
X207609523Y-114961904D02*
X207152380Y-115419047D01*
X223654788Y-78733773D02*
X223924162Y-78464399D01*
X223762537Y-78949272D02*
X223385414Y-78195025D01*
X224139661Y-78572149D01*
X224328223Y-78383587D02*
X223762537Y-77817902D01*
X223897224Y-77683215D01*
X224004974Y-77629340D01*
X224112723Y-77629340D01*
X224193536Y-77656277D01*
X224328223Y-77737089D01*
X224409035Y-77817902D01*
X224489847Y-77952589D01*
X224516784Y-78033401D01*
X224516784Y-78141150D01*
X224462910Y-78248900D01*
X224328223Y-78383587D01*
X225163282Y-77440778D02*
X225163282Y-77494653D01*
X225109407Y-77602402D01*
X225055532Y-77656277D01*
X224947783Y-77710152D01*
X224840033Y-77710152D01*
X224759221Y-77683215D01*
X224624534Y-77602402D01*
X224543722Y-77521590D01*
X224462910Y-77386903D01*
X224435972Y-77306091D01*
X224435972Y-77198341D01*
X224489847Y-77090592D01*
X224543722Y-77036717D01*
X224651471Y-76982842D01*
X224705346Y-76982842D01*
X225378781Y-77440778D02*
X225809780Y-77009780D01*
X225244094Y-76336345D02*
X225998341Y-76713468D01*
X225621218Y-75959221D01*
X226698714Y-76013096D02*
X226240778Y-75932284D01*
X226375465Y-76336345D02*
X225809780Y-75770659D01*
X226025279Y-75555160D01*
X226106091Y-75528223D01*
X226159966Y-75528223D01*
X226240778Y-75555160D01*
X226321590Y-75635972D01*
X226348528Y-75716784D01*
X226348528Y-75770659D01*
X226321590Y-75851471D01*
X226106091Y-76066971D01*
X226644839Y-75474348D02*
X226833401Y-75285786D01*
X227210524Y-75501285D02*
X226941150Y-75770659D01*
X226375465Y-75204974D01*
X226644839Y-74935600D01*
X227345211Y-74773975D02*
X227156650Y-74962537D01*
X227452961Y-75258849D02*
X226887276Y-74693163D01*
X227156650Y-74423789D01*
X198013096Y-93131218D02*
X197932284Y-93158155D01*
X197851471Y-93238967D01*
X197797597Y-93346717D01*
X197797597Y-93454467D01*
X197824534Y-93535279D01*
X197905346Y-93669966D01*
X197986158Y-93750778D01*
X198120845Y-93831590D01*
X198201658Y-93858528D01*
X198309407Y-93858528D01*
X198417157Y-93804653D01*
X198471032Y-93750778D01*
X198524906Y-93643028D01*
X198524906Y-93589154D01*
X198336345Y-93400592D01*
X198228595Y-93508341D01*
X198821218Y-93400592D02*
X198255532Y-92834906D01*
X198471032Y-92619407D01*
X198551844Y-92592470D01*
X198605719Y-92592470D01*
X198686531Y-92619407D01*
X198767343Y-92700219D01*
X198794280Y-92781032D01*
X198794280Y-92834906D01*
X198767343Y-92915719D01*
X198551844Y-93131218D01*
X199413841Y-92807969D02*
X199521590Y-92700219D01*
X199548528Y-92619407D01*
X199548528Y-92565532D01*
X199521590Y-92430845D01*
X199440778Y-92296158D01*
X199225279Y-92080659D01*
X199144467Y-92053722D01*
X199090592Y-92053722D01*
X199009780Y-92080659D01*
X198902030Y-92188409D01*
X198875093Y-92269221D01*
X198875093Y-92323096D01*
X198902030Y-92403908D01*
X199036717Y-92538595D01*
X199117529Y-92565532D01*
X199171404Y-92565532D01*
X199252216Y-92538595D01*
X199359966Y-92430845D01*
X199386903Y-92350033D01*
X199386903Y-92296158D01*
X199359966Y-92215346D01*
X197343722Y-103560592D02*
X197262910Y-103587529D01*
X197182097Y-103668341D01*
X197128223Y-103776091D01*
X197128223Y-103883841D01*
X197155160Y-103964653D01*
X197235972Y-104099340D01*
X197316784Y-104180152D01*
X197451471Y-104260964D01*
X197532284Y-104287902D01*
X197640033Y-104287902D01*
X197747783Y-104234027D01*
X197801658Y-104180152D01*
X197855532Y-104072402D01*
X197855532Y-104018528D01*
X197666971Y-103829966D01*
X197559221Y-103937715D01*
X198151844Y-103829966D02*
X197586158Y-103264280D01*
X197801658Y-103048781D01*
X197882470Y-103021844D01*
X197936345Y-103021844D01*
X198017157Y-103048781D01*
X198097969Y-103129593D01*
X198124906Y-103210406D01*
X198124906Y-103264280D01*
X198097969Y-103345093D01*
X197882470Y-103560592D01*
X199013841Y-102967969D02*
X198690592Y-103291218D01*
X198852216Y-103129593D02*
X198286531Y-102563908D01*
X198313468Y-102698595D01*
X198313468Y-102806345D01*
X198286531Y-102887157D01*
X198717529Y-102240659D02*
X198717529Y-102186784D01*
X198744467Y-102105972D01*
X198879154Y-101971285D01*
X198959966Y-101944348D01*
X199013841Y-101944348D01*
X199094653Y-101971285D01*
X199148528Y-102025160D01*
X199202402Y-102132910D01*
X199202402Y-102779407D01*
X199552589Y-102429221D01*
X198013096Y-65191218D02*
X197932284Y-65218155D01*
X197851471Y-65298967D01*
X197797597Y-65406717D01*
X197797597Y-65514467D01*
X197824534Y-65595279D01*
X197905346Y-65729966D01*
X197986158Y-65810778D01*
X198120845Y-65891590D01*
X198201658Y-65918528D01*
X198309407Y-65918528D01*
X198417157Y-65864653D01*
X198471032Y-65810778D01*
X198524906Y-65703028D01*
X198524906Y-65649154D01*
X198336345Y-65460592D01*
X198228595Y-65568341D01*
X198821218Y-65460592D02*
X198255532Y-64894906D01*
X198471032Y-64679407D01*
X198551844Y-64652470D01*
X198605719Y-64652470D01*
X198686531Y-64679407D01*
X198767343Y-64760219D01*
X198794280Y-64841032D01*
X198794280Y-64894906D01*
X198767343Y-64975719D01*
X198551844Y-65191218D01*
X198928967Y-64221471D02*
X198982842Y-64167597D01*
X199063654Y-64140659D01*
X199117529Y-64140659D01*
X199198341Y-64167597D01*
X199333028Y-64248409D01*
X199467715Y-64383096D01*
X199548528Y-64517783D01*
X199575465Y-64598595D01*
X199575465Y-64652470D01*
X199548528Y-64733282D01*
X199494653Y-64787157D01*
X199413841Y-64814094D01*
X199359966Y-64814094D01*
X199279154Y-64787157D01*
X199144467Y-64706345D01*
X199009780Y-64571658D01*
X198928967Y-64436971D01*
X198902030Y-64356158D01*
X198902030Y-64302284D01*
X198928967Y-64221471D01*
X197489722Y-106100592D02*
X197408910Y-106127529D01*
X197328097Y-106208341D01*
X197274223Y-106316091D01*
X197274223Y-106423841D01*
X197301160Y-106504653D01*
X197381972Y-106639340D01*
X197462784Y-106720152D01*
X197597471Y-106800964D01*
X197678284Y-106827902D01*
X197786033Y-106827902D01*
X197893783Y-106774027D01*
X197947658Y-106720152D01*
X198001532Y-106612402D01*
X198001532Y-106558528D01*
X197812971Y-106369966D01*
X197705221Y-106477715D01*
X198297844Y-106369966D02*
X197732158Y-105804280D01*
X197947658Y-105588781D01*
X198028470Y-105561844D01*
X198082345Y-105561844D01*
X198163157Y-105588781D01*
X198243969Y-105669593D01*
X198270906Y-105750406D01*
X198270906Y-105804280D01*
X198243969Y-105885093D01*
X198028470Y-106100592D01*
X199159841Y-105507969D02*
X198836592Y-105831218D01*
X198998216Y-105669593D02*
X198432531Y-105103908D01*
X198459468Y-105238595D01*
X198459468Y-105346345D01*
X198432531Y-105427157D01*
X198782717Y-104753722D02*
X199132903Y-104403536D01*
X199159841Y-104807597D01*
X199240653Y-104726784D01*
X199321465Y-104699847D01*
X199375340Y-104699847D01*
X199456152Y-104726784D01*
X199590839Y-104861471D01*
X199617776Y-104942284D01*
X199617776Y-104996158D01*
X199590839Y-105076971D01*
X199429215Y-105238595D01*
X199348402Y-105265532D01*
X199294528Y-105265532D01*
X223651597Y-83940964D02*
X223920971Y-83671590D01*
X223759346Y-84156463D02*
X223382223Y-83402216D01*
X224136470Y-83779340D01*
X224082595Y-82755719D02*
X224001783Y-82782656D01*
X223920971Y-82863468D01*
X223867096Y-82971218D01*
X223867096Y-83078967D01*
X223894033Y-83159780D01*
X223974845Y-83294467D01*
X224055658Y-83375279D01*
X224190345Y-83456091D01*
X224271157Y-83483028D01*
X224378906Y-83483028D01*
X224486656Y-83429154D01*
X224540531Y-83375279D01*
X224594406Y-83267529D01*
X224594406Y-83213654D01*
X224405844Y-83025093D01*
X224298094Y-83132842D01*
X224890717Y-83025093D02*
X224325032Y-82459407D01*
X225213966Y-82701844D01*
X224648280Y-82136158D01*
X225483340Y-82432470D02*
X224917654Y-81866784D01*
X225052341Y-81732097D01*
X225160091Y-81678223D01*
X225267841Y-81678223D01*
X225348653Y-81705160D01*
X225483340Y-81785972D01*
X225564152Y-81866784D01*
X225644964Y-82001471D01*
X225671902Y-82082284D01*
X225671902Y-82190033D01*
X225618027Y-82297783D01*
X225483340Y-82432470D01*
X197913096Y-72811218D02*
X197832284Y-72838155D01*
X197751471Y-72918967D01*
X197697597Y-73026717D01*
X197697597Y-73134467D01*
X197724534Y-73215279D01*
X197805346Y-73349966D01*
X197886158Y-73430778D01*
X198020845Y-73511590D01*
X198101658Y-73538528D01*
X198209407Y-73538528D01*
X198317157Y-73484653D01*
X198371032Y-73430778D01*
X198424906Y-73323028D01*
X198424906Y-73269154D01*
X198236345Y-73080592D01*
X198128595Y-73188341D01*
X198721218Y-73080592D02*
X198155532Y-72514906D01*
X198371032Y-72299407D01*
X198451844Y-72272470D01*
X198505719Y-72272470D01*
X198586531Y-72299407D01*
X198667343Y-72380219D01*
X198694280Y-72461032D01*
X198694280Y-72514906D01*
X198667343Y-72595719D01*
X198451844Y-72811218D01*
X198748155Y-72030033D02*
X198748155Y-71976158D01*
X198775093Y-71895346D01*
X198909780Y-71760659D01*
X198990592Y-71733722D01*
X199044467Y-71733722D01*
X199125279Y-71760659D01*
X199179154Y-71814534D01*
X199233028Y-71922284D01*
X199233028Y-72568781D01*
X199583215Y-72218595D01*
X224338375Y-91143435D02*
X223880439Y-91062622D01*
X224015126Y-91466683D02*
X223449441Y-90900998D01*
X223664940Y-90685499D01*
X223745752Y-90658561D01*
X223799627Y-90658561D01*
X223880439Y-90685499D01*
X223961251Y-90766311D01*
X223988189Y-90847123D01*
X223988189Y-90900998D01*
X223961251Y-90981810D01*
X223745752Y-91197309D01*
X224015126Y-90335312D02*
X224473062Y-90793248D01*
X224553874Y-90820186D01*
X224607749Y-90820186D01*
X224688561Y-90793248D01*
X224796311Y-90685499D01*
X224823248Y-90604687D01*
X224823248Y-90550812D01*
X224796311Y-90469999D01*
X224338375Y-90012064D01*
X225173435Y-90308375D02*
X224607749Y-89742690D01*
X225496683Y-89985126D01*
X224930998Y-89419441D01*
X197913096Y-67721218D02*
X197832284Y-67748155D01*
X197751471Y-67828967D01*
X197697597Y-67936717D01*
X197697597Y-68044467D01*
X197724534Y-68125279D01*
X197805346Y-68259966D01*
X197886158Y-68340778D01*
X198020845Y-68421590D01*
X198101658Y-68448528D01*
X198209407Y-68448528D01*
X198317157Y-68394653D01*
X198371032Y-68340778D01*
X198424906Y-68233028D01*
X198424906Y-68179154D01*
X198236345Y-67990592D01*
X198128595Y-68098341D01*
X198721218Y-67990592D02*
X198155532Y-67424906D01*
X198371032Y-67209407D01*
X198451844Y-67182470D01*
X198505719Y-67182470D01*
X198586531Y-67209407D01*
X198667343Y-67290219D01*
X198694280Y-67371032D01*
X198694280Y-67424906D01*
X198667343Y-67505719D01*
X198451844Y-67721218D01*
X199583215Y-67128595D02*
X199259966Y-67451844D01*
X199421590Y-67290219D02*
X198855905Y-66724534D01*
X198882842Y-66859221D01*
X198882842Y-66966971D01*
X198855905Y-67047783D01*
%TO.C,R1*%
X231472380Y-79966666D02*
X230996190Y-80300000D01*
X231472380Y-80538095D02*
X230472380Y-80538095D01*
X230472380Y-80157142D01*
X230520000Y-80061904D01*
X230567619Y-80014285D01*
X230662857Y-79966666D01*
X230805714Y-79966666D01*
X230900952Y-80014285D01*
X230948571Y-80061904D01*
X230996190Y-80157142D01*
X230996190Y-80538095D01*
X231472380Y-79014285D02*
X231472380Y-79585714D01*
X231472380Y-79300000D02*
X230472380Y-79300000D01*
X230615238Y-79395238D01*
X230710476Y-79490476D01*
X230758095Y-79585714D01*
D13*
%TO.C,Power*%
X197280000Y-84110000D02*
X197460000Y-84110000D01*
X197280000Y-84350000D02*
X197460000Y-84350000D01*
X194940000Y-84350000D02*
X195120000Y-84350000D01*
X194940000Y-84230000D02*
X195120000Y-84230000D01*
X194940000Y-84350000D02*
X194940000Y-80930000D01*
X194940000Y-80930000D02*
X195105000Y-80930000D01*
X197280000Y-84230000D02*
X197460000Y-84230000D01*
X197460000Y-84350000D02*
X197460000Y-80930000D01*
X197295000Y-80930000D02*
X197460000Y-80930000D01*
X194940000Y-84110000D02*
X195120000Y-84110000D01*
%TO.C,R7*%
X191080000Y-93920000D02*
X192920000Y-93920000D01*
X192920000Y-93920000D02*
X192920000Y-90080000D01*
X191080000Y-90080000D02*
X191080000Y-93920000D01*
X192000000Y-94870000D02*
X192000000Y-93920000D01*
X192920000Y-90080000D02*
X191080000Y-90080000D01*
X192000000Y-89130000D02*
X192000000Y-90080000D01*
%TO.C,R6*%
X195280000Y-93920000D02*
X197120000Y-93920000D01*
X197120000Y-93920000D02*
X197120000Y-90080000D01*
X195280000Y-90080000D02*
X195280000Y-93920000D01*
X196200000Y-94870000D02*
X196200000Y-93920000D01*
X197120000Y-90080000D02*
X195280000Y-90080000D01*
X196200000Y-89130000D02*
X196200000Y-90080000D01*
%TO.C,Power2*%
X193080000Y-84110000D02*
X193260000Y-84110000D01*
X193080000Y-84350000D02*
X193260000Y-84350000D01*
X190740000Y-84350000D02*
X190920000Y-84350000D01*
X190740000Y-84230000D02*
X190920000Y-84230000D01*
X190740000Y-84350000D02*
X190740000Y-80930000D01*
X190740000Y-80930000D02*
X190905000Y-80930000D01*
X193080000Y-84230000D02*
X193260000Y-84230000D01*
X193260000Y-84350000D02*
X193260000Y-80930000D01*
X193095000Y-80930000D02*
X193260000Y-80930000D01*
X190740000Y-84110000D02*
X190920000Y-84110000D01*
D14*
%TO.C,111*%
X252600000Y-83500000D02*
X252600000Y-83500000D01*
X240600000Y-83500000D02*
X240600000Y-83500000D01*
D15*
X246600000Y-89900000D02*
X246600000Y-89900000D01*
X246600000Y-90000000D02*
X246600000Y-90000000D01*
D14*
X252600000Y-83500000D02*
G75*
G03*
X240600000Y-83500000I-6000000J0D01*
G01*
X240600000Y-83500000D02*
G75*
G03*
X252600000Y-83500000I6000000J0D01*
G01*
D15*
X246600000Y-89900000D02*
G75*
G03*
X246600000Y-90000000I0J-50000D01*
G01*
X246600000Y-90000000D02*
G75*
G03*
X246600000Y-89900000I0J50000D01*
G01*
D13*
%TO.C,R5*%
X244920000Y-69380000D02*
X243080000Y-69380000D01*
X243080000Y-69380000D02*
X243080000Y-73220000D01*
X244920000Y-73220000D02*
X244920000Y-69380000D01*
X244000000Y-68430000D02*
X244000000Y-69380000D01*
X243080000Y-73220000D02*
X244920000Y-73220000D01*
X244000000Y-74170000D02*
X244000000Y-73220000D01*
%TO.C,R4*%
X247880000Y-73220000D02*
X249720000Y-73220000D01*
X249720000Y-73220000D02*
X249720000Y-69380000D01*
X247880000Y-69380000D02*
X247880000Y-73220000D01*
X248800000Y-74170000D02*
X248800000Y-73220000D01*
X249720000Y-69380000D02*
X247880000Y-69380000D01*
X248800000Y-68430000D02*
X248800000Y-69380000D01*
%TO.C,Q1*%
X232350000Y-88750000D02*
X232500000Y-87900000D01*
X231900000Y-86300000D02*
X228950000Y-86300000D01*
X228500000Y-88750000D02*
X232350000Y-88750000D01*
X228350000Y-87900000D02*
X228500000Y-88750000D01*
X228450000Y-87600000D02*
X228350000Y-87900000D01*
X232500000Y-87900000D02*
X231900000Y-86300000D01*
X228950000Y-86300000D02*
X228700000Y-86950000D01*
%TO.C,RV1*%
X231100000Y-75345000D02*
X240870000Y-75345000D01*
X231100000Y-65575000D02*
X231100000Y-75345000D01*
X240870000Y-65575000D02*
X240870000Y-75345000D01*
X231100000Y-65575000D02*
X240870000Y-65575000D01*
%TO.C,R2*%
X257099999Y-91669998D02*
X257099999Y-90719998D01*
X257099999Y-85929998D02*
X257099999Y-86879998D01*
X258019999Y-86879998D02*
X256179999Y-86879998D01*
X258019999Y-90719998D02*
X258019999Y-86879998D01*
X256179999Y-90719998D02*
X258019999Y-90719998D01*
X256179999Y-86879998D02*
X256179999Y-90719998D01*
%TO.C,Alert*%
X255839999Y-82614999D02*
X256019999Y-82614999D01*
X255839999Y-82374999D02*
X256019999Y-82374999D01*
X258359999Y-82614999D02*
X258359999Y-79194999D01*
X255839999Y-82614999D02*
X255839999Y-79194999D01*
X258194999Y-79194999D02*
X258359999Y-79194999D01*
X258179999Y-82374999D02*
X258359999Y-82374999D01*
X255839999Y-82494999D02*
X256019999Y-82494999D01*
X258179999Y-82614999D02*
X258359999Y-82614999D01*
X258179999Y-82494999D02*
X258359999Y-82494999D01*
X255839999Y-79194999D02*
X256004999Y-79194999D01*
%TO.C,Probe B*%
X272150000Y-82000000D02*
G75*
G03*
X272150000Y-82000000I-2250000J0D01*
G01*
%TO.C,Probe A*%
X272450000Y-69000000D02*
G75*
G03*
X272450000Y-69000000I-2250000J0D01*
G01*
%TO.C,R3*%
X257100000Y-67329999D02*
X257100000Y-68279999D01*
X258020000Y-68279999D02*
X256180000Y-68279999D01*
X256180000Y-68279999D02*
X256180000Y-72119999D01*
X256180000Y-72119999D02*
X258020000Y-72119999D01*
X258020000Y-72119999D02*
X258020000Y-68279999D01*
X257100000Y-73069999D02*
X257100000Y-72119999D01*
%TO.C,U1*%
X222000000Y-71200000D02*
X222000000Y-71600000D01*
X201000000Y-68700000D02*
X201000000Y-69100000D01*
X201000000Y-78800000D02*
X201000000Y-79200000D01*
X201000000Y-63700000D02*
X201000000Y-64000000D01*
X201000000Y-63700000D02*
X222000000Y-63700000D01*
X222000000Y-81400000D02*
X222000000Y-81800000D01*
X201000000Y-66100000D02*
X201000000Y-66500000D01*
X201000000Y-104300000D02*
X201000000Y-104700000D01*
X201000000Y-101700000D02*
X201000000Y-102100000D01*
X222000000Y-68700000D02*
X222000000Y-69100000D01*
X222000000Y-76300000D02*
X222000000Y-76700000D01*
X201000000Y-89000000D02*
X201000000Y-89400000D01*
X201000000Y-73800000D02*
X201000000Y-74200000D01*
X201000000Y-86500000D02*
X201000000Y-86900000D01*
X222000000Y-96600000D02*
X222000000Y-97000000D01*
X222000000Y-109300000D02*
X222000000Y-109700000D01*
X201000000Y-81400000D02*
X201000000Y-81800000D01*
X222000000Y-91500000D02*
X222000000Y-91900000D01*
X222000000Y-73800000D02*
X222000000Y-74200000D01*
X222000000Y-78800000D02*
X222000000Y-79200000D01*
X201000000Y-76300000D02*
X201000000Y-76700000D01*
X201000000Y-66367000D02*
X204007000Y-66367000D01*
X201000000Y-94100000D02*
X201000000Y-94500000D01*
X222000000Y-104300000D02*
X222000000Y-104700000D01*
X201000000Y-111900000D02*
X201000000Y-112300000D01*
X222000000Y-66100000D02*
X222000000Y-66500000D01*
X201000000Y-91500000D02*
X201000000Y-91900000D01*
X201000000Y-83900000D02*
X201000000Y-84300000D01*
X201000000Y-96600000D02*
X201000000Y-97000000D01*
X222000000Y-111900000D02*
X222000000Y-112300000D01*
X204007000Y-66367000D02*
X204007000Y-63700000D01*
X222000000Y-101700000D02*
X222000000Y-102100000D01*
X222000000Y-63700000D02*
X222000000Y-64000000D01*
X222000000Y-94100000D02*
X222000000Y-94500000D01*
X210000000Y-114700000D02*
X210400000Y-114700000D01*
X222000000Y-89000000D02*
X222000000Y-89400000D01*
X201000000Y-106800000D02*
X201000000Y-107200000D01*
X201000000Y-71200000D02*
X201000000Y-71600000D01*
X222000000Y-114700000D02*
X215200000Y-114700000D01*
X222000000Y-83900000D02*
X222000000Y-84300000D01*
X222000000Y-99200000D02*
X222000000Y-99600000D01*
X201000000Y-99200000D02*
X201000000Y-99600000D01*
X222000000Y-106800000D02*
X222000000Y-107200000D01*
X212600000Y-114700000D02*
X213000000Y-114700000D01*
X201000000Y-109300000D02*
X201000000Y-109700000D01*
X222000000Y-86500000D02*
X222000000Y-86900000D01*
X207800000Y-114700000D02*
X201000000Y-114700000D01*
%TO.C,R1*%
X228180000Y-81720000D02*
X230020000Y-81720000D01*
X230020000Y-81720000D02*
X230020000Y-77880000D01*
X229100000Y-76930000D02*
X229100000Y-77880000D01*
X228180000Y-77880000D02*
X228180000Y-81720000D01*
X230020000Y-77880000D02*
X228180000Y-77880000D01*
X229100000Y-82670000D02*
X229100000Y-81720000D01*
%TD*%
M02*
