%TF.GenerationSoftware,KiCad,Pcbnew,(6.0.7)*%
%TF.CreationDate,2023-04-21T16:09:57-05:00*%
%TF.ProjectId,RevisedControlBoard,52657669-7365-4644-936f-6e74726f6c42,rev?*%
%TF.SameCoordinates,Original*%
%TF.FileFunction,Copper,L1,Top*%
%TF.FilePolarity,Positive*%
%FSLAX46Y46*%
G04 Gerber Fmt 4.6, Leading zero omitted, Abs format (unit mm)*
G04 Created by KiCad (PCBNEW (6.0.7)) date 2023-04-21 16:09:57*
%MOMM*%
%LPD*%
G01*
G04 APERTURE LIST*
G04 Aperture macros list*
%AMRoundRect*
0 Rectangle with rounded corners*
0 $1 Rounding radius*
0 $2 $3 $4 $5 $6 $7 $8 $9 X,Y pos of 4 corners*
0 Add a 4 corners polygon primitive as box body*
4,1,4,$2,$3,$4,$5,$6,$7,$8,$9,$2,$3,0*
0 Add four circle primitives for the rounded corners*
1,1,$1+$1,$2,$3*
1,1,$1+$1,$4,$5*
1,1,$1+$1,$6,$7*
1,1,$1+$1,$8,$9*
0 Add four rect primitives between the rounded corners*
20,1,$1+$1,$2,$3,$4,$5,0*
20,1,$1+$1,$4,$5,$6,$7,0*
20,1,$1+$1,$6,$7,$8,$9,0*
20,1,$1+$1,$8,$9,$2,$3,0*%
G04 Aperture macros list end*
%TA.AperFunction,ComponentPad*%
%ADD10R,1.600000X1.600000*%
%TD*%
%TA.AperFunction,ComponentPad*%
%ADD11O,1.600000X1.600000*%
%TD*%
%TA.AperFunction,SMDPad,CuDef*%
%ADD12RoundRect,0.250000X1.100000X-0.325000X1.100000X0.325000X-1.100000X0.325000X-1.100000X-0.325000X0*%
%TD*%
%TA.AperFunction,SMDPad,CuDef*%
%ADD13R,2.500000X2.500000*%
%TD*%
%TA.AperFunction,SMDPad,CuDef*%
%ADD14RoundRect,0.250000X-0.325000X-1.100000X0.325000X-1.100000X0.325000X1.100000X-0.325000X1.100000X0*%
%TD*%
%TA.AperFunction,SMDPad,CuDef*%
%ADD15RoundRect,0.250000X-0.312500X-1.075000X0.312500X-1.075000X0.312500X1.075000X-0.312500X1.075000X0*%
%TD*%
%TA.AperFunction,ComponentPad*%
%ADD16R,1.508000X1.508000*%
%TD*%
%TA.AperFunction,ComponentPad*%
%ADD17C,1.508000*%
%TD*%
%TA.AperFunction,SMDPad,CuDef*%
%ADD18RoundRect,0.250000X-0.312500X-1.450000X0.312500X-1.450000X0.312500X1.450000X-0.312500X1.450000X0*%
%TD*%
%TA.AperFunction,ComponentPad*%
%ADD19C,4.800000*%
%TD*%
%TA.AperFunction,SMDPad,CuDef*%
%ADD20RoundRect,0.250000X-1.075000X0.312500X-1.075000X-0.312500X1.075000X-0.312500X1.075000X0.312500X0*%
%TD*%
%TA.AperFunction,ComponentPad*%
%ADD21R,1.905000X2.000000*%
%TD*%
%TA.AperFunction,ComponentPad*%
%ADD22O,1.905000X2.000000*%
%TD*%
%TA.AperFunction,SMDPad,CuDef*%
%ADD23RoundRect,0.250000X-1.100000X0.325000X-1.100000X-0.325000X1.100000X-0.325000X1.100000X0.325000X0*%
%TD*%
%TA.AperFunction,SMDPad,CuDef*%
%ADD24RoundRect,0.250000X1.075000X-0.312500X1.075000X0.312500X-1.075000X0.312500X-1.075000X-0.312500X0*%
%TD*%
%TA.AperFunction,SMDPad,CuDef*%
%ADD25RoundRect,0.250000X0.312500X1.450000X-0.312500X1.450000X-0.312500X-1.450000X0.312500X-1.450000X0*%
%TD*%
%TA.AperFunction,SMDPad,CuDef*%
%ADD26R,3.500000X1.700000*%
%TD*%
%TA.AperFunction,SMDPad,CuDef*%
%ADD27R,1.700000X3.500000*%
%TD*%
%TA.AperFunction,SMDPad,CuDef*%
%ADD28RoundRect,0.250000X0.312500X1.075000X-0.312500X1.075000X-0.312500X-1.075000X0.312500X-1.075000X0*%
%TD*%
%TA.AperFunction,SMDPad,CuDef*%
%ADD29RoundRect,0.250000X0.325000X1.100000X-0.325000X1.100000X-0.325000X-1.100000X0.325000X-1.100000X0*%
%TD*%
%TA.AperFunction,ViaPad*%
%ADD30C,0.800000*%
%TD*%
%TA.AperFunction,Conductor*%
%ADD31C,1.000000*%
%TD*%
%TA.AperFunction,Conductor*%
%ADD32C,0.250000*%
%TD*%
G04 APERTURE END LIST*
D10*
%TO.P,U6,1,EN1\u002C2*%
%TO.N,G4C*%
X190430000Y-125200000D03*
D11*
%TO.P,U6,2,1A*%
%TO.N,G4B*%
X187890000Y-125200000D03*
%TO.P,U6,3,1Y*%
%TO.N,Net-(G4M1-Pad1)*%
X185350000Y-125200000D03*
%TO.P,U6,4,GND*%
%TO.N,GND1*%
X182810000Y-125200000D03*
%TO.P,U6,5,GND*%
X180270000Y-125200000D03*
%TO.P,U6,6,2Y*%
%TO.N,unconnected-(U6-Pad6)*%
X177730000Y-125200000D03*
%TO.P,U6,7,2A*%
%TO.N,unconnected-(U6-Pad7)*%
X175190000Y-125200000D03*
%TO.P,U6,8,VCC2*%
%TO.N,18V*%
X172650000Y-125200000D03*
%TO.P,U6,9,EN3\u002C4*%
%TO.N,G4D*%
X172650000Y-132820000D03*
%TO.P,U6,10,3A*%
%TO.N,GND1*%
X175190000Y-132820000D03*
%TO.P,U6,11,3Y*%
%TO.N,Net-(G4L1-Pad1)*%
X177730000Y-132820000D03*
%TO.P,U6,12,GND*%
%TO.N,GND1*%
X180270000Y-132820000D03*
%TO.P,U6,13,GND*%
X182810000Y-132820000D03*
%TO.P,U6,14,4Y*%
%TO.N,unconnected-(U6-Pad14)*%
X185350000Y-132820000D03*
%TO.P,U6,15,4A*%
%TO.N,unconnected-(U6-Pad15)*%
X187890000Y-132820000D03*
%TO.P,U6,16,VCC1*%
%TO.N,+5V*%
X190430000Y-132820000D03*
%TD*%
D12*
%TO.P,C12,1*%
%TO.N,+5V*%
X195000000Y-131475000D03*
%TO.P,C12,2*%
%TO.N,GND1*%
X195000000Y-128525000D03*
%TD*%
D10*
%TO.P,U5,1,EN1\u002C2*%
%TO.N,G1D*%
X188505000Y-59430000D03*
D11*
%TO.P,U5,2,1A*%
%TO.N,GND1*%
X185965000Y-59430000D03*
%TO.P,U5,3,1Y*%
%TO.N,Net-(G1L1-Pad1)*%
X183425000Y-59430000D03*
%TO.P,U5,4,GND*%
%TO.N,GND1*%
X180885000Y-59430000D03*
%TO.P,U5,5,GND*%
X178345000Y-59430000D03*
%TO.P,U5,6,2Y*%
%TO.N,unconnected-(U5-Pad6)*%
X175805000Y-59430000D03*
%TO.P,U5,7,2A*%
%TO.N,unconnected-(U5-Pad7)*%
X173265000Y-59430000D03*
%TO.P,U5,8,VCC2*%
%TO.N,18V*%
X170725000Y-59430000D03*
%TO.P,U5,9,EN3\u002C4*%
%TO.N,G2A*%
X170725000Y-67050000D03*
%TO.P,U5,10,3A*%
%TO.N,+5V*%
X173265000Y-67050000D03*
%TO.P,U5,11,3Y*%
%TO.N,Net-(G2R1-Pad1)*%
X175805000Y-67050000D03*
%TO.P,U5,12,GND*%
%TO.N,GND1*%
X178345000Y-67050000D03*
%TO.P,U5,13,GND*%
X180885000Y-67050000D03*
%TO.P,U5,14,4Y*%
%TO.N,unconnected-(U5-Pad14)*%
X183425000Y-67050000D03*
%TO.P,U5,15,4A*%
%TO.N,unconnected-(U5-Pad15)*%
X185965000Y-67050000D03*
%TO.P,U5,16,VCC1*%
%TO.N,+5V*%
X188505000Y-67050000D03*
%TD*%
D13*
%TO.P,RailB1,1,1*%
%TO.N,Net-(RailB1-Pad1)*%
X146305001Y-116987499D03*
%TD*%
D12*
%TO.P,C2,1*%
%TO.N,+5V*%
X194000000Y-117975000D03*
%TO.P,C2,2*%
%TO.N,GND1*%
X194000000Y-115025000D03*
%TD*%
D13*
%TO.P,G4L1,1,1*%
%TO.N,Net-(G4L1-Pad1)*%
X203200000Y-134500000D03*
%TD*%
%TO.P,G2L2,1,1*%
%TO.N,Net-(G2L1-Pad1)*%
X200300000Y-80330000D03*
%TD*%
%TO.P,G1L1,1,1*%
%TO.N,Net-(G1L1-Pad1)*%
X203500000Y-55330000D03*
%TD*%
D14*
%TO.P,C10,1*%
%TO.N,18V*%
X172525000Y-105000000D03*
%TO.P,C10,2*%
%TO.N,GND1*%
X175475000Y-105000000D03*
%TD*%
D13*
%TO.P,G1M2,1,1*%
%TO.N,Net-(G1M1-Pad1)*%
X200500000Y-50830000D03*
%TD*%
D15*
%TO.P,R1,1*%
%TO.N,Net-(D1-Pad1)*%
X110037500Y-78500000D03*
%TO.P,R1,2*%
%TO.N,GND1*%
X112962500Y-78500000D03*
%TD*%
D13*
%TO.P,G4R2,1,1*%
%TO.N,Net-(G4R1-Pad1)*%
X200200000Y-125500000D03*
%TD*%
D16*
%TO.P,PS1,1,GND*%
%TO.N,GND1*%
X156550000Y-54822500D03*
D17*
%TO.P,PS1,2,VIN*%
%TO.N,18V*%
X156550000Y-57362500D03*
%TO.P,PS1,3,NC*%
%TO.N,unconnected-(PS1-Pad3)*%
X156550000Y-59902500D03*
%TO.P,PS1,5,NC*%
%TO.N,unconnected-(PS1-Pad5)*%
X156550000Y-64982500D03*
%TO.P,PS1,6,+VO*%
%TO.N,+5V*%
X156550000Y-67522500D03*
%TO.P,PS1,7,0V*%
%TO.N,GND1*%
X156550000Y-70062500D03*
%TO.P,PS1,8,NC*%
%TO.N,unconnected-(PS1-Pad8)*%
X156550000Y-72602500D03*
%TD*%
D18*
%TO.P,CCW,1,K*%
%TO.N,Net-(D2-Pad1)*%
X110362500Y-89000000D03*
%TO.P,CCW,2,A*%
%TO.N,Rail2*%
X114637500Y-89000000D03*
%TD*%
D10*
%TO.P,U4,1,EN1\u002C2*%
%TO.N,G1A*%
X188605000Y-44230000D03*
D11*
%TO.P,U4,2,1A*%
%TO.N,+5V*%
X186065000Y-44230000D03*
%TO.P,U4,3,1Y*%
%TO.N,Net-(G1R1-Pad1)*%
X183525000Y-44230000D03*
%TO.P,U4,4,GND*%
%TO.N,GND1*%
X180985000Y-44230000D03*
%TO.P,U4,5,GND*%
X178445000Y-44230000D03*
%TO.P,U4,6,2Y*%
%TO.N,unconnected-(U4-Pad6)*%
X175905000Y-44230000D03*
%TO.P,U4,7,2A*%
%TO.N,unconnected-(U4-Pad7)*%
X173365000Y-44230000D03*
%TO.P,U4,8,VCC2*%
%TO.N,18V*%
X170825000Y-44230000D03*
%TO.P,U4,9,EN3\u002C4*%
%TO.N,G1C*%
X170825000Y-51850000D03*
%TO.P,U4,10,3A*%
%TO.N,G1B*%
X173365000Y-51850000D03*
%TO.P,U4,11,3Y*%
%TO.N,Net-(G1M1-Pad1)*%
X175905000Y-51850000D03*
%TO.P,U4,12,GND*%
%TO.N,GND1*%
X178445000Y-51850000D03*
%TO.P,U4,13,GND*%
X180985000Y-51850000D03*
%TO.P,U4,14,4Y*%
%TO.N,unconnected-(U4-Pad14)*%
X183525000Y-51850000D03*
%TO.P,U4,15,4A*%
%TO.N,unconnected-(U4-Pad15)*%
X186065000Y-51850000D03*
%TO.P,U4,16,VCC1*%
%TO.N,+5V*%
X188605000Y-51850000D03*
%TD*%
D10*
%TO.P,U7,1,EN1\u002C2*%
%TO.N,G3A*%
X189605000Y-91930000D03*
D11*
%TO.P,U7,2,1A*%
%TO.N,+5V*%
X187065000Y-91930000D03*
%TO.P,U7,3,1Y*%
%TO.N,Net-(G3R1-Pad1)*%
X184525000Y-91930000D03*
%TO.P,U7,4,GND*%
%TO.N,GND1*%
X181985000Y-91930000D03*
%TO.P,U7,5,GND*%
X179445000Y-91930000D03*
%TO.P,U7,6,2Y*%
%TO.N,unconnected-(U7-Pad6)*%
X176905000Y-91930000D03*
%TO.P,U7,7,2A*%
%TO.N,unconnected-(U7-Pad7)*%
X174365000Y-91930000D03*
%TO.P,U7,8,VCC2*%
%TO.N,18V*%
X171825000Y-91930000D03*
%TO.P,U7,9,EN3\u002C4*%
%TO.N,G3C*%
X171825000Y-99550000D03*
%TO.P,U7,10,3A*%
%TO.N,G3B*%
X174365000Y-99550000D03*
%TO.P,U7,11,3Y*%
%TO.N,Net-(G3M1-Pad1)*%
X176905000Y-99550000D03*
%TO.P,U7,12,GND*%
%TO.N,GND1*%
X179445000Y-99550000D03*
%TO.P,U7,13,GND*%
X181985000Y-99550000D03*
%TO.P,U7,14,4Y*%
%TO.N,unconnected-(U7-Pad14)*%
X184525000Y-99550000D03*
%TO.P,U7,15,4A*%
%TO.N,unconnected-(U7-Pad15)*%
X187065000Y-99550000D03*
%TO.P,U7,16,VCC1*%
%TO.N,+5V*%
X189605000Y-99550000D03*
%TD*%
D13*
%TO.P,RailB2,1,1*%
%TO.N,Net-(RailB1-Pad1)*%
X146305001Y-119987499D03*
%TD*%
D14*
%TO.P,C13,1*%
%TO.N,18V*%
X171025000Y-56000000D03*
%TO.P,C13,2*%
%TO.N,GND1*%
X173975000Y-56000000D03*
%TD*%
D13*
%TO.P,G4R1,1,1*%
%TO.N,Net-(G4R1-Pad1)*%
X203200000Y-125500000D03*
%TD*%
%TO.P,RailA2,1,1*%
%TO.N,Net-(RailA1-Pad1)*%
X137355001Y-119937499D03*
%TD*%
D19*
%TO.P,J1,1,POWER*%
%TO.N,18V*%
X153650000Y-48009500D03*
%TO.P,J1,2,GND_1*%
%TO.N,GND1*%
X153650000Y-42209500D03*
%TO.P,J1,3,GND_2*%
%TO.N,unconnected-(J1-Pad3)*%
X148850000Y-45009500D03*
%TD*%
D15*
%TO.P,R2,1*%
%TO.N,Net-(D2-Pad1)*%
X113537500Y-94000000D03*
%TO.P,R2,2*%
%TO.N,GND1*%
X116462500Y-94000000D03*
%TD*%
D20*
%TO.P,R7,1*%
%TO.N,PWM*%
X145500000Y-89037500D03*
%TO.P,R7,2*%
%TO.N,GND1*%
X145500000Y-91962500D03*
%TD*%
D21*
%TO.P,Q1,1,G*%
%TO.N,PWM*%
X158390000Y-95835000D03*
D22*
%TO.P,Q1,2,D*%
%TO.N,RAIL*%
X160930000Y-95835000D03*
%TO.P,Q1,3,S*%
%TO.N,GND1*%
X163470000Y-95835000D03*
%TD*%
D13*
%TO.P,G2M2,1,1*%
%TO.N,Net-(G2M1-Pad1)*%
X200300000Y-75830000D03*
%TD*%
D23*
%TO.P,C4,1*%
%TO.N,+5V*%
X163000000Y-67025000D03*
%TO.P,C4,2*%
%TO.N,GND1*%
X163000000Y-69975000D03*
%TD*%
D13*
%TO.P,G3L2,1,1*%
%TO.N,Net-(G3L1-Pad1)*%
X200400000Y-109230000D03*
%TD*%
%TO.P,G3M2,1,1*%
%TO.N,Net-(G3M1-Pad1)*%
X200400000Y-104730000D03*
%TD*%
%TO.P,G1L2,1,1*%
%TO.N,Net-(G1L1-Pad1)*%
X200500000Y-55330000D03*
%TD*%
D20*
%TO.P,R4,1*%
%TO.N,Net-(D4-Pad1)*%
X113500000Y-64537500D03*
%TO.P,R4,2*%
%TO.N,GND1*%
X113500000Y-67462500D03*
%TD*%
D12*
%TO.P,C5,1*%
%TO.N,+5V*%
X193500000Y-81475000D03*
%TO.P,C5,2*%
%TO.N,GND1*%
X193500000Y-78525000D03*
%TD*%
%TO.P,C1,1*%
%TO.N,18V*%
X163500000Y-54975000D03*
%TO.P,C1,2*%
%TO.N,GND1*%
X163500000Y-52025000D03*
%TD*%
D13*
%TO.P,G4M2,1,1*%
%TO.N,Net-(G4M1-Pad1)*%
X200200000Y-130000000D03*
%TD*%
D18*
%TO.P,Track 1,1,K*%
%TO.N,Net-(D3-Pad1)*%
X109862500Y-48500000D03*
%TO.P,Track 1,2,A*%
%TO.N,G1A*%
X114137500Y-48500000D03*
%TD*%
D10*
%TO.P,U3,1,EN1\u002C2*%
%TO.N,G2C*%
X189405000Y-75630000D03*
D11*
%TO.P,U3,2,1A*%
%TO.N,G2B*%
X186865000Y-75630000D03*
%TO.P,U3,3,1Y*%
%TO.N,Net-(G2M1-Pad1)*%
X184325000Y-75630000D03*
%TO.P,U3,4,GND*%
%TO.N,GND1*%
X181785000Y-75630000D03*
%TO.P,U3,5,GND*%
X179245000Y-75630000D03*
%TO.P,U3,6,2Y*%
%TO.N,unconnected-(U3-Pad6)*%
X176705000Y-75630000D03*
%TO.P,U3,7,2A*%
%TO.N,unconnected-(U3-Pad7)*%
X174165000Y-75630000D03*
%TO.P,U3,8,VCC2*%
%TO.N,18V*%
X171625000Y-75630000D03*
%TO.P,U3,9,EN3\u002C4*%
%TO.N,G2D*%
X171625000Y-83250000D03*
%TO.P,U3,10,3A*%
%TO.N,GND1*%
X174165000Y-83250000D03*
%TO.P,U3,11,3Y*%
%TO.N,Net-(G2L1-Pad1)*%
X176705000Y-83250000D03*
%TO.P,U3,12,GND*%
%TO.N,GND1*%
X179245000Y-83250000D03*
%TO.P,U3,13,GND*%
X181785000Y-83250000D03*
%TO.P,U3,14,4Y*%
%TO.N,unconnected-(U3-Pad14)*%
X184325000Y-83250000D03*
%TO.P,U3,15,4A*%
%TO.N,unconnected-(U3-Pad15)*%
X186865000Y-83250000D03*
%TO.P,U3,16,VCC1*%
%TO.N,+5V*%
X189405000Y-83250000D03*
%TD*%
D14*
%TO.P,C9,1*%
%TO.N,18V*%
X170525000Y-41500000D03*
%TO.P,C9,2*%
%TO.N,GND1*%
X173475000Y-41500000D03*
%TD*%
D24*
%TO.P,R5,1*%
%TO.N,Net-(D5-Pad1)*%
X110000000Y-70462500D03*
%TO.P,R5,2*%
%TO.N,GND1*%
X110000000Y-67537500D03*
%TD*%
D18*
%TO.P,T3,1,K*%
%TO.N,Net-(D5-Pad1)*%
X109862500Y-74000000D03*
%TO.P,T3,2,A*%
%TO.N,G3A*%
X114137500Y-74000000D03*
%TD*%
D13*
%TO.P,G3M1,1,1*%
%TO.N,Net-(G3M1-Pad1)*%
X203400000Y-104730000D03*
%TD*%
%TO.P,G1R2,1,1*%
%TO.N,Net-(G1R1-Pad1)*%
X203550000Y-46330000D03*
%TD*%
D14*
%TO.P,C14,1*%
%TO.N,18V*%
X171525000Y-89000000D03*
%TO.P,C14,2*%
%TO.N,GND1*%
X174475000Y-89000000D03*
%TD*%
%TO.P,C8,1*%
%TO.N,18V*%
X172625000Y-121550000D03*
%TO.P,C8,2*%
%TO.N,GND1*%
X175575000Y-121550000D03*
%TD*%
D13*
%TO.P,G3R1,1,1*%
%TO.N,Net-(G3R1-Pad1)*%
X203400000Y-100230000D03*
%TD*%
%TO.P,G3L1,1,1*%
%TO.N,Net-(G3L1-Pad1)*%
X203400000Y-109230000D03*
%TD*%
D10*
%TO.P,U8,1,EN1\u002C2*%
%TO.N,G3D*%
X189875000Y-108200000D03*
D11*
%TO.P,U8,2,1A*%
%TO.N,GND1*%
X187335000Y-108200000D03*
%TO.P,U8,3,1Y*%
%TO.N,Net-(G3L1-Pad1)*%
X184795000Y-108200000D03*
%TO.P,U8,4,GND*%
%TO.N,GND1*%
X182255000Y-108200000D03*
%TO.P,U8,5,GND*%
X179715000Y-108200000D03*
%TO.P,U8,6,2Y*%
%TO.N,unconnected-(U8-Pad6)*%
X177175000Y-108200000D03*
%TO.P,U8,7,2A*%
%TO.N,unconnected-(U8-Pad7)*%
X174635000Y-108200000D03*
%TO.P,U8,8,VCC2*%
%TO.N,18V*%
X172095000Y-108200000D03*
%TO.P,U8,9,EN3\u002C4*%
%TO.N,G4A*%
X172095000Y-115820000D03*
%TO.P,U8,10,3A*%
%TO.N,+5V*%
X174635000Y-115820000D03*
%TO.P,U8,11,3Y*%
%TO.N,Net-(G4R1-Pad1)*%
X177175000Y-115820000D03*
%TO.P,U8,12,GND*%
%TO.N,GND1*%
X179715000Y-115820000D03*
%TO.P,U8,13,GND*%
X182255000Y-115820000D03*
%TO.P,U8,14,4Y*%
%TO.N,unconnected-(U8-Pad14)*%
X184795000Y-115820000D03*
%TO.P,U8,15,4A*%
%TO.N,unconnected-(U8-Pad15)*%
X187335000Y-115820000D03*
%TO.P,U8,16,VCC1*%
%TO.N,+5V*%
X189875000Y-115820000D03*
%TD*%
D18*
%TO.P,CW,1,K*%
%TO.N,Net-(D1-Pad1)*%
X110362500Y-83500000D03*
%TO.P,CW,2,A*%
%TO.N,Rail1*%
X114637500Y-83500000D03*
%TD*%
D13*
%TO.P,RailA1,1,1*%
%TO.N,Net-(RailA1-Pad1)*%
X137405001Y-116837499D03*
%TD*%
D18*
%TO.P,Track 2,1,K*%
%TO.N,Net-(D4-Pad1)*%
X109862500Y-60500000D03*
%TO.P,Track 2,2,A*%
%TO.N,G2A*%
X114137500Y-60500000D03*
%TD*%
D13*
%TO.P,G1R1,1,1*%
%TO.N,Net-(G1R1-Pad1)*%
X200500000Y-46330000D03*
%TD*%
%TO.P,G2M1,1,1*%
%TO.N,Net-(G2M1-Pad1)*%
X203300000Y-75830000D03*
%TD*%
D12*
%TO.P,C6,1*%
%TO.N,+5V*%
X193500000Y-99475000D03*
%TO.P,C6,2*%
%TO.N,GND1*%
X193500000Y-96525000D03*
%TD*%
%TO.P,C15,1*%
%TO.N,18V*%
X152500000Y-104975000D03*
%TO.P,C15,2*%
%TO.N,GND1*%
X152500000Y-102025000D03*
%TD*%
D13*
%TO.P,G4M1,1,1*%
%TO.N,Net-(G4M1-Pad1)*%
X203200000Y-130000000D03*
%TD*%
%TO.P,G2R1,1,1*%
%TO.N,Net-(G2R1-Pad1)*%
X203250000Y-71280000D03*
%TD*%
D12*
%TO.P,C11,1*%
%TO.N,+5V*%
X192000000Y-66475000D03*
%TO.P,C11,2*%
%TO.N,GND1*%
X192000000Y-63525000D03*
%TD*%
D25*
%TO.P,T4,1,K*%
%TO.N,Net-(D6-Pad1)*%
X147637500Y-74000000D03*
%TO.P,T4,2,A*%
%TO.N,G4A*%
X143362500Y-74000000D03*
%TD*%
D26*
%TO.P,U2,1,GPIO0*%
%TO.N,unconnected-(U2-Pad1)*%
X119610000Y-40870000D03*
%TO.P,U2,2,GPIO1*%
%TO.N,unconnected-(U2-Pad2)*%
X119610000Y-43410000D03*
%TO.P,U2,3,GND*%
%TO.N,GND1*%
X119610000Y-45950000D03*
%TO.P,U2,4,GPIO2*%
%TO.N,G1A*%
X119610000Y-48490000D03*
%TO.P,U2,5,GPIO3*%
%TO.N,G1B*%
X119610000Y-51030000D03*
%TO.P,U2,6,GPIO4*%
%TO.N,G1C*%
X119610000Y-53570000D03*
%TO.P,U2,7,GPIO5*%
%TO.N,G1D*%
X119610000Y-56110000D03*
%TO.P,U2,8,GND*%
%TO.N,GND1*%
X119610000Y-58650000D03*
%TO.P,U2,9,GPIO6*%
%TO.N,G2A*%
X119610000Y-61190000D03*
%TO.P,U2,10,GPIO7*%
%TO.N,G2B*%
X119610000Y-63730000D03*
%TO.P,U2,11,GPIO8*%
%TO.N,G2C*%
X119610000Y-66270000D03*
%TO.P,U2,12,GPIO9*%
%TO.N,G2D*%
X119610000Y-68810000D03*
%TO.P,U2,13,GND*%
%TO.N,GND1*%
X119610000Y-71350000D03*
%TO.P,U2,14,GPIO10*%
%TO.N,G3A*%
X119610000Y-73890000D03*
%TO.P,U2,15,GPIO11*%
%TO.N,G3B*%
X119610000Y-76430000D03*
%TO.P,U2,16,GPIO12*%
%TO.N,G3C*%
X119610000Y-78970000D03*
%TO.P,U2,17,GPIO13*%
%TO.N,G3D*%
X119610000Y-81510000D03*
%TO.P,U2,18,GND*%
%TO.N,GND1*%
X119610000Y-84050000D03*
%TO.P,U2,19,GPIO14*%
%TO.N,Rail1*%
X119610000Y-86590000D03*
%TO.P,U2,20,GPIO15*%
%TO.N,Rail2*%
X119610000Y-89130000D03*
%TO.P,U2,21,GPIO16*%
%TO.N,PWM*%
X139190000Y-89130000D03*
%TO.P,U2,22,GPIO17*%
%TO.N,unconnected-(U2-Pad22)*%
X139190000Y-86590000D03*
%TO.P,U2,23,GND*%
%TO.N,GND1*%
X139190000Y-84050000D03*
%TO.P,U2,24,GPIO18*%
%TO.N,G4D*%
X139190000Y-81510000D03*
%TO.P,U2,25,GPIO19*%
%TO.N,G4C*%
X139190000Y-78970000D03*
%TO.P,U2,26,GPIO20*%
%TO.N,G4B*%
X139190000Y-76430000D03*
%TO.P,U2,27,GPIO21*%
%TO.N,G4A*%
X139190000Y-73890000D03*
%TO.P,U2,28,GND*%
%TO.N,GND1*%
X139190000Y-71350000D03*
%TO.P,U2,29,GPIO22*%
%TO.N,unconnected-(U2-Pad29)*%
X139190000Y-68810000D03*
%TO.P,U2,30,RUN*%
%TO.N,unconnected-(U2-Pad30)*%
X139190000Y-66270000D03*
%TO.P,U2,31,GPIO26_ADC0*%
%TO.N,unconnected-(U2-Pad31)*%
X139190000Y-63730000D03*
%TO.P,U2,32,GPIO27_ADC1*%
%TO.N,unconnected-(U2-Pad32)*%
X139190000Y-61190000D03*
%TO.P,U2,33,AGND*%
%TO.N,unconnected-(U2-Pad33)*%
X139190000Y-58650000D03*
%TO.P,U2,34,GPIO28_ADC2*%
%TO.N,unconnected-(U2-Pad34)*%
X139190000Y-56110000D03*
%TO.P,U2,35,ADC_VREF*%
%TO.N,unconnected-(U2-Pad35)*%
X139190000Y-53570000D03*
%TO.P,U2,36,3V3*%
%TO.N,unconnected-(U2-Pad36)*%
X139190000Y-51030000D03*
%TO.P,U2,37,3V3_EN*%
%TO.N,unconnected-(U2-Pad37)*%
X139190000Y-48490000D03*
%TO.P,U2,38,GND*%
%TO.N,GND1*%
X139190000Y-45950000D03*
%TO.P,U2,39,VSYS*%
%TO.N,+5V*%
X139190000Y-43410000D03*
%TO.P,U2,40,VBUS*%
%TO.N,unconnected-(U2-Pad40)*%
X139190000Y-40870000D03*
D27*
%TO.P,U2,41,SWCLK*%
%TO.N,unconnected-(U2-Pad41)*%
X126860000Y-89800000D03*
%TO.P,U2,42,GND*%
%TO.N,GND1*%
X129400000Y-89800000D03*
%TO.P,U2,43,SWDIO*%
%TO.N,unconnected-(U2-Pad43)*%
X131940000Y-89800000D03*
%TD*%
D15*
%TO.P,R3,1*%
%TO.N,Net-(D3-Pad1)*%
X110537500Y-54500000D03*
%TO.P,R3,2*%
%TO.N,GND1*%
X113462500Y-54500000D03*
%TD*%
D12*
%TO.P,C7,1*%
%TO.N,+5V*%
X192630000Y-50475000D03*
%TO.P,C7,2*%
%TO.N,GND1*%
X192630000Y-47525000D03*
%TD*%
D13*
%TO.P,G3R2,1,1*%
%TO.N,Net-(G3R1-Pad1)*%
X200400000Y-100230000D03*
%TD*%
%TO.P,G4L2,1,1*%
%TO.N,Net-(G4L1-Pad1)*%
X200200000Y-134550000D03*
%TD*%
%TO.P,G1M1,1,1*%
%TO.N,Net-(G1M1-Pad1)*%
X203500000Y-50880000D03*
%TD*%
%TO.P,G2R2,1,1*%
%TO.N,Net-(G2R1-Pad1)*%
X200250000Y-71280000D03*
%TD*%
%TO.P,G2L1,1,1*%
%TO.N,Net-(G2L1-Pad1)*%
X203300000Y-80330000D03*
%TD*%
D14*
%TO.P,C3,1*%
%TO.N,18V*%
X171525000Y-72500000D03*
%TO.P,C3,2*%
%TO.N,GND1*%
X174475000Y-72500000D03*
%TD*%
D28*
%TO.P,R6,1*%
%TO.N,Net-(D6-Pad1)*%
X147462500Y-78500000D03*
%TO.P,R6,2*%
%TO.N,GND1*%
X144537500Y-78500000D03*
%TD*%
D10*
%TO.P,U1,1,EN1\u002C2*%
%TO.N,RAIL*%
X129425000Y-105000000D03*
D11*
%TO.P,U1,2,1A*%
%TO.N,Rail1*%
X131965000Y-105000000D03*
%TO.P,U1,3,1Y*%
%TO.N,Net-(RailA1-Pad1)*%
X134505000Y-105000000D03*
%TO.P,U1,4,GND*%
%TO.N,GND1*%
X137045000Y-105000000D03*
%TO.P,U1,5,GND*%
X139585000Y-105000000D03*
%TO.P,U1,6,2Y*%
%TO.N,Net-(RailB1-Pad1)*%
X142125000Y-105000000D03*
%TO.P,U1,7,2A*%
%TO.N,Rail2*%
X144665000Y-105000000D03*
%TO.P,U1,8,VCC2*%
%TO.N,18V*%
X147205000Y-105000000D03*
%TO.P,U1,9,EN3\u002C4*%
%TO.N,unconnected-(U1-Pad9)*%
X147205000Y-97380000D03*
%TO.P,U1,10,3A*%
%TO.N,unconnected-(U1-Pad10)*%
X144665000Y-97380000D03*
%TO.P,U1,11,3Y*%
%TO.N,unconnected-(U1-Pad11)*%
X142125000Y-97380000D03*
%TO.P,U1,12,GND*%
%TO.N,GND1*%
X139585000Y-97380000D03*
%TO.P,U1,13,GND*%
X137045000Y-97380000D03*
%TO.P,U1,14,4Y*%
%TO.N,unconnected-(U1-Pad14)*%
X134505000Y-97380000D03*
%TO.P,U1,15,4A*%
%TO.N,unconnected-(U1-Pad15)*%
X131965000Y-97380000D03*
%TO.P,U1,16,VCC1*%
%TO.N,+5V*%
X129425000Y-97380000D03*
%TD*%
D29*
%TO.P,C16,1*%
%TO.N,+5V*%
X126975000Y-98500000D03*
%TO.P,C16,2*%
%TO.N,GND1*%
X124025000Y-98500000D03*
%TD*%
D30*
%TO.N,GND1*%
X194000000Y-95000000D03*
X180120000Y-114300000D03*
X181650000Y-114380000D03*
X182060000Y-109800000D03*
X180010000Y-109900000D03*
X196000000Y-115000000D03*
X179720000Y-131230000D03*
X182240000Y-131200000D03*
X182350000Y-126960000D03*
X179770000Y-127120000D03*
X194570000Y-127350000D03*
X139000000Y-99500000D03*
X116500000Y-92000000D03*
X130720000Y-87020000D03*
X180500000Y-46000000D03*
X192000000Y-45500000D03*
X179500000Y-77500000D03*
X136000000Y-46000000D03*
X123000000Y-59000000D03*
X137500000Y-99500000D03*
X174500000Y-81000000D03*
X179000000Y-46000000D03*
X180500000Y-61000000D03*
X122500000Y-46000000D03*
X123000000Y-72000000D03*
X180000000Y-97500000D03*
X180500000Y-49500000D03*
X180500000Y-65000000D03*
X144500000Y-93500000D03*
X179500000Y-81500000D03*
X181500000Y-93500000D03*
X181500000Y-81500000D03*
X123000000Y-83500000D03*
X136000000Y-72500000D03*
X124500000Y-98500000D03*
X179000000Y-49500000D03*
X178500000Y-65000000D03*
X139000000Y-103500000D03*
X137500000Y-103500000D03*
X179000000Y-61000000D03*
X180000000Y-93500000D03*
X181500000Y-97500000D03*
X153500000Y-100500000D03*
X181500000Y-77500000D03*
%TO.N,Rail2*%
X133500000Y-108000000D03*
%TO.N,G1A*%
X122500000Y-48500000D03*
%TO.N,G2A*%
X167050000Y-64370000D03*
X123000000Y-61500000D03*
%TO.N,G3A*%
X122500000Y-74500000D03*
%TO.N,G4A*%
X166540000Y-102930000D03*
%TO.N,G1B*%
X122500000Y-51000000D03*
%TO.N,G1C*%
X122500000Y-53500000D03*
%TO.N,G1D*%
X122500000Y-56000000D03*
%TO.N,G2B*%
X122500000Y-64000000D03*
%TO.N,G2C*%
X122500000Y-66500000D03*
%TO.N,G2D*%
X122500000Y-69000000D03*
%TO.N,G3B*%
X122500000Y-77000000D03*
%TO.N,G3C*%
X122500000Y-79500000D03*
%TO.N,G4D*%
X130580000Y-81300000D03*
X130000000Y-84499500D03*
X136870000Y-81300000D03*
%TO.N,G4C*%
X132650000Y-84499500D03*
%TO.N,G4B*%
X131350000Y-84499500D03*
%TO.N,G3D*%
X122500000Y-81500000D03*
%TD*%
D31*
%TO.N,Net-(G4L1-Pad1)*%
X200200000Y-134550000D02*
X179460000Y-134550000D01*
X200250000Y-134500000D02*
X200200000Y-134550000D01*
X203200000Y-134500000D02*
X200250000Y-134500000D01*
%TO.N,Net-(G1L1-Pad1)*%
X198670000Y-55330000D02*
X200500000Y-55330000D01*
%TO.N,Net-(G1R1-Pad1)*%
X194830000Y-46330000D02*
X200500000Y-46330000D01*
%TO.N,Net-(G1M1-Pad1)*%
X196670000Y-50830000D02*
X200500000Y-50830000D01*
%TO.N,Net-(G2L1-Pad1)*%
X200170000Y-80200000D02*
X200300000Y-80330000D01*
X178800000Y-80200000D02*
X200170000Y-80200000D01*
X176705000Y-82295000D02*
X178800000Y-80200000D01*
X176705000Y-83250000D02*
X176705000Y-82295000D01*
%TO.N,Net-(G2R1-Pad1)*%
X180035000Y-71280000D02*
X200250000Y-71280000D01*
%TO.N,Net-(G2M1-Pad1)*%
X194330000Y-75830000D02*
X200300000Y-75830000D01*
%TO.N,GND1*%
X193500000Y-95500000D02*
X194000000Y-95000000D01*
X193500000Y-96525000D02*
X193500000Y-95500000D01*
%TO.N,+5V*%
X193425000Y-99550000D02*
X193500000Y-99475000D01*
X189605000Y-99550000D02*
X193425000Y-99550000D01*
%TO.N,Net-(G3R1-Pad1)*%
X190595000Y-98000000D02*
X195000000Y-98000000D01*
X184525000Y-91930000D02*
X190595000Y-98000000D01*
X195000000Y-98000000D02*
X197230000Y-100230000D01*
X200400000Y-100230000D02*
X197230000Y-100230000D01*
%TO.N,Net-(G3M1-Pad1)*%
X200400000Y-104730000D02*
X182085000Y-104730000D01*
%TO.N,Net-(G3L1-Pad1)*%
X187595000Y-111000000D02*
X184795000Y-108200000D01*
X194770000Y-109230000D02*
X193000000Y-111000000D01*
X200400000Y-109230000D02*
X194770000Y-109230000D01*
X193000000Y-111000000D02*
X187595000Y-111000000D01*
%TO.N,Net-(G4R1-Pad1)*%
X198430000Y-125500000D02*
X200200000Y-125500000D01*
%TO.N,Net-(G4M1-Pad1)*%
X190150000Y-130000000D02*
X200200000Y-130000000D01*
%TO.N,Net-(G4L1-Pad1)*%
X179460000Y-134550000D02*
X177730000Y-132820000D01*
%TO.N,18V*%
X155725000Y-108200000D02*
X152500000Y-104975000D01*
X172095000Y-108200000D02*
X155725000Y-108200000D01*
X169500000Y-122050000D02*
X172650000Y-125200000D01*
X172095000Y-112860000D02*
X169500000Y-115455000D01*
X169500000Y-115455000D02*
X169500000Y-122050000D01*
X172095000Y-108200000D02*
X172095000Y-112860000D01*
%TO.N,+5V*%
X177575000Y-112880000D02*
X174635000Y-115820000D01*
X186935000Y-112880000D02*
X177575000Y-112880000D01*
X189875000Y-115820000D02*
X186935000Y-112880000D01*
%TO.N,GND1*%
X179715000Y-114705000D02*
X180120000Y-114300000D01*
X179715000Y-115820000D02*
X179715000Y-114705000D01*
X182255000Y-114985000D02*
X181650000Y-114380000D01*
X182255000Y-115820000D02*
X182255000Y-114985000D01*
X182255000Y-109605000D02*
X182060000Y-109800000D01*
X182255000Y-108200000D02*
X182255000Y-109605000D01*
X179715000Y-109605000D02*
X180010000Y-109900000D01*
X179715000Y-108200000D02*
X179715000Y-109605000D01*
X176515000Y-105000000D02*
X179715000Y-108200000D01*
X175475000Y-105000000D02*
X176515000Y-105000000D01*
X195975000Y-115025000D02*
X196000000Y-115000000D01*
X194000000Y-115025000D02*
X195975000Y-115025000D01*
%TO.N,+5V*%
X191845000Y-115820000D02*
X194000000Y-117975000D01*
X189875000Y-115820000D02*
X191845000Y-115820000D01*
%TO.N,Net-(G4R1-Pad1)*%
X178675000Y-117320000D02*
X177175000Y-115820000D01*
X198430000Y-125500000D02*
X190250000Y-117320000D01*
X190250000Y-117320000D02*
X178675000Y-117320000D01*
%TO.N,GND1*%
X180270000Y-131780000D02*
X179720000Y-131230000D01*
X180270000Y-132820000D02*
X180270000Y-131780000D01*
X182810000Y-131770000D02*
X182240000Y-131200000D01*
X182810000Y-132820000D02*
X182810000Y-131770000D01*
X182810000Y-126500000D02*
X182350000Y-126960000D01*
X182810000Y-125200000D02*
X182810000Y-126500000D01*
X180270000Y-126620000D02*
X179770000Y-127120000D01*
X180270000Y-125200000D02*
X180270000Y-126620000D01*
%TO.N,Net-(G4M1-Pad1)*%
X190150000Y-130000000D02*
X185350000Y-125200000D01*
%TO.N,GND1*%
X195000000Y-127780000D02*
X194570000Y-127350000D01*
X195000000Y-128525000D02*
X195000000Y-127780000D01*
%TO.N,+5V*%
X193655000Y-132820000D02*
X195000000Y-131475000D01*
X190430000Y-132820000D02*
X193655000Y-132820000D01*
%TO.N,GND1*%
X176620000Y-121550000D02*
X180270000Y-125200000D01*
X175575000Y-121550000D02*
X176620000Y-121550000D01*
%TO.N,18V*%
X172650000Y-121575000D02*
X172625000Y-121550000D01*
X172650000Y-125200000D02*
X172650000Y-121575000D01*
X168870000Y-90410000D02*
X168050000Y-90410000D01*
X170280000Y-89000000D02*
X168870000Y-90410000D01*
X168050000Y-90410000D02*
X168000000Y-90410000D01*
X169570000Y-91930000D02*
X168050000Y-90410000D01*
X168000000Y-90410000D02*
X168000000Y-86720000D01*
X168000000Y-93500000D02*
X168000000Y-90410000D01*
X169570000Y-91930000D02*
X168000000Y-93500000D01*
X170280000Y-89000000D02*
X168000000Y-86720000D01*
X171525000Y-89000000D02*
X170280000Y-89000000D01*
X168000000Y-86720000D02*
X168000000Y-79255000D01*
X168000000Y-93500000D02*
X168000000Y-104105000D01*
X168000000Y-104105000D02*
X172095000Y-108200000D01*
X172525000Y-107770000D02*
X172095000Y-108200000D01*
X172525000Y-105000000D02*
X172525000Y-107770000D01*
X171825000Y-89300000D02*
X171525000Y-89000000D01*
X167500000Y-46000000D02*
X167500000Y-50975000D01*
X154862500Y-57362500D02*
X153650000Y-56150000D01*
X170725000Y-56300000D02*
X171025000Y-56000000D01*
X171625000Y-75630000D02*
X171625000Y-72600000D01*
X170825000Y-44230000D02*
X169270000Y-44230000D01*
X170725000Y-59430000D02*
X158617500Y-59430000D01*
X156550000Y-57362500D02*
X161112500Y-57362500D01*
X168000000Y-79255000D02*
X171625000Y-75630000D01*
X158617500Y-59430000D02*
X156550000Y-57362500D01*
X153650000Y-56150000D02*
X153650000Y-48009500D01*
X170525000Y-43930000D02*
X170825000Y-44230000D01*
X171825000Y-91930000D02*
X171825000Y-89300000D01*
X152475000Y-105000000D02*
X152500000Y-104975000D01*
X167500000Y-50975000D02*
X163500000Y-54975000D01*
X170725000Y-59430000D02*
X170725000Y-56300000D01*
X147205000Y-105000000D02*
X152475000Y-105000000D01*
X170525000Y-41500000D02*
X170525000Y-43930000D01*
X156550000Y-57362500D02*
X154862500Y-57362500D01*
X171625000Y-72600000D02*
X171525000Y-72500000D01*
X161112500Y-57362500D02*
X163500000Y-54975000D01*
X171825000Y-91930000D02*
X169570000Y-91930000D01*
X169270000Y-44230000D02*
X167500000Y-46000000D01*
%TO.N,GND1*%
X181985000Y-97985000D02*
X181500000Y-97500000D01*
X133000000Y-87000000D02*
X130740000Y-87000000D01*
X174475000Y-72500000D02*
X176115000Y-72500000D01*
X181785000Y-77215000D02*
X181500000Y-77500000D01*
X178445000Y-51850000D02*
X178445000Y-50055000D01*
X180885000Y-67050000D02*
X180885000Y-65385000D01*
X117612500Y-58650000D02*
X120510000Y-58650000D01*
X178445000Y-44230000D02*
X178445000Y-45445000D01*
X110000000Y-67537500D02*
X113425000Y-67537500D01*
X174915000Y-56000000D02*
X178345000Y-59430000D01*
X159347500Y-52025000D02*
X156550000Y-54822500D01*
X135950000Y-84050000D02*
X133000000Y-87000000D01*
X181985000Y-93015000D02*
X181500000Y-93500000D01*
X179245000Y-77245000D02*
X179500000Y-77500000D01*
X184680000Y-78525000D02*
X181785000Y-75630000D01*
X174165000Y-83250000D02*
X174165000Y-81335000D01*
X139585000Y-105000000D02*
X139585000Y-104085000D01*
X144537500Y-80162500D02*
X140650000Y-84050000D01*
X116500000Y-93962500D02*
X116462500Y-94000000D01*
X120510000Y-58650000D02*
X122650000Y-58650000D01*
X124025000Y-98500000D02*
X124500000Y-98500000D01*
X178445000Y-45445000D02*
X179000000Y-46000000D01*
X181985000Y-91930000D02*
X181985000Y-93015000D01*
X144537500Y-78500000D02*
X144537500Y-80162500D01*
X139585000Y-97380000D02*
X139585000Y-98915000D01*
X113500000Y-67462500D02*
X117387500Y-71350000D01*
X152500000Y-101500000D02*
X153500000Y-100500000D01*
X120510000Y-84050000D02*
X118512500Y-84050000D01*
X192000000Y-63525000D02*
X189600000Y-63525000D01*
X176115000Y-72500000D02*
X179245000Y-75630000D01*
X179245000Y-81755000D02*
X179500000Y-81500000D01*
X156550000Y-70062500D02*
X162912500Y-70062500D01*
X181785000Y-83250000D02*
X181785000Y-81785000D01*
X138290000Y-71350000D02*
X137150000Y-71350000D01*
X162912500Y-70062500D02*
X163000000Y-69975000D01*
X181785000Y-75630000D02*
X181785000Y-77215000D01*
X139585000Y-98915000D02*
X139000000Y-99500000D01*
X113462500Y-54500000D02*
X117612500Y-58650000D01*
X178345000Y-59430000D02*
X178345000Y-60345000D01*
X139585000Y-104085000D02*
X139000000Y-103500000D01*
X122450000Y-84050000D02*
X123000000Y-83500000D01*
X173475000Y-41500000D02*
X175715000Y-41500000D01*
X163500000Y-52025000D02*
X159347500Y-52025000D01*
X117387500Y-71350000D02*
X120510000Y-71350000D01*
X116500000Y-92000000D02*
X116500000Y-93962500D01*
X176515000Y-89000000D02*
X179445000Y-91930000D01*
X179445000Y-92945000D02*
X180000000Y-93500000D01*
X192630000Y-46130000D02*
X192000000Y-45500000D01*
X180985000Y-44230000D02*
X180985000Y-45515000D01*
X122450000Y-45950000D02*
X122500000Y-46000000D01*
X180885000Y-60615000D02*
X180500000Y-61000000D01*
X179245000Y-83250000D02*
X179245000Y-81755000D01*
X185965000Y-59890000D02*
X185965000Y-59430000D01*
X174165000Y-81335000D02*
X174500000Y-81000000D01*
X122350000Y-71350000D02*
X123000000Y-72000000D01*
X180985000Y-51850000D02*
X180985000Y-49985000D01*
X174475000Y-89000000D02*
X176515000Y-89000000D01*
X180985000Y-49985000D02*
X180500000Y-49500000D01*
X137045000Y-103955000D02*
X137500000Y-103500000D01*
X118512500Y-84050000D02*
X112962500Y-78500000D01*
X113425000Y-67537500D02*
X113500000Y-67462500D01*
X120510000Y-45950000D02*
X122450000Y-45950000D01*
X130740000Y-87000000D02*
X130720000Y-87020000D01*
X138290000Y-45950000D02*
X136050000Y-45950000D01*
X137150000Y-71350000D02*
X136000000Y-72500000D01*
X173975000Y-56000000D02*
X174915000Y-56000000D01*
X192630000Y-47525000D02*
X192630000Y-46130000D01*
X178345000Y-65155000D02*
X178500000Y-65000000D01*
X181785000Y-81785000D02*
X181500000Y-81500000D01*
X138290000Y-84050000D02*
X135950000Y-84050000D01*
X179445000Y-99550000D02*
X179445000Y-98055000D01*
X140650000Y-84050000D02*
X138290000Y-84050000D01*
X180985000Y-45515000D02*
X180500000Y-46000000D01*
X152500000Y-102025000D02*
X152500000Y-101500000D01*
X136050000Y-45950000D02*
X136000000Y-46000000D01*
X145500000Y-91962500D02*
X145500000Y-92500000D01*
X145500000Y-92500000D02*
X144500000Y-93500000D01*
X180885000Y-65385000D02*
X180500000Y-65000000D01*
X178345000Y-67050000D02*
X178345000Y-65155000D01*
X179245000Y-75630000D02*
X179245000Y-77245000D01*
X130720000Y-87020000D02*
X129400000Y-88340000D01*
X137045000Y-97380000D02*
X137045000Y-99045000D01*
X122650000Y-58650000D02*
X123000000Y-59000000D01*
X175715000Y-41500000D02*
X178445000Y-44230000D01*
X189600000Y-63525000D02*
X185965000Y-59890000D01*
X181985000Y-99550000D02*
X181985000Y-97985000D01*
X193500000Y-78525000D02*
X184680000Y-78525000D01*
X178345000Y-60345000D02*
X179000000Y-61000000D01*
X137045000Y-105000000D02*
X137045000Y-103955000D01*
X137045000Y-99045000D02*
X137500000Y-99500000D01*
X180885000Y-59430000D02*
X180885000Y-60615000D01*
X120510000Y-84050000D02*
X122450000Y-84050000D01*
X179445000Y-91930000D02*
X179445000Y-92945000D01*
X120510000Y-71350000D02*
X122350000Y-71350000D01*
X179445000Y-98055000D02*
X180000000Y-97500000D01*
X129400000Y-88340000D02*
X129400000Y-88900000D01*
X178445000Y-50055000D02*
X179000000Y-49500000D01*
%TO.N,+5V*%
X188505000Y-67050000D02*
X185025000Y-63570000D01*
X138290000Y-43410000D02*
X140910000Y-43410000D01*
X150500000Y-53000000D02*
X150500000Y-64500000D01*
X185025000Y-63570000D02*
X175430000Y-63570000D01*
X192630000Y-50475000D02*
X189980000Y-50475000D01*
X191180000Y-81475000D02*
X189405000Y-83250000D01*
X135590000Y-43410000D02*
X131500000Y-47500000D01*
X153522500Y-67522500D02*
X156550000Y-67522500D01*
X168000000Y-69000000D02*
X171315000Y-69000000D01*
X191425000Y-67050000D02*
X192000000Y-66475000D01*
X125310000Y-77090000D02*
X125310000Y-93265000D01*
X186065000Y-49310000D02*
X188605000Y-51850000D01*
X131500000Y-47500000D02*
X131500000Y-70900000D01*
X128305000Y-98500000D02*
X129425000Y-97380000D01*
X126975000Y-98500000D02*
X128305000Y-98500000D01*
X162502500Y-67522500D02*
X163000000Y-67025000D01*
X189980000Y-50475000D02*
X188605000Y-51850000D01*
X163000000Y-67025000D02*
X166025000Y-67025000D01*
X186065000Y-44230000D02*
X186065000Y-49310000D01*
X156550000Y-67522500D02*
X162502500Y-67522500D01*
X138290000Y-43410000D02*
X135590000Y-43410000D01*
X131500000Y-70900000D02*
X125310000Y-77090000D01*
X173265000Y-65735000D02*
X173265000Y-67050000D01*
X166025000Y-67025000D02*
X168000000Y-69000000D01*
X188505000Y-67050000D02*
X191425000Y-67050000D01*
X125310000Y-93265000D02*
X129425000Y-97380000D01*
X150500000Y-64500000D02*
X153522500Y-67522500D01*
X175430000Y-63570000D02*
X173265000Y-65735000D01*
X140910000Y-43410000D02*
X150500000Y-53000000D01*
X171315000Y-69000000D02*
X173265000Y-67050000D01*
X193500000Y-81475000D02*
X191180000Y-81475000D01*
%TO.N,Net-(D1-Pad1)*%
X110362500Y-83500000D02*
X110362500Y-78825000D01*
X110362500Y-78825000D02*
X110037500Y-78500000D01*
%TO.N,Rail1*%
X117727500Y-86590000D02*
X114637500Y-83500000D01*
X127000000Y-107500000D02*
X122500000Y-103000000D01*
X123500000Y-89020000D02*
X123500000Y-94500000D01*
X120510000Y-86590000D02*
X117727500Y-86590000D01*
X122500000Y-95500000D02*
X123500000Y-94500000D01*
X122500000Y-103000000D02*
X122500000Y-95500000D01*
X131965000Y-106035000D02*
X130500000Y-107500000D01*
X120510000Y-86590000D02*
X121070000Y-86590000D01*
X130500000Y-107500000D02*
X127000000Y-107500000D01*
X131965000Y-105000000D02*
X131965000Y-106035000D01*
X121070000Y-86590000D02*
X123500000Y-89020000D01*
%TO.N,Net-(D2-Pad1)*%
X113537500Y-94000000D02*
X113537500Y-93856250D01*
X110362500Y-90681250D02*
X110362500Y-89000000D01*
X113537500Y-93856250D02*
X110362500Y-90681250D01*
%TO.N,Rail2*%
X120510000Y-103010000D02*
X127000000Y-109500000D01*
X127000000Y-109500000D02*
X132000000Y-109500000D01*
X120510000Y-89130000D02*
X114767500Y-89130000D01*
X120510000Y-89130000D02*
X120510000Y-103010000D01*
X114767500Y-89130000D02*
X114637500Y-89000000D01*
X132000000Y-109500000D02*
X133500000Y-108000000D01*
%TO.N,Net-(D3-Pad1)*%
X110537500Y-49175000D02*
X109862500Y-48500000D01*
X110537500Y-54500000D02*
X110537500Y-49175000D01*
%TO.N,G1A*%
X120500000Y-48500000D02*
X120510000Y-48490000D01*
X122490000Y-48490000D02*
X122500000Y-48500000D01*
X114137500Y-48500000D02*
X120500000Y-48500000D01*
X120510000Y-48490000D02*
X122490000Y-48490000D01*
%TO.N,Net-(D4-Pad1)*%
X109862500Y-60900000D02*
X113500000Y-64537500D01*
X109862500Y-60500000D02*
X109862500Y-60900000D01*
%TO.N,G2A*%
X120510000Y-61190000D02*
X122690000Y-61190000D01*
D32*
X170725000Y-67050000D02*
X168045000Y-64370000D01*
X168045000Y-64370000D02*
X167050000Y-64370000D01*
D31*
X122690000Y-61190000D02*
X123000000Y-61500000D01*
X119820000Y-60500000D02*
X120510000Y-61190000D01*
X114137500Y-60500000D02*
X119820000Y-60500000D01*
%TO.N,Net-(D5-Pad1)*%
X109862500Y-74000000D02*
X109862500Y-70600000D01*
X109862500Y-70600000D02*
X110000000Y-70462500D01*
%TO.N,G3A*%
X121890000Y-73890000D02*
X122500000Y-74500000D01*
X120510000Y-73890000D02*
X121890000Y-73890000D01*
X120400000Y-74000000D02*
X120510000Y-73890000D01*
X114137500Y-74000000D02*
X120400000Y-74000000D01*
%TO.N,Net-(D6-Pad1)*%
X147637500Y-78325000D02*
X147462500Y-78500000D01*
X147637500Y-74000000D02*
X147637500Y-78325000D01*
D32*
%TO.N,G4A*%
X166540000Y-94130000D02*
X153540000Y-81130000D01*
D31*
X141610000Y-73890000D02*
X143252500Y-73890000D01*
X138290000Y-73890000D02*
X141610000Y-73890000D01*
X143252500Y-73890000D02*
X143362500Y-74000000D01*
D32*
X166540000Y-102930000D02*
X166540000Y-94130000D01*
X147891827Y-81130000D02*
X145970000Y-79208173D01*
X145970000Y-76607500D02*
X143362500Y-74000000D01*
X153540000Y-81130000D02*
X147891827Y-81130000D01*
X145970000Y-79208173D02*
X145970000Y-76607500D01*
D31*
%TO.N,Net-(G1L1-Pad1)*%
X185355000Y-57500000D02*
X183425000Y-59430000D01*
X196500000Y-57500000D02*
X185355000Y-57500000D01*
X203500000Y-55330000D02*
X200500000Y-55330000D01*
X198670000Y-55330000D02*
X196500000Y-57500000D01*
%TO.N,Net-(G1M1-Pad1)*%
X203500000Y-50880000D02*
X200550000Y-50880000D01*
X178055000Y-54000000D02*
X175905000Y-51850000D01*
X193500000Y-54000000D02*
X178055000Y-54000000D01*
X196670000Y-50830000D02*
X193500000Y-54000000D01*
X200550000Y-50880000D02*
X200500000Y-50830000D01*
%TO.N,Net-(G1R1-Pad1)*%
X191000000Y-42500000D02*
X185255000Y-42500000D01*
X203550000Y-46330000D02*
X200500000Y-46330000D01*
X185255000Y-42500000D02*
X183525000Y-44230000D01*
X194830000Y-46330000D02*
X191000000Y-42500000D01*
%TO.N,Net-(G2L1-Pad1)*%
X203300000Y-80330000D02*
X200300000Y-80330000D01*
%TO.N,Net-(G2M1-Pad1)*%
X186455000Y-73500000D02*
X184325000Y-75630000D01*
X192000000Y-73500000D02*
X186455000Y-73500000D01*
X203300000Y-75830000D02*
X200300000Y-75830000D01*
X194330000Y-75830000D02*
X192000000Y-73500000D01*
%TO.N,Net-(G2R1-Pad1)*%
X203250000Y-71280000D02*
X200250000Y-71280000D01*
X180035000Y-71280000D02*
X175805000Y-67050000D01*
%TO.N,PWM*%
X145407500Y-89130000D02*
X145500000Y-89037500D01*
X158390000Y-95835000D02*
X152297500Y-95835000D01*
X138290000Y-89130000D02*
X145407500Y-89130000D01*
X152297500Y-95835000D02*
X145500000Y-89037500D01*
%TO.N,RAIL*%
X158547500Y-99030000D02*
X150970000Y-99030000D01*
X160930000Y-96647500D02*
X158547500Y-99030000D01*
X129425000Y-105000000D02*
X132925000Y-101500000D01*
X148500000Y-101500000D02*
X150970000Y-99030000D01*
X132925000Y-101500000D02*
X148500000Y-101500000D01*
X160930000Y-95835000D02*
X160930000Y-96647500D01*
%TO.N,Net-(RailA1-Pad1)*%
X137405001Y-116837499D02*
X137405001Y-107900001D01*
X137355001Y-119937499D02*
X137355001Y-116887499D01*
X137355001Y-116887499D02*
X137405001Y-116837499D01*
X137405001Y-107900001D02*
X134505000Y-105000000D01*
%TO.N,Net-(RailB1-Pad1)*%
X146305001Y-119987499D02*
X146305001Y-116987499D01*
X146305001Y-116987499D02*
X146305001Y-109180001D01*
X146305001Y-109180001D02*
X142125000Y-105000000D01*
%TO.N,G1B*%
X120510000Y-51030000D02*
X122470000Y-51030000D01*
X122470000Y-51030000D02*
X122500000Y-51000000D01*
%TO.N,G1C*%
X122430000Y-53570000D02*
X122500000Y-53500000D01*
X120510000Y-53570000D02*
X122430000Y-53570000D01*
%TO.N,G1D*%
X120510000Y-56110000D02*
X122390000Y-56110000D01*
X122390000Y-56110000D02*
X122500000Y-56000000D01*
%TO.N,G2B*%
X120510000Y-63730000D02*
X122230000Y-63730000D01*
X122230000Y-63730000D02*
X122500000Y-64000000D01*
%TO.N,G2C*%
X122270000Y-66270000D02*
X122500000Y-66500000D01*
X120510000Y-66270000D02*
X122270000Y-66270000D01*
%TO.N,G2D*%
X120510000Y-68810000D02*
X122310000Y-68810000D01*
X122310000Y-68810000D02*
X122500000Y-69000000D01*
%TO.N,G3B*%
X121930000Y-76430000D02*
X122500000Y-77000000D01*
X120510000Y-76430000D02*
X121930000Y-76430000D01*
%TO.N,G3C*%
X121970000Y-78970000D02*
X122500000Y-79500000D01*
X120510000Y-78970000D02*
X121970000Y-78970000D01*
D32*
%TO.N,G4D*%
X130020000Y-84479500D02*
X130000000Y-84499500D01*
X138080000Y-81300000D02*
X138290000Y-81510000D01*
X136870000Y-81300000D02*
X138080000Y-81300000D01*
X130020000Y-81870000D02*
X130020000Y-84479500D01*
X130540000Y-81350000D02*
X130020000Y-81870000D01*
X130540000Y-81340000D02*
X130540000Y-81350000D01*
%TO.N,G4C*%
X134270000Y-78960000D02*
X138280000Y-78960000D01*
X138280000Y-78960000D02*
X138290000Y-78970000D01*
X132650000Y-80580000D02*
X134270000Y-78960000D01*
X132650000Y-84499500D02*
X132650000Y-80580000D01*
%TO.N,G4B*%
X131360000Y-84489500D02*
X131360000Y-79970000D01*
X131360000Y-79970000D02*
X134900000Y-76430000D01*
X134900000Y-76430000D02*
X138290000Y-76430000D01*
X131350000Y-84499500D02*
X131360000Y-84489500D01*
D31*
%TO.N,G3D*%
X120510000Y-81510000D02*
X122490000Y-81510000D01*
X122490000Y-81510000D02*
X122500000Y-81500000D01*
%TO.N,Net-(G3L1-Pad1)*%
X203400000Y-109230000D02*
X200400000Y-109230000D01*
%TO.N,Net-(G3M1-Pad1)*%
X182085000Y-104730000D02*
X176905000Y-99550000D01*
X203400000Y-104730000D02*
X200400000Y-104730000D01*
%TO.N,Net-(G3R1-Pad1)*%
X203400000Y-100230000D02*
X200400000Y-100230000D01*
%TO.N,Net-(G4M1-Pad1)*%
X203200000Y-130000000D02*
X200200000Y-130000000D01*
%TO.N,Net-(G4R1-Pad1)*%
X203200000Y-125500000D02*
X200200000Y-125500000D01*
%TD*%
M02*
