M48
; DRILL file {KiCad (6.0.7)} date Fri Apr 21 16:09:54 2023
; FORMAT={-:-/ absolute / inch / decimal}
; #@! TF.CreationDate,2023-04-21T16:09:54-05:00
; #@! TF.GenerationSoftware,Kicad,Pcbnew,(6.0.7)
; #@! TF.FileFunction,Plated,1,2,PTH
FMAT,2
INCH
; #@! TA.AperFunction,Plated,PTH,ViaDrill
T1C0.0157
; #@! TA.AperFunction,Plated,PTH,ComponentDrill
T2C0.0315
; #@! TA.AperFunction,Plated,PTH,ComponentDrill
T3C0.0394
; #@! TA.AperFunction,Plated,PTH,ComponentDrill
T4C0.0433
; #@! TA.AperFunction,Plated,PTH,ComponentDrill
T5C0.1260
%
G90
G05
T1
X4.5866Y-3.622
X4.8228Y-1.811
X4.8228Y-1.9094
X4.8228Y-2.0079
X4.8228Y-2.1063
X4.8228Y-2.2047
X4.8228Y-2.5197
X4.8228Y-2.6181
X4.8228Y-2.7165
X4.8228Y-2.9331
X4.8228Y-3.0315
X4.8228Y-3.1299
X4.8228Y-3.2087
X4.8425Y-2.3228
X4.8425Y-2.4213
X4.8425Y-2.8346
X4.8425Y-3.2874
X4.9016Y-3.878
X5.1181Y-3.3268
X5.1409Y-3.2008
X5.1465Y-3.426
X5.1713Y-3.3268
X5.2224Y-3.3268
X5.2559Y-4.252
X5.3543Y-1.811
X5.3543Y-2.8543
X5.3886Y-3.2008
X5.4134Y-3.9173
X5.4134Y-4.0748
X5.4724Y-3.9173
X5.4724Y-4.0748
X5.689Y-3.6811
X6.0433Y-3.9567
X6.5567Y-4.0524
X6.5768Y-2.5343
X6.8701Y-3.189
X7.0276Y-2.5591
X7.0472Y-1.811
X7.0472Y-1.9488
X7.0472Y-2.4016
X7.0669Y-3.0512
X7.0669Y-3.2087
X7.0756Y-5.1665
X7.0776Y-5.0047
X7.0866Y-3.6811
X7.0866Y-3.8386
X7.087Y-4.3268
X7.0913Y-4.5
X7.1063Y-1.811
X7.1063Y-1.9488
X7.1063Y-2.4016
X7.1063Y-2.5591
X7.1457Y-3.0512
X7.1457Y-3.2087
X7.1457Y-3.6811
X7.1457Y-3.8386
X7.1516Y-4.5031
X7.1677Y-4.3228
X7.1748Y-5.1654
X7.1791Y-4.9984
X7.5591Y-1.7913
X7.6378Y-3.7402
X7.6602Y-5.0138
X7.7165Y-4.5276
T2
X5.0955Y-3.8339
X5.0955Y-4.1339
X5.1955Y-3.8339
X5.1955Y-4.1339
X5.2955Y-3.8339
X5.2955Y-4.1339
X5.3955Y-3.8339
X5.3955Y-4.1339
X5.4955Y-3.8339
X5.4955Y-4.1339
X5.5955Y-3.8339
X5.5955Y-4.1339
X5.6955Y-3.8339
X5.6955Y-4.1339
X5.7955Y-3.8339
X5.7955Y-4.1339
X6.7215Y-2.3398
X6.7215Y-2.6398
X6.7254Y-1.7413
X6.7254Y-2.0413
X6.7569Y-2.9776
X6.7569Y-3.2776
X6.7648Y-3.6193
X6.7648Y-3.9193
X6.7754Y-4.2598
X6.7754Y-4.5598
X6.7972Y-4.9291
X6.7972Y-5.2291
X6.8215Y-2.3398
X6.8215Y-2.6398
X6.8254Y-1.7413
X6.8254Y-2.0413
X6.8569Y-2.9776
X6.8569Y-3.2776
X6.8648Y-3.6193
X6.8648Y-3.9193
X6.8754Y-4.2598
X6.8754Y-4.5598
X6.8972Y-4.9291
X6.8972Y-5.2291
X6.9215Y-2.3398
X6.9215Y-2.6398
X6.9254Y-1.7413
X6.9254Y-2.0413
X6.9569Y-2.9776
X6.9569Y-3.2776
X6.9648Y-3.6193
X6.9648Y-3.9193
X6.9754Y-4.2598
X6.9754Y-4.5598
X6.9972Y-4.9291
X6.9972Y-5.2291
X7.0215Y-2.3398
X7.0215Y-2.6398
X7.0254Y-1.7413
X7.0254Y-2.0413
X7.0569Y-2.9776
X7.0569Y-3.2776
X7.0648Y-3.6193
X7.0648Y-3.9193
X7.0754Y-4.2598
X7.0754Y-4.5598
X7.0972Y-4.9291
X7.0972Y-5.2291
X7.1215Y-2.3398
X7.1215Y-2.6398
X7.1254Y-1.7413
X7.1254Y-2.0413
X7.1569Y-2.9776
X7.1569Y-3.2776
X7.1648Y-3.6193
X7.1648Y-3.9193
X7.1754Y-4.2598
X7.1754Y-4.5598
X7.1972Y-4.9291
X7.1972Y-5.2291
X7.2215Y-2.3398
X7.2215Y-2.6398
X7.2254Y-1.7413
X7.2254Y-2.0413
X7.2569Y-2.9776
X7.2569Y-3.2776
X7.2648Y-3.6193
X7.2648Y-3.9193
X7.2754Y-4.2598
X7.2754Y-4.5598
X7.2972Y-4.9291
X7.2972Y-5.2291
X7.3215Y-2.3398
X7.3215Y-2.6398
X7.3254Y-1.7413
X7.3254Y-2.0413
X7.3569Y-2.9776
X7.3569Y-3.2776
X7.3648Y-3.6193
X7.3648Y-3.9193
X7.3754Y-4.2598
X7.3754Y-4.5598
X7.3972Y-4.9291
X7.3972Y-5.2291
X7.4215Y-2.3398
X7.4215Y-2.6398
X7.4254Y-1.7413
X7.4254Y-2.0413
X7.4569Y-2.9776
X7.4569Y-3.2776
X7.4648Y-3.6193
X7.4648Y-3.9193
X7.4754Y-4.2598
X7.4754Y-4.5598
X7.4972Y-4.9291
X7.4972Y-5.2291
T3
X6.1634Y-2.1584
X6.1634Y-2.2584
X6.1634Y-2.3584
X6.1634Y-2.5584
X6.1634Y-2.6584
X6.1634Y-2.7584
X6.1634Y-2.8584
T4
X6.2358Y-3.773
X6.3358Y-3.773
X6.4358Y-3.773
T5
X5.8602Y-1.772
X6.0492Y-1.6618
X6.0492Y-1.8901
T0
M30
