%TF.GenerationSoftware,KiCad,Pcbnew,(6.0.7)*%
%TF.CreationDate,2023-04-21T16:09:57-05:00*%
%TF.ProjectId,RevisedControlBoard,52657669-7365-4644-936f-6e74726f6c42,rev?*%
%TF.SameCoordinates,Original*%
%TF.FileFunction,Profile,NP*%
%FSLAX46Y46*%
G04 Gerber Fmt 4.6, Leading zero omitted, Abs format (unit mm)*
G04 Created by KiCad (PCBNEW (6.0.7)) date 2023-04-21 16:09:57*
%MOMM*%
%LPD*%
G01*
G04 APERTURE LIST*
%TA.AperFunction,Profile*%
%ADD10C,0.100000*%
%TD*%
G04 APERTURE END LIST*
D10*
X196900000Y-101729999D02*
X196900000Y-103229999D01*
X196720000Y-78830000D02*
X204720001Y-78830000D01*
X177770000Y-41520000D02*
X193670000Y-41500000D01*
X204900001Y-98729999D02*
X204900001Y-101730000D01*
X135805001Y-121487497D02*
X138805001Y-121487499D01*
X204720000Y-128499998D02*
X204720000Y-131499999D01*
X135805002Y-113487500D02*
X135825001Y-110487501D01*
X196720002Y-124000000D02*
X204720002Y-124000000D01*
X164000000Y-110500000D02*
X147800000Y-110512500D01*
X197000000Y-44830000D02*
X204999999Y-44830001D01*
X196719999Y-62830000D02*
X196720001Y-69829999D01*
X135825001Y-110487501D02*
X124000000Y-110500000D01*
X196900000Y-98730000D02*
X196700000Y-98730000D01*
X138800000Y-110512500D02*
X144805001Y-110512500D01*
X204900001Y-101730000D02*
X196900000Y-101729999D01*
X197000000Y-52330000D02*
X197000000Y-53830000D01*
X204720001Y-78830000D02*
X204720000Y-81829999D01*
X147805001Y-121487499D02*
X147800000Y-110512500D01*
X138805001Y-121487499D02*
X138805002Y-113487500D01*
X135805002Y-113487500D02*
X135805001Y-121487497D01*
X164000000Y-111000000D02*
X164000000Y-110500000D01*
X196720002Y-133000000D02*
X204720002Y-133000000D01*
X196719999Y-131500002D02*
X196720002Y-133000000D01*
X204720002Y-124000000D02*
X204720001Y-127000001D01*
X204900001Y-106230000D02*
X196900001Y-106230001D01*
X196900000Y-98730000D02*
X204900001Y-98729999D01*
X144805002Y-113487500D02*
X144805001Y-121487497D01*
X204720000Y-74330000D02*
X204720000Y-77329998D01*
X196719999Y-72830000D02*
X196719999Y-74330000D01*
X196900000Y-107730000D02*
X204900001Y-107729999D01*
X113500000Y-38300000D02*
X173500000Y-38200000D01*
X108100000Y-43000000D02*
X108000000Y-94000000D01*
X204720000Y-77329998D02*
X196720002Y-77329999D01*
X205000001Y-47830001D02*
X197000000Y-47830001D01*
X205000000Y-52330000D02*
X197000000Y-52330000D01*
X196720001Y-69829999D02*
X204720001Y-69830000D01*
X196719999Y-81830000D02*
X196700000Y-98730000D01*
X196900000Y-103229999D02*
X204900001Y-103230001D01*
X197000000Y-53830000D02*
X204999999Y-53830001D01*
X197000000Y-47830001D02*
X197000000Y-49330000D01*
X138805002Y-113487500D02*
X138800000Y-110512500D01*
X204720002Y-133000000D02*
X204720000Y-136000000D01*
X196720002Y-77329999D02*
X196720000Y-78830000D01*
X204720001Y-127000001D02*
X196720002Y-127000001D01*
X173500000Y-38200000D02*
X177770000Y-41520000D01*
X197000000Y-49330000D02*
X205000001Y-49330000D01*
X144805001Y-121487497D02*
X147805001Y-121487499D01*
X204900000Y-110730001D02*
X196900000Y-110730000D01*
X205000001Y-56830000D02*
X197000000Y-56830000D01*
X204999999Y-53830001D02*
X205000001Y-56830000D01*
X144805001Y-110512500D02*
X144805002Y-113487500D01*
X204720001Y-69830000D02*
X204720000Y-72829999D01*
X204720000Y-81829999D02*
X196719999Y-81830000D01*
X204900001Y-107729999D02*
X204900000Y-110730001D01*
X196900000Y-110730000D02*
X196800000Y-110730000D01*
X124000000Y-110500000D02*
X108000000Y-94000000D01*
X196700000Y-56830000D02*
X197000000Y-56830000D01*
X196900001Y-106230001D02*
X196900000Y-107730000D01*
X197000000Y-44830000D02*
X193670000Y-41500000D01*
X164000000Y-136000000D02*
X196720000Y-136000001D01*
X196719999Y-62830000D02*
X196700000Y-56830000D01*
X196719999Y-128500001D02*
X204720000Y-128499998D01*
X196800000Y-110730000D02*
X196720002Y-124000000D01*
X204720000Y-72829999D02*
X196719999Y-72830000D01*
X205000001Y-49330000D02*
X205000000Y-52330000D01*
X204720000Y-136000000D02*
X196720000Y-136000001D01*
X113500000Y-38300000D02*
X108100000Y-43000000D01*
X164000000Y-136000000D02*
X164000000Y-111000000D01*
X196719999Y-74330000D02*
X204720000Y-74330000D01*
X196720002Y-127000001D02*
X196719999Y-128500001D01*
X204999999Y-44830001D02*
X205000001Y-47830001D01*
X204900001Y-103230001D02*
X204900001Y-106230000D01*
X204720000Y-131499999D02*
X196719999Y-131500002D01*
M02*
