%TF.GenerationSoftware,KiCad,Pcbnew,(6.0.7)*%
%TF.CreationDate,2023-04-21T16:09:57-05:00*%
%TF.ProjectId,RevisedControlBoard,52657669-7365-4644-936f-6e74726f6c42,rev?*%
%TF.SameCoordinates,Original*%
%TF.FileFunction,Soldermask,Bot*%
%TF.FilePolarity,Negative*%
%FSLAX46Y46*%
G04 Gerber Fmt 4.6, Leading zero omitted, Abs format (unit mm)*
G04 Created by KiCad (PCBNEW (6.0.7)) date 2023-04-21 16:09:57*
%MOMM*%
%LPD*%
G01*
G04 APERTURE LIST*
%ADD10R,1.600000X1.600000*%
%ADD11O,1.600000X1.600000*%
%ADD12R,1.508000X1.508000*%
%ADD13C,1.508000*%
%ADD14C,4.800000*%
%ADD15R,1.905000X2.000000*%
%ADD16O,1.905000X2.000000*%
%ADD17O,1.800000X1.800000*%
%ADD18O,1.500000X1.500000*%
G04 APERTURE END LIST*
D10*
%TO.C,U6*%
X190430000Y-125200000D03*
D11*
X187890000Y-125200000D03*
X185350000Y-125200000D03*
X182810000Y-125200000D03*
X180270000Y-125200000D03*
X177730000Y-125200000D03*
X175190000Y-125200000D03*
X172650000Y-125200000D03*
X172650000Y-132820000D03*
X175190000Y-132820000D03*
X177730000Y-132820000D03*
X180270000Y-132820000D03*
X182810000Y-132820000D03*
X185350000Y-132820000D03*
X187890000Y-132820000D03*
X190430000Y-132820000D03*
%TD*%
D10*
%TO.C,U5*%
X188505000Y-59430000D03*
D11*
X185965000Y-59430000D03*
X183425000Y-59430000D03*
X180885000Y-59430000D03*
X178345000Y-59430000D03*
X175805000Y-59430000D03*
X173265000Y-59430000D03*
X170725000Y-59430000D03*
X170725000Y-67050000D03*
X173265000Y-67050000D03*
X175805000Y-67050000D03*
X178345000Y-67050000D03*
X180885000Y-67050000D03*
X183425000Y-67050000D03*
X185965000Y-67050000D03*
X188505000Y-67050000D03*
%TD*%
D12*
%TO.C,PS1*%
X156550000Y-54822500D03*
D13*
X156550000Y-57362500D03*
X156550000Y-59902500D03*
X156550000Y-64982500D03*
X156550000Y-67522500D03*
X156550000Y-70062500D03*
X156550000Y-72602500D03*
%TD*%
D10*
%TO.C,U4*%
X188605000Y-44230000D03*
D11*
X186065000Y-44230000D03*
X183525000Y-44230000D03*
X180985000Y-44230000D03*
X178445000Y-44230000D03*
X175905000Y-44230000D03*
X173365000Y-44230000D03*
X170825000Y-44230000D03*
X170825000Y-51850000D03*
X173365000Y-51850000D03*
X175905000Y-51850000D03*
X178445000Y-51850000D03*
X180985000Y-51850000D03*
X183525000Y-51850000D03*
X186065000Y-51850000D03*
X188605000Y-51850000D03*
%TD*%
D10*
%TO.C,U7*%
X189605000Y-91930000D03*
D11*
X187065000Y-91930000D03*
X184525000Y-91930000D03*
X181985000Y-91930000D03*
X179445000Y-91930000D03*
X176905000Y-91930000D03*
X174365000Y-91930000D03*
X171825000Y-91930000D03*
X171825000Y-99550000D03*
X174365000Y-99550000D03*
X176905000Y-99550000D03*
X179445000Y-99550000D03*
X181985000Y-99550000D03*
X184525000Y-99550000D03*
X187065000Y-99550000D03*
X189605000Y-99550000D03*
%TD*%
D14*
%TO.C,J1*%
X153650000Y-48009500D03*
X153650000Y-42209500D03*
X148850000Y-45009500D03*
%TD*%
D15*
%TO.C,Q1*%
X158390000Y-95835000D03*
D16*
X160930000Y-95835000D03*
X163470000Y-95835000D03*
%TD*%
D10*
%TO.C,U3*%
X189405000Y-75630000D03*
D11*
X186865000Y-75630000D03*
X184325000Y-75630000D03*
X181785000Y-75630000D03*
X179245000Y-75630000D03*
X176705000Y-75630000D03*
X174165000Y-75630000D03*
X171625000Y-75630000D03*
X171625000Y-83250000D03*
X174165000Y-83250000D03*
X176705000Y-83250000D03*
X179245000Y-83250000D03*
X181785000Y-83250000D03*
X184325000Y-83250000D03*
X186865000Y-83250000D03*
X189405000Y-83250000D03*
%TD*%
D10*
%TO.C,U8*%
X189875000Y-108200000D03*
D11*
X187335000Y-108200000D03*
X184795000Y-108200000D03*
X182255000Y-108200000D03*
X179715000Y-108200000D03*
X177175000Y-108200000D03*
X174635000Y-108200000D03*
X172095000Y-108200000D03*
X172095000Y-115820000D03*
X174635000Y-115820000D03*
X177175000Y-115820000D03*
X179715000Y-115820000D03*
X182255000Y-115820000D03*
X184795000Y-115820000D03*
X187335000Y-115820000D03*
X189875000Y-115820000D03*
%TD*%
D17*
%TO.C,U2*%
X126675000Y-41000000D03*
D18*
X131825000Y-44030000D03*
X126975000Y-44030000D03*
D17*
X132125000Y-41000000D03*
%TD*%
D10*
%TO.C,U1*%
X129425000Y-105000000D03*
D11*
X131965000Y-105000000D03*
X134505000Y-105000000D03*
X137045000Y-105000000D03*
X139585000Y-105000000D03*
X142125000Y-105000000D03*
X144665000Y-105000000D03*
X147205000Y-105000000D03*
X147205000Y-97380000D03*
X144665000Y-97380000D03*
X142125000Y-97380000D03*
X139585000Y-97380000D03*
X137045000Y-97380000D03*
X134505000Y-97380000D03*
X131965000Y-97380000D03*
X129425000Y-97380000D03*
%TD*%
M02*
