%TF.GenerationSoftware,KiCad,Pcbnew,(6.0.7)*%
%TF.CreationDate,2023-04-21T16:09:57-05:00*%
%TF.ProjectId,RevisedControlBoard,52657669-7365-4644-936f-6e74726f6c42,rev?*%
%TF.SameCoordinates,Original*%
%TF.FileFunction,Legend,Top*%
%TF.FilePolarity,Positive*%
%FSLAX46Y46*%
G04 Gerber Fmt 4.6, Leading zero omitted, Abs format (unit mm)*
G04 Created by KiCad (PCBNEW (6.0.7)) date 2023-04-21 16:09:57*
%MOMM*%
%LPD*%
G01*
G04 APERTURE LIST*
%ADD10C,0.100000*%
%ADD11C,0.150000*%
%ADD12C,0.254000*%
%ADD13C,0.120000*%
%ADD14C,0.127000*%
%ADD15C,0.200000*%
G04 APERTURE END LIST*
D10*
X115737324Y-95824432D02*
X116141385Y-96228493D01*
X115232248Y-96733569D02*
X115939355Y-96026462D01*
X115669981Y-97171302D02*
X116141385Y-96699897D01*
X116006698Y-96834584D02*
X116107713Y-96800913D01*
X116175057Y-96800913D01*
X116276072Y-96834584D01*
X116343416Y-96901928D01*
X116410759Y-97912080D02*
X116781148Y-97541691D01*
X116814820Y-97440676D01*
X116781148Y-97339661D01*
X116646461Y-97204974D01*
X116545446Y-97171302D01*
X116444431Y-97878409D02*
X116343416Y-97844737D01*
X116175057Y-97676378D01*
X116141385Y-97575363D01*
X116175057Y-97474348D01*
X116242400Y-97407004D01*
X116343416Y-97373332D01*
X116444431Y-97407004D01*
X116612790Y-97575363D01*
X116713805Y-97609035D01*
X116747477Y-98248798D02*
X117218881Y-97777393D01*
X117454583Y-97541691D02*
X117387240Y-97541691D01*
X117387240Y-97609035D01*
X117454583Y-97609035D01*
X117454583Y-97541691D01*
X117387240Y-97609035D01*
X117555599Y-98114111D02*
X117084194Y-98585515D01*
X117488255Y-98181454D02*
X117555599Y-98181454D01*
X117656614Y-98215126D01*
X117757629Y-98316141D01*
X117791301Y-98417157D01*
X117757629Y-98518172D01*
X117387240Y-98888561D01*
X118734110Y-100100744D02*
X118666767Y-100100744D01*
X118532080Y-100033401D01*
X118464736Y-99966057D01*
X118397393Y-99831370D01*
X118397393Y-99696683D01*
X118431064Y-99595668D01*
X118532080Y-99427309D01*
X118633095Y-99326294D01*
X118801454Y-99225279D01*
X118902469Y-99191607D01*
X119037156Y-99191607D01*
X119171843Y-99258951D01*
X119239186Y-99326294D01*
X119306530Y-99460981D01*
X119306530Y-99528325D01*
X119070828Y-100572149D02*
X119037156Y-100471134D01*
X119037156Y-100403790D01*
X119070828Y-100302775D01*
X119272858Y-100100744D01*
X119373873Y-100067073D01*
X119441217Y-100067073D01*
X119542232Y-100100744D01*
X119643247Y-100201760D01*
X119676919Y-100302775D01*
X119676919Y-100370118D01*
X119643247Y-100471134D01*
X119441217Y-100673164D01*
X119340202Y-100706836D01*
X119272858Y-100706836D01*
X119171843Y-100673164D01*
X119070828Y-100572149D01*
X120080980Y-100639492D02*
X119609576Y-101110897D01*
X120013637Y-100706836D02*
X120080980Y-100706836D01*
X120181995Y-100740508D01*
X120283011Y-100841523D01*
X120316682Y-100942538D01*
X120283011Y-101043553D01*
X119912621Y-101413943D01*
X120619728Y-101178240D02*
X120889102Y-101447614D01*
X120956446Y-101043553D02*
X120350354Y-101649645D01*
X120316682Y-101750660D01*
X120350354Y-101851675D01*
X120417698Y-101919019D01*
X120653400Y-102154721D02*
X121124804Y-101683317D01*
X120990117Y-101818004D02*
X121091133Y-101784332D01*
X121158476Y-101784332D01*
X121259491Y-101818004D01*
X121326835Y-101885347D01*
X121192148Y-102693469D02*
X121158476Y-102592454D01*
X121158476Y-102525110D01*
X121192148Y-102424095D01*
X121394178Y-102222065D01*
X121495194Y-102188393D01*
X121562537Y-102188393D01*
X121663552Y-102222065D01*
X121764568Y-102323080D01*
X121798239Y-102424095D01*
X121798239Y-102491439D01*
X121764568Y-102592454D01*
X121562537Y-102794484D01*
X121461522Y-102828156D01*
X121394178Y-102828156D01*
X121293163Y-102794484D01*
X121192148Y-102693469D01*
X121831911Y-103333232D02*
X121798239Y-103232217D01*
X121831911Y-103131202D01*
X122438003Y-102525110D01*
X123246125Y-104006667D02*
X123313468Y-104141354D01*
X123313468Y-104208698D01*
X123279796Y-104309713D01*
X123178781Y-104410729D01*
X123077766Y-104444400D01*
X123010422Y-104444400D01*
X122909407Y-104410729D01*
X122640033Y-104141354D01*
X123347140Y-103434248D01*
X123582842Y-103669950D01*
X123616514Y-103770965D01*
X123616514Y-103838309D01*
X123582842Y-103939324D01*
X123515499Y-104006667D01*
X123414484Y-104040339D01*
X123347140Y-104040339D01*
X123246125Y-104006667D01*
X123010422Y-103770965D01*
X123448155Y-104949477D02*
X123414484Y-104848461D01*
X123414484Y-104781118D01*
X123448155Y-104680103D01*
X123650186Y-104478072D01*
X123751201Y-104444400D01*
X123818545Y-104444400D01*
X123919560Y-104478072D01*
X124020575Y-104579087D01*
X124054247Y-104680103D01*
X124054247Y-104747446D01*
X124020575Y-104848461D01*
X123818545Y-105050492D01*
X123717529Y-105084164D01*
X123650186Y-105084164D01*
X123549171Y-105050492D01*
X123448155Y-104949477D01*
X124289949Y-105791270D02*
X124660338Y-105420881D01*
X124694010Y-105319866D01*
X124660338Y-105218851D01*
X124525651Y-105084164D01*
X124424636Y-105050492D01*
X124323621Y-105757599D02*
X124222606Y-105723927D01*
X124054247Y-105555568D01*
X124020575Y-105454553D01*
X124054247Y-105353538D01*
X124121590Y-105286194D01*
X124222606Y-105252522D01*
X124323621Y-105286194D01*
X124491980Y-105454553D01*
X124592995Y-105488225D01*
X124626667Y-106127988D02*
X125098071Y-105656583D01*
X124963384Y-105791270D02*
X125064399Y-105757599D01*
X125131743Y-105757599D01*
X125232758Y-105791270D01*
X125300102Y-105858614D01*
X125367445Y-106868766D02*
X126074552Y-106161660D01*
X125401117Y-106835095D02*
X125300102Y-106801423D01*
X125165415Y-106666736D01*
X125131743Y-106565721D01*
X125131743Y-106498377D01*
X125165415Y-106397362D01*
X125367445Y-106195331D01*
X125468460Y-106161660D01*
X125535804Y-106161660D01*
X125636819Y-106195331D01*
X125771506Y-106330018D01*
X125805178Y-106431034D01*
X112326039Y-96104244D02*
X113033146Y-95397137D01*
X112763772Y-96137916D01*
X113504550Y-95868542D01*
X112797443Y-96575649D01*
X113134161Y-96912366D02*
X113605565Y-96440962D01*
X113841268Y-96205259D02*
X113773924Y-96205259D01*
X113773924Y-96272603D01*
X113841268Y-96272603D01*
X113841268Y-96205259D01*
X113773924Y-96272603D01*
X113807596Y-97518458D02*
X113706581Y-97484786D01*
X113571894Y-97350099D01*
X113538222Y-97249084D01*
X113538222Y-97181740D01*
X113571894Y-97080725D01*
X113773924Y-96878694D01*
X113874940Y-96845023D01*
X113942283Y-96845023D01*
X114043298Y-96878694D01*
X114177985Y-97013382D01*
X114211657Y-97114397D01*
X114076970Y-97855175D02*
X114784077Y-97148069D01*
X114380016Y-98158221D02*
X114750405Y-97787832D01*
X114784077Y-97686817D01*
X114750405Y-97585801D01*
X114649390Y-97484786D01*
X114548375Y-97451114D01*
X114481031Y-97451114D01*
X115019779Y-98797984D02*
X115390168Y-98427595D01*
X115423840Y-98326580D01*
X115390168Y-98225565D01*
X115255481Y-98090878D01*
X115154466Y-98057206D01*
X115053451Y-98764313D02*
X114952436Y-98730641D01*
X114784077Y-98562282D01*
X114750405Y-98461267D01*
X114784077Y-98360252D01*
X114851420Y-98292908D01*
X114952436Y-98259236D01*
X115053451Y-98292908D01*
X115221810Y-98461267D01*
X115322825Y-98494939D01*
X115659542Y-99370404D02*
X115558527Y-99336732D01*
X115423840Y-99202045D01*
X115390168Y-99101030D01*
X115423840Y-99000015D01*
X115693214Y-98730641D01*
X115794229Y-98696969D01*
X115895245Y-98730641D01*
X116029932Y-98865328D01*
X116063603Y-98966343D01*
X116029932Y-99067358D01*
X115962588Y-99134702D01*
X115558527Y-98865328D01*
X116063603Y-99841809D02*
X116029932Y-99740793D01*
X116063603Y-99639778D01*
X116669695Y-99033687D01*
X117915550Y-100346885D02*
X117881878Y-100245870D01*
X117780863Y-100144854D01*
X117646176Y-100077511D01*
X117511489Y-100077511D01*
X117410473Y-100111183D01*
X117242115Y-100212198D01*
X117141099Y-100313213D01*
X117040084Y-100481572D01*
X117006412Y-100582587D01*
X117006412Y-100717274D01*
X117073756Y-100851961D01*
X117141099Y-100919305D01*
X117275786Y-100986648D01*
X117343130Y-100986648D01*
X117578832Y-100750946D01*
X117444145Y-100616259D01*
X117881878Y-101660083D02*
X118252267Y-101289694D01*
X118285939Y-101188679D01*
X118252267Y-101087663D01*
X118117580Y-100952976D01*
X118016565Y-100919305D01*
X117915550Y-101626411D02*
X117814534Y-101592740D01*
X117646176Y-101424381D01*
X117612504Y-101323366D01*
X117646176Y-101222350D01*
X117713519Y-101155007D01*
X117814534Y-101121335D01*
X117915550Y-101155007D01*
X118083908Y-101323366D01*
X118184924Y-101357037D01*
X118218595Y-101996801D02*
X118690000Y-101525396D01*
X118622656Y-101592740D02*
X118690000Y-101592740D01*
X118791015Y-101626411D01*
X118892030Y-101727427D01*
X118925702Y-101828442D01*
X118892030Y-101929457D01*
X118521641Y-102299846D01*
X118892030Y-101929457D02*
X118993046Y-101895785D01*
X119094061Y-101929457D01*
X119195076Y-102030472D01*
X119228748Y-102131488D01*
X119195076Y-102232503D01*
X118824687Y-102602892D01*
X119262420Y-103040625D02*
X119228748Y-102939610D01*
X119228748Y-102872266D01*
X119262420Y-102771251D01*
X119464450Y-102569221D01*
X119565466Y-102535549D01*
X119632809Y-102535549D01*
X119733824Y-102569221D01*
X119834840Y-102670236D01*
X119868511Y-102771251D01*
X119868511Y-102838595D01*
X119834840Y-102939610D01*
X119632809Y-103141640D01*
X119531794Y-103175312D01*
X119464450Y-103175312D01*
X119363435Y-103141640D01*
X119262420Y-103040625D01*
X120171557Y-103006953D02*
X120440931Y-103276327D01*
X120508275Y-102872266D02*
X119902183Y-103478358D01*
X119868511Y-103579373D01*
X119902183Y-103680388D01*
X119969527Y-103747732D01*
X120508275Y-104286480D02*
X120878664Y-103916091D01*
X120912336Y-103815075D01*
X120878664Y-103714060D01*
X120743977Y-103579373D01*
X120642962Y-103545701D01*
X120541946Y-104252808D02*
X120440931Y-104219136D01*
X120272572Y-104050778D01*
X120238901Y-103949762D01*
X120272572Y-103848747D01*
X120339916Y-103781404D01*
X120440931Y-103747732D01*
X120541946Y-103781404D01*
X120710305Y-103949762D01*
X120811320Y-103983434D01*
X122158190Y-104993587D02*
X121686786Y-105464991D01*
X122259206Y-104555854D02*
X121585771Y-104892571D01*
X122023503Y-105330304D01*
X123303030Y-105599678D02*
X121787801Y-105902724D01*
X123404045Y-105902724D02*
X123471389Y-105902724D01*
X123572404Y-105936396D01*
X123740763Y-106104754D01*
X123774434Y-106205770D01*
X123774434Y-106273113D01*
X123740763Y-106374128D01*
X123673419Y-106441472D01*
X123538732Y-106508815D01*
X122730610Y-106508815D01*
X123168343Y-106946548D01*
X123841778Y-107619983D02*
X123437717Y-107215922D01*
X123639747Y-107417953D02*
X124346854Y-106710846D01*
X124178495Y-106744518D01*
X124043808Y-106744518D01*
X123942793Y-106710846D01*
X125390679Y-107687327D02*
X123875450Y-107990372D01*
X125491694Y-107990372D02*
X125559037Y-107990372D01*
X125660053Y-108024044D01*
X125828411Y-108192403D01*
X125862083Y-108293418D01*
X125862083Y-108360762D01*
X125828411Y-108461777D01*
X125761068Y-108529121D01*
X125626381Y-108596464D01*
X124818259Y-108596464D01*
X125255992Y-109034197D01*
X126198801Y-108562792D02*
X126636533Y-109000525D01*
X126131457Y-109034197D01*
X126232472Y-109135212D01*
X126266144Y-109236227D01*
X126266144Y-109303571D01*
X126232472Y-109404586D01*
X126064114Y-109572945D01*
X125963098Y-109606617D01*
X125895755Y-109606617D01*
X125794740Y-109572945D01*
X125592709Y-109370914D01*
X125559037Y-109269899D01*
X125559037Y-109202556D01*
D11*
%TO.C,U6*%
X193597380Y-125991904D02*
X194406904Y-125991904D01*
X194502142Y-125944285D01*
X194549761Y-125896666D01*
X194597380Y-125801428D01*
X194597380Y-125610952D01*
X194549761Y-125515714D01*
X194502142Y-125468095D01*
X194406904Y-125420476D01*
X193597380Y-125420476D01*
X193597380Y-124515714D02*
X193597380Y-124706190D01*
X193645000Y-124801428D01*
X193692619Y-124849047D01*
X193835476Y-124944285D01*
X194025952Y-124991904D01*
X194406904Y-124991904D01*
X194502142Y-124944285D01*
X194549761Y-124896666D01*
X194597380Y-124801428D01*
X194597380Y-124610952D01*
X194549761Y-124515714D01*
X194502142Y-124468095D01*
X194406904Y-124420476D01*
X194168809Y-124420476D01*
X194073571Y-124468095D01*
X194025952Y-124515714D01*
X193978333Y-124610952D01*
X193978333Y-124801428D01*
X194025952Y-124896666D01*
X194073571Y-124944285D01*
X194168809Y-124991904D01*
%TO.C,C12*%
X192557142Y-131842857D02*
X192604761Y-131890476D01*
X192652380Y-132033333D01*
X192652380Y-132128571D01*
X192604761Y-132271428D01*
X192509523Y-132366666D01*
X192414285Y-132414285D01*
X192223809Y-132461904D01*
X192080952Y-132461904D01*
X191890476Y-132414285D01*
X191795238Y-132366666D01*
X191700000Y-132271428D01*
X191652380Y-132128571D01*
X191652380Y-132033333D01*
X191700000Y-131890476D01*
X191747619Y-131842857D01*
X192652380Y-130890476D02*
X192652380Y-131461904D01*
X192652380Y-131176190D02*
X191652380Y-131176190D01*
X191795238Y-131271428D01*
X191890476Y-131366666D01*
X191938095Y-131461904D01*
X191747619Y-130509523D02*
X191700000Y-130461904D01*
X191652380Y-130366666D01*
X191652380Y-130128571D01*
X191700000Y-130033333D01*
X191747619Y-129985714D01*
X191842857Y-129938095D01*
X191938095Y-129938095D01*
X192080952Y-129985714D01*
X192652380Y-130557142D01*
X192652380Y-129938095D01*
%TO.C,U5*%
X190287380Y-64001904D02*
X191096904Y-64001904D01*
X191192142Y-63954285D01*
X191239761Y-63906666D01*
X191287380Y-63811428D01*
X191287380Y-63620952D01*
X191239761Y-63525714D01*
X191192142Y-63478095D01*
X191096904Y-63430476D01*
X190287380Y-63430476D01*
X190287380Y-62478095D02*
X190287380Y-62954285D01*
X190763571Y-63001904D01*
X190715952Y-62954285D01*
X190668333Y-62859047D01*
X190668333Y-62620952D01*
X190715952Y-62525714D01*
X190763571Y-62478095D01*
X190858809Y-62430476D01*
X191096904Y-62430476D01*
X191192142Y-62478095D01*
X191239761Y-62525714D01*
X191287380Y-62620952D01*
X191287380Y-62859047D01*
X191239761Y-62954285D01*
X191192142Y-63001904D01*
%TO.C,RailB1*%
X144685953Y-115291879D02*
X144352620Y-114815689D01*
X144114524Y-115291879D02*
X144114524Y-114291879D01*
X144495477Y-114291879D01*
X144590715Y-114339499D01*
X144638334Y-114387118D01*
X144685953Y-114482356D01*
X144685953Y-114625213D01*
X144638334Y-114720451D01*
X144590715Y-114768070D01*
X144495477Y-114815689D01*
X144114524Y-114815689D01*
X145543096Y-115291879D02*
X145543096Y-114768070D01*
X145495477Y-114672832D01*
X145400239Y-114625213D01*
X145209762Y-114625213D01*
X145114524Y-114672832D01*
X145543096Y-115244260D02*
X145447858Y-115291879D01*
X145209762Y-115291879D01*
X145114524Y-115244260D01*
X145066905Y-115149022D01*
X145066905Y-115053784D01*
X145114524Y-114958546D01*
X145209762Y-114910927D01*
X145447858Y-114910927D01*
X145543096Y-114863308D01*
X146019286Y-115291879D02*
X146019286Y-114625213D01*
X146019286Y-114291879D02*
X145971667Y-114339499D01*
X146019286Y-114387118D01*
X146066905Y-114339499D01*
X146019286Y-114291879D01*
X146019286Y-114387118D01*
X146638334Y-115291879D02*
X146543096Y-115244260D01*
X146495477Y-115149022D01*
X146495477Y-114291879D01*
X147352620Y-114768070D02*
X147495477Y-114815689D01*
X147543096Y-114863308D01*
X147590715Y-114958546D01*
X147590715Y-115101403D01*
X147543096Y-115196641D01*
X147495477Y-115244260D01*
X147400239Y-115291879D01*
X147019286Y-115291879D01*
X147019286Y-114291879D01*
X147352620Y-114291879D01*
X147447858Y-114339499D01*
X147495477Y-114387118D01*
X147543096Y-114482356D01*
X147543096Y-114577594D01*
X147495477Y-114672832D01*
X147447858Y-114720451D01*
X147352620Y-114768070D01*
X147019286Y-114768070D01*
X148543096Y-115291879D02*
X147971667Y-115291879D01*
X148257381Y-115291879D02*
X148257381Y-114291879D01*
X148162143Y-114434737D01*
X148066905Y-114529975D01*
X147971667Y-114577594D01*
%TO.C,C2*%
X192057142Y-116666666D02*
X192104761Y-116714285D01*
X192152380Y-116857142D01*
X192152380Y-116952380D01*
X192104761Y-117095238D01*
X192009523Y-117190476D01*
X191914285Y-117238095D01*
X191723809Y-117285714D01*
X191580952Y-117285714D01*
X191390476Y-117238095D01*
X191295238Y-117190476D01*
X191200000Y-117095238D01*
X191152380Y-116952380D01*
X191152380Y-116857142D01*
X191200000Y-116714285D01*
X191247619Y-116666666D01*
X191247619Y-116285714D02*
X191200000Y-116238095D01*
X191152380Y-116142857D01*
X191152380Y-115904761D01*
X191200000Y-115809523D01*
X191247619Y-115761904D01*
X191342857Y-115714285D01*
X191438095Y-115714285D01*
X191580952Y-115761904D01*
X192152380Y-116333333D01*
X192152380Y-115714285D01*
%TO.C,G4L1*%
X202104761Y-136148000D02*
X202009523Y-136100380D01*
X201866666Y-136100380D01*
X201723809Y-136148000D01*
X201628571Y-136243238D01*
X201580952Y-136338476D01*
X201533333Y-136528952D01*
X201533333Y-136671809D01*
X201580952Y-136862285D01*
X201628571Y-136957523D01*
X201723809Y-137052761D01*
X201866666Y-137100380D01*
X201961904Y-137100380D01*
X202104761Y-137052761D01*
X202152380Y-137005142D01*
X202152380Y-136671809D01*
X201961904Y-136671809D01*
X203009523Y-136433714D02*
X203009523Y-137100380D01*
X202771428Y-136052761D02*
X202533333Y-136767047D01*
X203152380Y-136767047D01*
X204009523Y-137100380D02*
X203533333Y-137100380D01*
X203533333Y-136100380D01*
X204866666Y-137100380D02*
X204295238Y-137100380D01*
X204580952Y-137100380D02*
X204580952Y-136100380D01*
X204485714Y-136243238D01*
X204390476Y-136338476D01*
X204295238Y-136386095D01*
%TO.C,G2L2*%
X199204761Y-81877999D02*
X199109523Y-81830379D01*
X198966666Y-81830379D01*
X198823809Y-81877999D01*
X198728571Y-81973237D01*
X198680952Y-82068475D01*
X198633333Y-82258951D01*
X198633333Y-82401808D01*
X198680952Y-82592284D01*
X198728571Y-82687522D01*
X198823809Y-82782760D01*
X198966666Y-82830379D01*
X199061904Y-82830379D01*
X199204761Y-82782760D01*
X199252380Y-82735141D01*
X199252380Y-82401808D01*
X199061904Y-82401808D01*
X199633333Y-81925618D02*
X199680952Y-81877999D01*
X199776190Y-81830379D01*
X200014285Y-81830379D01*
X200109523Y-81877999D01*
X200157142Y-81925618D01*
X200204761Y-82020856D01*
X200204761Y-82116094D01*
X200157142Y-82258951D01*
X199585714Y-82830379D01*
X200204761Y-82830379D01*
X201109523Y-82830379D02*
X200633333Y-82830379D01*
X200633333Y-81830379D01*
X201395238Y-81925618D02*
X201442857Y-81877999D01*
X201538095Y-81830379D01*
X201776190Y-81830379D01*
X201871428Y-81877999D01*
X201919047Y-81925618D01*
X201966666Y-82020856D01*
X201966666Y-82116094D01*
X201919047Y-82258951D01*
X201347619Y-82830379D01*
X201966666Y-82830379D01*
%TO.C,G1L1*%
X202755875Y-53337487D02*
X202660637Y-53289867D01*
X202517780Y-53289867D01*
X202374923Y-53337487D01*
X202279685Y-53432725D01*
X202232066Y-53527963D01*
X202184447Y-53718439D01*
X202184447Y-53861296D01*
X202232066Y-54051772D01*
X202279685Y-54147010D01*
X202374923Y-54242248D01*
X202517780Y-54289867D01*
X202613018Y-54289867D01*
X202755875Y-54242248D01*
X202803494Y-54194629D01*
X202803494Y-53861296D01*
X202613018Y-53861296D01*
X203755875Y-54289867D02*
X203184447Y-54289867D01*
X203470161Y-54289867D02*
X203470161Y-53289867D01*
X203374923Y-53432725D01*
X203279685Y-53527963D01*
X203184447Y-53575582D01*
X204660637Y-54289867D02*
X204184447Y-54289867D01*
X204184447Y-53289867D01*
X205517780Y-54289867D02*
X204946352Y-54289867D01*
X205232066Y-54289867D02*
X205232066Y-53289867D01*
X205136828Y-53432725D01*
X205041590Y-53527963D01*
X204946352Y-53575582D01*
%TO.C,C10*%
X173357142Y-103057142D02*
X173309523Y-103104761D01*
X173166666Y-103152380D01*
X173071428Y-103152380D01*
X172928571Y-103104761D01*
X172833333Y-103009523D01*
X172785714Y-102914285D01*
X172738095Y-102723809D01*
X172738095Y-102580952D01*
X172785714Y-102390476D01*
X172833333Y-102295238D01*
X172928571Y-102200000D01*
X173071428Y-102152380D01*
X173166666Y-102152380D01*
X173309523Y-102200000D01*
X173357142Y-102247619D01*
X174309523Y-103152380D02*
X173738095Y-103152380D01*
X174023809Y-103152380D02*
X174023809Y-102152380D01*
X173928571Y-102295238D01*
X173833333Y-102390476D01*
X173738095Y-102438095D01*
X174928571Y-102152380D02*
X175023809Y-102152380D01*
X175119047Y-102200000D01*
X175166666Y-102247619D01*
X175214285Y-102342857D01*
X175261904Y-102533333D01*
X175261904Y-102771428D01*
X175214285Y-102961904D01*
X175166666Y-103057142D01*
X175119047Y-103104761D01*
X175023809Y-103152380D01*
X174928571Y-103152380D01*
X174833333Y-103104761D01*
X174785714Y-103057142D01*
X174738095Y-102961904D01*
X174690476Y-102771428D01*
X174690476Y-102533333D01*
X174738095Y-102342857D01*
X174785714Y-102247619D01*
X174833333Y-102200000D01*
X174928571Y-102152380D01*
%TO.C,G1M2*%
X199589209Y-48837487D02*
X199493971Y-48789867D01*
X199351114Y-48789867D01*
X199208256Y-48837487D01*
X199113018Y-48932725D01*
X199065399Y-49027963D01*
X199017780Y-49218439D01*
X199017780Y-49361296D01*
X199065399Y-49551772D01*
X199113018Y-49647010D01*
X199208256Y-49742248D01*
X199351114Y-49789867D01*
X199446352Y-49789867D01*
X199589209Y-49742248D01*
X199636828Y-49694629D01*
X199636828Y-49361296D01*
X199446352Y-49361296D01*
X200589209Y-49789867D02*
X200017780Y-49789867D01*
X200303494Y-49789867D02*
X200303494Y-48789867D01*
X200208256Y-48932725D01*
X200113018Y-49027963D01*
X200017780Y-49075582D01*
X201017780Y-49789867D02*
X201017780Y-48789867D01*
X201351114Y-49504153D01*
X201684447Y-48789867D01*
X201684447Y-49789867D01*
X202113018Y-48885106D02*
X202160637Y-48837487D01*
X202255875Y-48789867D01*
X202493971Y-48789867D01*
X202589209Y-48837487D01*
X202636828Y-48885106D01*
X202684447Y-48980344D01*
X202684447Y-49075582D01*
X202636828Y-49218439D01*
X202065399Y-49789867D01*
X202684447Y-49789867D01*
%TO.C,R1*%
X111333333Y-76672380D02*
X111000000Y-76196190D01*
X110761904Y-76672380D02*
X110761904Y-75672380D01*
X111142857Y-75672380D01*
X111238095Y-75720000D01*
X111285714Y-75767619D01*
X111333333Y-75862857D01*
X111333333Y-76005714D01*
X111285714Y-76100952D01*
X111238095Y-76148571D01*
X111142857Y-76196190D01*
X110761904Y-76196190D01*
X112285714Y-76672380D02*
X111714285Y-76672380D01*
X112000000Y-76672380D02*
X112000000Y-75672380D01*
X111904761Y-75815238D01*
X111809523Y-75910476D01*
X111714285Y-75958095D01*
%TO.C,G4R2*%
X199009523Y-122852000D02*
X198914285Y-122804380D01*
X198771428Y-122804380D01*
X198628571Y-122852000D01*
X198533333Y-122947238D01*
X198485714Y-123042476D01*
X198438095Y-123232952D01*
X198438095Y-123375809D01*
X198485714Y-123566285D01*
X198533333Y-123661523D01*
X198628571Y-123756761D01*
X198771428Y-123804380D01*
X198866666Y-123804380D01*
X199009523Y-123756761D01*
X199057142Y-123709142D01*
X199057142Y-123375809D01*
X198866666Y-123375809D01*
X199914285Y-123137714D02*
X199914285Y-123804380D01*
X199676190Y-122756761D02*
X199438095Y-123471047D01*
X200057142Y-123471047D01*
X201009523Y-123804380D02*
X200676190Y-123328190D01*
X200438095Y-123804380D02*
X200438095Y-122804380D01*
X200819047Y-122804380D01*
X200914285Y-122852000D01*
X200961904Y-122899619D01*
X201009523Y-122994857D01*
X201009523Y-123137714D01*
X200961904Y-123232952D01*
X200914285Y-123280571D01*
X200819047Y-123328190D01*
X200438095Y-123328190D01*
X201390476Y-122899619D02*
X201438095Y-122852000D01*
X201533333Y-122804380D01*
X201771428Y-122804380D01*
X201866666Y-122852000D01*
X201914285Y-122899619D01*
X201961904Y-122994857D01*
X201961904Y-123090095D01*
X201914285Y-123232952D01*
X201342857Y-123804380D01*
X201961904Y-123804380D01*
%TO.C,PS1*%
X160787380Y-57101785D02*
X159787380Y-57101785D01*
X159787380Y-56720833D01*
X159835000Y-56625595D01*
X159882619Y-56577976D01*
X159977857Y-56530357D01*
X160120714Y-56530357D01*
X160215952Y-56577976D01*
X160263571Y-56625595D01*
X160311190Y-56720833D01*
X160311190Y-57101785D01*
X160739761Y-56149404D02*
X160787380Y-56006547D01*
X160787380Y-55768452D01*
X160739761Y-55673214D01*
X160692142Y-55625595D01*
X160596904Y-55577976D01*
X160501666Y-55577976D01*
X160406428Y-55625595D01*
X160358809Y-55673214D01*
X160311190Y-55768452D01*
X160263571Y-55958928D01*
X160215952Y-56054166D01*
X160168333Y-56101785D01*
X160073095Y-56149404D01*
X159977857Y-56149404D01*
X159882619Y-56101785D01*
X159835000Y-56054166D01*
X159787380Y-55958928D01*
X159787380Y-55720833D01*
X159835000Y-55577976D01*
X160787380Y-54625595D02*
X160787380Y-55197023D01*
X160787380Y-54911309D02*
X159787380Y-54911309D01*
X159930238Y-55006547D01*
X160025476Y-55101785D01*
X160073095Y-55197023D01*
%TO.C,CCW*%
X111738095Y-86707142D02*
X111690476Y-86754761D01*
X111547619Y-86802380D01*
X111452380Y-86802380D01*
X111309523Y-86754761D01*
X111214285Y-86659523D01*
X111166666Y-86564285D01*
X111119047Y-86373809D01*
X111119047Y-86230952D01*
X111166666Y-86040476D01*
X111214285Y-85945238D01*
X111309523Y-85850000D01*
X111452380Y-85802380D01*
X111547619Y-85802380D01*
X111690476Y-85850000D01*
X111738095Y-85897619D01*
X112738095Y-86707142D02*
X112690476Y-86754761D01*
X112547619Y-86802380D01*
X112452380Y-86802380D01*
X112309523Y-86754761D01*
X112214285Y-86659523D01*
X112166666Y-86564285D01*
X112119047Y-86373809D01*
X112119047Y-86230952D01*
X112166666Y-86040476D01*
X112214285Y-85945238D01*
X112309523Y-85850000D01*
X112452380Y-85802380D01*
X112547619Y-85802380D01*
X112690476Y-85850000D01*
X112738095Y-85897619D01*
X113071428Y-85802380D02*
X113309523Y-86802380D01*
X113500000Y-86088095D01*
X113690476Y-86802380D01*
X113928571Y-85802380D01*
%TO.C,U4*%
X190387380Y-48801904D02*
X191196904Y-48801904D01*
X191292142Y-48754285D01*
X191339761Y-48706666D01*
X191387380Y-48611428D01*
X191387380Y-48420952D01*
X191339761Y-48325714D01*
X191292142Y-48278095D01*
X191196904Y-48230476D01*
X190387380Y-48230476D01*
X190720714Y-47325714D02*
X191387380Y-47325714D01*
X190339761Y-47563809D02*
X191054047Y-47801904D01*
X191054047Y-47182857D01*
%TO.C,U7*%
X191387380Y-96501904D02*
X192196904Y-96501904D01*
X192292142Y-96454285D01*
X192339761Y-96406666D01*
X192387380Y-96311428D01*
X192387380Y-96120952D01*
X192339761Y-96025714D01*
X192292142Y-95978095D01*
X192196904Y-95930476D01*
X191387380Y-95930476D01*
X191387380Y-95549523D02*
X191387380Y-94882857D01*
X192387380Y-95311428D01*
%TO.C,RailB2*%
X144685953Y-118291879D02*
X144352620Y-117815689D01*
X144114524Y-118291879D02*
X144114524Y-117291879D01*
X144495477Y-117291879D01*
X144590715Y-117339499D01*
X144638334Y-117387118D01*
X144685953Y-117482356D01*
X144685953Y-117625213D01*
X144638334Y-117720451D01*
X144590715Y-117768070D01*
X144495477Y-117815689D01*
X144114524Y-117815689D01*
X145543096Y-118291879D02*
X145543096Y-117768070D01*
X145495477Y-117672832D01*
X145400239Y-117625213D01*
X145209762Y-117625213D01*
X145114524Y-117672832D01*
X145543096Y-118244260D02*
X145447858Y-118291879D01*
X145209762Y-118291879D01*
X145114524Y-118244260D01*
X145066905Y-118149022D01*
X145066905Y-118053784D01*
X145114524Y-117958546D01*
X145209762Y-117910927D01*
X145447858Y-117910927D01*
X145543096Y-117863308D01*
X146019286Y-118291879D02*
X146019286Y-117625213D01*
X146019286Y-117291879D02*
X145971667Y-117339499D01*
X146019286Y-117387118D01*
X146066905Y-117339499D01*
X146019286Y-117291879D01*
X146019286Y-117387118D01*
X146638334Y-118291879D02*
X146543096Y-118244260D01*
X146495477Y-118149022D01*
X146495477Y-117291879D01*
X147352620Y-117768070D02*
X147495477Y-117815689D01*
X147543096Y-117863308D01*
X147590715Y-117958546D01*
X147590715Y-118101403D01*
X147543096Y-118196641D01*
X147495477Y-118244260D01*
X147400239Y-118291879D01*
X147019286Y-118291879D01*
X147019286Y-117291879D01*
X147352620Y-117291879D01*
X147447858Y-117339499D01*
X147495477Y-117387118D01*
X147543096Y-117482356D01*
X147543096Y-117577594D01*
X147495477Y-117672832D01*
X147447858Y-117720451D01*
X147352620Y-117768070D01*
X147019286Y-117768070D01*
X147971667Y-117387118D02*
X148019286Y-117339499D01*
X148114524Y-117291879D01*
X148352620Y-117291879D01*
X148447858Y-117339499D01*
X148495477Y-117387118D01*
X148543096Y-117482356D01*
X148543096Y-117577594D01*
X148495477Y-117720451D01*
X147924048Y-118291879D01*
X148543096Y-118291879D01*
%TO.C,C13*%
X173847142Y-54877142D02*
X173799523Y-54924761D01*
X173656666Y-54972380D01*
X173561428Y-54972380D01*
X173418571Y-54924761D01*
X173323333Y-54829523D01*
X173275714Y-54734285D01*
X173228095Y-54543809D01*
X173228095Y-54400952D01*
X173275714Y-54210476D01*
X173323333Y-54115238D01*
X173418571Y-54020000D01*
X173561428Y-53972380D01*
X173656666Y-53972380D01*
X173799523Y-54020000D01*
X173847142Y-54067619D01*
X174799523Y-54972380D02*
X174228095Y-54972380D01*
X174513809Y-54972380D02*
X174513809Y-53972380D01*
X174418571Y-54115238D01*
X174323333Y-54210476D01*
X174228095Y-54258095D01*
X175132857Y-53972380D02*
X175751904Y-53972380D01*
X175418571Y-54353333D01*
X175561428Y-54353333D01*
X175656666Y-54400952D01*
X175704285Y-54448571D01*
X175751904Y-54543809D01*
X175751904Y-54781904D01*
X175704285Y-54877142D01*
X175656666Y-54924761D01*
X175561428Y-54972380D01*
X175275714Y-54972380D01*
X175180476Y-54924761D01*
X175132857Y-54877142D01*
%TO.C,G4R1*%
X202009523Y-122852000D02*
X201914285Y-122804380D01*
X201771428Y-122804380D01*
X201628571Y-122852000D01*
X201533333Y-122947238D01*
X201485714Y-123042476D01*
X201438095Y-123232952D01*
X201438095Y-123375809D01*
X201485714Y-123566285D01*
X201533333Y-123661523D01*
X201628571Y-123756761D01*
X201771428Y-123804380D01*
X201866666Y-123804380D01*
X202009523Y-123756761D01*
X202057142Y-123709142D01*
X202057142Y-123375809D01*
X201866666Y-123375809D01*
X202914285Y-123137714D02*
X202914285Y-123804380D01*
X202676190Y-122756761D02*
X202438095Y-123471047D01*
X203057142Y-123471047D01*
X204009523Y-123804380D02*
X203676190Y-123328190D01*
X203438095Y-123804380D02*
X203438095Y-122804380D01*
X203819047Y-122804380D01*
X203914285Y-122852000D01*
X203961904Y-122899619D01*
X204009523Y-122994857D01*
X204009523Y-123137714D01*
X203961904Y-123232952D01*
X203914285Y-123280571D01*
X203819047Y-123328190D01*
X203438095Y-123328190D01*
X204961904Y-123804380D02*
X204390476Y-123804380D01*
X204676190Y-123804380D02*
X204676190Y-122804380D01*
X204580952Y-122947238D01*
X204485714Y-123042476D01*
X204390476Y-123090095D01*
%TO.C,RailA2*%
X135807381Y-118241879D02*
X135474048Y-117765689D01*
X135235953Y-118241879D02*
X135235953Y-117241879D01*
X135616905Y-117241879D01*
X135712143Y-117289499D01*
X135759762Y-117337118D01*
X135807381Y-117432356D01*
X135807381Y-117575213D01*
X135759762Y-117670451D01*
X135712143Y-117718070D01*
X135616905Y-117765689D01*
X135235953Y-117765689D01*
X136664524Y-118241879D02*
X136664524Y-117718070D01*
X136616905Y-117622832D01*
X136521667Y-117575213D01*
X136331191Y-117575213D01*
X136235953Y-117622832D01*
X136664524Y-118194260D02*
X136569286Y-118241879D01*
X136331191Y-118241879D01*
X136235953Y-118194260D01*
X136188334Y-118099022D01*
X136188334Y-118003784D01*
X136235953Y-117908546D01*
X136331191Y-117860927D01*
X136569286Y-117860927D01*
X136664524Y-117813308D01*
X137140715Y-118241879D02*
X137140715Y-117575213D01*
X137140715Y-117241879D02*
X137093096Y-117289499D01*
X137140715Y-117337118D01*
X137188334Y-117289499D01*
X137140715Y-117241879D01*
X137140715Y-117337118D01*
X137759762Y-118241879D02*
X137664524Y-118194260D01*
X137616905Y-118099022D01*
X137616905Y-117241879D01*
X138093096Y-117956165D02*
X138569286Y-117956165D01*
X137997858Y-118241879D02*
X138331191Y-117241879D01*
X138664524Y-118241879D01*
X138950239Y-117337118D02*
X138997858Y-117289499D01*
X139093096Y-117241879D01*
X139331191Y-117241879D01*
X139426429Y-117289499D01*
X139474048Y-117337118D01*
X139521667Y-117432356D01*
X139521667Y-117527594D01*
X139474048Y-117670451D01*
X138902620Y-118241879D01*
X139521667Y-118241879D01*
D12*
%TO.C,J1*%
X153713523Y-38208833D02*
X154620666Y-38208833D01*
X154802095Y-38269309D01*
X154923047Y-38390261D01*
X154983523Y-38571690D01*
X154983523Y-38692642D01*
X154983523Y-36938833D02*
X154983523Y-37664547D01*
X154983523Y-37301690D02*
X153713523Y-37301690D01*
X153894952Y-37422642D01*
X154015904Y-37543595D01*
X154076380Y-37664547D01*
D11*
%TO.C,R2*%
X114833333Y-92172380D02*
X114500000Y-91696190D01*
X114261904Y-92172380D02*
X114261904Y-91172380D01*
X114642857Y-91172380D01*
X114738095Y-91220000D01*
X114785714Y-91267619D01*
X114833333Y-91362857D01*
X114833333Y-91505714D01*
X114785714Y-91600952D01*
X114738095Y-91648571D01*
X114642857Y-91696190D01*
X114261904Y-91696190D01*
X115214285Y-91267619D02*
X115261904Y-91220000D01*
X115357142Y-91172380D01*
X115595238Y-91172380D01*
X115690476Y-91220000D01*
X115738095Y-91267619D01*
X115785714Y-91362857D01*
X115785714Y-91458095D01*
X115738095Y-91600952D01*
X115166666Y-92172380D01*
X115785714Y-92172380D01*
%TO.C,R7*%
X148232380Y-90666666D02*
X147756190Y-91000000D01*
X148232380Y-91238095D02*
X147232380Y-91238095D01*
X147232380Y-90857142D01*
X147280000Y-90761904D01*
X147327619Y-90714285D01*
X147422857Y-90666666D01*
X147565714Y-90666666D01*
X147660952Y-90714285D01*
X147708571Y-90761904D01*
X147756190Y-90857142D01*
X147756190Y-91238095D01*
X147232380Y-90333333D02*
X147232380Y-89666666D01*
X148232380Y-90095238D01*
%TO.C,Q1*%
X160834761Y-92112619D02*
X160739523Y-92065000D01*
X160644285Y-91969761D01*
X160501428Y-91826904D01*
X160406190Y-91779285D01*
X160310952Y-91779285D01*
X160358571Y-92017380D02*
X160263333Y-91969761D01*
X160168095Y-91874523D01*
X160120476Y-91684047D01*
X160120476Y-91350714D01*
X160168095Y-91160238D01*
X160263333Y-91065000D01*
X160358571Y-91017380D01*
X160549047Y-91017380D01*
X160644285Y-91065000D01*
X160739523Y-91160238D01*
X160787142Y-91350714D01*
X160787142Y-91684047D01*
X160739523Y-91874523D01*
X160644285Y-91969761D01*
X160549047Y-92017380D01*
X160358571Y-92017380D01*
X161739523Y-92017380D02*
X161168095Y-92017380D01*
X161453809Y-92017380D02*
X161453809Y-91017380D01*
X161358571Y-91160238D01*
X161263333Y-91255476D01*
X161168095Y-91303095D01*
%TO.C,G2M2*%
X199038095Y-73081999D02*
X198942857Y-73034379D01*
X198800000Y-73034379D01*
X198657142Y-73081999D01*
X198561904Y-73177237D01*
X198514285Y-73272475D01*
X198466666Y-73462951D01*
X198466666Y-73605808D01*
X198514285Y-73796284D01*
X198561904Y-73891522D01*
X198657142Y-73986760D01*
X198800000Y-74034379D01*
X198895238Y-74034379D01*
X199038095Y-73986760D01*
X199085714Y-73939141D01*
X199085714Y-73605808D01*
X198895238Y-73605808D01*
X199466666Y-73129618D02*
X199514285Y-73081999D01*
X199609523Y-73034379D01*
X199847619Y-73034379D01*
X199942857Y-73081999D01*
X199990476Y-73129618D01*
X200038095Y-73224856D01*
X200038095Y-73320094D01*
X199990476Y-73462951D01*
X199419047Y-74034379D01*
X200038095Y-74034379D01*
X200466666Y-74034379D02*
X200466666Y-73034379D01*
X200800000Y-73748665D01*
X201133333Y-73034379D01*
X201133333Y-74034379D01*
X201561904Y-73129618D02*
X201609523Y-73081999D01*
X201704761Y-73034379D01*
X201942857Y-73034379D01*
X202038095Y-73081999D01*
X202085714Y-73129618D01*
X202133333Y-73224856D01*
X202133333Y-73320094D01*
X202085714Y-73462951D01*
X201514285Y-74034379D01*
X202133333Y-74034379D01*
%TO.C,C4*%
X165657142Y-68666666D02*
X165704761Y-68714285D01*
X165752380Y-68857142D01*
X165752380Y-68952380D01*
X165704761Y-69095238D01*
X165609523Y-69190476D01*
X165514285Y-69238095D01*
X165323809Y-69285714D01*
X165180952Y-69285714D01*
X164990476Y-69238095D01*
X164895238Y-69190476D01*
X164800000Y-69095238D01*
X164752380Y-68952380D01*
X164752380Y-68857142D01*
X164800000Y-68714285D01*
X164847619Y-68666666D01*
X165085714Y-67809523D02*
X165752380Y-67809523D01*
X164704761Y-68047619D02*
X165419047Y-68285714D01*
X165419047Y-67666666D01*
%TO.C,G3L2*%
X199455876Y-106837487D02*
X199360638Y-106789867D01*
X199217781Y-106789867D01*
X199074924Y-106837487D01*
X198979686Y-106932725D01*
X198932067Y-107027963D01*
X198884448Y-107218439D01*
X198884448Y-107361296D01*
X198932067Y-107551772D01*
X198979686Y-107647010D01*
X199074924Y-107742248D01*
X199217781Y-107789867D01*
X199313019Y-107789867D01*
X199455876Y-107742248D01*
X199503495Y-107694629D01*
X199503495Y-107361296D01*
X199313019Y-107361296D01*
X199836829Y-106789867D02*
X200455876Y-106789867D01*
X200122543Y-107170820D01*
X200265400Y-107170820D01*
X200360638Y-107218439D01*
X200408257Y-107266058D01*
X200455876Y-107361296D01*
X200455876Y-107599391D01*
X200408257Y-107694629D01*
X200360638Y-107742248D01*
X200265400Y-107789867D01*
X199979686Y-107789867D01*
X199884448Y-107742248D01*
X199836829Y-107694629D01*
X201360638Y-107789867D02*
X200884448Y-107789867D01*
X200884448Y-106789867D01*
X201646353Y-106885106D02*
X201693972Y-106837487D01*
X201789210Y-106789867D01*
X202027305Y-106789867D01*
X202122543Y-106837487D01*
X202170162Y-106885106D01*
X202217781Y-106980344D01*
X202217781Y-107075582D01*
X202170162Y-107218439D01*
X201598734Y-107789867D01*
X202217781Y-107789867D01*
%TO.C,G3M2*%
X199289210Y-102337487D02*
X199193972Y-102289867D01*
X199051115Y-102289867D01*
X198908257Y-102337487D01*
X198813019Y-102432725D01*
X198765400Y-102527963D01*
X198717781Y-102718439D01*
X198717781Y-102861296D01*
X198765400Y-103051772D01*
X198813019Y-103147010D01*
X198908257Y-103242248D01*
X199051115Y-103289867D01*
X199146353Y-103289867D01*
X199289210Y-103242248D01*
X199336829Y-103194629D01*
X199336829Y-102861296D01*
X199146353Y-102861296D01*
X199670162Y-102289867D02*
X200289210Y-102289867D01*
X199955876Y-102670820D01*
X200098734Y-102670820D01*
X200193972Y-102718439D01*
X200241591Y-102766058D01*
X200289210Y-102861296D01*
X200289210Y-103099391D01*
X200241591Y-103194629D01*
X200193972Y-103242248D01*
X200098734Y-103289867D01*
X199813019Y-103289867D01*
X199717781Y-103242248D01*
X199670162Y-103194629D01*
X200717781Y-103289867D02*
X200717781Y-102289867D01*
X201051115Y-103004153D01*
X201384448Y-102289867D01*
X201384448Y-103289867D01*
X201813019Y-102385106D02*
X201860638Y-102337487D01*
X201955876Y-102289867D01*
X202193972Y-102289867D01*
X202289210Y-102337487D01*
X202336829Y-102385106D01*
X202384448Y-102480344D01*
X202384448Y-102575582D01*
X202336829Y-102718439D01*
X201765400Y-103289867D01*
X202384448Y-103289867D01*
%TO.C,G1L2*%
X199755875Y-53337487D02*
X199660637Y-53289867D01*
X199517780Y-53289867D01*
X199374923Y-53337487D01*
X199279685Y-53432725D01*
X199232066Y-53527963D01*
X199184447Y-53718439D01*
X199184447Y-53861296D01*
X199232066Y-54051772D01*
X199279685Y-54147010D01*
X199374923Y-54242248D01*
X199517780Y-54289867D01*
X199613018Y-54289867D01*
X199755875Y-54242248D01*
X199803494Y-54194629D01*
X199803494Y-53861296D01*
X199613018Y-53861296D01*
X200755875Y-54289867D02*
X200184447Y-54289867D01*
X200470161Y-54289867D02*
X200470161Y-53289867D01*
X200374923Y-53432725D01*
X200279685Y-53527963D01*
X200184447Y-53575582D01*
X201660637Y-54289867D02*
X201184447Y-54289867D01*
X201184447Y-53289867D01*
X201946352Y-53385106D02*
X201993971Y-53337487D01*
X202089209Y-53289867D01*
X202327304Y-53289867D01*
X202422542Y-53337487D01*
X202470161Y-53385106D01*
X202517780Y-53480344D01*
X202517780Y-53575582D01*
X202470161Y-53718439D01*
X201898733Y-54289867D01*
X202517780Y-54289867D01*
%TO.C,R4*%
X116232380Y-66166666D02*
X115756190Y-66500000D01*
X116232380Y-66738095D02*
X115232380Y-66738095D01*
X115232380Y-66357142D01*
X115280000Y-66261904D01*
X115327619Y-66214285D01*
X115422857Y-66166666D01*
X115565714Y-66166666D01*
X115660952Y-66214285D01*
X115708571Y-66261904D01*
X115756190Y-66357142D01*
X115756190Y-66738095D01*
X115565714Y-65309523D02*
X116232380Y-65309523D01*
X115184761Y-65547619D02*
X115899047Y-65785714D01*
X115899047Y-65166666D01*
%TO.C,C5*%
X191557142Y-80166666D02*
X191604761Y-80214285D01*
X191652380Y-80357142D01*
X191652380Y-80452380D01*
X191604761Y-80595238D01*
X191509523Y-80690476D01*
X191414285Y-80738095D01*
X191223809Y-80785714D01*
X191080952Y-80785714D01*
X190890476Y-80738095D01*
X190795238Y-80690476D01*
X190700000Y-80595238D01*
X190652380Y-80452380D01*
X190652380Y-80357142D01*
X190700000Y-80214285D01*
X190747619Y-80166666D01*
X190652380Y-79261904D02*
X190652380Y-79738095D01*
X191128571Y-79785714D01*
X191080952Y-79738095D01*
X191033333Y-79642857D01*
X191033333Y-79404761D01*
X191080952Y-79309523D01*
X191128571Y-79261904D01*
X191223809Y-79214285D01*
X191461904Y-79214285D01*
X191557142Y-79261904D01*
X191604761Y-79309523D01*
X191652380Y-79404761D01*
X191652380Y-79642857D01*
X191604761Y-79738095D01*
X191557142Y-79785714D01*
%TO.C,C1*%
X161557142Y-53666666D02*
X161604761Y-53714285D01*
X161652380Y-53857142D01*
X161652380Y-53952380D01*
X161604761Y-54095238D01*
X161509523Y-54190476D01*
X161414285Y-54238095D01*
X161223809Y-54285714D01*
X161080952Y-54285714D01*
X160890476Y-54238095D01*
X160795238Y-54190476D01*
X160700000Y-54095238D01*
X160652380Y-53952380D01*
X160652380Y-53857142D01*
X160700000Y-53714285D01*
X160747619Y-53666666D01*
X161652380Y-52714285D02*
X161652380Y-53285714D01*
X161652380Y-53000000D02*
X160652380Y-53000000D01*
X160795238Y-53095238D01*
X160890476Y-53190476D01*
X160938095Y-53285714D01*
%TO.C,G4M2*%
X198938095Y-127352000D02*
X198842857Y-127304380D01*
X198700000Y-127304380D01*
X198557142Y-127352000D01*
X198461904Y-127447238D01*
X198414285Y-127542476D01*
X198366666Y-127732952D01*
X198366666Y-127875809D01*
X198414285Y-128066285D01*
X198461904Y-128161523D01*
X198557142Y-128256761D01*
X198700000Y-128304380D01*
X198795238Y-128304380D01*
X198938095Y-128256761D01*
X198985714Y-128209142D01*
X198985714Y-127875809D01*
X198795238Y-127875809D01*
X199842857Y-127637714D02*
X199842857Y-128304380D01*
X199604761Y-127256761D02*
X199366666Y-127971047D01*
X199985714Y-127971047D01*
X200366666Y-128304380D02*
X200366666Y-127304380D01*
X200700000Y-128018666D01*
X201033333Y-127304380D01*
X201033333Y-128304380D01*
X201461904Y-127399619D02*
X201509523Y-127352000D01*
X201604761Y-127304380D01*
X201842857Y-127304380D01*
X201938095Y-127352000D01*
X201985714Y-127399619D01*
X202033333Y-127494857D01*
X202033333Y-127590095D01*
X201985714Y-127732952D01*
X201414285Y-128304380D01*
X202033333Y-128304380D01*
%TO.C,Track 1*%
X109261904Y-45302380D02*
X109833333Y-45302380D01*
X109547619Y-46302380D02*
X109547619Y-45302380D01*
X110166666Y-46302380D02*
X110166666Y-45635714D01*
X110166666Y-45826190D02*
X110214285Y-45730952D01*
X110261904Y-45683333D01*
X110357142Y-45635714D01*
X110452380Y-45635714D01*
X111214285Y-46302380D02*
X111214285Y-45778571D01*
X111166666Y-45683333D01*
X111071428Y-45635714D01*
X110880952Y-45635714D01*
X110785714Y-45683333D01*
X111214285Y-46254761D02*
X111119047Y-46302380D01*
X110880952Y-46302380D01*
X110785714Y-46254761D01*
X110738095Y-46159523D01*
X110738095Y-46064285D01*
X110785714Y-45969047D01*
X110880952Y-45921428D01*
X111119047Y-45921428D01*
X111214285Y-45873809D01*
X112119047Y-46254761D02*
X112023809Y-46302380D01*
X111833333Y-46302380D01*
X111738095Y-46254761D01*
X111690476Y-46207142D01*
X111642857Y-46111904D01*
X111642857Y-45826190D01*
X111690476Y-45730952D01*
X111738095Y-45683333D01*
X111833333Y-45635714D01*
X112023809Y-45635714D01*
X112119047Y-45683333D01*
X112547619Y-46302380D02*
X112547619Y-45302380D01*
X112642857Y-45921428D02*
X112928571Y-46302380D01*
X112928571Y-45635714D02*
X112547619Y-46016666D01*
X114642857Y-46302380D02*
X114071428Y-46302380D01*
X114357142Y-46302380D02*
X114357142Y-45302380D01*
X114261904Y-45445238D01*
X114166666Y-45540476D01*
X114071428Y-45588095D01*
%TO.C,U3*%
X194537380Y-80051904D02*
X195346904Y-80051904D01*
X195442142Y-80004285D01*
X195489761Y-79956666D01*
X195537380Y-79861428D01*
X195537380Y-79670952D01*
X195489761Y-79575714D01*
X195442142Y-79528095D01*
X195346904Y-79480476D01*
X194537380Y-79480476D01*
X194537380Y-79099523D02*
X194537380Y-78480476D01*
X194918333Y-78813809D01*
X194918333Y-78670952D01*
X194965952Y-78575714D01*
X195013571Y-78528095D01*
X195108809Y-78480476D01*
X195346904Y-78480476D01*
X195442142Y-78528095D01*
X195489761Y-78575714D01*
X195537380Y-78670952D01*
X195537380Y-78956666D01*
X195489761Y-79051904D01*
X195442142Y-79099523D01*
%TO.C,C9*%
X173823333Y-40377142D02*
X173775714Y-40424761D01*
X173632857Y-40472380D01*
X173537619Y-40472380D01*
X173394761Y-40424761D01*
X173299523Y-40329523D01*
X173251904Y-40234285D01*
X173204285Y-40043809D01*
X173204285Y-39900952D01*
X173251904Y-39710476D01*
X173299523Y-39615238D01*
X173394761Y-39520000D01*
X173537619Y-39472380D01*
X173632857Y-39472380D01*
X173775714Y-39520000D01*
X173823333Y-39567619D01*
X174299523Y-40472380D02*
X174490000Y-40472380D01*
X174585238Y-40424761D01*
X174632857Y-40377142D01*
X174728095Y-40234285D01*
X174775714Y-40043809D01*
X174775714Y-39662857D01*
X174728095Y-39567619D01*
X174680476Y-39520000D01*
X174585238Y-39472380D01*
X174394761Y-39472380D01*
X174299523Y-39520000D01*
X174251904Y-39567619D01*
X174204285Y-39662857D01*
X174204285Y-39900952D01*
X174251904Y-39996190D01*
X174299523Y-40043809D01*
X174394761Y-40091428D01*
X174585238Y-40091428D01*
X174680476Y-40043809D01*
X174728095Y-39996190D01*
X174775714Y-39900952D01*
%TO.C,R5*%
X108172380Y-69166666D02*
X107696190Y-69500000D01*
X108172380Y-69738095D02*
X107172380Y-69738095D01*
X107172380Y-69357142D01*
X107220000Y-69261904D01*
X107267619Y-69214285D01*
X107362857Y-69166666D01*
X107505714Y-69166666D01*
X107600952Y-69214285D01*
X107648571Y-69261904D01*
X107696190Y-69357142D01*
X107696190Y-69738095D01*
X107172380Y-68261904D02*
X107172380Y-68738095D01*
X107648571Y-68785714D01*
X107600952Y-68738095D01*
X107553333Y-68642857D01*
X107553333Y-68404761D01*
X107600952Y-68309523D01*
X107648571Y-68261904D01*
X107743809Y-68214285D01*
X107981904Y-68214285D01*
X108077142Y-68261904D01*
X108124761Y-68309523D01*
X108172380Y-68404761D01*
X108172380Y-68642857D01*
X108124761Y-68738095D01*
X108077142Y-68785714D01*
%TO.C,T3*%
X113238095Y-70802380D02*
X113809523Y-70802380D01*
X113523809Y-71802380D02*
X113523809Y-70802380D01*
X114047619Y-70802380D02*
X114666666Y-70802380D01*
X114333333Y-71183333D01*
X114476190Y-71183333D01*
X114571428Y-71230952D01*
X114619047Y-71278571D01*
X114666666Y-71373809D01*
X114666666Y-71611904D01*
X114619047Y-71707142D01*
X114571428Y-71754761D01*
X114476190Y-71802380D01*
X114190476Y-71802380D01*
X114095238Y-71754761D01*
X114047619Y-71707142D01*
%TO.C,G3M1*%
X202289210Y-102337487D02*
X202193972Y-102289867D01*
X202051115Y-102289867D01*
X201908257Y-102337487D01*
X201813019Y-102432725D01*
X201765400Y-102527963D01*
X201717781Y-102718439D01*
X201717781Y-102861296D01*
X201765400Y-103051772D01*
X201813019Y-103147010D01*
X201908257Y-103242248D01*
X202051115Y-103289867D01*
X202146353Y-103289867D01*
X202289210Y-103242248D01*
X202336829Y-103194629D01*
X202336829Y-102861296D01*
X202146353Y-102861296D01*
X202670162Y-102289867D02*
X203289210Y-102289867D01*
X202955876Y-102670820D01*
X203098734Y-102670820D01*
X203193972Y-102718439D01*
X203241591Y-102766058D01*
X203289210Y-102861296D01*
X203289210Y-103099391D01*
X203241591Y-103194629D01*
X203193972Y-103242248D01*
X203098734Y-103289867D01*
X202813019Y-103289867D01*
X202717781Y-103242248D01*
X202670162Y-103194629D01*
X203717781Y-103289867D02*
X203717781Y-102289867D01*
X204051115Y-103004153D01*
X204384448Y-102289867D01*
X204384448Y-103289867D01*
X205384448Y-103289867D02*
X204813019Y-103289867D01*
X205098734Y-103289867D02*
X205098734Y-102289867D01*
X205003495Y-102432725D01*
X204908257Y-102527963D01*
X204813019Y-102575582D01*
%TO.C,G1R2*%
X202710637Y-44337487D02*
X202615399Y-44289867D01*
X202472542Y-44289867D01*
X202329685Y-44337487D01*
X202234447Y-44432725D01*
X202186828Y-44527963D01*
X202139209Y-44718439D01*
X202139209Y-44861296D01*
X202186828Y-45051772D01*
X202234447Y-45147010D01*
X202329685Y-45242248D01*
X202472542Y-45289867D01*
X202567780Y-45289867D01*
X202710637Y-45242248D01*
X202758256Y-45194629D01*
X202758256Y-44861296D01*
X202567780Y-44861296D01*
X203710637Y-45289867D02*
X203139209Y-45289867D01*
X203424923Y-45289867D02*
X203424923Y-44289867D01*
X203329685Y-44432725D01*
X203234447Y-44527963D01*
X203139209Y-44575582D01*
X204710637Y-45289867D02*
X204377304Y-44813677D01*
X204139209Y-45289867D02*
X204139209Y-44289867D01*
X204520161Y-44289867D01*
X204615399Y-44337487D01*
X204663018Y-44385106D01*
X204710637Y-44480344D01*
X204710637Y-44623201D01*
X204663018Y-44718439D01*
X204615399Y-44766058D01*
X204520161Y-44813677D01*
X204139209Y-44813677D01*
X205091590Y-44385106D02*
X205139209Y-44337487D01*
X205234447Y-44289867D01*
X205472542Y-44289867D01*
X205567780Y-44337487D01*
X205615399Y-44385106D01*
X205663018Y-44480344D01*
X205663018Y-44575582D01*
X205615399Y-44718439D01*
X205043971Y-45289867D01*
X205663018Y-45289867D01*
%TO.C,C14*%
X172357142Y-87057142D02*
X172309523Y-87104761D01*
X172166666Y-87152380D01*
X172071428Y-87152380D01*
X171928571Y-87104761D01*
X171833333Y-87009523D01*
X171785714Y-86914285D01*
X171738095Y-86723809D01*
X171738095Y-86580952D01*
X171785714Y-86390476D01*
X171833333Y-86295238D01*
X171928571Y-86200000D01*
X172071428Y-86152380D01*
X172166666Y-86152380D01*
X172309523Y-86200000D01*
X172357142Y-86247619D01*
X173309523Y-87152380D02*
X172738095Y-87152380D01*
X173023809Y-87152380D02*
X173023809Y-86152380D01*
X172928571Y-86295238D01*
X172833333Y-86390476D01*
X172738095Y-86438095D01*
X174166666Y-86485714D02*
X174166666Y-87152380D01*
X173928571Y-86104761D02*
X173690476Y-86819047D01*
X174309523Y-86819047D01*
%TO.C,C8*%
X173933333Y-119607142D02*
X173885714Y-119654761D01*
X173742857Y-119702380D01*
X173647619Y-119702380D01*
X173504761Y-119654761D01*
X173409523Y-119559523D01*
X173361904Y-119464285D01*
X173314285Y-119273809D01*
X173314285Y-119130952D01*
X173361904Y-118940476D01*
X173409523Y-118845238D01*
X173504761Y-118750000D01*
X173647619Y-118702380D01*
X173742857Y-118702380D01*
X173885714Y-118750000D01*
X173933333Y-118797619D01*
X174504761Y-119130952D02*
X174409523Y-119083333D01*
X174361904Y-119035714D01*
X174314285Y-118940476D01*
X174314285Y-118892857D01*
X174361904Y-118797619D01*
X174409523Y-118750000D01*
X174504761Y-118702380D01*
X174695238Y-118702380D01*
X174790476Y-118750000D01*
X174838095Y-118797619D01*
X174885714Y-118892857D01*
X174885714Y-118940476D01*
X174838095Y-119035714D01*
X174790476Y-119083333D01*
X174695238Y-119130952D01*
X174504761Y-119130952D01*
X174409523Y-119178571D01*
X174361904Y-119226190D01*
X174314285Y-119321428D01*
X174314285Y-119511904D01*
X174361904Y-119607142D01*
X174409523Y-119654761D01*
X174504761Y-119702380D01*
X174695238Y-119702380D01*
X174790476Y-119654761D01*
X174838095Y-119607142D01*
X174885714Y-119511904D01*
X174885714Y-119321428D01*
X174838095Y-119226190D01*
X174790476Y-119178571D01*
X174695238Y-119130952D01*
%TO.C,G3R1*%
X202360638Y-97837487D02*
X202265400Y-97789867D01*
X202122543Y-97789867D01*
X201979686Y-97837487D01*
X201884448Y-97932725D01*
X201836829Y-98027963D01*
X201789210Y-98218439D01*
X201789210Y-98361296D01*
X201836829Y-98551772D01*
X201884448Y-98647010D01*
X201979686Y-98742248D01*
X202122543Y-98789867D01*
X202217781Y-98789867D01*
X202360638Y-98742248D01*
X202408257Y-98694629D01*
X202408257Y-98361296D01*
X202217781Y-98361296D01*
X202741591Y-97789867D02*
X203360638Y-97789867D01*
X203027305Y-98170820D01*
X203170162Y-98170820D01*
X203265400Y-98218439D01*
X203313019Y-98266058D01*
X203360638Y-98361296D01*
X203360638Y-98599391D01*
X203313019Y-98694629D01*
X203265400Y-98742248D01*
X203170162Y-98789867D01*
X202884448Y-98789867D01*
X202789210Y-98742248D01*
X202741591Y-98694629D01*
X204360638Y-98789867D02*
X204027305Y-98313677D01*
X203789210Y-98789867D02*
X203789210Y-97789867D01*
X204170162Y-97789867D01*
X204265400Y-97837487D01*
X204313019Y-97885106D01*
X204360638Y-97980344D01*
X204360638Y-98123201D01*
X204313019Y-98218439D01*
X204265400Y-98266058D01*
X204170162Y-98313677D01*
X203789210Y-98313677D01*
X205313019Y-98789867D02*
X204741591Y-98789867D01*
X205027305Y-98789867D02*
X205027305Y-97789867D01*
X204932067Y-97932725D01*
X204836829Y-98027963D01*
X204741591Y-98075582D01*
%TO.C,G3L1*%
X202455876Y-106837487D02*
X202360638Y-106789867D01*
X202217781Y-106789867D01*
X202074924Y-106837487D01*
X201979686Y-106932725D01*
X201932067Y-107027963D01*
X201884448Y-107218439D01*
X201884448Y-107361296D01*
X201932067Y-107551772D01*
X201979686Y-107647010D01*
X202074924Y-107742248D01*
X202217781Y-107789867D01*
X202313019Y-107789867D01*
X202455876Y-107742248D01*
X202503495Y-107694629D01*
X202503495Y-107361296D01*
X202313019Y-107361296D01*
X202836829Y-106789867D02*
X203455876Y-106789867D01*
X203122543Y-107170820D01*
X203265400Y-107170820D01*
X203360638Y-107218439D01*
X203408257Y-107266058D01*
X203455876Y-107361296D01*
X203455876Y-107599391D01*
X203408257Y-107694629D01*
X203360638Y-107742248D01*
X203265400Y-107789867D01*
X202979686Y-107789867D01*
X202884448Y-107742248D01*
X202836829Y-107694629D01*
X204360638Y-107789867D02*
X203884448Y-107789867D01*
X203884448Y-106789867D01*
X205217781Y-107789867D02*
X204646353Y-107789867D01*
X204932067Y-107789867D02*
X204932067Y-106789867D01*
X204836829Y-106932725D01*
X204741591Y-107027963D01*
X204646353Y-107075582D01*
%TO.C,U8*%
X192513095Y-108352380D02*
X192513095Y-109161904D01*
X192560714Y-109257142D01*
X192608333Y-109304761D01*
X192703571Y-109352380D01*
X192894047Y-109352380D01*
X192989285Y-109304761D01*
X193036904Y-109257142D01*
X193084523Y-109161904D01*
X193084523Y-108352380D01*
X193703571Y-108780952D02*
X193608333Y-108733333D01*
X193560714Y-108685714D01*
X193513095Y-108590476D01*
X193513095Y-108542857D01*
X193560714Y-108447619D01*
X193608333Y-108400000D01*
X193703571Y-108352380D01*
X193894047Y-108352380D01*
X193989285Y-108400000D01*
X194036904Y-108447619D01*
X194084523Y-108542857D01*
X194084523Y-108590476D01*
X194036904Y-108685714D01*
X193989285Y-108733333D01*
X193894047Y-108780952D01*
X193703571Y-108780952D01*
X193608333Y-108828571D01*
X193560714Y-108876190D01*
X193513095Y-108971428D01*
X193513095Y-109161904D01*
X193560714Y-109257142D01*
X193608333Y-109304761D01*
X193703571Y-109352380D01*
X193894047Y-109352380D01*
X193989285Y-109304761D01*
X194036904Y-109257142D01*
X194084523Y-109161904D01*
X194084523Y-108971428D01*
X194036904Y-108876190D01*
X193989285Y-108828571D01*
X193894047Y-108780952D01*
%TO.C,CW*%
X112238095Y-81207142D02*
X112190476Y-81254761D01*
X112047619Y-81302380D01*
X111952380Y-81302380D01*
X111809523Y-81254761D01*
X111714285Y-81159523D01*
X111666666Y-81064285D01*
X111619047Y-80873809D01*
X111619047Y-80730952D01*
X111666666Y-80540476D01*
X111714285Y-80445238D01*
X111809523Y-80350000D01*
X111952380Y-80302380D01*
X112047619Y-80302380D01*
X112190476Y-80350000D01*
X112238095Y-80397619D01*
X112571428Y-80302380D02*
X112809523Y-81302380D01*
X113000000Y-80588095D01*
X113190476Y-81302380D01*
X113428571Y-80302380D01*
%TO.C,RailA1*%
X135857381Y-115141879D02*
X135524048Y-114665689D01*
X135285953Y-115141879D02*
X135285953Y-114141879D01*
X135666905Y-114141879D01*
X135762143Y-114189499D01*
X135809762Y-114237118D01*
X135857381Y-114332356D01*
X135857381Y-114475213D01*
X135809762Y-114570451D01*
X135762143Y-114618070D01*
X135666905Y-114665689D01*
X135285953Y-114665689D01*
X136714524Y-115141879D02*
X136714524Y-114618070D01*
X136666905Y-114522832D01*
X136571667Y-114475213D01*
X136381191Y-114475213D01*
X136285953Y-114522832D01*
X136714524Y-115094260D02*
X136619286Y-115141879D01*
X136381191Y-115141879D01*
X136285953Y-115094260D01*
X136238334Y-114999022D01*
X136238334Y-114903784D01*
X136285953Y-114808546D01*
X136381191Y-114760927D01*
X136619286Y-114760927D01*
X136714524Y-114713308D01*
X137190715Y-115141879D02*
X137190715Y-114475213D01*
X137190715Y-114141879D02*
X137143096Y-114189499D01*
X137190715Y-114237118D01*
X137238334Y-114189499D01*
X137190715Y-114141879D01*
X137190715Y-114237118D01*
X137809762Y-115141879D02*
X137714524Y-115094260D01*
X137666905Y-114999022D01*
X137666905Y-114141879D01*
X138143096Y-114856165D02*
X138619286Y-114856165D01*
X138047858Y-115141879D02*
X138381191Y-114141879D01*
X138714524Y-115141879D01*
X139571667Y-115141879D02*
X139000239Y-115141879D01*
X139285953Y-115141879D02*
X139285953Y-114141879D01*
X139190715Y-114284737D01*
X139095477Y-114379975D01*
X139000239Y-114427594D01*
%TO.C,Track 2*%
X109261904Y-57302380D02*
X109833333Y-57302380D01*
X109547619Y-58302380D02*
X109547619Y-57302380D01*
X110166666Y-58302380D02*
X110166666Y-57635714D01*
X110166666Y-57826190D02*
X110214285Y-57730952D01*
X110261904Y-57683333D01*
X110357142Y-57635714D01*
X110452380Y-57635714D01*
X111214285Y-58302380D02*
X111214285Y-57778571D01*
X111166666Y-57683333D01*
X111071428Y-57635714D01*
X110880952Y-57635714D01*
X110785714Y-57683333D01*
X111214285Y-58254761D02*
X111119047Y-58302380D01*
X110880952Y-58302380D01*
X110785714Y-58254761D01*
X110738095Y-58159523D01*
X110738095Y-58064285D01*
X110785714Y-57969047D01*
X110880952Y-57921428D01*
X111119047Y-57921428D01*
X111214285Y-57873809D01*
X112119047Y-58254761D02*
X112023809Y-58302380D01*
X111833333Y-58302380D01*
X111738095Y-58254761D01*
X111690476Y-58207142D01*
X111642857Y-58111904D01*
X111642857Y-57826190D01*
X111690476Y-57730952D01*
X111738095Y-57683333D01*
X111833333Y-57635714D01*
X112023809Y-57635714D01*
X112119047Y-57683333D01*
X112547619Y-58302380D02*
X112547619Y-57302380D01*
X112642857Y-57921428D02*
X112928571Y-58302380D01*
X112928571Y-57635714D02*
X112547619Y-58016666D01*
X114071428Y-57397619D02*
X114119047Y-57350000D01*
X114214285Y-57302380D01*
X114452380Y-57302380D01*
X114547619Y-57350000D01*
X114595238Y-57397619D01*
X114642857Y-57492857D01*
X114642857Y-57588095D01*
X114595238Y-57730952D01*
X114023809Y-58302380D01*
X114642857Y-58302380D01*
%TO.C,G1R1*%
X199660637Y-44337487D02*
X199565399Y-44289867D01*
X199422542Y-44289867D01*
X199279685Y-44337487D01*
X199184447Y-44432725D01*
X199136828Y-44527963D01*
X199089209Y-44718439D01*
X199089209Y-44861296D01*
X199136828Y-45051772D01*
X199184447Y-45147010D01*
X199279685Y-45242248D01*
X199422542Y-45289867D01*
X199517780Y-45289867D01*
X199660637Y-45242248D01*
X199708256Y-45194629D01*
X199708256Y-44861296D01*
X199517780Y-44861296D01*
X200660637Y-45289867D02*
X200089209Y-45289867D01*
X200374923Y-45289867D02*
X200374923Y-44289867D01*
X200279685Y-44432725D01*
X200184447Y-44527963D01*
X200089209Y-44575582D01*
X201660637Y-45289867D02*
X201327304Y-44813677D01*
X201089209Y-45289867D02*
X201089209Y-44289867D01*
X201470161Y-44289867D01*
X201565399Y-44337487D01*
X201613018Y-44385106D01*
X201660637Y-44480344D01*
X201660637Y-44623201D01*
X201613018Y-44718439D01*
X201565399Y-44766058D01*
X201470161Y-44813677D01*
X201089209Y-44813677D01*
X202613018Y-45289867D02*
X202041590Y-45289867D01*
X202327304Y-45289867D02*
X202327304Y-44289867D01*
X202232066Y-44432725D01*
X202136828Y-44527963D01*
X202041590Y-44575582D01*
%TO.C,G2M1*%
X202038095Y-73081999D02*
X201942857Y-73034379D01*
X201800000Y-73034379D01*
X201657142Y-73081999D01*
X201561904Y-73177237D01*
X201514285Y-73272475D01*
X201466666Y-73462951D01*
X201466666Y-73605808D01*
X201514285Y-73796284D01*
X201561904Y-73891522D01*
X201657142Y-73986760D01*
X201800000Y-74034379D01*
X201895238Y-74034379D01*
X202038095Y-73986760D01*
X202085714Y-73939141D01*
X202085714Y-73605808D01*
X201895238Y-73605808D01*
X202466666Y-73129618D02*
X202514285Y-73081999D01*
X202609523Y-73034379D01*
X202847619Y-73034379D01*
X202942857Y-73081999D01*
X202990476Y-73129618D01*
X203038095Y-73224856D01*
X203038095Y-73320094D01*
X202990476Y-73462951D01*
X202419047Y-74034379D01*
X203038095Y-74034379D01*
X203466666Y-74034379D02*
X203466666Y-73034379D01*
X203800000Y-73748665D01*
X204133333Y-73034379D01*
X204133333Y-74034379D01*
X205133333Y-74034379D02*
X204561904Y-74034379D01*
X204847619Y-74034379D02*
X204847619Y-73034379D01*
X204752380Y-73177237D01*
X204657142Y-73272475D01*
X204561904Y-73320094D01*
%TO.C,C6*%
X191557142Y-98166666D02*
X191604761Y-98214285D01*
X191652380Y-98357142D01*
X191652380Y-98452380D01*
X191604761Y-98595238D01*
X191509523Y-98690476D01*
X191414285Y-98738095D01*
X191223809Y-98785714D01*
X191080952Y-98785714D01*
X190890476Y-98738095D01*
X190795238Y-98690476D01*
X190700000Y-98595238D01*
X190652380Y-98452380D01*
X190652380Y-98357142D01*
X190700000Y-98214285D01*
X190747619Y-98166666D01*
X190652380Y-97309523D02*
X190652380Y-97500000D01*
X190700000Y-97595238D01*
X190747619Y-97642857D01*
X190890476Y-97738095D01*
X191080952Y-97785714D01*
X191461904Y-97785714D01*
X191557142Y-97738095D01*
X191604761Y-97690476D01*
X191652380Y-97595238D01*
X191652380Y-97404761D01*
X191604761Y-97309523D01*
X191557142Y-97261904D01*
X191461904Y-97214285D01*
X191223809Y-97214285D01*
X191128571Y-97261904D01*
X191080952Y-97309523D01*
X191033333Y-97404761D01*
X191033333Y-97595238D01*
X191080952Y-97690476D01*
X191128571Y-97738095D01*
X191223809Y-97785714D01*
%TO.C,C15*%
X150557142Y-104142857D02*
X150604761Y-104190476D01*
X150652380Y-104333333D01*
X150652380Y-104428571D01*
X150604761Y-104571428D01*
X150509523Y-104666666D01*
X150414285Y-104714285D01*
X150223809Y-104761904D01*
X150080952Y-104761904D01*
X149890476Y-104714285D01*
X149795238Y-104666666D01*
X149700000Y-104571428D01*
X149652380Y-104428571D01*
X149652380Y-104333333D01*
X149700000Y-104190476D01*
X149747619Y-104142857D01*
X150652380Y-103190476D02*
X150652380Y-103761904D01*
X150652380Y-103476190D02*
X149652380Y-103476190D01*
X149795238Y-103571428D01*
X149890476Y-103666666D01*
X149938095Y-103761904D01*
X149652380Y-102285714D02*
X149652380Y-102761904D01*
X150128571Y-102809523D01*
X150080952Y-102761904D01*
X150033333Y-102666666D01*
X150033333Y-102428571D01*
X150080952Y-102333333D01*
X150128571Y-102285714D01*
X150223809Y-102238095D01*
X150461904Y-102238095D01*
X150557142Y-102285714D01*
X150604761Y-102333333D01*
X150652380Y-102428571D01*
X150652380Y-102666666D01*
X150604761Y-102761904D01*
X150557142Y-102809523D01*
%TO.C,G4M1*%
X201938095Y-127352000D02*
X201842857Y-127304380D01*
X201700000Y-127304380D01*
X201557142Y-127352000D01*
X201461904Y-127447238D01*
X201414285Y-127542476D01*
X201366666Y-127732952D01*
X201366666Y-127875809D01*
X201414285Y-128066285D01*
X201461904Y-128161523D01*
X201557142Y-128256761D01*
X201700000Y-128304380D01*
X201795238Y-128304380D01*
X201938095Y-128256761D01*
X201985714Y-128209142D01*
X201985714Y-127875809D01*
X201795238Y-127875809D01*
X202842857Y-127637714D02*
X202842857Y-128304380D01*
X202604761Y-127256761D02*
X202366666Y-127971047D01*
X202985714Y-127971047D01*
X203366666Y-128304380D02*
X203366666Y-127304380D01*
X203700000Y-128018666D01*
X204033333Y-127304380D01*
X204033333Y-128304380D01*
X205033333Y-128304380D02*
X204461904Y-128304380D01*
X204747619Y-128304380D02*
X204747619Y-127304380D01*
X204652380Y-127447238D01*
X204557142Y-127542476D01*
X204461904Y-127590095D01*
%TO.C,G2R1*%
X202059523Y-68531999D02*
X201964285Y-68484379D01*
X201821428Y-68484379D01*
X201678571Y-68531999D01*
X201583333Y-68627237D01*
X201535714Y-68722475D01*
X201488095Y-68912951D01*
X201488095Y-69055808D01*
X201535714Y-69246284D01*
X201583333Y-69341522D01*
X201678571Y-69436760D01*
X201821428Y-69484379D01*
X201916666Y-69484379D01*
X202059523Y-69436760D01*
X202107142Y-69389141D01*
X202107142Y-69055808D01*
X201916666Y-69055808D01*
X202488095Y-68579618D02*
X202535714Y-68531999D01*
X202630952Y-68484379D01*
X202869047Y-68484379D01*
X202964285Y-68531999D01*
X203011904Y-68579618D01*
X203059523Y-68674856D01*
X203059523Y-68770094D01*
X203011904Y-68912951D01*
X202440476Y-69484379D01*
X203059523Y-69484379D01*
X204059523Y-69484379D02*
X203726190Y-69008189D01*
X203488095Y-69484379D02*
X203488095Y-68484379D01*
X203869047Y-68484379D01*
X203964285Y-68531999D01*
X204011904Y-68579618D01*
X204059523Y-68674856D01*
X204059523Y-68817713D01*
X204011904Y-68912951D01*
X203964285Y-68960570D01*
X203869047Y-69008189D01*
X203488095Y-69008189D01*
X205011904Y-69484379D02*
X204440476Y-69484379D01*
X204726190Y-69484379D02*
X204726190Y-68484379D01*
X204630952Y-68627237D01*
X204535714Y-68722475D01*
X204440476Y-68770094D01*
%TO.C,C11*%
X189237142Y-67632857D02*
X189284761Y-67680476D01*
X189332380Y-67823333D01*
X189332380Y-67918571D01*
X189284761Y-68061428D01*
X189189523Y-68156666D01*
X189094285Y-68204285D01*
X188903809Y-68251904D01*
X188760952Y-68251904D01*
X188570476Y-68204285D01*
X188475238Y-68156666D01*
X188380000Y-68061428D01*
X188332380Y-67918571D01*
X188332380Y-67823333D01*
X188380000Y-67680476D01*
X188427619Y-67632857D01*
X189332380Y-66680476D02*
X189332380Y-67251904D01*
X189332380Y-66966190D02*
X188332380Y-66966190D01*
X188475238Y-67061428D01*
X188570476Y-67156666D01*
X188618095Y-67251904D01*
X189332380Y-65728095D02*
X189332380Y-66299523D01*
X189332380Y-66013809D02*
X188332380Y-66013809D01*
X188475238Y-66109047D01*
X188570476Y-66204285D01*
X188618095Y-66299523D01*
%TO.C,T4*%
X144238095Y-70452380D02*
X144809523Y-70452380D01*
X144523809Y-71452380D02*
X144523809Y-70452380D01*
X145571428Y-70785714D02*
X145571428Y-71452380D01*
X145333333Y-70404761D02*
X145095238Y-71119047D01*
X145714285Y-71119047D01*
%TO.C,U2*%
X128638095Y-64452380D02*
X128638095Y-65261904D01*
X128685714Y-65357142D01*
X128733333Y-65404761D01*
X128828571Y-65452380D01*
X129019047Y-65452380D01*
X129114285Y-65404761D01*
X129161904Y-65357142D01*
X129209523Y-65261904D01*
X129209523Y-64452380D01*
X129638095Y-64547619D02*
X129685714Y-64500000D01*
X129780952Y-64452380D01*
X130019047Y-64452380D01*
X130114285Y-64500000D01*
X130161904Y-64547619D01*
X130209523Y-64642857D01*
X130209523Y-64738095D01*
X130161904Y-64880952D01*
X129590476Y-65452380D01*
X130209523Y-65452380D01*
X115886158Y-71498155D02*
X115805346Y-71525093D01*
X115724534Y-71605905D01*
X115670659Y-71713654D01*
X115670659Y-71821404D01*
X115697597Y-71902216D01*
X115778409Y-72036903D01*
X115859221Y-72117715D01*
X115993908Y-72198528D01*
X116074720Y-72225465D01*
X116182470Y-72225465D01*
X116290219Y-72171590D01*
X116344094Y-72117715D01*
X116397969Y-72009966D01*
X116397969Y-71956091D01*
X116209407Y-71767529D01*
X116101658Y-71875279D01*
X116694280Y-71767529D02*
X116128595Y-71201844D01*
X117017529Y-71444280D01*
X116451844Y-70878595D01*
X117286903Y-71174906D02*
X116721218Y-70609221D01*
X116855905Y-70474534D01*
X116963654Y-70420659D01*
X117071404Y-70420659D01*
X117152216Y-70447597D01*
X117286903Y-70528409D01*
X117367715Y-70609221D01*
X117448528Y-70743908D01*
X117475465Y-70824720D01*
X117475465Y-70932470D01*
X117421590Y-71040219D01*
X117286903Y-71174906D01*
X141551597Y-59740964D02*
X141820971Y-59471590D01*
X141659346Y-59956463D02*
X141282223Y-59202216D01*
X142036470Y-59579340D01*
X141982595Y-58555719D02*
X141901783Y-58582656D01*
X141820971Y-58663468D01*
X141767096Y-58771218D01*
X141767096Y-58878967D01*
X141794033Y-58959780D01*
X141874845Y-59094467D01*
X141955658Y-59175279D01*
X142090345Y-59256091D01*
X142171157Y-59283028D01*
X142278906Y-59283028D01*
X142386656Y-59229154D01*
X142440531Y-59175279D01*
X142494406Y-59067529D01*
X142494406Y-59013654D01*
X142305844Y-58825093D01*
X142198094Y-58932842D01*
X142790717Y-58825093D02*
X142225032Y-58259407D01*
X143113966Y-58501844D01*
X142548280Y-57936158D01*
X143383340Y-58232470D02*
X142817654Y-57666784D01*
X142952341Y-57532097D01*
X143060091Y-57478223D01*
X143167841Y-57478223D01*
X143248653Y-57505160D01*
X143383340Y-57585972D01*
X143464152Y-57666784D01*
X143544964Y-57801471D01*
X143571902Y-57882284D01*
X143571902Y-57990033D01*
X143518027Y-58097783D01*
X143383340Y-58232470D01*
X141497722Y-61590592D02*
X141416910Y-61617529D01*
X141336097Y-61698341D01*
X141282223Y-61806091D01*
X141282223Y-61913841D01*
X141309160Y-61994653D01*
X141389972Y-62129340D01*
X141470784Y-62210152D01*
X141605471Y-62290964D01*
X141686284Y-62317902D01*
X141794033Y-62317902D01*
X141901783Y-62264027D01*
X141955658Y-62210152D01*
X142009532Y-62102402D01*
X142009532Y-62048528D01*
X141820971Y-61859966D01*
X141713221Y-61967715D01*
X142305844Y-61859966D02*
X141740158Y-61294280D01*
X141955658Y-61078781D01*
X142036470Y-61051844D01*
X142090345Y-61051844D01*
X142171157Y-61078781D01*
X142251969Y-61159593D01*
X142278906Y-61240406D01*
X142278906Y-61294280D01*
X142251969Y-61375093D01*
X142036470Y-61590592D01*
X142332781Y-60809407D02*
X142332781Y-60755532D01*
X142359719Y-60674720D01*
X142494406Y-60540033D01*
X142575218Y-60513096D01*
X142629093Y-60513096D01*
X142709905Y-60540033D01*
X142763780Y-60593908D01*
X142817654Y-60701658D01*
X142817654Y-61348155D01*
X143167841Y-60997969D01*
X142790717Y-60243722D02*
X143167841Y-59866598D01*
X143491089Y-60674720D01*
X121890476Y-91523809D02*
X122004761Y-91561904D01*
X122195238Y-91561904D01*
X122271428Y-91523809D01*
X122309523Y-91485714D01*
X122347619Y-91409523D01*
X122347619Y-91333333D01*
X122309523Y-91257142D01*
X122271428Y-91219047D01*
X122195238Y-91180952D01*
X122042857Y-91142857D01*
X121966666Y-91104761D01*
X121928571Y-91066666D01*
X121890476Y-90990476D01*
X121890476Y-90914285D01*
X121928571Y-90838095D01*
X121966666Y-90800000D01*
X122042857Y-90761904D01*
X122233333Y-90761904D01*
X122347619Y-90800000D01*
X122614285Y-90761904D02*
X122804761Y-91561904D01*
X122957142Y-90990476D01*
X123109523Y-91561904D01*
X123300000Y-90761904D01*
X124061904Y-91485714D02*
X124023809Y-91523809D01*
X123909523Y-91561904D01*
X123833333Y-91561904D01*
X123719047Y-91523809D01*
X123642857Y-91447619D01*
X123604761Y-91371428D01*
X123566666Y-91219047D01*
X123566666Y-91104761D01*
X123604761Y-90952380D01*
X123642857Y-90876190D01*
X123719047Y-90800000D01*
X123833333Y-90761904D01*
X123909523Y-90761904D01*
X124023809Y-90800000D01*
X124061904Y-90838095D01*
X124785714Y-91561904D02*
X124404761Y-91561904D01*
X124404761Y-90761904D01*
X125052380Y-91561904D02*
X125052380Y-90761904D01*
X125509523Y-91561904D02*
X125166666Y-91104761D01*
X125509523Y-90761904D02*
X125052380Y-91219047D01*
X142238375Y-66943435D02*
X141780439Y-66862622D01*
X141915126Y-67266683D02*
X141349441Y-66700998D01*
X141564940Y-66485499D01*
X141645752Y-66458561D01*
X141699627Y-66458561D01*
X141780439Y-66485499D01*
X141861251Y-66566311D01*
X141888189Y-66647123D01*
X141888189Y-66700998D01*
X141861251Y-66781810D01*
X141645752Y-66997309D01*
X141915126Y-66135312D02*
X142373062Y-66593248D01*
X142453874Y-66620186D01*
X142507749Y-66620186D01*
X142588561Y-66593248D01*
X142696311Y-66485499D01*
X142723248Y-66404687D01*
X142723248Y-66350812D01*
X142696311Y-66269999D01*
X142238375Y-65812064D01*
X143073435Y-66108375D02*
X142507749Y-65542690D01*
X143396683Y-65785126D01*
X142830998Y-65219441D01*
X141322131Y-48958308D02*
X141672317Y-48608122D01*
X141699255Y-49012183D01*
X141780067Y-48931370D01*
X141860879Y-48904433D01*
X141914754Y-48904433D01*
X141995566Y-48931370D01*
X142130253Y-49066057D01*
X142157190Y-49146870D01*
X142157190Y-49200744D01*
X142130253Y-49281557D01*
X141968629Y-49443181D01*
X141887816Y-49470118D01*
X141833942Y-49470118D01*
X141833942Y-48446497D02*
X142588189Y-48823621D01*
X142211065Y-48069374D01*
X142345752Y-47934687D02*
X142695938Y-47584500D01*
X142722876Y-47988561D01*
X142803688Y-47907749D01*
X142884500Y-47880812D01*
X142938375Y-47880812D01*
X143019187Y-47907749D01*
X143153874Y-48042436D01*
X143180812Y-48123248D01*
X143180812Y-48177123D01*
X143153874Y-48257935D01*
X142992250Y-48419560D01*
X142911438Y-48446497D01*
X142857563Y-48446497D01*
X143423248Y-48096311D02*
X143854247Y-47665312D01*
X143638748Y-47180439D02*
X143827309Y-46991877D01*
X144204433Y-47207377D02*
X143935059Y-47476751D01*
X143369374Y-46911065D01*
X143638748Y-46641691D01*
X144446870Y-46964940D02*
X143881184Y-46399255D01*
X144770118Y-46641691D01*
X144204433Y-46076006D01*
X115389722Y-74280592D02*
X115308910Y-74307529D01*
X115228097Y-74388341D01*
X115174223Y-74496091D01*
X115174223Y-74603841D01*
X115201160Y-74684653D01*
X115281972Y-74819340D01*
X115362784Y-74900152D01*
X115497471Y-74980964D01*
X115578284Y-75007902D01*
X115686033Y-75007902D01*
X115793783Y-74954027D01*
X115847658Y-74900152D01*
X115901532Y-74792402D01*
X115901532Y-74738528D01*
X115712971Y-74549966D01*
X115605221Y-74657715D01*
X116197844Y-74549966D02*
X115632158Y-73984280D01*
X115847658Y-73768781D01*
X115928470Y-73741844D01*
X115982345Y-73741844D01*
X116063157Y-73768781D01*
X116143969Y-73849593D01*
X116170906Y-73930406D01*
X116170906Y-73984280D01*
X116143969Y-74065093D01*
X115928470Y-74280592D01*
X117059841Y-73687969D02*
X116736592Y-74011218D01*
X116898216Y-73849593D02*
X116332531Y-73283908D01*
X116359468Y-73418595D01*
X116359468Y-73526345D01*
X116332531Y-73607157D01*
X116844341Y-72772097D02*
X116898216Y-72718223D01*
X116979028Y-72691285D01*
X117032903Y-72691285D01*
X117113715Y-72718223D01*
X117248402Y-72799035D01*
X117383089Y-72933722D01*
X117463902Y-73068409D01*
X117490839Y-73149221D01*
X117490839Y-73203096D01*
X117463902Y-73283908D01*
X117410027Y-73337783D01*
X117329215Y-73364720D01*
X117275340Y-73364720D01*
X117194528Y-73337783D01*
X117059841Y-73256971D01*
X116925154Y-73122284D01*
X116844341Y-72987597D01*
X116817404Y-72906784D01*
X116817404Y-72852910D01*
X116844341Y-72772097D01*
X115913096Y-40991218D02*
X115832284Y-41018155D01*
X115751471Y-41098967D01*
X115697597Y-41206717D01*
X115697597Y-41314467D01*
X115724534Y-41395279D01*
X115805346Y-41529966D01*
X115886158Y-41610778D01*
X116020845Y-41691590D01*
X116101658Y-41718528D01*
X116209407Y-41718528D01*
X116317157Y-41664653D01*
X116371032Y-41610778D01*
X116424906Y-41503028D01*
X116424906Y-41449154D01*
X116236345Y-41260592D01*
X116128595Y-41368341D01*
X116721218Y-41260592D02*
X116155532Y-40694906D01*
X116371032Y-40479407D01*
X116451844Y-40452470D01*
X116505719Y-40452470D01*
X116586531Y-40479407D01*
X116667343Y-40560219D01*
X116694280Y-40641032D01*
X116694280Y-40694906D01*
X116667343Y-40775719D01*
X116451844Y-40991218D01*
X116828967Y-40021471D02*
X116882842Y-39967597D01*
X116963654Y-39940659D01*
X117017529Y-39940659D01*
X117098341Y-39967597D01*
X117233028Y-40048409D01*
X117367715Y-40183096D01*
X117448528Y-40317783D01*
X117475465Y-40398595D01*
X117475465Y-40452470D01*
X117448528Y-40533282D01*
X117394653Y-40587157D01*
X117313841Y-40614094D01*
X117259966Y-40614094D01*
X117179154Y-40587157D01*
X117044467Y-40506345D01*
X116909780Y-40371658D01*
X116828967Y-40236971D01*
X116802030Y-40156158D01*
X116802030Y-40102284D01*
X116828967Y-40021471D01*
X115389722Y-89520592D02*
X115308910Y-89547529D01*
X115228097Y-89628341D01*
X115174223Y-89736091D01*
X115174223Y-89843841D01*
X115201160Y-89924653D01*
X115281972Y-90059340D01*
X115362784Y-90140152D01*
X115497471Y-90220964D01*
X115578284Y-90247902D01*
X115686033Y-90247902D01*
X115793783Y-90194027D01*
X115847658Y-90140152D01*
X115901532Y-90032402D01*
X115901532Y-89978528D01*
X115712971Y-89789966D01*
X115605221Y-89897715D01*
X116197844Y-89789966D02*
X115632158Y-89224280D01*
X115847658Y-89008781D01*
X115928470Y-88981844D01*
X115982345Y-88981844D01*
X116063157Y-89008781D01*
X116143969Y-89089593D01*
X116170906Y-89170406D01*
X116170906Y-89224280D01*
X116143969Y-89305093D01*
X115928470Y-89520592D01*
X117059841Y-88927969D02*
X116736592Y-89251218D01*
X116898216Y-89089593D02*
X116332531Y-88523908D01*
X116359468Y-88658595D01*
X116359468Y-88766345D01*
X116332531Y-88847157D01*
X117005966Y-87850473D02*
X116736592Y-88119847D01*
X116979028Y-88416158D01*
X116979028Y-88362284D01*
X117005966Y-88281471D01*
X117140653Y-88146784D01*
X117221465Y-88119847D01*
X117275340Y-88119847D01*
X117356152Y-88146784D01*
X117490839Y-88281471D01*
X117517776Y-88362284D01*
X117517776Y-88416158D01*
X117490839Y-88496971D01*
X117356152Y-88631658D01*
X117275340Y-88658595D01*
X117221465Y-88658595D01*
X115343722Y-86980592D02*
X115262910Y-87007529D01*
X115182097Y-87088341D01*
X115128223Y-87196091D01*
X115128223Y-87303841D01*
X115155160Y-87384653D01*
X115235972Y-87519340D01*
X115316784Y-87600152D01*
X115451471Y-87680964D01*
X115532284Y-87707902D01*
X115640033Y-87707902D01*
X115747783Y-87654027D01*
X115801658Y-87600152D01*
X115855532Y-87492402D01*
X115855532Y-87438528D01*
X115666971Y-87249966D01*
X115559221Y-87357715D01*
X116151844Y-87249966D02*
X115586158Y-86684280D01*
X115801658Y-86468781D01*
X115882470Y-86441844D01*
X115936345Y-86441844D01*
X116017157Y-86468781D01*
X116097969Y-86549593D01*
X116124906Y-86630406D01*
X116124906Y-86684280D01*
X116097969Y-86765093D01*
X115882470Y-86980592D01*
X117013841Y-86387969D02*
X116690592Y-86711218D01*
X116852216Y-86549593D02*
X116286531Y-85983908D01*
X116313468Y-86118595D01*
X116313468Y-86226345D01*
X116286531Y-86307157D01*
X117121590Y-85525972D02*
X117498714Y-85903096D01*
X116771404Y-85445160D02*
X117040778Y-85983908D01*
X117390964Y-85633722D01*
X115913096Y-53691218D02*
X115832284Y-53718155D01*
X115751471Y-53798967D01*
X115697597Y-53906717D01*
X115697597Y-54014467D01*
X115724534Y-54095279D01*
X115805346Y-54229966D01*
X115886158Y-54310778D01*
X116020845Y-54391590D01*
X116101658Y-54418528D01*
X116209407Y-54418528D01*
X116317157Y-54364653D01*
X116371032Y-54310778D01*
X116424906Y-54203028D01*
X116424906Y-54149154D01*
X116236345Y-53960592D01*
X116128595Y-54068341D01*
X116721218Y-53960592D02*
X116155532Y-53394906D01*
X116371032Y-53179407D01*
X116451844Y-53152470D01*
X116505719Y-53152470D01*
X116586531Y-53179407D01*
X116667343Y-53260219D01*
X116694280Y-53341032D01*
X116694280Y-53394906D01*
X116667343Y-53475719D01*
X116451844Y-53691218D01*
X117152216Y-52775346D02*
X117529340Y-53152470D01*
X116802030Y-52694534D02*
X117071404Y-53233282D01*
X117421590Y-52883096D01*
X141554788Y-54533773D02*
X141824162Y-54264399D01*
X141662537Y-54749272D02*
X141285414Y-53995025D01*
X142039661Y-54372149D01*
X142228223Y-54183587D02*
X141662537Y-53617902D01*
X141797224Y-53483215D01*
X141904974Y-53429340D01*
X142012723Y-53429340D01*
X142093536Y-53456277D01*
X142228223Y-53537089D01*
X142309035Y-53617902D01*
X142389847Y-53752589D01*
X142416784Y-53833401D01*
X142416784Y-53941150D01*
X142362910Y-54048900D01*
X142228223Y-54183587D01*
X143063282Y-53240778D02*
X143063282Y-53294653D01*
X143009407Y-53402402D01*
X142955532Y-53456277D01*
X142847783Y-53510152D01*
X142740033Y-53510152D01*
X142659221Y-53483215D01*
X142524534Y-53402402D01*
X142443722Y-53321590D01*
X142362910Y-53186903D01*
X142335972Y-53106091D01*
X142335972Y-52998341D01*
X142389847Y-52890592D01*
X142443722Y-52836717D01*
X142551471Y-52782842D01*
X142605346Y-52782842D01*
X143278781Y-53240778D02*
X143709780Y-52809780D01*
X143144094Y-52136345D02*
X143898341Y-52513468D01*
X143521218Y-51759221D01*
X144598714Y-51813096D02*
X144140778Y-51732284D01*
X144275465Y-52136345D02*
X143709780Y-51570659D01*
X143925279Y-51355160D01*
X144006091Y-51328223D01*
X144059966Y-51328223D01*
X144140778Y-51355160D01*
X144221590Y-51435972D01*
X144248528Y-51516784D01*
X144248528Y-51570659D01*
X144221590Y-51651471D01*
X144006091Y-51866971D01*
X144544839Y-51274348D02*
X144733401Y-51085786D01*
X145110524Y-51301285D02*
X144841150Y-51570659D01*
X144275465Y-51004974D01*
X144544839Y-50735600D01*
X145245211Y-50573975D02*
X145056650Y-50762537D01*
X145352961Y-51058849D02*
X144787276Y-50493163D01*
X145056650Y-50223789D01*
X115886158Y-84198155D02*
X115805346Y-84225093D01*
X115724534Y-84305905D01*
X115670659Y-84413654D01*
X115670659Y-84521404D01*
X115697597Y-84602216D01*
X115778409Y-84736903D01*
X115859221Y-84817715D01*
X115993908Y-84898528D01*
X116074720Y-84925465D01*
X116182470Y-84925465D01*
X116290219Y-84871590D01*
X116344094Y-84817715D01*
X116397969Y-84709966D01*
X116397969Y-84656091D01*
X116209407Y-84467529D01*
X116101658Y-84575279D01*
X116694280Y-84467529D02*
X116128595Y-83901844D01*
X117017529Y-84144280D01*
X116451844Y-83578595D01*
X117286903Y-83874906D02*
X116721218Y-83309221D01*
X116855905Y-83174534D01*
X116963654Y-83120659D01*
X117071404Y-83120659D01*
X117152216Y-83147597D01*
X117286903Y-83228409D01*
X117367715Y-83309221D01*
X117448528Y-83443908D01*
X117475465Y-83524720D01*
X117475465Y-83632470D01*
X117421590Y-83740219D01*
X117286903Y-83874906D01*
X115886158Y-46098155D02*
X115805346Y-46125093D01*
X115724534Y-46205905D01*
X115670659Y-46313654D01*
X115670659Y-46421404D01*
X115697597Y-46502216D01*
X115778409Y-46636903D01*
X115859221Y-46717715D01*
X115993908Y-46798528D01*
X116074720Y-46825465D01*
X116182470Y-46825465D01*
X116290219Y-46771590D01*
X116344094Y-46717715D01*
X116397969Y-46609966D01*
X116397969Y-46556091D01*
X116209407Y-46367529D01*
X116101658Y-46475279D01*
X116694280Y-46367529D02*
X116128595Y-45801844D01*
X117017529Y-46044280D01*
X116451844Y-45478595D01*
X117286903Y-45774906D02*
X116721218Y-45209221D01*
X116855905Y-45074534D01*
X116963654Y-45020659D01*
X117071404Y-45020659D01*
X117152216Y-45047597D01*
X117286903Y-45128409D01*
X117367715Y-45209221D01*
X117448528Y-45343908D01*
X117475465Y-45424720D01*
X117475465Y-45532470D01*
X117421590Y-45640219D01*
X117286903Y-45774906D01*
X141486158Y-46098155D02*
X141405346Y-46125093D01*
X141324534Y-46205905D01*
X141270659Y-46313654D01*
X141270659Y-46421404D01*
X141297597Y-46502216D01*
X141378409Y-46636903D01*
X141459221Y-46717715D01*
X141593908Y-46798528D01*
X141674720Y-46825465D01*
X141782470Y-46825465D01*
X141890219Y-46771590D01*
X141944094Y-46717715D01*
X141997969Y-46609966D01*
X141997969Y-46556091D01*
X141809407Y-46367529D01*
X141701658Y-46475279D01*
X142294280Y-46367529D02*
X141728595Y-45801844D01*
X142617529Y-46044280D01*
X142051844Y-45478595D01*
X142886903Y-45774906D02*
X142321218Y-45209221D01*
X142455905Y-45074534D01*
X142563654Y-45020659D01*
X142671404Y-45020659D01*
X142752216Y-45047597D01*
X142886903Y-45128409D01*
X142967715Y-45209221D01*
X143048528Y-45343908D01*
X143075465Y-45424720D01*
X143075465Y-45532470D01*
X143021590Y-45640219D01*
X142886903Y-45774906D01*
X141320473Y-44069966D02*
X142074720Y-44447089D01*
X141697597Y-43692842D01*
X142397969Y-44069966D02*
X142505719Y-44016091D01*
X142640406Y-43881404D01*
X142667343Y-43800592D01*
X142667343Y-43746717D01*
X142640406Y-43665905D01*
X142586531Y-43612030D01*
X142505719Y-43585093D01*
X142451844Y-43585093D01*
X142371032Y-43612030D01*
X142236345Y-43692842D01*
X142155532Y-43719780D01*
X142101658Y-43719780D01*
X142020845Y-43692842D01*
X141966971Y-43638967D01*
X141940033Y-43558155D01*
X141940033Y-43504280D01*
X141966971Y-43423468D01*
X142101658Y-43288781D01*
X142209407Y-43234906D01*
X142828967Y-43154094D02*
X143098341Y-43423468D01*
X142344094Y-43046345D02*
X142828967Y-43154094D01*
X142721218Y-42669221D01*
X143421590Y-43046345D02*
X143529340Y-42992470D01*
X143664027Y-42857783D01*
X143690964Y-42776971D01*
X143690964Y-42723096D01*
X143664027Y-42642284D01*
X143610152Y-42588409D01*
X143529340Y-42561471D01*
X143475465Y-42561471D01*
X143394653Y-42588409D01*
X143259966Y-42669221D01*
X143179154Y-42696158D01*
X143125279Y-42696158D01*
X143044467Y-42669221D01*
X142990592Y-42615346D01*
X142963654Y-42534534D01*
X142963654Y-42480659D01*
X142990592Y-42399847D01*
X143125279Y-42265160D01*
X143233028Y-42211285D01*
X141486158Y-84198155D02*
X141405346Y-84225093D01*
X141324534Y-84305905D01*
X141270659Y-84413654D01*
X141270659Y-84521404D01*
X141297597Y-84602216D01*
X141378409Y-84736903D01*
X141459221Y-84817715D01*
X141593908Y-84898528D01*
X141674720Y-84925465D01*
X141782470Y-84925465D01*
X141890219Y-84871590D01*
X141944094Y-84817715D01*
X141997969Y-84709966D01*
X141997969Y-84656091D01*
X141809407Y-84467529D01*
X141701658Y-84575279D01*
X142294280Y-84467529D02*
X141728595Y-83901844D01*
X142617529Y-84144280D01*
X142051844Y-83578595D01*
X142886903Y-83874906D02*
X142321218Y-83309221D01*
X142455905Y-83174534D01*
X142563654Y-83120659D01*
X142671404Y-83120659D01*
X142752216Y-83147597D01*
X142886903Y-83228409D01*
X142967715Y-83309221D01*
X143048528Y-83443908D01*
X143075465Y-83524720D01*
X143075465Y-83632470D01*
X143021590Y-83740219D01*
X142886903Y-83874906D01*
X141497722Y-81900592D02*
X141416910Y-81927529D01*
X141336097Y-82008341D01*
X141282223Y-82116091D01*
X141282223Y-82223841D01*
X141309160Y-82304653D01*
X141389972Y-82439340D01*
X141470784Y-82520152D01*
X141605471Y-82600964D01*
X141686284Y-82627902D01*
X141794033Y-82627902D01*
X141901783Y-82574027D01*
X141955658Y-82520152D01*
X142009532Y-82412402D01*
X142009532Y-82358528D01*
X141820971Y-82169966D01*
X141713221Y-82277715D01*
X142305844Y-82169966D02*
X141740158Y-81604280D01*
X141955658Y-81388781D01*
X142036470Y-81361844D01*
X142090345Y-81361844D01*
X142171157Y-81388781D01*
X142251969Y-81469593D01*
X142278906Y-81550406D01*
X142278906Y-81604280D01*
X142251969Y-81685093D01*
X142036470Y-81900592D01*
X143167841Y-81307969D02*
X142844592Y-81631218D01*
X143006216Y-81469593D02*
X142440531Y-80903908D01*
X142467468Y-81038595D01*
X142467468Y-81146345D01*
X142440531Y-81227157D01*
X143167841Y-80661471D02*
X143087028Y-80688409D01*
X143033154Y-80688409D01*
X142952341Y-80661471D01*
X142925404Y-80634534D01*
X142898467Y-80553722D01*
X142898467Y-80499847D01*
X142925404Y-80419035D01*
X143033154Y-80311285D01*
X143113966Y-80284348D01*
X143167841Y-80284348D01*
X143248653Y-80311285D01*
X143275590Y-80338223D01*
X143302528Y-80419035D01*
X143302528Y-80472910D01*
X143275590Y-80553722D01*
X143167841Y-80661471D01*
X143140903Y-80742284D01*
X143140903Y-80796158D01*
X143167841Y-80876971D01*
X143275590Y-80984720D01*
X143356402Y-81011658D01*
X143410277Y-81011658D01*
X143491089Y-80984720D01*
X143598839Y-80876971D01*
X143625776Y-80796158D01*
X143625776Y-80742284D01*
X143598839Y-80661471D01*
X143491089Y-80553722D01*
X143410277Y-80526784D01*
X143356402Y-80526784D01*
X143275590Y-80553722D01*
X115913096Y-66391218D02*
X115832284Y-66418155D01*
X115751471Y-66498967D01*
X115697597Y-66606717D01*
X115697597Y-66714467D01*
X115724534Y-66795279D01*
X115805346Y-66929966D01*
X115886158Y-67010778D01*
X116020845Y-67091590D01*
X116101658Y-67118528D01*
X116209407Y-67118528D01*
X116317157Y-67064653D01*
X116371032Y-67010778D01*
X116424906Y-66903028D01*
X116424906Y-66849154D01*
X116236345Y-66660592D01*
X116128595Y-66768341D01*
X116721218Y-66660592D02*
X116155532Y-66094906D01*
X116371032Y-65879407D01*
X116451844Y-65852470D01*
X116505719Y-65852470D01*
X116586531Y-65879407D01*
X116667343Y-65960219D01*
X116694280Y-66041032D01*
X116694280Y-66094906D01*
X116667343Y-66175719D01*
X116451844Y-66391218D01*
X117044467Y-65690845D02*
X116963654Y-65717783D01*
X116909780Y-65717783D01*
X116828967Y-65690845D01*
X116802030Y-65663908D01*
X116775093Y-65583096D01*
X116775093Y-65529221D01*
X116802030Y-65448409D01*
X116909780Y-65340659D01*
X116990592Y-65313722D01*
X117044467Y-65313722D01*
X117125279Y-65340659D01*
X117152216Y-65367597D01*
X117179154Y-65448409D01*
X117179154Y-65502284D01*
X117152216Y-65583096D01*
X117044467Y-65690845D01*
X117017529Y-65771658D01*
X117017529Y-65825532D01*
X117044467Y-65906345D01*
X117152216Y-66014094D01*
X117233028Y-66041032D01*
X117286903Y-66041032D01*
X117367715Y-66014094D01*
X117475465Y-65906345D01*
X117502402Y-65825532D01*
X117502402Y-65771658D01*
X117475465Y-65690845D01*
X117367715Y-65583096D01*
X117286903Y-65556158D01*
X117233028Y-65556158D01*
X117152216Y-65583096D01*
X141486158Y-71498155D02*
X141405346Y-71525093D01*
X141324534Y-71605905D01*
X141270659Y-71713654D01*
X141270659Y-71821404D01*
X141297597Y-71902216D01*
X141378409Y-72036903D01*
X141459221Y-72117715D01*
X141593908Y-72198528D01*
X141674720Y-72225465D01*
X141782470Y-72225465D01*
X141890219Y-72171590D01*
X141944094Y-72117715D01*
X141997969Y-72009966D01*
X141997969Y-71956091D01*
X141809407Y-71767529D01*
X141701658Y-71875279D01*
X142294280Y-71767529D02*
X141728595Y-71201844D01*
X142617529Y-71444280D01*
X142051844Y-70878595D01*
X142886903Y-71174906D02*
X142321218Y-70609221D01*
X142455905Y-70474534D01*
X142563654Y-70420659D01*
X142671404Y-70420659D01*
X142752216Y-70447597D01*
X142886903Y-70528409D01*
X142967715Y-70609221D01*
X143048528Y-70743908D01*
X143075465Y-70824720D01*
X143075465Y-70932470D01*
X143021590Y-71040219D01*
X142886903Y-71174906D01*
X115913096Y-51151218D02*
X115832284Y-51178155D01*
X115751471Y-51258967D01*
X115697597Y-51366717D01*
X115697597Y-51474467D01*
X115724534Y-51555279D01*
X115805346Y-51689966D01*
X115886158Y-51770778D01*
X116020845Y-51851590D01*
X116101658Y-51878528D01*
X116209407Y-51878528D01*
X116317157Y-51824653D01*
X116371032Y-51770778D01*
X116424906Y-51663028D01*
X116424906Y-51609154D01*
X116236345Y-51420592D01*
X116128595Y-51528341D01*
X116721218Y-51420592D02*
X116155532Y-50854906D01*
X116371032Y-50639407D01*
X116451844Y-50612470D01*
X116505719Y-50612470D01*
X116586531Y-50639407D01*
X116667343Y-50720219D01*
X116694280Y-50801032D01*
X116694280Y-50854906D01*
X116667343Y-50935719D01*
X116451844Y-51151218D01*
X116667343Y-50343096D02*
X117017529Y-49992910D01*
X117044467Y-50396971D01*
X117125279Y-50316158D01*
X117206091Y-50289221D01*
X117259966Y-50289221D01*
X117340778Y-50316158D01*
X117475465Y-50450845D01*
X117502402Y-50531658D01*
X117502402Y-50585532D01*
X117475465Y-50666345D01*
X117313841Y-50827969D01*
X117233028Y-50854906D01*
X117179154Y-50854906D01*
X115813096Y-43521218D02*
X115732284Y-43548155D01*
X115651471Y-43628967D01*
X115597597Y-43736717D01*
X115597597Y-43844467D01*
X115624534Y-43925279D01*
X115705346Y-44059966D01*
X115786158Y-44140778D01*
X115920845Y-44221590D01*
X116001658Y-44248528D01*
X116109407Y-44248528D01*
X116217157Y-44194653D01*
X116271032Y-44140778D01*
X116324906Y-44033028D01*
X116324906Y-43979154D01*
X116136345Y-43790592D01*
X116028595Y-43898341D01*
X116621218Y-43790592D02*
X116055532Y-43224906D01*
X116271032Y-43009407D01*
X116351844Y-42982470D01*
X116405719Y-42982470D01*
X116486531Y-43009407D01*
X116567343Y-43090219D01*
X116594280Y-43171032D01*
X116594280Y-43224906D01*
X116567343Y-43305719D01*
X116351844Y-43521218D01*
X117483215Y-42928595D02*
X117159966Y-43251844D01*
X117321590Y-43090219D02*
X116755905Y-42524534D01*
X116782842Y-42659221D01*
X116782842Y-42766971D01*
X116755905Y-42847783D01*
X141497722Y-64120592D02*
X141416910Y-64147529D01*
X141336097Y-64228341D01*
X141282223Y-64336091D01*
X141282223Y-64443841D01*
X141309160Y-64524653D01*
X141389972Y-64659340D01*
X141470784Y-64740152D01*
X141605471Y-64820964D01*
X141686284Y-64847902D01*
X141794033Y-64847902D01*
X141901783Y-64794027D01*
X141955658Y-64740152D01*
X142009532Y-64632402D01*
X142009532Y-64578528D01*
X141820971Y-64389966D01*
X141713221Y-64497715D01*
X142305844Y-64389966D02*
X141740158Y-63824280D01*
X141955658Y-63608781D01*
X142036470Y-63581844D01*
X142090345Y-63581844D01*
X142171157Y-63608781D01*
X142251969Y-63689593D01*
X142278906Y-63770406D01*
X142278906Y-63824280D01*
X142251969Y-63905093D01*
X142036470Y-64120592D01*
X142332781Y-63339407D02*
X142332781Y-63285532D01*
X142359719Y-63204720D01*
X142494406Y-63070033D01*
X142575218Y-63043096D01*
X142629093Y-63043096D01*
X142709905Y-63070033D01*
X142763780Y-63123908D01*
X142817654Y-63231658D01*
X142817654Y-63878155D01*
X143167841Y-63527969D01*
X143087028Y-62477410D02*
X142979279Y-62585160D01*
X142952341Y-62665972D01*
X142952341Y-62719847D01*
X142979279Y-62854534D01*
X143060091Y-62989221D01*
X143275590Y-63204720D01*
X143356402Y-63231658D01*
X143410277Y-63231658D01*
X143491089Y-63204720D01*
X143598839Y-63096971D01*
X143625776Y-63016158D01*
X143625776Y-62962284D01*
X143598839Y-62881471D01*
X143464152Y-62746784D01*
X143383340Y-62719847D01*
X143329465Y-62719847D01*
X143248653Y-62746784D01*
X143140903Y-62854534D01*
X143113966Y-62935346D01*
X143113966Y-62989221D01*
X143140903Y-63070033D01*
X141289847Y-51490592D02*
X141640033Y-51140406D01*
X141666971Y-51544467D01*
X141747783Y-51463654D01*
X141828595Y-51436717D01*
X141882470Y-51436717D01*
X141963282Y-51463654D01*
X142097969Y-51598341D01*
X142124906Y-51679154D01*
X142124906Y-51733028D01*
X142097969Y-51813841D01*
X141936345Y-51975465D01*
X141855532Y-52002402D01*
X141801658Y-52002402D01*
X141801658Y-50978781D02*
X142555905Y-51355905D01*
X142178781Y-50601658D01*
X142313468Y-50466971D02*
X142663654Y-50116784D01*
X142690592Y-50520845D01*
X142771404Y-50440033D01*
X142852216Y-50413096D01*
X142906091Y-50413096D01*
X142986903Y-50440033D01*
X143121590Y-50574720D01*
X143148528Y-50655532D01*
X143148528Y-50709407D01*
X143121590Y-50790219D01*
X142959966Y-50951844D01*
X142879154Y-50978781D01*
X142825279Y-50978781D01*
X115243722Y-79360592D02*
X115162910Y-79387529D01*
X115082097Y-79468341D01*
X115028223Y-79576091D01*
X115028223Y-79683841D01*
X115055160Y-79764653D01*
X115135972Y-79899340D01*
X115216784Y-79980152D01*
X115351471Y-80060964D01*
X115432284Y-80087902D01*
X115540033Y-80087902D01*
X115647783Y-80034027D01*
X115701658Y-79980152D01*
X115755532Y-79872402D01*
X115755532Y-79818528D01*
X115566971Y-79629966D01*
X115459221Y-79737715D01*
X116051844Y-79629966D02*
X115486158Y-79064280D01*
X115701658Y-78848781D01*
X115782470Y-78821844D01*
X115836345Y-78821844D01*
X115917157Y-78848781D01*
X115997969Y-78929593D01*
X116024906Y-79010406D01*
X116024906Y-79064280D01*
X115997969Y-79145093D01*
X115782470Y-79360592D01*
X116913841Y-78767969D02*
X116590592Y-79091218D01*
X116752216Y-78929593D02*
X116186531Y-78363908D01*
X116213468Y-78498595D01*
X116213468Y-78606345D01*
X116186531Y-78687157D01*
X116617529Y-78040659D02*
X116617529Y-77986784D01*
X116644467Y-77905972D01*
X116779154Y-77771285D01*
X116859966Y-77744348D01*
X116913841Y-77744348D01*
X116994653Y-77771285D01*
X117048528Y-77825160D01*
X117102402Y-77932910D01*
X117102402Y-78579407D01*
X117452589Y-78229221D01*
X141497722Y-89520592D02*
X141416910Y-89547529D01*
X141336097Y-89628341D01*
X141282223Y-89736091D01*
X141282223Y-89843841D01*
X141309160Y-89924653D01*
X141389972Y-90059340D01*
X141470784Y-90140152D01*
X141605471Y-90220964D01*
X141686284Y-90247902D01*
X141794033Y-90247902D01*
X141901783Y-90194027D01*
X141955658Y-90140152D01*
X142009532Y-90032402D01*
X142009532Y-89978528D01*
X141820971Y-89789966D01*
X141713221Y-89897715D01*
X142305844Y-89789966D02*
X141740158Y-89224280D01*
X141955658Y-89008781D01*
X142036470Y-88981844D01*
X142090345Y-88981844D01*
X142171157Y-89008781D01*
X142251969Y-89089593D01*
X142278906Y-89170406D01*
X142278906Y-89224280D01*
X142251969Y-89305093D01*
X142036470Y-89520592D01*
X143167841Y-88927969D02*
X142844592Y-89251218D01*
X143006216Y-89089593D02*
X142440531Y-88523908D01*
X142467468Y-88658595D01*
X142467468Y-88766345D01*
X142440531Y-88847157D01*
X143087028Y-87877410D02*
X142979279Y-87985160D01*
X142952341Y-88065972D01*
X142952341Y-88119847D01*
X142979279Y-88254534D01*
X143060091Y-88389221D01*
X143275590Y-88604720D01*
X143356402Y-88631658D01*
X143410277Y-88631658D01*
X143491089Y-88604720D01*
X143598839Y-88496971D01*
X143625776Y-88416158D01*
X143625776Y-88362284D01*
X143598839Y-88281471D01*
X143464152Y-88146784D01*
X143383340Y-88119847D01*
X143329465Y-88119847D01*
X143248653Y-88146784D01*
X143140903Y-88254534D01*
X143113966Y-88335346D01*
X143113966Y-88389221D01*
X143140903Y-88470033D01*
X141497722Y-69200592D02*
X141416910Y-69227529D01*
X141336097Y-69308341D01*
X141282223Y-69416091D01*
X141282223Y-69523841D01*
X141309160Y-69604653D01*
X141389972Y-69739340D01*
X141470784Y-69820152D01*
X141605471Y-69900964D01*
X141686284Y-69927902D01*
X141794033Y-69927902D01*
X141901783Y-69874027D01*
X141955658Y-69820152D01*
X142009532Y-69712402D01*
X142009532Y-69658528D01*
X141820971Y-69469966D01*
X141713221Y-69577715D01*
X142305844Y-69469966D02*
X141740158Y-68904280D01*
X141955658Y-68688781D01*
X142036470Y-68661844D01*
X142090345Y-68661844D01*
X142171157Y-68688781D01*
X142251969Y-68769593D01*
X142278906Y-68850406D01*
X142278906Y-68904280D01*
X142251969Y-68985093D01*
X142036470Y-69200592D01*
X142332781Y-68419407D02*
X142332781Y-68365532D01*
X142359719Y-68284720D01*
X142494406Y-68150033D01*
X142575218Y-68123096D01*
X142629093Y-68123096D01*
X142709905Y-68150033D01*
X142763780Y-68203908D01*
X142817654Y-68311658D01*
X142817654Y-68958155D01*
X143167841Y-68607969D01*
X142871529Y-67880659D02*
X142871529Y-67826784D01*
X142898467Y-67745972D01*
X143033154Y-67611285D01*
X143113966Y-67584348D01*
X143167841Y-67584348D01*
X143248653Y-67611285D01*
X143302528Y-67665160D01*
X143356402Y-67772910D01*
X143356402Y-68419407D01*
X143706589Y-68069221D01*
X141497722Y-86980592D02*
X141416910Y-87007529D01*
X141336097Y-87088341D01*
X141282223Y-87196091D01*
X141282223Y-87303841D01*
X141309160Y-87384653D01*
X141389972Y-87519340D01*
X141470784Y-87600152D01*
X141605471Y-87680964D01*
X141686284Y-87707902D01*
X141794033Y-87707902D01*
X141901783Y-87654027D01*
X141955658Y-87600152D01*
X142009532Y-87492402D01*
X142009532Y-87438528D01*
X141820971Y-87249966D01*
X141713221Y-87357715D01*
X142305844Y-87249966D02*
X141740158Y-86684280D01*
X141955658Y-86468781D01*
X142036470Y-86441844D01*
X142090345Y-86441844D01*
X142171157Y-86468781D01*
X142251969Y-86549593D01*
X142278906Y-86630406D01*
X142278906Y-86684280D01*
X142251969Y-86765093D01*
X142036470Y-86980592D01*
X143167841Y-86387969D02*
X142844592Y-86711218D01*
X143006216Y-86549593D02*
X142440531Y-85983908D01*
X142467468Y-86118595D01*
X142467468Y-86226345D01*
X142440531Y-86307157D01*
X142790717Y-85633722D02*
X143167841Y-85256598D01*
X143491089Y-86064720D01*
X141497722Y-74290592D02*
X141416910Y-74317529D01*
X141336097Y-74398341D01*
X141282223Y-74506091D01*
X141282223Y-74613841D01*
X141309160Y-74694653D01*
X141389972Y-74829340D01*
X141470784Y-74910152D01*
X141605471Y-74990964D01*
X141686284Y-75017902D01*
X141794033Y-75017902D01*
X141901783Y-74964027D01*
X141955658Y-74910152D01*
X142009532Y-74802402D01*
X142009532Y-74748528D01*
X141820971Y-74559966D01*
X141713221Y-74667715D01*
X142305844Y-74559966D02*
X141740158Y-73994280D01*
X141955658Y-73778781D01*
X142036470Y-73751844D01*
X142090345Y-73751844D01*
X142171157Y-73778781D01*
X142251969Y-73859593D01*
X142278906Y-73940406D01*
X142278906Y-73994280D01*
X142251969Y-74075093D01*
X142036470Y-74290592D01*
X142332781Y-73509407D02*
X142332781Y-73455532D01*
X142359719Y-73374720D01*
X142494406Y-73240033D01*
X142575218Y-73213096D01*
X142629093Y-73213096D01*
X142709905Y-73240033D01*
X142763780Y-73293908D01*
X142817654Y-73401658D01*
X142817654Y-74048155D01*
X143167841Y-73697969D01*
X143706589Y-73159221D02*
X143383340Y-73482470D01*
X143544964Y-73320845D02*
X142979279Y-72755160D01*
X143006216Y-72889847D01*
X143006216Y-72997597D01*
X142979279Y-73078409D01*
X115243722Y-76820592D02*
X115162910Y-76847529D01*
X115082097Y-76928341D01*
X115028223Y-77036091D01*
X115028223Y-77143841D01*
X115055160Y-77224653D01*
X115135972Y-77359340D01*
X115216784Y-77440152D01*
X115351471Y-77520964D01*
X115432284Y-77547902D01*
X115540033Y-77547902D01*
X115647783Y-77494027D01*
X115701658Y-77440152D01*
X115755532Y-77332402D01*
X115755532Y-77278528D01*
X115566971Y-77089966D01*
X115459221Y-77197715D01*
X116051844Y-77089966D02*
X115486158Y-76524280D01*
X115701658Y-76308781D01*
X115782470Y-76281844D01*
X115836345Y-76281844D01*
X115917157Y-76308781D01*
X115997969Y-76389593D01*
X116024906Y-76470406D01*
X116024906Y-76524280D01*
X115997969Y-76605093D01*
X115782470Y-76820592D01*
X116913841Y-76227969D02*
X116590592Y-76551218D01*
X116752216Y-76389593D02*
X116186531Y-75823908D01*
X116213468Y-75958595D01*
X116213468Y-76066345D01*
X116186531Y-76147157D01*
X117452589Y-75689221D02*
X117129340Y-76012470D01*
X117290964Y-75850845D02*
X116725279Y-75285160D01*
X116752216Y-75419847D01*
X116752216Y-75527597D01*
X116725279Y-75608409D01*
X141353129Y-41527309D02*
X142107377Y-41904433D01*
X141730253Y-41150186D01*
X142376751Y-41042436D02*
X142484500Y-40988561D01*
X142538375Y-40988561D01*
X142619187Y-41015499D01*
X142700000Y-41096311D01*
X142726937Y-41177123D01*
X142726937Y-41230998D01*
X142700000Y-41311810D01*
X142484500Y-41527309D01*
X141918815Y-40961624D01*
X142107377Y-40773062D01*
X142188189Y-40746125D01*
X142242064Y-40746125D01*
X142322876Y-40773062D01*
X142376751Y-40826937D01*
X142403688Y-40907749D01*
X142403688Y-40961624D01*
X142376751Y-41042436D01*
X142188189Y-41230998D01*
X142484500Y-40395938D02*
X142942436Y-40853874D01*
X143023248Y-40880812D01*
X143077123Y-40880812D01*
X143157935Y-40853874D01*
X143265685Y-40746125D01*
X143292622Y-40665312D01*
X143292622Y-40611438D01*
X143265685Y-40530625D01*
X142807749Y-40072690D01*
X143588934Y-40369001D02*
X143696683Y-40315126D01*
X143831370Y-40180439D01*
X143858308Y-40099627D01*
X143858308Y-40045752D01*
X143831370Y-39964940D01*
X143777496Y-39911065D01*
X143696683Y-39884128D01*
X143642809Y-39884128D01*
X143561996Y-39911065D01*
X143427309Y-39991877D01*
X143346497Y-40018815D01*
X143292622Y-40018815D01*
X143211810Y-39991877D01*
X143157935Y-39938003D01*
X143130998Y-39857190D01*
X143130998Y-39803316D01*
X143157935Y-39722503D01*
X143292622Y-39587816D01*
X143400372Y-39533942D01*
X115913096Y-68931218D02*
X115832284Y-68958155D01*
X115751471Y-69038967D01*
X115697597Y-69146717D01*
X115697597Y-69254467D01*
X115724534Y-69335279D01*
X115805346Y-69469966D01*
X115886158Y-69550778D01*
X116020845Y-69631590D01*
X116101658Y-69658528D01*
X116209407Y-69658528D01*
X116317157Y-69604653D01*
X116371032Y-69550778D01*
X116424906Y-69443028D01*
X116424906Y-69389154D01*
X116236345Y-69200592D01*
X116128595Y-69308341D01*
X116721218Y-69200592D02*
X116155532Y-68634906D01*
X116371032Y-68419407D01*
X116451844Y-68392470D01*
X116505719Y-68392470D01*
X116586531Y-68419407D01*
X116667343Y-68500219D01*
X116694280Y-68581032D01*
X116694280Y-68634906D01*
X116667343Y-68715719D01*
X116451844Y-68931218D01*
X117313841Y-68607969D02*
X117421590Y-68500219D01*
X117448528Y-68419407D01*
X117448528Y-68365532D01*
X117421590Y-68230845D01*
X117340778Y-68096158D01*
X117125279Y-67880659D01*
X117044467Y-67853722D01*
X116990592Y-67853722D01*
X116909780Y-67880659D01*
X116802030Y-67988409D01*
X116775093Y-68069221D01*
X116775093Y-68123096D01*
X116802030Y-68203908D01*
X116936717Y-68338595D01*
X117017529Y-68365532D01*
X117071404Y-68365532D01*
X117152216Y-68338595D01*
X117259966Y-68230845D01*
X117286903Y-68150033D01*
X117286903Y-68096158D01*
X117259966Y-68015346D01*
X133304761Y-91523809D02*
X133419047Y-91561904D01*
X133609523Y-91561904D01*
X133685714Y-91523809D01*
X133723809Y-91485714D01*
X133761904Y-91409523D01*
X133761904Y-91333333D01*
X133723809Y-91257142D01*
X133685714Y-91219047D01*
X133609523Y-91180952D01*
X133457142Y-91142857D01*
X133380952Y-91104761D01*
X133342857Y-91066666D01*
X133304761Y-90990476D01*
X133304761Y-90914285D01*
X133342857Y-90838095D01*
X133380952Y-90800000D01*
X133457142Y-90761904D01*
X133647619Y-90761904D01*
X133761904Y-90800000D01*
X134028571Y-90761904D02*
X134219047Y-91561904D01*
X134371428Y-90990476D01*
X134523809Y-91561904D01*
X134714285Y-90761904D01*
X135019047Y-91561904D02*
X135019047Y-90761904D01*
X135209523Y-90761904D01*
X135323809Y-90800000D01*
X135400000Y-90876190D01*
X135438095Y-90952380D01*
X135476190Y-91104761D01*
X135476190Y-91219047D01*
X135438095Y-91371428D01*
X135400000Y-91447619D01*
X135323809Y-91523809D01*
X135209523Y-91561904D01*
X135019047Y-91561904D01*
X135819047Y-91561904D02*
X135819047Y-90761904D01*
X136352380Y-90761904D02*
X136504761Y-90761904D01*
X136580952Y-90800000D01*
X136657142Y-90876190D01*
X136695238Y-91028571D01*
X136695238Y-91295238D01*
X136657142Y-91447619D01*
X136580952Y-91523809D01*
X136504761Y-91561904D01*
X136352380Y-91561904D01*
X136276190Y-91523809D01*
X136200000Y-91447619D01*
X136161904Y-91295238D01*
X136161904Y-91028571D01*
X136200000Y-90876190D01*
X136276190Y-90800000D01*
X136352380Y-90761904D01*
X115913096Y-56231218D02*
X115832284Y-56258155D01*
X115751471Y-56338967D01*
X115697597Y-56446717D01*
X115697597Y-56554467D01*
X115724534Y-56635279D01*
X115805346Y-56769966D01*
X115886158Y-56850778D01*
X116020845Y-56931590D01*
X116101658Y-56958528D01*
X116209407Y-56958528D01*
X116317157Y-56904653D01*
X116371032Y-56850778D01*
X116424906Y-56743028D01*
X116424906Y-56689154D01*
X116236345Y-56500592D01*
X116128595Y-56608341D01*
X116721218Y-56500592D02*
X116155532Y-55934906D01*
X116371032Y-55719407D01*
X116451844Y-55692470D01*
X116505719Y-55692470D01*
X116586531Y-55719407D01*
X116667343Y-55800219D01*
X116694280Y-55881032D01*
X116694280Y-55934906D01*
X116667343Y-56015719D01*
X116451844Y-56231218D01*
X116990592Y-55099847D02*
X116721218Y-55369221D01*
X116963654Y-55665532D01*
X116963654Y-55611658D01*
X116990592Y-55530845D01*
X117125279Y-55396158D01*
X117206091Y-55369221D01*
X117259966Y-55369221D01*
X117340778Y-55396158D01*
X117475465Y-55530845D01*
X117502402Y-55611658D01*
X117502402Y-55665532D01*
X117475465Y-55746345D01*
X117340778Y-55881032D01*
X117259966Y-55907969D01*
X117206091Y-55907969D01*
X115913096Y-61311218D02*
X115832284Y-61338155D01*
X115751471Y-61418967D01*
X115697597Y-61526717D01*
X115697597Y-61634467D01*
X115724534Y-61715279D01*
X115805346Y-61849966D01*
X115886158Y-61930778D01*
X116020845Y-62011590D01*
X116101658Y-62038528D01*
X116209407Y-62038528D01*
X116317157Y-61984653D01*
X116371032Y-61930778D01*
X116424906Y-61823028D01*
X116424906Y-61769154D01*
X116236345Y-61580592D01*
X116128595Y-61688341D01*
X116721218Y-61580592D02*
X116155532Y-61014906D01*
X116371032Y-60799407D01*
X116451844Y-60772470D01*
X116505719Y-60772470D01*
X116586531Y-60799407D01*
X116667343Y-60880219D01*
X116694280Y-60961032D01*
X116694280Y-61014906D01*
X116667343Y-61095719D01*
X116451844Y-61311218D01*
X116963654Y-60206784D02*
X116855905Y-60314534D01*
X116828967Y-60395346D01*
X116828967Y-60449221D01*
X116855905Y-60583908D01*
X116936717Y-60718595D01*
X117152216Y-60934094D01*
X117233028Y-60961032D01*
X117286903Y-60961032D01*
X117367715Y-60934094D01*
X117475465Y-60826345D01*
X117502402Y-60745532D01*
X117502402Y-60691658D01*
X117475465Y-60610845D01*
X117340778Y-60476158D01*
X117259966Y-60449221D01*
X117206091Y-60449221D01*
X117125279Y-60476158D01*
X117017529Y-60583908D01*
X116990592Y-60664720D01*
X116990592Y-60718595D01*
X117017529Y-60799407D01*
X115389722Y-81900592D02*
X115308910Y-81927529D01*
X115228097Y-82008341D01*
X115174223Y-82116091D01*
X115174223Y-82223841D01*
X115201160Y-82304653D01*
X115281972Y-82439340D01*
X115362784Y-82520152D01*
X115497471Y-82600964D01*
X115578284Y-82627902D01*
X115686033Y-82627902D01*
X115793783Y-82574027D01*
X115847658Y-82520152D01*
X115901532Y-82412402D01*
X115901532Y-82358528D01*
X115712971Y-82169966D01*
X115605221Y-82277715D01*
X116197844Y-82169966D02*
X115632158Y-81604280D01*
X115847658Y-81388781D01*
X115928470Y-81361844D01*
X115982345Y-81361844D01*
X116063157Y-81388781D01*
X116143969Y-81469593D01*
X116170906Y-81550406D01*
X116170906Y-81604280D01*
X116143969Y-81685093D01*
X115928470Y-81900592D01*
X117059841Y-81307969D02*
X116736592Y-81631218D01*
X116898216Y-81469593D02*
X116332531Y-80903908D01*
X116359468Y-81038595D01*
X116359468Y-81146345D01*
X116332531Y-81227157D01*
X116682717Y-80553722D02*
X117032903Y-80203536D01*
X117059841Y-80607597D01*
X117140653Y-80526784D01*
X117221465Y-80499847D01*
X117275340Y-80499847D01*
X117356152Y-80526784D01*
X117490839Y-80661471D01*
X117517776Y-80742284D01*
X117517776Y-80796158D01*
X117490839Y-80876971D01*
X117329215Y-81038595D01*
X117248402Y-81065532D01*
X117194528Y-81065532D01*
X141497722Y-56246592D02*
X141416910Y-56273529D01*
X141336097Y-56354341D01*
X141282223Y-56462091D01*
X141282223Y-56569841D01*
X141309160Y-56650653D01*
X141389972Y-56785340D01*
X141470784Y-56866152D01*
X141605471Y-56946964D01*
X141686284Y-56973902D01*
X141794033Y-56973902D01*
X141901783Y-56920027D01*
X141955658Y-56866152D01*
X142009532Y-56758402D01*
X142009532Y-56704528D01*
X141820971Y-56515966D01*
X141713221Y-56623715D01*
X142305844Y-56515966D02*
X141740158Y-55950280D01*
X141955658Y-55734781D01*
X142036470Y-55707844D01*
X142090345Y-55707844D01*
X142171157Y-55734781D01*
X142251969Y-55815593D01*
X142278906Y-55896406D01*
X142278906Y-55950280D01*
X142251969Y-56031093D01*
X142036470Y-56246592D01*
X142332781Y-55465407D02*
X142332781Y-55411532D01*
X142359719Y-55330720D01*
X142494406Y-55196033D01*
X142575218Y-55169096D01*
X142629093Y-55169096D01*
X142709905Y-55196033D01*
X142763780Y-55249908D01*
X142817654Y-55357658D01*
X142817654Y-56004155D01*
X143167841Y-55653969D01*
X143167841Y-55007471D02*
X143087028Y-55034409D01*
X143033154Y-55034409D01*
X142952341Y-55007471D01*
X142925404Y-54980534D01*
X142898467Y-54899722D01*
X142898467Y-54845847D01*
X142925404Y-54765035D01*
X143033154Y-54657285D01*
X143113966Y-54630348D01*
X143167841Y-54630348D01*
X143248653Y-54657285D01*
X143275590Y-54684223D01*
X143302528Y-54765035D01*
X143302528Y-54818910D01*
X143275590Y-54899722D01*
X143167841Y-55007471D01*
X143140903Y-55088284D01*
X143140903Y-55142158D01*
X143167841Y-55222971D01*
X143275590Y-55330720D01*
X143356402Y-55357658D01*
X143410277Y-55357658D01*
X143491089Y-55330720D01*
X143598839Y-55222971D01*
X143625776Y-55142158D01*
X143625776Y-55088284D01*
X143598839Y-55007471D01*
X143491089Y-54899722D01*
X143410277Y-54872784D01*
X143356402Y-54872784D01*
X143275590Y-54899722D01*
X141497722Y-76820592D02*
X141416910Y-76847529D01*
X141336097Y-76928341D01*
X141282223Y-77036091D01*
X141282223Y-77143841D01*
X141309160Y-77224653D01*
X141389972Y-77359340D01*
X141470784Y-77440152D01*
X141605471Y-77520964D01*
X141686284Y-77547902D01*
X141794033Y-77547902D01*
X141901783Y-77494027D01*
X141955658Y-77440152D01*
X142009532Y-77332402D01*
X142009532Y-77278528D01*
X141820971Y-77089966D01*
X141713221Y-77197715D01*
X142305844Y-77089966D02*
X141740158Y-76524280D01*
X141955658Y-76308781D01*
X142036470Y-76281844D01*
X142090345Y-76281844D01*
X142171157Y-76308781D01*
X142251969Y-76389593D01*
X142278906Y-76470406D01*
X142278906Y-76524280D01*
X142251969Y-76605093D01*
X142036470Y-76820592D01*
X142332781Y-76039407D02*
X142332781Y-75985532D01*
X142359719Y-75904720D01*
X142494406Y-75770033D01*
X142575218Y-75743096D01*
X142629093Y-75743096D01*
X142709905Y-75770033D01*
X142763780Y-75823908D01*
X142817654Y-75931658D01*
X142817654Y-76578155D01*
X143167841Y-76227969D01*
X142952341Y-75312097D02*
X143006216Y-75258223D01*
X143087028Y-75231285D01*
X143140903Y-75231285D01*
X143221715Y-75258223D01*
X143356402Y-75339035D01*
X143491089Y-75473722D01*
X143571902Y-75608409D01*
X143598839Y-75689221D01*
X143598839Y-75743096D01*
X143571902Y-75823908D01*
X143518027Y-75877783D01*
X143437215Y-75904720D01*
X143383340Y-75904720D01*
X143302528Y-75877783D01*
X143167841Y-75796971D01*
X143033154Y-75662284D01*
X142952341Y-75527597D01*
X142925404Y-75446784D01*
X142925404Y-75392910D01*
X142952341Y-75312097D01*
X115886158Y-58798155D02*
X115805346Y-58825093D01*
X115724534Y-58905905D01*
X115670659Y-59013654D01*
X115670659Y-59121404D01*
X115697597Y-59202216D01*
X115778409Y-59336903D01*
X115859221Y-59417715D01*
X115993908Y-59498528D01*
X116074720Y-59525465D01*
X116182470Y-59525465D01*
X116290219Y-59471590D01*
X116344094Y-59417715D01*
X116397969Y-59309966D01*
X116397969Y-59256091D01*
X116209407Y-59067529D01*
X116101658Y-59175279D01*
X116694280Y-59067529D02*
X116128595Y-58501844D01*
X117017529Y-58744280D01*
X116451844Y-58178595D01*
X117286903Y-58474906D02*
X116721218Y-57909221D01*
X116855905Y-57774534D01*
X116963654Y-57720659D01*
X117071404Y-57720659D01*
X117152216Y-57747597D01*
X117286903Y-57828409D01*
X117367715Y-57909221D01*
X117448528Y-58043908D01*
X117475465Y-58124720D01*
X117475465Y-58232470D01*
X117421590Y-58340219D01*
X117286903Y-58474906D01*
X116013096Y-63821218D02*
X115932284Y-63848155D01*
X115851471Y-63928967D01*
X115797597Y-64036717D01*
X115797597Y-64144467D01*
X115824534Y-64225279D01*
X115905346Y-64359966D01*
X115986158Y-64440778D01*
X116120845Y-64521590D01*
X116201658Y-64548528D01*
X116309407Y-64548528D01*
X116417157Y-64494653D01*
X116471032Y-64440778D01*
X116524906Y-64333028D01*
X116524906Y-64279154D01*
X116336345Y-64090592D01*
X116228595Y-64198341D01*
X116821218Y-64090592D02*
X116255532Y-63524906D01*
X116471032Y-63309407D01*
X116551844Y-63282470D01*
X116605719Y-63282470D01*
X116686531Y-63309407D01*
X116767343Y-63390219D01*
X116794280Y-63471032D01*
X116794280Y-63524906D01*
X116767343Y-63605719D01*
X116551844Y-63821218D01*
X116767343Y-63013096D02*
X117144467Y-62635972D01*
X117467715Y-63444094D01*
X115813096Y-48611218D02*
X115732284Y-48638155D01*
X115651471Y-48718967D01*
X115597597Y-48826717D01*
X115597597Y-48934467D01*
X115624534Y-49015279D01*
X115705346Y-49149966D01*
X115786158Y-49230778D01*
X115920845Y-49311590D01*
X116001658Y-49338528D01*
X116109407Y-49338528D01*
X116217157Y-49284653D01*
X116271032Y-49230778D01*
X116324906Y-49123028D01*
X116324906Y-49069154D01*
X116136345Y-48880592D01*
X116028595Y-48988341D01*
X116621218Y-48880592D02*
X116055532Y-48314906D01*
X116271032Y-48099407D01*
X116351844Y-48072470D01*
X116405719Y-48072470D01*
X116486531Y-48099407D01*
X116567343Y-48180219D01*
X116594280Y-48261032D01*
X116594280Y-48314906D01*
X116567343Y-48395719D01*
X116351844Y-48611218D01*
X116648155Y-47830033D02*
X116648155Y-47776158D01*
X116675093Y-47695346D01*
X116809780Y-47560659D01*
X116890592Y-47533722D01*
X116944467Y-47533722D01*
X117025279Y-47560659D01*
X117079154Y-47614534D01*
X117133028Y-47722284D01*
X117133028Y-48368781D01*
X117483215Y-48018595D01*
X141497722Y-79360592D02*
X141416910Y-79387529D01*
X141336097Y-79468341D01*
X141282223Y-79576091D01*
X141282223Y-79683841D01*
X141309160Y-79764653D01*
X141389972Y-79899340D01*
X141470784Y-79980152D01*
X141605471Y-80060964D01*
X141686284Y-80087902D01*
X141794033Y-80087902D01*
X141901783Y-80034027D01*
X141955658Y-79980152D01*
X142009532Y-79872402D01*
X142009532Y-79818528D01*
X141820971Y-79629966D01*
X141713221Y-79737715D01*
X142305844Y-79629966D02*
X141740158Y-79064280D01*
X141955658Y-78848781D01*
X142036470Y-78821844D01*
X142090345Y-78821844D01*
X142171157Y-78848781D01*
X142251969Y-78929593D01*
X142278906Y-79010406D01*
X142278906Y-79064280D01*
X142251969Y-79145093D01*
X142036470Y-79360592D01*
X143167841Y-78767969D02*
X142844592Y-79091218D01*
X143006216Y-78929593D02*
X142440531Y-78363908D01*
X142467468Y-78498595D01*
X142467468Y-78606345D01*
X142440531Y-78687157D01*
X143437215Y-78498595D02*
X143544964Y-78390845D01*
X143571902Y-78310033D01*
X143571902Y-78256158D01*
X143544964Y-78121471D01*
X143464152Y-77986784D01*
X143248653Y-77771285D01*
X143167841Y-77744348D01*
X143113966Y-77744348D01*
X143033154Y-77771285D01*
X142925404Y-77879035D01*
X142898467Y-77959847D01*
X142898467Y-78013722D01*
X142925404Y-78094534D01*
X143060091Y-78229221D01*
X143140903Y-78256158D01*
X143194778Y-78256158D01*
X143275590Y-78229221D01*
X143383340Y-78121471D01*
X143410277Y-78040659D01*
X143410277Y-77986784D01*
X143383340Y-77905972D01*
%TO.C,R3*%
X111833333Y-52672380D02*
X111500000Y-52196190D01*
X111261904Y-52672380D02*
X111261904Y-51672380D01*
X111642857Y-51672380D01*
X111738095Y-51720000D01*
X111785714Y-51767619D01*
X111833333Y-51862857D01*
X111833333Y-52005714D01*
X111785714Y-52100952D01*
X111738095Y-52148571D01*
X111642857Y-52196190D01*
X111261904Y-52196190D01*
X112166666Y-51672380D02*
X112785714Y-51672380D01*
X112452380Y-52053333D01*
X112595238Y-52053333D01*
X112690476Y-52100952D01*
X112738095Y-52148571D01*
X112785714Y-52243809D01*
X112785714Y-52481904D01*
X112738095Y-52577142D01*
X112690476Y-52624761D01*
X112595238Y-52672380D01*
X112309523Y-52672380D01*
X112214285Y-52624761D01*
X112166666Y-52577142D01*
%TO.C,C7*%
X189867142Y-51156666D02*
X189914761Y-51204285D01*
X189962380Y-51347142D01*
X189962380Y-51442380D01*
X189914761Y-51585238D01*
X189819523Y-51680476D01*
X189724285Y-51728095D01*
X189533809Y-51775714D01*
X189390952Y-51775714D01*
X189200476Y-51728095D01*
X189105238Y-51680476D01*
X189010000Y-51585238D01*
X188962380Y-51442380D01*
X188962380Y-51347142D01*
X189010000Y-51204285D01*
X189057619Y-51156666D01*
X188962380Y-50823333D02*
X188962380Y-50156666D01*
X189962380Y-50585238D01*
%TO.C,G3R2*%
X199360638Y-97837487D02*
X199265400Y-97789867D01*
X199122543Y-97789867D01*
X198979686Y-97837487D01*
X198884448Y-97932725D01*
X198836829Y-98027963D01*
X198789210Y-98218439D01*
X198789210Y-98361296D01*
X198836829Y-98551772D01*
X198884448Y-98647010D01*
X198979686Y-98742248D01*
X199122543Y-98789867D01*
X199217781Y-98789867D01*
X199360638Y-98742248D01*
X199408257Y-98694629D01*
X199408257Y-98361296D01*
X199217781Y-98361296D01*
X199741591Y-97789867D02*
X200360638Y-97789867D01*
X200027305Y-98170820D01*
X200170162Y-98170820D01*
X200265400Y-98218439D01*
X200313019Y-98266058D01*
X200360638Y-98361296D01*
X200360638Y-98599391D01*
X200313019Y-98694629D01*
X200265400Y-98742248D01*
X200170162Y-98789867D01*
X199884448Y-98789867D01*
X199789210Y-98742248D01*
X199741591Y-98694629D01*
X201360638Y-98789867D02*
X201027305Y-98313677D01*
X200789210Y-98789867D02*
X200789210Y-97789867D01*
X201170162Y-97789867D01*
X201265400Y-97837487D01*
X201313019Y-97885106D01*
X201360638Y-97980344D01*
X201360638Y-98123201D01*
X201313019Y-98218439D01*
X201265400Y-98266058D01*
X201170162Y-98313677D01*
X200789210Y-98313677D01*
X201741591Y-97885106D02*
X201789210Y-97837487D01*
X201884448Y-97789867D01*
X202122543Y-97789867D01*
X202217781Y-97837487D01*
X202265400Y-97885106D01*
X202313019Y-97980344D01*
X202313019Y-98075582D01*
X202265400Y-98218439D01*
X201693972Y-98789867D01*
X202313019Y-98789867D01*
%TO.C,G4L2*%
X199104761Y-136198000D02*
X199009523Y-136150380D01*
X198866666Y-136150380D01*
X198723809Y-136198000D01*
X198628571Y-136293238D01*
X198580952Y-136388476D01*
X198533333Y-136578952D01*
X198533333Y-136721809D01*
X198580952Y-136912285D01*
X198628571Y-137007523D01*
X198723809Y-137102761D01*
X198866666Y-137150380D01*
X198961904Y-137150380D01*
X199104761Y-137102761D01*
X199152380Y-137055142D01*
X199152380Y-136721809D01*
X198961904Y-136721809D01*
X200009523Y-136483714D02*
X200009523Y-137150380D01*
X199771428Y-136102761D02*
X199533333Y-136817047D01*
X200152380Y-136817047D01*
X201009523Y-137150380D02*
X200533333Y-137150380D01*
X200533333Y-136150380D01*
X201295238Y-136245619D02*
X201342857Y-136198000D01*
X201438095Y-136150380D01*
X201676190Y-136150380D01*
X201771428Y-136198000D01*
X201819047Y-136245619D01*
X201866666Y-136340857D01*
X201866666Y-136436095D01*
X201819047Y-136578952D01*
X201247619Y-137150380D01*
X201866666Y-137150380D01*
%TO.C,G1M1*%
X202589209Y-48887487D02*
X202493971Y-48839867D01*
X202351114Y-48839867D01*
X202208256Y-48887487D01*
X202113018Y-48982725D01*
X202065399Y-49077963D01*
X202017780Y-49268439D01*
X202017780Y-49411296D01*
X202065399Y-49601772D01*
X202113018Y-49697010D01*
X202208256Y-49792248D01*
X202351114Y-49839867D01*
X202446352Y-49839867D01*
X202589209Y-49792248D01*
X202636828Y-49744629D01*
X202636828Y-49411296D01*
X202446352Y-49411296D01*
X203589209Y-49839867D02*
X203017780Y-49839867D01*
X203303494Y-49839867D02*
X203303494Y-48839867D01*
X203208256Y-48982725D01*
X203113018Y-49077963D01*
X203017780Y-49125582D01*
X204017780Y-49839867D02*
X204017780Y-48839867D01*
X204351114Y-49554153D01*
X204684447Y-48839867D01*
X204684447Y-49839867D01*
X205684447Y-49839867D02*
X205113018Y-49839867D01*
X205398733Y-49839867D02*
X205398733Y-48839867D01*
X205303494Y-48982725D01*
X205208256Y-49077963D01*
X205113018Y-49125582D01*
%TO.C,G2R2*%
X199059523Y-68531999D02*
X198964285Y-68484379D01*
X198821428Y-68484379D01*
X198678571Y-68531999D01*
X198583333Y-68627237D01*
X198535714Y-68722475D01*
X198488095Y-68912951D01*
X198488095Y-69055808D01*
X198535714Y-69246284D01*
X198583333Y-69341522D01*
X198678571Y-69436760D01*
X198821428Y-69484379D01*
X198916666Y-69484379D01*
X199059523Y-69436760D01*
X199107142Y-69389141D01*
X199107142Y-69055808D01*
X198916666Y-69055808D01*
X199488095Y-68579618D02*
X199535714Y-68531999D01*
X199630952Y-68484379D01*
X199869047Y-68484379D01*
X199964285Y-68531999D01*
X200011904Y-68579618D01*
X200059523Y-68674856D01*
X200059523Y-68770094D01*
X200011904Y-68912951D01*
X199440476Y-69484379D01*
X200059523Y-69484379D01*
X201059523Y-69484379D02*
X200726190Y-69008189D01*
X200488095Y-69484379D02*
X200488095Y-68484379D01*
X200869047Y-68484379D01*
X200964285Y-68531999D01*
X201011904Y-68579618D01*
X201059523Y-68674856D01*
X201059523Y-68817713D01*
X201011904Y-68912951D01*
X200964285Y-68960570D01*
X200869047Y-69008189D01*
X200488095Y-69008189D01*
X201440476Y-68579618D02*
X201488095Y-68531999D01*
X201583333Y-68484379D01*
X201821428Y-68484379D01*
X201916666Y-68531999D01*
X201964285Y-68579618D01*
X202011904Y-68674856D01*
X202011904Y-68770094D01*
X201964285Y-68912951D01*
X201392857Y-69484379D01*
X202011904Y-69484379D01*
%TO.C,G2L1*%
X202204761Y-81877999D02*
X202109523Y-81830379D01*
X201966666Y-81830379D01*
X201823809Y-81877999D01*
X201728571Y-81973237D01*
X201680952Y-82068475D01*
X201633333Y-82258951D01*
X201633333Y-82401808D01*
X201680952Y-82592284D01*
X201728571Y-82687522D01*
X201823809Y-82782760D01*
X201966666Y-82830379D01*
X202061904Y-82830379D01*
X202204761Y-82782760D01*
X202252380Y-82735141D01*
X202252380Y-82401808D01*
X202061904Y-82401808D01*
X202633333Y-81925618D02*
X202680952Y-81877999D01*
X202776190Y-81830379D01*
X203014285Y-81830379D01*
X203109523Y-81877999D01*
X203157142Y-81925618D01*
X203204761Y-82020856D01*
X203204761Y-82116094D01*
X203157142Y-82258951D01*
X202585714Y-82830379D01*
X203204761Y-82830379D01*
X204109523Y-82830379D02*
X203633333Y-82830379D01*
X203633333Y-81830379D01*
X204966666Y-82830379D02*
X204395238Y-82830379D01*
X204680952Y-82830379D02*
X204680952Y-81830379D01*
X204585714Y-81973237D01*
X204490476Y-82068475D01*
X204395238Y-82116094D01*
%TO.C,C3*%
X172833333Y-70557142D02*
X172785714Y-70604761D01*
X172642857Y-70652380D01*
X172547619Y-70652380D01*
X172404761Y-70604761D01*
X172309523Y-70509523D01*
X172261904Y-70414285D01*
X172214285Y-70223809D01*
X172214285Y-70080952D01*
X172261904Y-69890476D01*
X172309523Y-69795238D01*
X172404761Y-69700000D01*
X172547619Y-69652380D01*
X172642857Y-69652380D01*
X172785714Y-69700000D01*
X172833333Y-69747619D01*
X173166666Y-69652380D02*
X173785714Y-69652380D01*
X173452380Y-70033333D01*
X173595238Y-70033333D01*
X173690476Y-70080952D01*
X173738095Y-70128571D01*
X173785714Y-70223809D01*
X173785714Y-70461904D01*
X173738095Y-70557142D01*
X173690476Y-70604761D01*
X173595238Y-70652380D01*
X173309523Y-70652380D01*
X173214285Y-70604761D01*
X173166666Y-70557142D01*
%TO.C,R6*%
X145833333Y-81232380D02*
X145500000Y-80756190D01*
X145261904Y-81232380D02*
X145261904Y-80232380D01*
X145642857Y-80232380D01*
X145738095Y-80280000D01*
X145785714Y-80327619D01*
X145833333Y-80422857D01*
X145833333Y-80565714D01*
X145785714Y-80660952D01*
X145738095Y-80708571D01*
X145642857Y-80756190D01*
X145261904Y-80756190D01*
X146690476Y-80232380D02*
X146500000Y-80232380D01*
X146404761Y-80280000D01*
X146357142Y-80327619D01*
X146261904Y-80470476D01*
X146214285Y-80660952D01*
X146214285Y-81041904D01*
X146261904Y-81137142D01*
X146309523Y-81184761D01*
X146404761Y-81232380D01*
X146595238Y-81232380D01*
X146690476Y-81184761D01*
X146738095Y-81137142D01*
X146785714Y-81041904D01*
X146785714Y-80803809D01*
X146738095Y-80708571D01*
X146690476Y-80660952D01*
X146595238Y-80613333D01*
X146404761Y-80613333D01*
X146309523Y-80660952D01*
X146261904Y-80708571D01*
X146214285Y-80803809D01*
%TO.C,U1*%
X126547380Y-101951904D02*
X127356904Y-101951904D01*
X127452142Y-101904285D01*
X127499761Y-101856666D01*
X127547380Y-101761428D01*
X127547380Y-101570952D01*
X127499761Y-101475714D01*
X127452142Y-101428095D01*
X127356904Y-101380476D01*
X126547380Y-101380476D01*
X127547380Y-100380476D02*
X127547380Y-100951904D01*
X127547380Y-100666190D02*
X126547380Y-100666190D01*
X126690238Y-100761428D01*
X126785476Y-100856666D01*
X126833095Y-100951904D01*
%TO.C,C16*%
X124857142Y-101157142D02*
X124809523Y-101204761D01*
X124666666Y-101252380D01*
X124571428Y-101252380D01*
X124428571Y-101204761D01*
X124333333Y-101109523D01*
X124285714Y-101014285D01*
X124238095Y-100823809D01*
X124238095Y-100680952D01*
X124285714Y-100490476D01*
X124333333Y-100395238D01*
X124428571Y-100300000D01*
X124571428Y-100252380D01*
X124666666Y-100252380D01*
X124809523Y-100300000D01*
X124857142Y-100347619D01*
X125809523Y-101252380D02*
X125238095Y-101252380D01*
X125523809Y-101252380D02*
X125523809Y-100252380D01*
X125428571Y-100395238D01*
X125333333Y-100490476D01*
X125238095Y-100538095D01*
X126666666Y-100252380D02*
X126476190Y-100252380D01*
X126380952Y-100300000D01*
X126333333Y-100347619D01*
X126238095Y-100490476D01*
X126190476Y-100680952D01*
X126190476Y-101061904D01*
X126238095Y-101157142D01*
X126285714Y-101204761D01*
X126380952Y-101252380D01*
X126571428Y-101252380D01*
X126666666Y-101204761D01*
X126714285Y-101157142D01*
X126761904Y-101061904D01*
X126761904Y-100823809D01*
X126714285Y-100728571D01*
X126666666Y-100680952D01*
X126571428Y-100633333D01*
X126380952Y-100633333D01*
X126285714Y-100680952D01*
X126238095Y-100728571D01*
X126190476Y-100823809D01*
D13*
%TO.C,U6*%
X191760000Y-126360000D02*
X171320000Y-126360000D01*
X171320000Y-126360000D02*
X171320000Y-131660000D01*
X171320000Y-131660000D02*
X191760000Y-131660000D01*
X191760000Y-131660000D02*
X191760000Y-130010000D01*
X191760000Y-128010000D02*
X191760000Y-126360000D01*
X191760000Y-128010000D02*
G75*
G03*
X191760000Y-130010000I0J-1000000D01*
G01*
%TO.C,C12*%
X196360000Y-130711252D02*
X196360000Y-129288748D01*
X193640000Y-130711252D02*
X193640000Y-129288748D01*
%TO.C,U5*%
X169395000Y-60590000D02*
X169395000Y-65890000D01*
X189835000Y-60590000D02*
X169395000Y-60590000D01*
X189835000Y-62240000D02*
X189835000Y-60590000D01*
X189835000Y-65890000D02*
X189835000Y-64240000D01*
X169395000Y-65890000D02*
X189835000Y-65890000D01*
X189835000Y-62240000D02*
G75*
G03*
X189835000Y-64240000I0J-1000000D01*
G01*
%TO.C,RailB1*%
X147755001Y-115537499D02*
X147755001Y-118437499D01*
X144855001Y-115537499D02*
X147755001Y-115537499D01*
X144855001Y-118437499D02*
X144855001Y-115537499D01*
X147755001Y-118437499D02*
X144855001Y-118437499D01*
%TO.C,C2*%
X192640000Y-117211252D02*
X192640000Y-115788748D01*
X195360000Y-117211252D02*
X195360000Y-115788748D01*
%TO.C,G4L1*%
X204650000Y-133050000D02*
X204650000Y-135950000D01*
X201750000Y-135950000D02*
X201750000Y-133050000D01*
X201750000Y-133050000D02*
X204650000Y-133050000D01*
X204650000Y-135950000D02*
X201750000Y-135950000D01*
%TO.C,G2L2*%
X201750000Y-81780000D02*
X198850000Y-81780000D01*
X201750000Y-78880000D02*
X201750000Y-81780000D01*
X198850000Y-78880000D02*
X201750000Y-78880000D01*
X198850000Y-81780000D02*
X198850000Y-78880000D01*
%TO.C,G1L1*%
X202050000Y-53880000D02*
X204950000Y-53880000D01*
X204950000Y-53880000D02*
X204950000Y-56780000D01*
X204950000Y-56780000D02*
X202050000Y-56780000D01*
X202050000Y-56780000D02*
X202050000Y-53880000D01*
%TO.C,C10*%
X173288748Y-106360000D02*
X174711252Y-106360000D01*
X173288748Y-103640000D02*
X174711252Y-103640000D01*
%TO.C,G1M2*%
X201950000Y-52280000D02*
X199050000Y-52280000D01*
X199050000Y-52280000D02*
X199050000Y-49380000D01*
X201950000Y-49380000D02*
X201950000Y-52280000D01*
X199050000Y-49380000D02*
X201950000Y-49380000D01*
%TO.C,R1*%
X110776263Y-79855000D02*
X112223737Y-79855000D01*
X110776263Y-77145000D02*
X112223737Y-77145000D01*
%TO.C,G4R2*%
X201650000Y-126950000D02*
X198750000Y-126950000D01*
X198750000Y-126950000D02*
X198750000Y-124050000D01*
X198750000Y-124050000D02*
X201650000Y-124050000D01*
X201650000Y-124050000D02*
X201650000Y-126950000D01*
D14*
%TO.C,PS1*%
X149750000Y-74712500D02*
X149750000Y-52712500D01*
X159250000Y-74712500D02*
X149750000Y-74712500D01*
X159250000Y-52712500D02*
X159250000Y-74712500D01*
X149750000Y-52712500D02*
X159250000Y-52712500D01*
D15*
X156650000Y-52012500D02*
G75*
G03*
X156650000Y-52012500I-100000J0D01*
G01*
D13*
%TO.C,CCW*%
X114750000Y-87040000D02*
X109540000Y-87040000D01*
X109540000Y-87040000D02*
X109540000Y-90960000D01*
X109540000Y-90960000D02*
X114750000Y-90960000D01*
%TO.C,U4*%
X189935000Y-47040000D02*
X189935000Y-45390000D01*
X189935000Y-50690000D02*
X189935000Y-49040000D01*
X169495000Y-45390000D02*
X169495000Y-50690000D01*
X189935000Y-45390000D02*
X169495000Y-45390000D01*
X169495000Y-50690000D02*
X189935000Y-50690000D01*
X189935000Y-47040000D02*
G75*
G03*
X189935000Y-49040000I0J-1000000D01*
G01*
%TO.C,U7*%
X190935000Y-98390000D02*
X190935000Y-96740000D01*
X190935000Y-94740000D02*
X190935000Y-93090000D01*
X170495000Y-98390000D02*
X190935000Y-98390000D01*
X170495000Y-93090000D02*
X170495000Y-98390000D01*
X190935000Y-93090000D02*
X170495000Y-93090000D01*
X190935000Y-94740000D02*
G75*
G03*
X190935000Y-96740000I0J-1000000D01*
G01*
%TO.C,RailB2*%
X144855001Y-118537499D02*
X147755001Y-118537499D01*
X147755001Y-118537499D02*
X147755001Y-121437499D01*
X147755001Y-121437499D02*
X144855001Y-121437499D01*
X144855001Y-121437499D02*
X144855001Y-118537499D01*
%TO.C,C13*%
X171788748Y-54640000D02*
X173211252Y-54640000D01*
X171788748Y-57360000D02*
X173211252Y-57360000D01*
%TO.C,G4R1*%
X201750000Y-124050000D02*
X204650000Y-124050000D01*
X201750000Y-126950000D02*
X201750000Y-124050000D01*
X204650000Y-126950000D02*
X201750000Y-126950000D01*
X204650000Y-124050000D02*
X204650000Y-126950000D01*
%TO.C,RailA2*%
X138805001Y-121387499D02*
X135905001Y-121387499D01*
X135905001Y-121387499D02*
X135905001Y-118487499D01*
X135905001Y-118487499D02*
X138805001Y-118487499D01*
X138805001Y-118487499D02*
X138805001Y-121387499D01*
D15*
%TO.C,J1*%
X149850000Y-34409500D02*
X158850000Y-34409500D01*
X149850000Y-41659500D02*
X149850000Y-34409500D01*
X158850000Y-34409500D02*
X158850000Y-48909500D01*
X153853000Y-51276500D02*
G75*
G03*
X153853000Y-51276500I-64000J0D01*
G01*
D13*
%TO.C,R2*%
X114276263Y-95355000D02*
X115723737Y-95355000D01*
X114276263Y-92645000D02*
X115723737Y-92645000D01*
%TO.C,R7*%
X146855000Y-89776263D02*
X146855000Y-91223737D01*
X144145000Y-89776263D02*
X144145000Y-91223737D01*
%TO.C,Q1*%
X162781000Y-92565000D02*
X162781000Y-94075000D01*
X159080000Y-92565000D02*
X159080000Y-94075000D01*
X155810000Y-92565000D02*
X155810000Y-97206000D01*
X155810000Y-94075000D02*
X166050000Y-94075000D01*
X155810000Y-97206000D02*
X166050000Y-97206000D01*
X155810000Y-92565000D02*
X166050000Y-92565000D01*
X166050000Y-92565000D02*
X166050000Y-97206000D01*
%TO.C,G2M2*%
X198850000Y-77280000D02*
X198850000Y-74380000D01*
X198850000Y-74380000D02*
X201750000Y-74380000D01*
X201750000Y-74380000D02*
X201750000Y-77280000D01*
X201750000Y-77280000D02*
X198850000Y-77280000D01*
%TO.C,C4*%
X161640000Y-67788748D02*
X161640000Y-69211252D01*
X164360000Y-67788748D02*
X164360000Y-69211252D01*
%TO.C,G3L2*%
X201850000Y-107780000D02*
X201850000Y-110680000D01*
X198950000Y-110680000D02*
X198950000Y-107780000D01*
X201850000Y-110680000D02*
X198950000Y-110680000D01*
X198950000Y-107780000D02*
X201850000Y-107780000D01*
%TO.C,G3M2*%
X198950000Y-103280000D02*
X201850000Y-103280000D01*
X201850000Y-106180000D02*
X198950000Y-106180000D01*
X198950000Y-106180000D02*
X198950000Y-103280000D01*
X201850000Y-103280000D02*
X201850000Y-106180000D01*
%TO.C,G1L2*%
X201950000Y-53880000D02*
X201950000Y-56780000D01*
X201950000Y-56780000D02*
X199050000Y-56780000D01*
X199050000Y-56780000D02*
X199050000Y-53880000D01*
X199050000Y-53880000D02*
X201950000Y-53880000D01*
%TO.C,R4*%
X112145000Y-65276263D02*
X112145000Y-66723737D01*
X114855000Y-65276263D02*
X114855000Y-66723737D01*
%TO.C,C5*%
X192140000Y-80711252D02*
X192140000Y-79288748D01*
X194860000Y-80711252D02*
X194860000Y-79288748D01*
%TO.C,C1*%
X164860000Y-54211252D02*
X164860000Y-52788748D01*
X162140000Y-54211252D02*
X162140000Y-52788748D01*
%TO.C,G4M2*%
X198750000Y-131450000D02*
X198750000Y-128550000D01*
X198750000Y-128550000D02*
X201650000Y-128550000D01*
X201650000Y-128550000D02*
X201650000Y-131450000D01*
X201650000Y-131450000D02*
X198750000Y-131450000D01*
%TO.C,Track 1*%
X109040000Y-46540000D02*
X109040000Y-50460000D01*
X109040000Y-50460000D02*
X114250000Y-50460000D01*
X114250000Y-46540000D02*
X109040000Y-46540000D01*
%TO.C,U3*%
X190735000Y-82090000D02*
X190735000Y-80440000D01*
X170295000Y-76790000D02*
X170295000Y-82090000D01*
X190735000Y-78440000D02*
X190735000Y-76790000D01*
X170295000Y-82090000D02*
X190735000Y-82090000D01*
X190735000Y-76790000D02*
X170295000Y-76790000D01*
X190735000Y-78440000D02*
G75*
G03*
X190735000Y-80440000I0J-1000000D01*
G01*
%TO.C,C9*%
X171288748Y-40140000D02*
X172711252Y-40140000D01*
X171288748Y-42860000D02*
X172711252Y-42860000D01*
%TO.C,R5*%
X108645000Y-69723737D02*
X108645000Y-68276263D01*
X111355000Y-69723737D02*
X111355000Y-68276263D01*
%TO.C,T3*%
X109040000Y-75960000D02*
X114250000Y-75960000D01*
X109040000Y-72040000D02*
X109040000Y-75960000D01*
X114250000Y-72040000D02*
X109040000Y-72040000D01*
%TO.C,G3M1*%
X201950000Y-106180000D02*
X201950000Y-103280000D01*
X201950000Y-103280000D02*
X204850000Y-103280000D01*
X204850000Y-103280000D02*
X204850000Y-106180000D01*
X204850000Y-106180000D02*
X201950000Y-106180000D01*
%TO.C,G1R2*%
X205000000Y-47780000D02*
X202100000Y-47780000D01*
X202100000Y-47780000D02*
X202100000Y-44880000D01*
X202100000Y-44880000D02*
X205000000Y-44880000D01*
X205000000Y-44880000D02*
X205000000Y-47780000D01*
%TO.C,C14*%
X172288748Y-90360000D02*
X173711252Y-90360000D01*
X172288748Y-87640000D02*
X173711252Y-87640000D01*
%TO.C,C8*%
X173388748Y-122910000D02*
X174811252Y-122910000D01*
X173388748Y-120190000D02*
X174811252Y-120190000D01*
%TO.C,G3R1*%
X201950000Y-101680000D02*
X201950000Y-98780000D01*
X201950000Y-98780000D02*
X204850000Y-98780000D01*
X204850000Y-101680000D02*
X201950000Y-101680000D01*
X204850000Y-98780000D02*
X204850000Y-101680000D01*
%TO.C,G3L1*%
X201950000Y-107780000D02*
X204850000Y-107780000D01*
X201950000Y-110680000D02*
X201950000Y-107780000D01*
X204850000Y-110680000D02*
X201950000Y-110680000D01*
X204850000Y-107780000D02*
X204850000Y-110680000D01*
%TO.C,U8*%
X170765000Y-109360000D02*
X170765000Y-114660000D01*
X170765000Y-114660000D02*
X191205000Y-114660000D01*
X191205000Y-109360000D02*
X170765000Y-109360000D01*
X191205000Y-111010000D02*
X191205000Y-109360000D01*
X191205000Y-114660000D02*
X191205000Y-113010000D01*
X191205000Y-111010000D02*
G75*
G03*
X191205000Y-113010000I0J-1000000D01*
G01*
%TO.C,CW*%
X109540000Y-85460000D02*
X114750000Y-85460000D01*
X109540000Y-81540000D02*
X109540000Y-85460000D01*
X114750000Y-81540000D02*
X109540000Y-81540000D01*
%TO.C,RailA1*%
X138855001Y-115387499D02*
X138855001Y-118287499D01*
X138855001Y-118287499D02*
X135955001Y-118287499D01*
X135955001Y-118287499D02*
X135955001Y-115387499D01*
X135955001Y-115387499D02*
X138855001Y-115387499D01*
%TO.C,Track 2*%
X109040000Y-62460000D02*
X114250000Y-62460000D01*
X109040000Y-58540000D02*
X109040000Y-62460000D01*
X114250000Y-58540000D02*
X109040000Y-58540000D01*
%TO.C,G1R1*%
X201950000Y-47780000D02*
X199050000Y-47780000D01*
X199050000Y-44880000D02*
X201950000Y-44880000D01*
X199050000Y-47780000D02*
X199050000Y-44880000D01*
X201950000Y-44880000D02*
X201950000Y-47780000D01*
%TO.C,G2M1*%
X201850000Y-77280000D02*
X201850000Y-74380000D01*
X204750000Y-74380000D02*
X204750000Y-77280000D01*
X201850000Y-74380000D02*
X204750000Y-74380000D01*
X204750000Y-77280000D02*
X201850000Y-77280000D01*
%TO.C,C6*%
X194860000Y-98711252D02*
X194860000Y-97288748D01*
X192140000Y-98711252D02*
X192140000Y-97288748D01*
%TO.C,C15*%
X151140000Y-104211252D02*
X151140000Y-102788748D01*
X153860000Y-104211252D02*
X153860000Y-102788748D01*
%TO.C,G4M1*%
X204650000Y-128550000D02*
X204650000Y-131450000D01*
X201750000Y-128550000D02*
X204650000Y-128550000D01*
X201750000Y-131450000D02*
X201750000Y-128550000D01*
X204650000Y-131450000D02*
X201750000Y-131450000D01*
%TO.C,G2R1*%
X201800000Y-69830000D02*
X204700000Y-69830000D01*
X201800000Y-72730000D02*
X201800000Y-69830000D01*
X204700000Y-72730000D02*
X201800000Y-72730000D01*
X204700000Y-69830000D02*
X204700000Y-72730000D01*
%TO.C,C11*%
X193360000Y-65711252D02*
X193360000Y-64288748D01*
X190640000Y-65711252D02*
X190640000Y-64288748D01*
%TO.C,T4*%
X148460000Y-72040000D02*
X143250000Y-72040000D01*
X143250000Y-75960000D02*
X148460000Y-75960000D01*
X148460000Y-75960000D02*
X148460000Y-72040000D01*
%TO.C,U2*%
X118900000Y-77500000D02*
X118900000Y-77900000D01*
X125700000Y-90500000D02*
X118900000Y-90500000D01*
X139900000Y-67300000D02*
X139900000Y-67700000D01*
X139900000Y-52100000D02*
X139900000Y-52500000D01*
X121907000Y-42167000D02*
X121907000Y-39500000D01*
X118900000Y-87700000D02*
X118900000Y-88100000D01*
X118900000Y-67300000D02*
X118900000Y-67700000D01*
X118900000Y-62300000D02*
X118900000Y-62700000D01*
X118900000Y-49600000D02*
X118900000Y-50000000D01*
X139900000Y-82600000D02*
X139900000Y-83000000D01*
X139900000Y-44500000D02*
X139900000Y-44900000D01*
X130500000Y-90500000D02*
X130900000Y-90500000D01*
X139900000Y-69900000D02*
X139900000Y-70300000D01*
X139900000Y-72400000D02*
X139900000Y-72800000D01*
X139900000Y-75000000D02*
X139900000Y-75400000D01*
X139900000Y-62300000D02*
X139900000Y-62700000D01*
X118900000Y-42167000D02*
X121907000Y-42167000D01*
X118900000Y-75000000D02*
X118900000Y-75400000D01*
X139900000Y-85100000D02*
X139900000Y-85500000D01*
X139900000Y-49600000D02*
X139900000Y-50000000D01*
X118900000Y-47000000D02*
X118900000Y-47400000D01*
X118900000Y-54600000D02*
X118900000Y-55000000D01*
X118900000Y-41900000D02*
X118900000Y-42300000D01*
X118900000Y-57200000D02*
X118900000Y-57600000D01*
X118900000Y-80100000D02*
X118900000Y-80500000D01*
X139900000Y-54600000D02*
X139900000Y-55000000D01*
X118900000Y-44500000D02*
X118900000Y-44900000D01*
X118900000Y-64800000D02*
X118900000Y-65200000D01*
X118900000Y-85100000D02*
X118900000Y-85500000D01*
X139900000Y-47000000D02*
X139900000Y-47400000D01*
X139900000Y-59700000D02*
X139900000Y-60100000D01*
X118900000Y-39500000D02*
X139900000Y-39500000D01*
X127900000Y-90500000D02*
X128300000Y-90500000D01*
X139900000Y-39500000D02*
X139900000Y-39800000D01*
X139900000Y-57200000D02*
X139900000Y-57600000D01*
X139900000Y-77500000D02*
X139900000Y-77900000D01*
X118900000Y-72400000D02*
X118900000Y-72800000D01*
X139900000Y-41900000D02*
X139900000Y-42300000D01*
X118900000Y-69900000D02*
X118900000Y-70300000D01*
X139900000Y-64800000D02*
X139900000Y-65200000D01*
X118900000Y-52100000D02*
X118900000Y-52500000D01*
X118900000Y-82600000D02*
X118900000Y-83000000D01*
X139900000Y-90500000D02*
X133100000Y-90500000D01*
X118900000Y-39500000D02*
X118900000Y-39800000D01*
X139900000Y-80100000D02*
X139900000Y-80500000D01*
X118900000Y-59700000D02*
X118900000Y-60100000D01*
X139900000Y-87700000D02*
X139900000Y-88100000D01*
%TO.C,R3*%
X111276263Y-53145000D02*
X112723737Y-53145000D01*
X111276263Y-55855000D02*
X112723737Y-55855000D01*
%TO.C,C7*%
X191270000Y-49711252D02*
X191270000Y-48288748D01*
X193990000Y-49711252D02*
X193990000Y-48288748D01*
%TO.C,G3R2*%
X198950000Y-101680000D02*
X198950000Y-98780000D01*
X198950000Y-98780000D02*
X201850000Y-98780000D01*
X201850000Y-98780000D02*
X201850000Y-101680000D01*
X201850000Y-101680000D02*
X198950000Y-101680000D01*
%TO.C,G4L2*%
X201650000Y-136000000D02*
X198750000Y-136000000D01*
X198750000Y-136000000D02*
X198750000Y-133100000D01*
X198750000Y-133100000D02*
X201650000Y-133100000D01*
X201650000Y-133100000D02*
X201650000Y-136000000D01*
%TO.C,G1M1*%
X202050000Y-52330000D02*
X202050000Y-49430000D01*
X202050000Y-49430000D02*
X204950000Y-49430000D01*
X204950000Y-52330000D02*
X202050000Y-52330000D01*
X204950000Y-49430000D02*
X204950000Y-52330000D01*
%TO.C,G2R2*%
X198800000Y-69830000D02*
X201700000Y-69830000D01*
X201700000Y-69830000D02*
X201700000Y-72730000D01*
X198800000Y-72730000D02*
X198800000Y-69830000D01*
X201700000Y-72730000D02*
X198800000Y-72730000D01*
%TO.C,G2L1*%
X201850000Y-81780000D02*
X201850000Y-78880000D01*
X204750000Y-81780000D02*
X201850000Y-81780000D01*
X204750000Y-78880000D02*
X204750000Y-81780000D01*
X201850000Y-78880000D02*
X204750000Y-78880000D01*
%TO.C,C3*%
X172288748Y-73860000D02*
X173711252Y-73860000D01*
X172288748Y-71140000D02*
X173711252Y-71140000D01*
%TO.C,R6*%
X146723737Y-77145000D02*
X145276263Y-77145000D01*
X146723737Y-79855000D02*
X145276263Y-79855000D01*
%TO.C,U1*%
X128095000Y-103840000D02*
X148535000Y-103840000D01*
X128095000Y-98540000D02*
X128095000Y-100190000D01*
X148535000Y-103840000D02*
X148535000Y-98540000D01*
X148535000Y-98540000D02*
X128095000Y-98540000D01*
X128095000Y-102190000D02*
X128095000Y-103840000D01*
X128095000Y-102190000D02*
G75*
G03*
X128095000Y-100190000I0J1000000D01*
G01*
%TO.C,C16*%
X126211252Y-97140000D02*
X124788748Y-97140000D01*
X126211252Y-99860000D02*
X124788748Y-99860000D01*
%TD*%
M02*
