%TF.GenerationSoftware,KiCad,Pcbnew,(6.0.7)*%
%TF.CreationDate,2023-04-21T16:09:56-05:00*%
%TF.ProjectId,RevisedControlBoard,52657669-7365-4644-936f-6e74726f6c42,rev?*%
%TF.SameCoordinates,Original*%
%TF.FileFunction,Drillmap*%
%TF.FilePolarity,Positive*%
%FSLAX45Y45*%
G04 Gerber Fmt 4.5, Leading zero omitted, Abs format (unit mm)*
G04 Created by KiCad (PCBNEW (6.0.7)) date 2023-04-21 16:09:56*
%MOMM*%
%LPD*%
G01*
G04 APERTURE LIST*
%ADD10C,0.100000*%
%ADD11C,0.200000*%
%ADD12C,0.040000*%
%ADD13C,0.080000*%
%ADD14C,0.110000*%
%ADD15C,0.320000*%
G04 APERTURE END LIST*
D10*
X19690000Y-10173000D02*
X19690000Y-10323000D01*
X19672000Y-7883000D02*
X20472000Y-7883000D01*
X17777000Y-4152000D02*
X19367000Y-4150000D01*
X20490000Y-9873000D02*
X20490000Y-10173000D01*
X13580500Y-12148750D02*
X13880500Y-12148750D01*
X20472000Y-12850000D02*
X20472000Y-13150000D01*
X13580500Y-11348750D02*
X13582500Y-11048750D01*
X19672000Y-12400000D02*
X20472000Y-12400000D01*
X16400000Y-11050000D02*
X14780000Y-11051250D01*
X19700000Y-4483000D02*
X20500000Y-4483000D01*
X19672000Y-6283000D02*
X19672000Y-6983000D01*
X13582500Y-11048750D02*
X12400000Y-11050000D01*
X19690000Y-9873000D02*
X19670000Y-9873000D01*
X13880000Y-11051250D02*
X14480500Y-11051250D01*
X20490000Y-10173000D02*
X19690000Y-10173000D01*
X19700000Y-5233000D02*
X19700000Y-5383000D01*
X20472000Y-7883000D02*
X20472000Y-8183000D01*
X14780500Y-12148750D02*
X14780000Y-11051250D01*
X13880500Y-12148750D02*
X13880500Y-11348750D01*
X13580500Y-11348750D02*
X13580500Y-12148750D01*
X16400000Y-11100000D02*
X16400000Y-11050000D01*
X19672000Y-13300000D02*
X20472000Y-13300000D01*
X19672000Y-13150000D02*
X19672000Y-13300000D01*
X20472000Y-12400000D02*
X20472000Y-12700000D01*
X20490000Y-10623000D02*
X19690000Y-10623000D01*
X19690000Y-9873000D02*
X20490000Y-9873000D01*
X14480500Y-11348750D02*
X14480500Y-12148750D01*
X20472000Y-7433000D02*
X20472000Y-7733000D01*
X19672000Y-7283000D02*
X19672000Y-7433000D01*
X19690000Y-10773000D02*
X20490000Y-10773000D01*
X11350000Y-3830000D02*
X17350000Y-3820000D01*
X10810000Y-4300000D02*
X10800000Y-9400000D01*
X20472000Y-7733000D02*
X19672000Y-7733000D01*
X20500000Y-4783000D02*
X19700000Y-4783000D01*
X20500000Y-5233000D02*
X19700000Y-5233000D01*
X19672000Y-6983000D02*
X20472000Y-6983000D01*
X19672000Y-8183000D02*
X19670000Y-9873000D01*
X19690000Y-10323000D02*
X20490000Y-10323000D01*
X19700000Y-5383000D02*
X20500000Y-5383000D01*
X19700000Y-4783000D02*
X19700000Y-4933000D01*
X13880500Y-11348750D02*
X13880000Y-11051250D01*
X20472000Y-13300000D02*
X20472000Y-13600000D01*
X19672000Y-7733000D02*
X19672000Y-7883000D01*
X20472000Y-12700000D02*
X19672000Y-12700000D01*
X17350000Y-3820000D02*
X17777000Y-4152000D01*
X19700000Y-4933000D02*
X20500000Y-4933000D01*
X14480500Y-12148750D02*
X14780500Y-12148750D01*
X20490000Y-11073000D02*
X19690000Y-11073000D01*
X20500000Y-5683000D02*
X19700000Y-5683000D01*
X20500000Y-5383000D02*
X20500000Y-5683000D01*
X14480500Y-11051250D02*
X14480500Y-11348750D01*
X20472000Y-6983000D02*
X20472000Y-7283000D01*
X20472000Y-8183000D02*
X19672000Y-8183000D01*
X20490000Y-10773000D02*
X20490000Y-11073000D01*
X19690000Y-11073000D02*
X19680000Y-11073000D01*
X12400000Y-11050000D02*
X10800000Y-9400000D01*
X19670000Y-5683000D02*
X19700000Y-5683000D01*
X19690000Y-10623000D02*
X19690000Y-10773000D01*
X19700000Y-4483000D02*
X19367000Y-4150000D01*
X16400000Y-13600000D02*
X19672000Y-13600000D01*
X19672000Y-6283000D02*
X19670000Y-5683000D01*
X19672000Y-12850000D02*
X20472000Y-12850000D01*
X19680000Y-11073000D02*
X19672000Y-12400000D01*
X20472000Y-7283000D02*
X19672000Y-7283000D01*
X20500000Y-4933000D02*
X20500000Y-5233000D01*
X20472000Y-13600000D02*
X19672000Y-13600000D01*
X11350000Y-3830000D02*
X10810000Y-4300000D01*
X16400000Y-13600000D02*
X16400000Y-11100000D01*
X19672000Y-7433000D02*
X20472000Y-7433000D01*
X19672000Y-12700000D02*
X19672000Y-12850000D01*
X20500000Y-4483000D02*
X20500000Y-4783000D01*
X20490000Y-10323000D02*
X20490000Y-10623000D01*
X20472000Y-13150000D02*
X19672000Y-13150000D01*
D11*
D12*
X11630000Y-9180000D02*
X11670000Y-9220000D01*
X11670000Y-9180000D02*
X11630000Y-9220000D01*
X12230000Y-4580000D02*
X12270000Y-4620000D01*
X12270000Y-4580000D02*
X12230000Y-4620000D01*
X12230000Y-4830000D02*
X12270000Y-4870000D01*
X12270000Y-4830000D02*
X12230000Y-4870000D01*
X12230000Y-5080000D02*
X12270000Y-5120000D01*
X12270000Y-5080000D02*
X12230000Y-5120000D01*
X12230000Y-5330000D02*
X12270000Y-5370000D01*
X12270000Y-5330000D02*
X12230000Y-5370000D01*
X12230000Y-5580000D02*
X12270000Y-5620000D01*
X12270000Y-5580000D02*
X12230000Y-5620000D01*
X12230000Y-6380000D02*
X12270000Y-6420000D01*
X12270000Y-6380000D02*
X12230000Y-6420000D01*
X12230000Y-6630000D02*
X12270000Y-6670000D01*
X12270000Y-6630000D02*
X12230000Y-6670000D01*
X12230000Y-6880000D02*
X12270000Y-6920000D01*
X12270000Y-6880000D02*
X12230000Y-6920000D01*
X12230000Y-7430000D02*
X12270000Y-7470000D01*
X12270000Y-7430000D02*
X12230000Y-7470000D01*
X12230000Y-7680000D02*
X12270000Y-7720000D01*
X12270000Y-7680000D02*
X12230000Y-7720000D01*
X12230000Y-7930000D02*
X12270000Y-7970000D01*
X12270000Y-7930000D02*
X12230000Y-7970000D01*
X12230000Y-8130000D02*
X12270000Y-8170000D01*
X12270000Y-8130000D02*
X12230000Y-8170000D01*
X12280000Y-5880000D02*
X12320000Y-5920000D01*
X12320000Y-5880000D02*
X12280000Y-5920000D01*
X12280000Y-6130000D02*
X12320000Y-6170000D01*
X12320000Y-6130000D02*
X12280000Y-6170000D01*
X12280000Y-7180000D02*
X12320000Y-7220000D01*
X12320000Y-7180000D02*
X12280000Y-7220000D01*
X12280000Y-8330000D02*
X12320000Y-8370000D01*
X12320000Y-8330000D02*
X12280000Y-8370000D01*
X12430000Y-9830000D02*
X12470000Y-9870000D01*
X12470000Y-9830000D02*
X12430000Y-9870000D01*
X12980000Y-8429950D02*
X13020000Y-8469950D01*
X13020000Y-8429950D02*
X12980000Y-8469950D01*
X13038000Y-8110000D02*
X13078000Y-8150000D01*
X13078000Y-8110000D02*
X13038000Y-8150000D01*
X13052000Y-8682000D02*
X13092000Y-8722000D01*
X13092000Y-8682000D02*
X13052000Y-8722000D01*
X13115000Y-8429950D02*
X13155000Y-8469950D01*
X13155000Y-8429950D02*
X13115000Y-8469950D01*
X13245000Y-8429950D02*
X13285000Y-8469950D01*
X13285000Y-8429950D02*
X13245000Y-8469950D01*
X13330000Y-10780000D02*
X13370000Y-10820000D01*
X13370000Y-10780000D02*
X13330000Y-10820000D01*
X13580000Y-4580000D02*
X13620000Y-4620000D01*
X13620000Y-4580000D02*
X13580000Y-4620000D01*
X13580000Y-7230000D02*
X13620000Y-7270000D01*
X13620000Y-7230000D02*
X13580000Y-7270000D01*
X13667000Y-8110000D02*
X13707000Y-8150000D01*
X13707000Y-8110000D02*
X13667000Y-8150000D01*
X13730000Y-9930000D02*
X13770000Y-9970000D01*
X13770000Y-9930000D02*
X13730000Y-9970000D01*
X13730000Y-10330000D02*
X13770000Y-10370000D01*
X13770000Y-10330000D02*
X13730000Y-10370000D01*
X13880000Y-9930000D02*
X13920000Y-9970000D01*
X13920000Y-9930000D02*
X13880000Y-9970000D01*
X13880000Y-10330000D02*
X13920000Y-10370000D01*
X13920000Y-10330000D02*
X13880000Y-10370000D01*
X14430000Y-9330000D02*
X14470000Y-9370000D01*
X14470000Y-9330000D02*
X14430000Y-9370000D01*
X15330000Y-10030000D02*
X15370000Y-10070000D01*
X15370000Y-10030000D02*
X15330000Y-10070000D01*
X16634000Y-10273000D02*
X16674000Y-10313000D01*
X16674000Y-10273000D02*
X16634000Y-10313000D01*
X16685000Y-6417000D02*
X16725000Y-6457000D01*
X16725000Y-6417000D02*
X16685000Y-6457000D01*
X17430000Y-8080000D02*
X17470000Y-8120000D01*
X17470000Y-8080000D02*
X17430000Y-8120000D01*
X17830000Y-6480000D02*
X17870000Y-6520000D01*
X17870000Y-6480000D02*
X17830000Y-6520000D01*
X17880000Y-4580000D02*
X17920000Y-4620000D01*
X17920000Y-4580000D02*
X17880000Y-4620000D01*
X17880000Y-4930000D02*
X17920000Y-4970000D01*
X17920000Y-4930000D02*
X17880000Y-4970000D01*
X17880000Y-6080000D02*
X17920000Y-6120000D01*
X17920000Y-6080000D02*
X17880000Y-6120000D01*
X17930000Y-7730000D02*
X17970000Y-7770000D01*
X17970000Y-7730000D02*
X17930000Y-7770000D01*
X17930000Y-8130000D02*
X17970000Y-8170000D01*
X17970000Y-8130000D02*
X17930000Y-8170000D01*
X17952000Y-13103000D02*
X17992000Y-13143000D01*
X17992000Y-13103000D02*
X17952000Y-13143000D01*
X17957000Y-12692000D02*
X17997000Y-12732000D01*
X17997000Y-12692000D02*
X17957000Y-12732000D01*
X17980000Y-9330000D02*
X18020000Y-9370000D01*
X18020000Y-9330000D02*
X17980000Y-9370000D01*
X17980000Y-9730000D02*
X18020000Y-9770000D01*
X18020000Y-9730000D02*
X17980000Y-9770000D01*
X17981000Y-10970000D02*
X18021000Y-11010000D01*
X18021000Y-10970000D02*
X17981000Y-11010000D01*
X17992000Y-11410000D02*
X18032000Y-11450000D01*
X18032000Y-11410000D02*
X17992000Y-11450000D01*
X18030000Y-4580000D02*
X18070000Y-4620000D01*
X18070000Y-4580000D02*
X18030000Y-4620000D01*
X18030000Y-4930000D02*
X18070000Y-4970000D01*
X18070000Y-4930000D02*
X18030000Y-4970000D01*
X18030000Y-6080000D02*
X18070000Y-6120000D01*
X18070000Y-6080000D02*
X18030000Y-6120000D01*
X18030000Y-6480000D02*
X18070000Y-6520000D01*
X18070000Y-6480000D02*
X18030000Y-6520000D01*
X18130000Y-7730000D02*
X18170000Y-7770000D01*
X18170000Y-7730000D02*
X18130000Y-7770000D01*
X18130000Y-8130000D02*
X18170000Y-8170000D01*
X18170000Y-8130000D02*
X18130000Y-8170000D01*
X18130000Y-9330000D02*
X18170000Y-9370000D01*
X18170000Y-9330000D02*
X18130000Y-9370000D01*
X18130000Y-9730000D02*
X18170000Y-9770000D01*
X18170000Y-9730000D02*
X18130000Y-9770000D01*
X18145000Y-11418000D02*
X18185000Y-11458000D01*
X18185000Y-11418000D02*
X18145000Y-11458000D01*
X18186000Y-10960000D02*
X18226000Y-11000000D01*
X18226000Y-10960000D02*
X18186000Y-11000000D01*
X18204000Y-13100000D02*
X18244000Y-13140000D01*
X18244000Y-13100000D02*
X18204000Y-13140000D01*
X18215000Y-12676000D02*
X18255000Y-12716000D01*
X18255000Y-12676000D02*
X18215000Y-12716000D01*
X19180000Y-4530000D02*
X19220000Y-4570000D01*
X19220000Y-4530000D02*
X19180000Y-4570000D01*
X19380000Y-9480000D02*
X19420000Y-9520000D01*
X19420000Y-9480000D02*
X19380000Y-9520000D01*
X19437000Y-12715000D02*
X19477000Y-12755000D01*
X19477000Y-12715000D02*
X19437000Y-12755000D01*
X19580000Y-11480000D02*
X19620000Y-11520000D01*
X19620000Y-11480000D02*
X19580000Y-11520000D01*
D13*
X12982500Y-9738000D02*
G75*
G03*
X12982500Y-9738000I-40000J0D01*
G01*
X12982500Y-10500000D02*
G75*
G03*
X12982500Y-10500000I-40000J0D01*
G01*
X13236500Y-9738000D02*
G75*
G03*
X13236500Y-9738000I-40000J0D01*
G01*
X13236500Y-10500000D02*
G75*
G03*
X13236500Y-10500000I-40000J0D01*
G01*
X13490500Y-9738000D02*
G75*
G03*
X13490500Y-9738000I-40000J0D01*
G01*
X13490500Y-10500000D02*
G75*
G03*
X13490500Y-10500000I-40000J0D01*
G01*
X13744500Y-9738000D02*
G75*
G03*
X13744500Y-9738000I-40000J0D01*
G01*
X13744500Y-10500000D02*
G75*
G03*
X13744500Y-10500000I-40000J0D01*
G01*
X13998500Y-9738000D02*
G75*
G03*
X13998500Y-9738000I-40000J0D01*
G01*
X13998500Y-10500000D02*
G75*
G03*
X13998500Y-10500000I-40000J0D01*
G01*
X14252500Y-9738000D02*
G75*
G03*
X14252500Y-9738000I-40000J0D01*
G01*
X14252500Y-10500000D02*
G75*
G03*
X14252500Y-10500000I-40000J0D01*
G01*
X14506500Y-9738000D02*
G75*
G03*
X14506500Y-9738000I-40000J0D01*
G01*
X14506500Y-10500000D02*
G75*
G03*
X14506500Y-10500000I-40000J0D01*
G01*
X14760500Y-9738000D02*
G75*
G03*
X14760500Y-9738000I-40000J0D01*
G01*
X14760500Y-10500000D02*
G75*
G03*
X14760500Y-10500000I-40000J0D01*
G01*
X17112500Y-5943000D02*
G75*
G03*
X17112500Y-5943000I-40000J0D01*
G01*
X17112500Y-6705000D02*
G75*
G03*
X17112500Y-6705000I-40000J0D01*
G01*
X17122500Y-4423000D02*
G75*
G03*
X17122500Y-4423000I-40000J0D01*
G01*
X17122500Y-5185000D02*
G75*
G03*
X17122500Y-5185000I-40000J0D01*
G01*
X17202500Y-7563000D02*
G75*
G03*
X17202500Y-7563000I-40000J0D01*
G01*
X17202500Y-8325000D02*
G75*
G03*
X17202500Y-8325000I-40000J0D01*
G01*
X17222500Y-9193000D02*
G75*
G03*
X17222500Y-9193000I-40000J0D01*
G01*
X17222500Y-9955000D02*
G75*
G03*
X17222500Y-9955000I-40000J0D01*
G01*
X17249500Y-10820000D02*
G75*
G03*
X17249500Y-10820000I-40000J0D01*
G01*
X17249500Y-11582000D02*
G75*
G03*
X17249500Y-11582000I-40000J0D01*
G01*
X17305000Y-12520000D02*
G75*
G03*
X17305000Y-12520000I-40000J0D01*
G01*
X17305000Y-13282000D02*
G75*
G03*
X17305000Y-13282000I-40000J0D01*
G01*
X17366500Y-5943000D02*
G75*
G03*
X17366500Y-5943000I-40000J0D01*
G01*
X17366500Y-6705000D02*
G75*
G03*
X17366500Y-6705000I-40000J0D01*
G01*
X17376500Y-4423000D02*
G75*
G03*
X17376500Y-4423000I-40000J0D01*
G01*
X17376500Y-5185000D02*
G75*
G03*
X17376500Y-5185000I-40000J0D01*
G01*
X17456500Y-7563000D02*
G75*
G03*
X17456500Y-7563000I-40000J0D01*
G01*
X17456500Y-8325000D02*
G75*
G03*
X17456500Y-8325000I-40000J0D01*
G01*
X17476500Y-9193000D02*
G75*
G03*
X17476500Y-9193000I-40000J0D01*
G01*
X17476500Y-9955000D02*
G75*
G03*
X17476500Y-9955000I-40000J0D01*
G01*
X17503500Y-10820000D02*
G75*
G03*
X17503500Y-10820000I-40000J0D01*
G01*
X17503500Y-11582000D02*
G75*
G03*
X17503500Y-11582000I-40000J0D01*
G01*
X17559000Y-12520000D02*
G75*
G03*
X17559000Y-12520000I-40000J0D01*
G01*
X17559000Y-13282000D02*
G75*
G03*
X17559000Y-13282000I-40000J0D01*
G01*
X17620500Y-5943000D02*
G75*
G03*
X17620500Y-5943000I-40000J0D01*
G01*
X17620500Y-6705000D02*
G75*
G03*
X17620500Y-6705000I-40000J0D01*
G01*
X17630500Y-4423000D02*
G75*
G03*
X17630500Y-4423000I-40000J0D01*
G01*
X17630500Y-5185000D02*
G75*
G03*
X17630500Y-5185000I-40000J0D01*
G01*
X17710500Y-7563000D02*
G75*
G03*
X17710500Y-7563000I-40000J0D01*
G01*
X17710500Y-8325000D02*
G75*
G03*
X17710500Y-8325000I-40000J0D01*
G01*
X17730500Y-9193000D02*
G75*
G03*
X17730500Y-9193000I-40000J0D01*
G01*
X17730500Y-9955000D02*
G75*
G03*
X17730500Y-9955000I-40000J0D01*
G01*
X17757500Y-10820000D02*
G75*
G03*
X17757500Y-10820000I-40000J0D01*
G01*
X17757500Y-11582000D02*
G75*
G03*
X17757500Y-11582000I-40000J0D01*
G01*
X17813000Y-12520000D02*
G75*
G03*
X17813000Y-12520000I-40000J0D01*
G01*
X17813000Y-13282000D02*
G75*
G03*
X17813000Y-13282000I-40000J0D01*
G01*
X17874500Y-5943000D02*
G75*
G03*
X17874500Y-5943000I-40000J0D01*
G01*
X17874500Y-6705000D02*
G75*
G03*
X17874500Y-6705000I-40000J0D01*
G01*
X17884500Y-4423000D02*
G75*
G03*
X17884500Y-4423000I-40000J0D01*
G01*
X17884500Y-5185000D02*
G75*
G03*
X17884500Y-5185000I-40000J0D01*
G01*
X17964500Y-7563000D02*
G75*
G03*
X17964500Y-7563000I-40000J0D01*
G01*
X17964500Y-8325000D02*
G75*
G03*
X17964500Y-8325000I-40000J0D01*
G01*
X17984500Y-9193000D02*
G75*
G03*
X17984500Y-9193000I-40000J0D01*
G01*
X17984500Y-9955000D02*
G75*
G03*
X17984500Y-9955000I-40000J0D01*
G01*
X18011500Y-10820000D02*
G75*
G03*
X18011500Y-10820000I-40000J0D01*
G01*
X18011500Y-11582000D02*
G75*
G03*
X18011500Y-11582000I-40000J0D01*
G01*
X18067000Y-12520000D02*
G75*
G03*
X18067000Y-12520000I-40000J0D01*
G01*
X18067000Y-13282000D02*
G75*
G03*
X18067000Y-13282000I-40000J0D01*
G01*
X18128500Y-5943000D02*
G75*
G03*
X18128500Y-5943000I-40000J0D01*
G01*
X18128500Y-6705000D02*
G75*
G03*
X18128500Y-6705000I-40000J0D01*
G01*
X18138500Y-4423000D02*
G75*
G03*
X18138500Y-4423000I-40000J0D01*
G01*
X18138500Y-5185000D02*
G75*
G03*
X18138500Y-5185000I-40000J0D01*
G01*
X18218500Y-7563000D02*
G75*
G03*
X18218500Y-7563000I-40000J0D01*
G01*
X18218500Y-8325000D02*
G75*
G03*
X18218500Y-8325000I-40000J0D01*
G01*
X18238500Y-9193000D02*
G75*
G03*
X18238500Y-9193000I-40000J0D01*
G01*
X18238500Y-9955000D02*
G75*
G03*
X18238500Y-9955000I-40000J0D01*
G01*
X18265500Y-10820000D02*
G75*
G03*
X18265500Y-10820000I-40000J0D01*
G01*
X18265500Y-11582000D02*
G75*
G03*
X18265500Y-11582000I-40000J0D01*
G01*
X18321000Y-12520000D02*
G75*
G03*
X18321000Y-12520000I-40000J0D01*
G01*
X18321000Y-13282000D02*
G75*
G03*
X18321000Y-13282000I-40000J0D01*
G01*
X18382500Y-5943000D02*
G75*
G03*
X18382500Y-5943000I-40000J0D01*
G01*
X18382500Y-6705000D02*
G75*
G03*
X18382500Y-6705000I-40000J0D01*
G01*
X18392500Y-4423000D02*
G75*
G03*
X18392500Y-4423000I-40000J0D01*
G01*
X18392500Y-5185000D02*
G75*
G03*
X18392500Y-5185000I-40000J0D01*
G01*
X18472500Y-7563000D02*
G75*
G03*
X18472500Y-7563000I-40000J0D01*
G01*
X18472500Y-8325000D02*
G75*
G03*
X18472500Y-8325000I-40000J0D01*
G01*
X18492500Y-9193000D02*
G75*
G03*
X18492500Y-9193000I-40000J0D01*
G01*
X18492500Y-9955000D02*
G75*
G03*
X18492500Y-9955000I-40000J0D01*
G01*
X18519500Y-10820000D02*
G75*
G03*
X18519500Y-10820000I-40000J0D01*
G01*
X18519500Y-11582000D02*
G75*
G03*
X18519500Y-11582000I-40000J0D01*
G01*
X18575000Y-12520000D02*
G75*
G03*
X18575000Y-12520000I-40000J0D01*
G01*
X18575000Y-13282000D02*
G75*
G03*
X18575000Y-13282000I-40000J0D01*
G01*
X18636500Y-5943000D02*
G75*
G03*
X18636500Y-5943000I-40000J0D01*
G01*
X18636500Y-6705000D02*
G75*
G03*
X18636500Y-6705000I-40000J0D01*
G01*
X18646500Y-4423000D02*
G75*
G03*
X18646500Y-4423000I-40000J0D01*
G01*
X18646500Y-5185000D02*
G75*
G03*
X18646500Y-5185000I-40000J0D01*
G01*
X18726500Y-7563000D02*
G75*
G03*
X18726500Y-7563000I-40000J0D01*
G01*
X18726500Y-8325000D02*
G75*
G03*
X18726500Y-8325000I-40000J0D01*
G01*
X18746500Y-9193000D02*
G75*
G03*
X18746500Y-9193000I-40000J0D01*
G01*
X18746500Y-9955000D02*
G75*
G03*
X18746500Y-9955000I-40000J0D01*
G01*
X18773500Y-10820000D02*
G75*
G03*
X18773500Y-10820000I-40000J0D01*
G01*
X18773500Y-11582000D02*
G75*
G03*
X18773500Y-11582000I-40000J0D01*
G01*
X18829000Y-12520000D02*
G75*
G03*
X18829000Y-12520000I-40000J0D01*
G01*
X18829000Y-13282000D02*
G75*
G03*
X18829000Y-13282000I-40000J0D01*
G01*
X18890500Y-5943000D02*
G75*
G03*
X18890500Y-5943000I-40000J0D01*
G01*
X18890500Y-6705000D02*
G75*
G03*
X18890500Y-6705000I-40000J0D01*
G01*
X18900500Y-4423000D02*
G75*
G03*
X18900500Y-4423000I-40000J0D01*
G01*
X18900500Y-5185000D02*
G75*
G03*
X18900500Y-5185000I-40000J0D01*
G01*
X18980500Y-7563000D02*
G75*
G03*
X18980500Y-7563000I-40000J0D01*
G01*
X18980500Y-8325000D02*
G75*
G03*
X18980500Y-8325000I-40000J0D01*
G01*
X19000500Y-9193000D02*
G75*
G03*
X19000500Y-9193000I-40000J0D01*
G01*
X19000500Y-9955000D02*
G75*
G03*
X19000500Y-9955000I-40000J0D01*
G01*
X19027500Y-10820000D02*
G75*
G03*
X19027500Y-10820000I-40000J0D01*
G01*
X19027500Y-11582000D02*
G75*
G03*
X19027500Y-11582000I-40000J0D01*
G01*
X19083000Y-12520000D02*
G75*
G03*
X19083000Y-12520000I-40000J0D01*
G01*
X19083000Y-13282000D02*
G75*
G03*
X19083000Y-13282000I-40000J0D01*
G01*
D10*
X15655000Y-5432250D02*
X15655000Y-5532250D01*
X15605000Y-5482250D02*
X15705000Y-5482250D01*
X15655000Y-5686250D02*
X15655000Y-5786250D01*
X15605000Y-5736250D02*
X15705000Y-5736250D01*
X15655000Y-5940250D02*
X15655000Y-6040250D01*
X15605000Y-5990250D02*
X15705000Y-5990250D01*
X15655000Y-6448250D02*
X15655000Y-6548250D01*
X15605000Y-6498250D02*
X15705000Y-6498250D01*
X15655000Y-6702250D02*
X15655000Y-6802250D01*
X15605000Y-6752250D02*
X15705000Y-6752250D01*
X15655000Y-6956250D02*
X15655000Y-7056250D01*
X15605000Y-7006250D02*
X15705000Y-7006250D01*
X15655000Y-7210250D02*
X15655000Y-7310250D01*
X15605000Y-7260250D02*
X15705000Y-7260250D01*
D14*
X15877891Y-9622391D02*
X15877891Y-9544609D01*
X15800109Y-9544609D01*
X15800109Y-9622391D01*
X15877891Y-9622391D01*
X16131891Y-9622391D02*
X16131891Y-9544609D01*
X16054109Y-9544609D01*
X16054109Y-9622391D01*
X16131891Y-9622391D01*
X16385891Y-9622391D02*
X16385891Y-9544609D01*
X16308109Y-9544609D01*
X16308109Y-9622391D01*
X16385891Y-9622391D01*
D15*
X14885000Y-4660950D02*
X15045000Y-4500950D01*
X14885000Y-4340950D01*
X14725000Y-4500950D01*
X14885000Y-4660950D01*
X15365000Y-4380950D02*
X15525000Y-4220950D01*
X15365000Y-4060950D01*
X15205000Y-4220950D01*
X15365000Y-4380950D01*
X15365000Y-4960950D02*
X15525000Y-4800950D01*
X15365000Y-4640950D01*
X15205000Y-4800950D01*
X15365000Y-4960950D01*
D11*
X11052619Y-13915476D02*
X11052619Y-13715476D01*
X11100238Y-13715476D01*
X11128810Y-13725000D01*
X11147857Y-13744048D01*
X11157381Y-13763095D01*
X11166905Y-13801190D01*
X11166905Y-13829762D01*
X11157381Y-13867857D01*
X11147857Y-13886905D01*
X11128810Y-13905952D01*
X11100238Y-13915476D01*
X11052619Y-13915476D01*
X11252619Y-13915476D02*
X11252619Y-13782143D01*
X11252619Y-13820238D02*
X11262143Y-13801190D01*
X11271667Y-13791667D01*
X11290714Y-13782143D01*
X11309762Y-13782143D01*
X11376428Y-13915476D02*
X11376428Y-13782143D01*
X11376428Y-13715476D02*
X11366905Y-13725000D01*
X11376428Y-13734524D01*
X11385952Y-13725000D01*
X11376428Y-13715476D01*
X11376428Y-13734524D01*
X11500238Y-13915476D02*
X11481190Y-13905952D01*
X11471667Y-13886905D01*
X11471667Y-13715476D01*
X11605000Y-13915476D02*
X11585952Y-13905952D01*
X11576428Y-13886905D01*
X11576428Y-13715476D01*
X11833571Y-13915476D02*
X11833571Y-13715476D01*
X11900238Y-13858333D01*
X11966905Y-13715476D01*
X11966905Y-13915476D01*
X12147857Y-13915476D02*
X12147857Y-13810714D01*
X12138333Y-13791667D01*
X12119286Y-13782143D01*
X12081190Y-13782143D01*
X12062143Y-13791667D01*
X12147857Y-13905952D02*
X12128809Y-13915476D01*
X12081190Y-13915476D01*
X12062143Y-13905952D01*
X12052619Y-13886905D01*
X12052619Y-13867857D01*
X12062143Y-13848810D01*
X12081190Y-13839286D01*
X12128809Y-13839286D01*
X12147857Y-13829762D01*
X12243095Y-13782143D02*
X12243095Y-13982143D01*
X12243095Y-13791667D02*
X12262143Y-13782143D01*
X12300238Y-13782143D01*
X12319286Y-13791667D01*
X12328809Y-13801190D01*
X12338333Y-13820238D01*
X12338333Y-13877381D01*
X12328809Y-13896429D01*
X12319286Y-13905952D01*
X12300238Y-13915476D01*
X12262143Y-13915476D01*
X12243095Y-13905952D01*
X12424048Y-13896429D02*
X12433571Y-13905952D01*
X12424048Y-13915476D01*
X12414524Y-13905952D01*
X12424048Y-13896429D01*
X12424048Y-13915476D01*
X12424048Y-13791667D02*
X12433571Y-13801190D01*
X12424048Y-13810714D01*
X12414524Y-13801190D01*
X12424048Y-13791667D01*
X12424048Y-13810714D01*
D12*
X10755000Y-14225000D02*
X10795000Y-14265000D01*
X10795000Y-14225000D02*
X10755000Y-14265000D01*
D11*
X11090714Y-14135476D02*
X11109762Y-14135476D01*
X11128810Y-14145000D01*
X11138333Y-14154524D01*
X11147857Y-14173571D01*
X11157381Y-14211667D01*
X11157381Y-14259286D01*
X11147857Y-14297381D01*
X11138333Y-14316429D01*
X11128810Y-14325952D01*
X11109762Y-14335476D01*
X11090714Y-14335476D01*
X11071667Y-14325952D01*
X11062143Y-14316429D01*
X11052619Y-14297381D01*
X11043095Y-14259286D01*
X11043095Y-14211667D01*
X11052619Y-14173571D01*
X11062143Y-14154524D01*
X11071667Y-14145000D01*
X11090714Y-14135476D01*
X11243095Y-14316429D02*
X11252619Y-14325952D01*
X11243095Y-14335476D01*
X11233571Y-14325952D01*
X11243095Y-14316429D01*
X11243095Y-14335476D01*
X11424048Y-14202143D02*
X11424048Y-14335476D01*
X11376428Y-14125952D02*
X11328809Y-14268810D01*
X11452619Y-14268810D01*
X11566905Y-14135476D02*
X11585952Y-14135476D01*
X11605000Y-14145000D01*
X11614524Y-14154524D01*
X11624048Y-14173571D01*
X11633571Y-14211667D01*
X11633571Y-14259286D01*
X11624048Y-14297381D01*
X11614524Y-14316429D01*
X11605000Y-14325952D01*
X11585952Y-14335476D01*
X11566905Y-14335476D01*
X11547857Y-14325952D01*
X11538333Y-14316429D01*
X11528809Y-14297381D01*
X11519286Y-14259286D01*
X11519286Y-14211667D01*
X11528809Y-14173571D01*
X11538333Y-14154524D01*
X11547857Y-14145000D01*
X11566905Y-14135476D01*
X11757381Y-14135476D02*
X11776428Y-14135476D01*
X11795476Y-14145000D01*
X11805000Y-14154524D01*
X11814524Y-14173571D01*
X11824048Y-14211667D01*
X11824048Y-14259286D01*
X11814524Y-14297381D01*
X11805000Y-14316429D01*
X11795476Y-14325952D01*
X11776428Y-14335476D01*
X11757381Y-14335476D01*
X11738333Y-14325952D01*
X11728809Y-14316429D01*
X11719286Y-14297381D01*
X11709762Y-14259286D01*
X11709762Y-14211667D01*
X11719286Y-14173571D01*
X11728809Y-14154524D01*
X11738333Y-14145000D01*
X11757381Y-14135476D01*
X11909762Y-14335476D02*
X11909762Y-14202143D01*
X11909762Y-14221190D02*
X11919286Y-14211667D01*
X11938333Y-14202143D01*
X11966905Y-14202143D01*
X11985952Y-14211667D01*
X11995476Y-14230714D01*
X11995476Y-14335476D01*
X11995476Y-14230714D02*
X12005000Y-14211667D01*
X12024048Y-14202143D01*
X12052619Y-14202143D01*
X12071667Y-14211667D01*
X12081190Y-14230714D01*
X12081190Y-14335476D01*
X12176428Y-14335476D02*
X12176428Y-14202143D01*
X12176428Y-14221190D02*
X12185952Y-14211667D01*
X12205000Y-14202143D01*
X12233571Y-14202143D01*
X12252619Y-14211667D01*
X12262143Y-14230714D01*
X12262143Y-14335476D01*
X12262143Y-14230714D02*
X12271667Y-14211667D01*
X12290714Y-14202143D01*
X12319286Y-14202143D01*
X12338333Y-14211667D01*
X12347857Y-14230714D01*
X12347857Y-14335476D01*
X12738333Y-14125952D02*
X12566905Y-14383095D01*
X12995476Y-14135476D02*
X13014524Y-14135476D01*
X13033571Y-14145000D01*
X13043095Y-14154524D01*
X13052619Y-14173571D01*
X13062143Y-14211667D01*
X13062143Y-14259286D01*
X13052619Y-14297381D01*
X13043095Y-14316429D01*
X13033571Y-14325952D01*
X13014524Y-14335476D01*
X12995476Y-14335476D01*
X12976428Y-14325952D01*
X12966905Y-14316429D01*
X12957381Y-14297381D01*
X12947857Y-14259286D01*
X12947857Y-14211667D01*
X12957381Y-14173571D01*
X12966905Y-14154524D01*
X12976428Y-14145000D01*
X12995476Y-14135476D01*
X13147857Y-14316429D02*
X13157381Y-14325952D01*
X13147857Y-14335476D01*
X13138333Y-14325952D01*
X13147857Y-14316429D01*
X13147857Y-14335476D01*
X13281190Y-14135476D02*
X13300238Y-14135476D01*
X13319286Y-14145000D01*
X13328809Y-14154524D01*
X13338333Y-14173571D01*
X13347857Y-14211667D01*
X13347857Y-14259286D01*
X13338333Y-14297381D01*
X13328809Y-14316429D01*
X13319286Y-14325952D01*
X13300238Y-14335476D01*
X13281190Y-14335476D01*
X13262143Y-14325952D01*
X13252619Y-14316429D01*
X13243095Y-14297381D01*
X13233571Y-14259286D01*
X13233571Y-14211667D01*
X13243095Y-14173571D01*
X13252619Y-14154524D01*
X13262143Y-14145000D01*
X13281190Y-14135476D01*
X13538333Y-14335476D02*
X13424048Y-14335476D01*
X13481190Y-14335476D02*
X13481190Y-14135476D01*
X13462143Y-14164048D01*
X13443095Y-14183095D01*
X13424048Y-14192619D01*
X13719286Y-14135476D02*
X13624048Y-14135476D01*
X13614524Y-14230714D01*
X13624048Y-14221190D01*
X13643095Y-14211667D01*
X13690714Y-14211667D01*
X13709762Y-14221190D01*
X13719286Y-14230714D01*
X13728809Y-14249762D01*
X13728809Y-14297381D01*
X13719286Y-14316429D01*
X13709762Y-14325952D01*
X13690714Y-14335476D01*
X13643095Y-14335476D01*
X13624048Y-14325952D01*
X13614524Y-14316429D01*
X13795476Y-14135476D02*
X13928809Y-14135476D01*
X13843095Y-14335476D01*
X13995476Y-14135476D02*
X13995476Y-14173571D01*
X14071667Y-14135476D02*
X14071667Y-14173571D01*
X14366905Y-14411667D02*
X14357381Y-14402143D01*
X14338333Y-14373571D01*
X14328809Y-14354524D01*
X14319286Y-14325952D01*
X14309762Y-14278333D01*
X14309762Y-14240238D01*
X14319286Y-14192619D01*
X14328809Y-14164048D01*
X14338333Y-14145000D01*
X14357381Y-14116429D01*
X14366905Y-14106905D01*
X14528809Y-14135476D02*
X14490714Y-14135476D01*
X14471667Y-14145000D01*
X14462143Y-14154524D01*
X14443095Y-14183095D01*
X14433571Y-14221190D01*
X14433571Y-14297381D01*
X14443095Y-14316429D01*
X14452619Y-14325952D01*
X14471667Y-14335476D01*
X14509762Y-14335476D01*
X14528809Y-14325952D01*
X14538333Y-14316429D01*
X14547857Y-14297381D01*
X14547857Y-14249762D01*
X14538333Y-14230714D01*
X14528809Y-14221190D01*
X14509762Y-14211667D01*
X14471667Y-14211667D01*
X14452619Y-14221190D01*
X14443095Y-14230714D01*
X14433571Y-14249762D01*
X14719286Y-14202143D02*
X14719286Y-14335476D01*
X14671667Y-14125952D02*
X14624048Y-14268810D01*
X14747857Y-14268810D01*
X14976428Y-14335476D02*
X14976428Y-14135476D01*
X15062143Y-14335476D02*
X15062143Y-14230714D01*
X15052619Y-14211667D01*
X15033571Y-14202143D01*
X15005000Y-14202143D01*
X14985952Y-14211667D01*
X14976428Y-14221190D01*
X15185952Y-14335476D02*
X15166905Y-14325952D01*
X15157381Y-14316429D01*
X15147857Y-14297381D01*
X15147857Y-14240238D01*
X15157381Y-14221190D01*
X15166905Y-14211667D01*
X15185952Y-14202143D01*
X15214524Y-14202143D01*
X15233571Y-14211667D01*
X15243095Y-14221190D01*
X15252619Y-14240238D01*
X15252619Y-14297381D01*
X15243095Y-14316429D01*
X15233571Y-14325952D01*
X15214524Y-14335476D01*
X15185952Y-14335476D01*
X15366905Y-14335476D02*
X15347857Y-14325952D01*
X15338333Y-14306905D01*
X15338333Y-14135476D01*
X15519286Y-14325952D02*
X15500238Y-14335476D01*
X15462143Y-14335476D01*
X15443095Y-14325952D01*
X15433571Y-14306905D01*
X15433571Y-14230714D01*
X15443095Y-14211667D01*
X15462143Y-14202143D01*
X15500238Y-14202143D01*
X15519286Y-14211667D01*
X15528809Y-14230714D01*
X15528809Y-14249762D01*
X15433571Y-14268810D01*
X15605000Y-14325952D02*
X15624048Y-14335476D01*
X15662143Y-14335476D01*
X15681190Y-14325952D01*
X15690714Y-14306905D01*
X15690714Y-14297381D01*
X15681190Y-14278333D01*
X15662143Y-14268810D01*
X15633571Y-14268810D01*
X15614524Y-14259286D01*
X15605000Y-14240238D01*
X15605000Y-14230714D01*
X15614524Y-14211667D01*
X15633571Y-14202143D01*
X15662143Y-14202143D01*
X15681190Y-14211667D01*
X15757381Y-14411667D02*
X15766905Y-14402143D01*
X15785952Y-14373571D01*
X15795476Y-14354524D01*
X15805000Y-14325952D01*
X15814524Y-14278333D01*
X15814524Y-14240238D01*
X15805000Y-14192619D01*
X15795476Y-14164048D01*
X15785952Y-14145000D01*
X15766905Y-14116429D01*
X15757381Y-14106905D01*
D13*
X10795000Y-14509000D02*
G75*
G03*
X10795000Y-14509000I-40000J0D01*
G01*
D11*
X11090714Y-14399476D02*
X11109762Y-14399476D01*
X11128810Y-14409000D01*
X11138333Y-14418524D01*
X11147857Y-14437571D01*
X11157381Y-14475667D01*
X11157381Y-14523286D01*
X11147857Y-14561381D01*
X11138333Y-14580429D01*
X11128810Y-14589952D01*
X11109762Y-14599476D01*
X11090714Y-14599476D01*
X11071667Y-14589952D01*
X11062143Y-14580429D01*
X11052619Y-14561381D01*
X11043095Y-14523286D01*
X11043095Y-14475667D01*
X11052619Y-14437571D01*
X11062143Y-14418524D01*
X11071667Y-14409000D01*
X11090714Y-14399476D01*
X11243095Y-14580429D02*
X11252619Y-14589952D01*
X11243095Y-14599476D01*
X11233571Y-14589952D01*
X11243095Y-14580429D01*
X11243095Y-14599476D01*
X11366905Y-14485190D02*
X11347857Y-14475667D01*
X11338333Y-14466143D01*
X11328809Y-14447095D01*
X11328809Y-14437571D01*
X11338333Y-14418524D01*
X11347857Y-14409000D01*
X11366905Y-14399476D01*
X11405000Y-14399476D01*
X11424048Y-14409000D01*
X11433571Y-14418524D01*
X11443095Y-14437571D01*
X11443095Y-14447095D01*
X11433571Y-14466143D01*
X11424048Y-14475667D01*
X11405000Y-14485190D01*
X11366905Y-14485190D01*
X11347857Y-14494714D01*
X11338333Y-14504238D01*
X11328809Y-14523286D01*
X11328809Y-14561381D01*
X11338333Y-14580429D01*
X11347857Y-14589952D01*
X11366905Y-14599476D01*
X11405000Y-14599476D01*
X11424048Y-14589952D01*
X11433571Y-14580429D01*
X11443095Y-14561381D01*
X11443095Y-14523286D01*
X11433571Y-14504238D01*
X11424048Y-14494714D01*
X11405000Y-14485190D01*
X11566905Y-14399476D02*
X11585952Y-14399476D01*
X11605000Y-14409000D01*
X11614524Y-14418524D01*
X11624048Y-14437571D01*
X11633571Y-14475667D01*
X11633571Y-14523286D01*
X11624048Y-14561381D01*
X11614524Y-14580429D01*
X11605000Y-14589952D01*
X11585952Y-14599476D01*
X11566905Y-14599476D01*
X11547857Y-14589952D01*
X11538333Y-14580429D01*
X11528809Y-14561381D01*
X11519286Y-14523286D01*
X11519286Y-14475667D01*
X11528809Y-14437571D01*
X11538333Y-14418524D01*
X11547857Y-14409000D01*
X11566905Y-14399476D01*
X11757381Y-14399476D02*
X11776428Y-14399476D01*
X11795476Y-14409000D01*
X11805000Y-14418524D01*
X11814524Y-14437571D01*
X11824048Y-14475667D01*
X11824048Y-14523286D01*
X11814524Y-14561381D01*
X11805000Y-14580429D01*
X11795476Y-14589952D01*
X11776428Y-14599476D01*
X11757381Y-14599476D01*
X11738333Y-14589952D01*
X11728809Y-14580429D01*
X11719286Y-14561381D01*
X11709762Y-14523286D01*
X11709762Y-14475667D01*
X11719286Y-14437571D01*
X11728809Y-14418524D01*
X11738333Y-14409000D01*
X11757381Y-14399476D01*
X11909762Y-14599476D02*
X11909762Y-14466143D01*
X11909762Y-14485190D02*
X11919286Y-14475667D01*
X11938333Y-14466143D01*
X11966905Y-14466143D01*
X11985952Y-14475667D01*
X11995476Y-14494714D01*
X11995476Y-14599476D01*
X11995476Y-14494714D02*
X12005000Y-14475667D01*
X12024048Y-14466143D01*
X12052619Y-14466143D01*
X12071667Y-14475667D01*
X12081190Y-14494714D01*
X12081190Y-14599476D01*
X12176428Y-14599476D02*
X12176428Y-14466143D01*
X12176428Y-14485190D02*
X12185952Y-14475667D01*
X12205000Y-14466143D01*
X12233571Y-14466143D01*
X12252619Y-14475667D01*
X12262143Y-14494714D01*
X12262143Y-14599476D01*
X12262143Y-14494714D02*
X12271667Y-14475667D01*
X12290714Y-14466143D01*
X12319286Y-14466143D01*
X12338333Y-14475667D01*
X12347857Y-14494714D01*
X12347857Y-14599476D01*
X12738333Y-14389952D02*
X12566905Y-14647095D01*
X12995476Y-14399476D02*
X13014524Y-14399476D01*
X13033571Y-14409000D01*
X13043095Y-14418524D01*
X13052619Y-14437571D01*
X13062143Y-14475667D01*
X13062143Y-14523286D01*
X13052619Y-14561381D01*
X13043095Y-14580429D01*
X13033571Y-14589952D01*
X13014524Y-14599476D01*
X12995476Y-14599476D01*
X12976428Y-14589952D01*
X12966905Y-14580429D01*
X12957381Y-14561381D01*
X12947857Y-14523286D01*
X12947857Y-14475667D01*
X12957381Y-14437571D01*
X12966905Y-14418524D01*
X12976428Y-14409000D01*
X12995476Y-14399476D01*
X13147857Y-14580429D02*
X13157381Y-14589952D01*
X13147857Y-14599476D01*
X13138333Y-14589952D01*
X13147857Y-14580429D01*
X13147857Y-14599476D01*
X13281190Y-14399476D02*
X13300238Y-14399476D01*
X13319286Y-14409000D01*
X13328809Y-14418524D01*
X13338333Y-14437571D01*
X13347857Y-14475667D01*
X13347857Y-14523286D01*
X13338333Y-14561381D01*
X13328809Y-14580429D01*
X13319286Y-14589952D01*
X13300238Y-14599476D01*
X13281190Y-14599476D01*
X13262143Y-14589952D01*
X13252619Y-14580429D01*
X13243095Y-14561381D01*
X13233571Y-14523286D01*
X13233571Y-14475667D01*
X13243095Y-14437571D01*
X13252619Y-14418524D01*
X13262143Y-14409000D01*
X13281190Y-14399476D01*
X13414524Y-14399476D02*
X13538333Y-14399476D01*
X13471667Y-14475667D01*
X13500238Y-14475667D01*
X13519286Y-14485190D01*
X13528809Y-14494714D01*
X13538333Y-14513762D01*
X13538333Y-14561381D01*
X13528809Y-14580429D01*
X13519286Y-14589952D01*
X13500238Y-14599476D01*
X13443095Y-14599476D01*
X13424048Y-14589952D01*
X13414524Y-14580429D01*
X13728809Y-14599476D02*
X13614524Y-14599476D01*
X13671667Y-14599476D02*
X13671667Y-14399476D01*
X13652619Y-14428048D01*
X13633571Y-14447095D01*
X13614524Y-14456619D01*
X13909762Y-14399476D02*
X13814524Y-14399476D01*
X13805000Y-14494714D01*
X13814524Y-14485190D01*
X13833571Y-14475667D01*
X13881190Y-14475667D01*
X13900238Y-14485190D01*
X13909762Y-14494714D01*
X13919286Y-14513762D01*
X13919286Y-14561381D01*
X13909762Y-14580429D01*
X13900238Y-14589952D01*
X13881190Y-14599476D01*
X13833571Y-14599476D01*
X13814524Y-14589952D01*
X13805000Y-14580429D01*
X13995476Y-14399476D02*
X13995476Y-14437571D01*
X14071667Y-14399476D02*
X14071667Y-14437571D01*
X14366905Y-14675667D02*
X14357381Y-14666143D01*
X14338333Y-14637571D01*
X14328809Y-14618524D01*
X14319286Y-14589952D01*
X14309762Y-14542333D01*
X14309762Y-14504238D01*
X14319286Y-14456619D01*
X14328809Y-14428048D01*
X14338333Y-14409000D01*
X14357381Y-14380429D01*
X14366905Y-14370905D01*
X14547857Y-14599476D02*
X14433571Y-14599476D01*
X14490714Y-14599476D02*
X14490714Y-14399476D01*
X14471667Y-14428048D01*
X14452619Y-14447095D01*
X14433571Y-14456619D01*
X14738333Y-14599476D02*
X14624048Y-14599476D01*
X14681190Y-14599476D02*
X14681190Y-14399476D01*
X14662143Y-14428048D01*
X14643095Y-14447095D01*
X14624048Y-14456619D01*
X14814524Y-14418524D02*
X14824048Y-14409000D01*
X14843095Y-14399476D01*
X14890714Y-14399476D01*
X14909762Y-14409000D01*
X14919286Y-14418524D01*
X14928809Y-14437571D01*
X14928809Y-14456619D01*
X14919286Y-14485190D01*
X14805000Y-14599476D01*
X14928809Y-14599476D01*
X15166905Y-14599476D02*
X15166905Y-14399476D01*
X15252619Y-14599476D02*
X15252619Y-14494714D01*
X15243095Y-14475667D01*
X15224048Y-14466143D01*
X15195476Y-14466143D01*
X15176428Y-14475667D01*
X15166905Y-14485190D01*
X15376428Y-14599476D02*
X15357381Y-14589952D01*
X15347857Y-14580429D01*
X15338333Y-14561381D01*
X15338333Y-14504238D01*
X15347857Y-14485190D01*
X15357381Y-14475667D01*
X15376428Y-14466143D01*
X15405000Y-14466143D01*
X15424048Y-14475667D01*
X15433571Y-14485190D01*
X15443095Y-14504238D01*
X15443095Y-14561381D01*
X15433571Y-14580429D01*
X15424048Y-14589952D01*
X15405000Y-14599476D01*
X15376428Y-14599476D01*
X15557381Y-14599476D02*
X15538333Y-14589952D01*
X15528809Y-14570905D01*
X15528809Y-14399476D01*
X15709762Y-14589952D02*
X15690714Y-14599476D01*
X15652619Y-14599476D01*
X15633571Y-14589952D01*
X15624048Y-14570905D01*
X15624048Y-14494714D01*
X15633571Y-14475667D01*
X15652619Y-14466143D01*
X15690714Y-14466143D01*
X15709762Y-14475667D01*
X15719286Y-14494714D01*
X15719286Y-14513762D01*
X15624048Y-14532810D01*
X15795476Y-14589952D02*
X15814524Y-14599476D01*
X15852619Y-14599476D01*
X15871667Y-14589952D01*
X15881190Y-14570905D01*
X15881190Y-14561381D01*
X15871667Y-14542333D01*
X15852619Y-14532810D01*
X15824048Y-14532810D01*
X15805000Y-14523286D01*
X15795476Y-14504238D01*
X15795476Y-14494714D01*
X15805000Y-14475667D01*
X15824048Y-14466143D01*
X15852619Y-14466143D01*
X15871667Y-14475667D01*
X15947857Y-14675667D02*
X15957381Y-14666143D01*
X15976428Y-14637571D01*
X15985952Y-14618524D01*
X15995476Y-14589952D01*
X16005000Y-14542333D01*
X16005000Y-14504238D01*
X15995476Y-14456619D01*
X15985952Y-14428048D01*
X15976428Y-14409000D01*
X15957381Y-14380429D01*
X15947857Y-14370905D01*
D10*
X10745000Y-14723000D02*
X10745000Y-14823000D01*
X10695000Y-14773000D02*
X10795000Y-14773000D01*
D11*
X11157381Y-14863476D02*
X11043095Y-14863476D01*
X11100238Y-14863476D02*
X11100238Y-14663476D01*
X11081190Y-14692048D01*
X11062143Y-14711095D01*
X11043095Y-14720619D01*
X11243095Y-14844429D02*
X11252619Y-14853952D01*
X11243095Y-14863476D01*
X11233571Y-14853952D01*
X11243095Y-14844429D01*
X11243095Y-14863476D01*
X11376428Y-14663476D02*
X11395476Y-14663476D01*
X11414524Y-14673000D01*
X11424048Y-14682524D01*
X11433571Y-14701571D01*
X11443095Y-14739667D01*
X11443095Y-14787286D01*
X11433571Y-14825381D01*
X11424048Y-14844429D01*
X11414524Y-14853952D01*
X11395476Y-14863476D01*
X11376428Y-14863476D01*
X11357381Y-14853952D01*
X11347857Y-14844429D01*
X11338333Y-14825381D01*
X11328809Y-14787286D01*
X11328809Y-14739667D01*
X11338333Y-14701571D01*
X11347857Y-14682524D01*
X11357381Y-14673000D01*
X11376428Y-14663476D01*
X11566905Y-14663476D02*
X11585952Y-14663476D01*
X11605000Y-14673000D01*
X11614524Y-14682524D01*
X11624048Y-14701571D01*
X11633571Y-14739667D01*
X11633571Y-14787286D01*
X11624048Y-14825381D01*
X11614524Y-14844429D01*
X11605000Y-14853952D01*
X11585952Y-14863476D01*
X11566905Y-14863476D01*
X11547857Y-14853952D01*
X11538333Y-14844429D01*
X11528809Y-14825381D01*
X11519286Y-14787286D01*
X11519286Y-14739667D01*
X11528809Y-14701571D01*
X11538333Y-14682524D01*
X11547857Y-14673000D01*
X11566905Y-14663476D01*
X11757381Y-14663476D02*
X11776428Y-14663476D01*
X11795476Y-14673000D01*
X11805000Y-14682524D01*
X11814524Y-14701571D01*
X11824048Y-14739667D01*
X11824048Y-14787286D01*
X11814524Y-14825381D01*
X11805000Y-14844429D01*
X11795476Y-14853952D01*
X11776428Y-14863476D01*
X11757381Y-14863476D01*
X11738333Y-14853952D01*
X11728809Y-14844429D01*
X11719286Y-14825381D01*
X11709762Y-14787286D01*
X11709762Y-14739667D01*
X11719286Y-14701571D01*
X11728809Y-14682524D01*
X11738333Y-14673000D01*
X11757381Y-14663476D01*
X11909762Y-14863476D02*
X11909762Y-14730143D01*
X11909762Y-14749190D02*
X11919286Y-14739667D01*
X11938333Y-14730143D01*
X11966905Y-14730143D01*
X11985952Y-14739667D01*
X11995476Y-14758714D01*
X11995476Y-14863476D01*
X11995476Y-14758714D02*
X12005000Y-14739667D01*
X12024048Y-14730143D01*
X12052619Y-14730143D01*
X12071667Y-14739667D01*
X12081190Y-14758714D01*
X12081190Y-14863476D01*
X12176428Y-14863476D02*
X12176428Y-14730143D01*
X12176428Y-14749190D02*
X12185952Y-14739667D01*
X12205000Y-14730143D01*
X12233571Y-14730143D01*
X12252619Y-14739667D01*
X12262143Y-14758714D01*
X12262143Y-14863476D01*
X12262143Y-14758714D02*
X12271667Y-14739667D01*
X12290714Y-14730143D01*
X12319286Y-14730143D01*
X12338333Y-14739667D01*
X12347857Y-14758714D01*
X12347857Y-14863476D01*
X12738333Y-14653952D02*
X12566905Y-14911095D01*
X12995476Y-14663476D02*
X13014524Y-14663476D01*
X13033571Y-14673000D01*
X13043095Y-14682524D01*
X13052619Y-14701571D01*
X13062143Y-14739667D01*
X13062143Y-14787286D01*
X13052619Y-14825381D01*
X13043095Y-14844429D01*
X13033571Y-14853952D01*
X13014524Y-14863476D01*
X12995476Y-14863476D01*
X12976428Y-14853952D01*
X12966905Y-14844429D01*
X12957381Y-14825381D01*
X12947857Y-14787286D01*
X12947857Y-14739667D01*
X12957381Y-14701571D01*
X12966905Y-14682524D01*
X12976428Y-14673000D01*
X12995476Y-14663476D01*
X13147857Y-14844429D02*
X13157381Y-14853952D01*
X13147857Y-14863476D01*
X13138333Y-14853952D01*
X13147857Y-14844429D01*
X13147857Y-14863476D01*
X13281190Y-14663476D02*
X13300238Y-14663476D01*
X13319286Y-14673000D01*
X13328809Y-14682524D01*
X13338333Y-14701571D01*
X13347857Y-14739667D01*
X13347857Y-14787286D01*
X13338333Y-14825381D01*
X13328809Y-14844429D01*
X13319286Y-14853952D01*
X13300238Y-14863476D01*
X13281190Y-14863476D01*
X13262143Y-14853952D01*
X13252619Y-14844429D01*
X13243095Y-14825381D01*
X13233571Y-14787286D01*
X13233571Y-14739667D01*
X13243095Y-14701571D01*
X13252619Y-14682524D01*
X13262143Y-14673000D01*
X13281190Y-14663476D01*
X13414524Y-14663476D02*
X13538333Y-14663476D01*
X13471667Y-14739667D01*
X13500238Y-14739667D01*
X13519286Y-14749190D01*
X13528809Y-14758714D01*
X13538333Y-14777762D01*
X13538333Y-14825381D01*
X13528809Y-14844429D01*
X13519286Y-14853952D01*
X13500238Y-14863476D01*
X13443095Y-14863476D01*
X13424048Y-14853952D01*
X13414524Y-14844429D01*
X13633571Y-14863476D02*
X13671667Y-14863476D01*
X13690714Y-14853952D01*
X13700238Y-14844429D01*
X13719286Y-14815857D01*
X13728809Y-14777762D01*
X13728809Y-14701571D01*
X13719286Y-14682524D01*
X13709762Y-14673000D01*
X13690714Y-14663476D01*
X13652619Y-14663476D01*
X13633571Y-14673000D01*
X13624048Y-14682524D01*
X13614524Y-14701571D01*
X13614524Y-14749190D01*
X13624048Y-14768238D01*
X13633571Y-14777762D01*
X13652619Y-14787286D01*
X13690714Y-14787286D01*
X13709762Y-14777762D01*
X13719286Y-14768238D01*
X13728809Y-14749190D01*
X13900238Y-14730143D02*
X13900238Y-14863476D01*
X13852619Y-14653952D02*
X13805000Y-14796810D01*
X13928809Y-14796810D01*
X13995476Y-14663476D02*
X13995476Y-14701571D01*
X14071667Y-14663476D02*
X14071667Y-14701571D01*
X14366905Y-14939667D02*
X14357381Y-14930143D01*
X14338333Y-14901571D01*
X14328809Y-14882524D01*
X14319286Y-14853952D01*
X14309762Y-14806333D01*
X14309762Y-14768238D01*
X14319286Y-14720619D01*
X14328809Y-14692048D01*
X14338333Y-14673000D01*
X14357381Y-14644429D01*
X14366905Y-14634905D01*
X14424048Y-14663476D02*
X14557381Y-14663476D01*
X14471667Y-14863476D01*
X14785952Y-14863476D02*
X14785952Y-14663476D01*
X14871667Y-14863476D02*
X14871667Y-14758714D01*
X14862143Y-14739667D01*
X14843095Y-14730143D01*
X14814524Y-14730143D01*
X14795476Y-14739667D01*
X14785952Y-14749190D01*
X14995476Y-14863476D02*
X14976428Y-14853952D01*
X14966905Y-14844429D01*
X14957381Y-14825381D01*
X14957381Y-14768238D01*
X14966905Y-14749190D01*
X14976428Y-14739667D01*
X14995476Y-14730143D01*
X15024048Y-14730143D01*
X15043095Y-14739667D01*
X15052619Y-14749190D01*
X15062143Y-14768238D01*
X15062143Y-14825381D01*
X15052619Y-14844429D01*
X15043095Y-14853952D01*
X15024048Y-14863476D01*
X14995476Y-14863476D01*
X15176428Y-14863476D02*
X15157381Y-14853952D01*
X15147857Y-14834905D01*
X15147857Y-14663476D01*
X15328809Y-14853952D02*
X15309762Y-14863476D01*
X15271667Y-14863476D01*
X15252619Y-14853952D01*
X15243095Y-14834905D01*
X15243095Y-14758714D01*
X15252619Y-14739667D01*
X15271667Y-14730143D01*
X15309762Y-14730143D01*
X15328809Y-14739667D01*
X15338333Y-14758714D01*
X15338333Y-14777762D01*
X15243095Y-14796810D01*
X15414524Y-14853952D02*
X15433571Y-14863476D01*
X15471667Y-14863476D01*
X15490714Y-14853952D01*
X15500238Y-14834905D01*
X15500238Y-14825381D01*
X15490714Y-14806333D01*
X15471667Y-14796810D01*
X15443095Y-14796810D01*
X15424048Y-14787286D01*
X15414524Y-14768238D01*
X15414524Y-14758714D01*
X15424048Y-14739667D01*
X15443095Y-14730143D01*
X15471667Y-14730143D01*
X15490714Y-14739667D01*
X15566905Y-14939667D02*
X15576428Y-14930143D01*
X15595476Y-14901571D01*
X15605000Y-14882524D01*
X15614524Y-14853952D01*
X15624048Y-14806333D01*
X15624048Y-14768238D01*
X15614524Y-14720619D01*
X15605000Y-14692048D01*
X15595476Y-14673000D01*
X15576428Y-14644429D01*
X15566905Y-14634905D01*
D14*
X10778891Y-15075891D02*
X10778891Y-14998109D01*
X10701109Y-14998109D01*
X10701109Y-15075891D01*
X10778891Y-15075891D01*
D11*
X11157381Y-15127476D02*
X11043095Y-15127476D01*
X11100238Y-15127476D02*
X11100238Y-14927476D01*
X11081190Y-14956048D01*
X11062143Y-14975095D01*
X11043095Y-14984619D01*
X11243095Y-15108429D02*
X11252619Y-15117952D01*
X11243095Y-15127476D01*
X11233571Y-15117952D01*
X11243095Y-15108429D01*
X11243095Y-15127476D01*
X11443095Y-15127476D02*
X11328809Y-15127476D01*
X11385952Y-15127476D02*
X11385952Y-14927476D01*
X11366905Y-14956048D01*
X11347857Y-14975095D01*
X11328809Y-14984619D01*
X11566905Y-14927476D02*
X11585952Y-14927476D01*
X11605000Y-14937000D01*
X11614524Y-14946524D01*
X11624048Y-14965571D01*
X11633571Y-15003667D01*
X11633571Y-15051286D01*
X11624048Y-15089381D01*
X11614524Y-15108429D01*
X11605000Y-15117952D01*
X11585952Y-15127476D01*
X11566905Y-15127476D01*
X11547857Y-15117952D01*
X11538333Y-15108429D01*
X11528809Y-15089381D01*
X11519286Y-15051286D01*
X11519286Y-15003667D01*
X11528809Y-14965571D01*
X11538333Y-14946524D01*
X11547857Y-14937000D01*
X11566905Y-14927476D01*
X11757381Y-14927476D02*
X11776428Y-14927476D01*
X11795476Y-14937000D01*
X11805000Y-14946524D01*
X11814524Y-14965571D01*
X11824048Y-15003667D01*
X11824048Y-15051286D01*
X11814524Y-15089381D01*
X11805000Y-15108429D01*
X11795476Y-15117952D01*
X11776428Y-15127476D01*
X11757381Y-15127476D01*
X11738333Y-15117952D01*
X11728809Y-15108429D01*
X11719286Y-15089381D01*
X11709762Y-15051286D01*
X11709762Y-15003667D01*
X11719286Y-14965571D01*
X11728809Y-14946524D01*
X11738333Y-14937000D01*
X11757381Y-14927476D01*
X11909762Y-15127476D02*
X11909762Y-14994143D01*
X11909762Y-15013190D02*
X11919286Y-15003667D01*
X11938333Y-14994143D01*
X11966905Y-14994143D01*
X11985952Y-15003667D01*
X11995476Y-15022714D01*
X11995476Y-15127476D01*
X11995476Y-15022714D02*
X12005000Y-15003667D01*
X12024048Y-14994143D01*
X12052619Y-14994143D01*
X12071667Y-15003667D01*
X12081190Y-15022714D01*
X12081190Y-15127476D01*
X12176428Y-15127476D02*
X12176428Y-14994143D01*
X12176428Y-15013190D02*
X12185952Y-15003667D01*
X12205000Y-14994143D01*
X12233571Y-14994143D01*
X12252619Y-15003667D01*
X12262143Y-15022714D01*
X12262143Y-15127476D01*
X12262143Y-15022714D02*
X12271667Y-15003667D01*
X12290714Y-14994143D01*
X12319286Y-14994143D01*
X12338333Y-15003667D01*
X12347857Y-15022714D01*
X12347857Y-15127476D01*
X12738333Y-14917952D02*
X12566905Y-15175095D01*
X12995476Y-14927476D02*
X13014524Y-14927476D01*
X13033571Y-14937000D01*
X13043095Y-14946524D01*
X13052619Y-14965571D01*
X13062143Y-15003667D01*
X13062143Y-15051286D01*
X13052619Y-15089381D01*
X13043095Y-15108429D01*
X13033571Y-15117952D01*
X13014524Y-15127476D01*
X12995476Y-15127476D01*
X12976428Y-15117952D01*
X12966905Y-15108429D01*
X12957381Y-15089381D01*
X12947857Y-15051286D01*
X12947857Y-15003667D01*
X12957381Y-14965571D01*
X12966905Y-14946524D01*
X12976428Y-14937000D01*
X12995476Y-14927476D01*
X13147857Y-15108429D02*
X13157381Y-15117952D01*
X13147857Y-15127476D01*
X13138333Y-15117952D01*
X13147857Y-15108429D01*
X13147857Y-15127476D01*
X13281190Y-14927476D02*
X13300238Y-14927476D01*
X13319286Y-14937000D01*
X13328809Y-14946524D01*
X13338333Y-14965571D01*
X13347857Y-15003667D01*
X13347857Y-15051286D01*
X13338333Y-15089381D01*
X13328809Y-15108429D01*
X13319286Y-15117952D01*
X13300238Y-15127476D01*
X13281190Y-15127476D01*
X13262143Y-15117952D01*
X13252619Y-15108429D01*
X13243095Y-15089381D01*
X13233571Y-15051286D01*
X13233571Y-15003667D01*
X13243095Y-14965571D01*
X13252619Y-14946524D01*
X13262143Y-14937000D01*
X13281190Y-14927476D01*
X13519286Y-14994143D02*
X13519286Y-15127476D01*
X13471667Y-14917952D02*
X13424048Y-15060810D01*
X13547857Y-15060810D01*
X13605000Y-14927476D02*
X13728809Y-14927476D01*
X13662143Y-15003667D01*
X13690714Y-15003667D01*
X13709762Y-15013190D01*
X13719286Y-15022714D01*
X13728809Y-15041762D01*
X13728809Y-15089381D01*
X13719286Y-15108429D01*
X13709762Y-15117952D01*
X13690714Y-15127476D01*
X13633571Y-15127476D01*
X13614524Y-15117952D01*
X13605000Y-15108429D01*
X13795476Y-14927476D02*
X13919286Y-14927476D01*
X13852619Y-15003667D01*
X13881190Y-15003667D01*
X13900238Y-15013190D01*
X13909762Y-15022714D01*
X13919286Y-15041762D01*
X13919286Y-15089381D01*
X13909762Y-15108429D01*
X13900238Y-15117952D01*
X13881190Y-15127476D01*
X13824048Y-15127476D01*
X13805000Y-15117952D01*
X13795476Y-15108429D01*
X13995476Y-14927476D02*
X13995476Y-14965571D01*
X14071667Y-14927476D02*
X14071667Y-14965571D01*
X14366905Y-15203667D02*
X14357381Y-15194143D01*
X14338333Y-15165571D01*
X14328809Y-15146524D01*
X14319286Y-15117952D01*
X14309762Y-15070333D01*
X14309762Y-15032238D01*
X14319286Y-14984619D01*
X14328809Y-14956048D01*
X14338333Y-14937000D01*
X14357381Y-14908429D01*
X14366905Y-14898905D01*
X14424048Y-14927476D02*
X14547857Y-14927476D01*
X14481190Y-15003667D01*
X14509762Y-15003667D01*
X14528809Y-15013190D01*
X14538333Y-15022714D01*
X14547857Y-15041762D01*
X14547857Y-15089381D01*
X14538333Y-15108429D01*
X14528809Y-15117952D01*
X14509762Y-15127476D01*
X14452619Y-15127476D01*
X14433571Y-15117952D01*
X14424048Y-15108429D01*
X14785952Y-15127476D02*
X14785952Y-14927476D01*
X14871667Y-15127476D02*
X14871667Y-15022714D01*
X14862143Y-15003667D01*
X14843095Y-14994143D01*
X14814524Y-14994143D01*
X14795476Y-15003667D01*
X14785952Y-15013190D01*
X14995476Y-15127476D02*
X14976428Y-15117952D01*
X14966905Y-15108429D01*
X14957381Y-15089381D01*
X14957381Y-15032238D01*
X14966905Y-15013190D01*
X14976428Y-15003667D01*
X14995476Y-14994143D01*
X15024048Y-14994143D01*
X15043095Y-15003667D01*
X15052619Y-15013190D01*
X15062143Y-15032238D01*
X15062143Y-15089381D01*
X15052619Y-15108429D01*
X15043095Y-15117952D01*
X15024048Y-15127476D01*
X14995476Y-15127476D01*
X15176428Y-15127476D02*
X15157381Y-15117952D01*
X15147857Y-15098905D01*
X15147857Y-14927476D01*
X15328809Y-15117952D02*
X15309762Y-15127476D01*
X15271667Y-15127476D01*
X15252619Y-15117952D01*
X15243095Y-15098905D01*
X15243095Y-15022714D01*
X15252619Y-15003667D01*
X15271667Y-14994143D01*
X15309762Y-14994143D01*
X15328809Y-15003667D01*
X15338333Y-15022714D01*
X15338333Y-15041762D01*
X15243095Y-15060810D01*
X15414524Y-15117952D02*
X15433571Y-15127476D01*
X15471667Y-15127476D01*
X15490714Y-15117952D01*
X15500238Y-15098905D01*
X15500238Y-15089381D01*
X15490714Y-15070333D01*
X15471667Y-15060810D01*
X15443095Y-15060810D01*
X15424048Y-15051286D01*
X15414524Y-15032238D01*
X15414524Y-15022714D01*
X15424048Y-15003667D01*
X15443095Y-14994143D01*
X15471667Y-14994143D01*
X15490714Y-15003667D01*
X15566905Y-15203667D02*
X15576428Y-15194143D01*
X15595476Y-15165571D01*
X15605000Y-15146524D01*
X15614524Y-15117952D01*
X15624048Y-15070333D01*
X15624048Y-15032238D01*
X15614524Y-14984619D01*
X15605000Y-14956048D01*
X15595476Y-14937000D01*
X15576428Y-14908429D01*
X15566905Y-14898905D01*
X10695000Y-15401000D02*
X10795000Y-15301000D01*
X10695000Y-15201000D01*
X10595000Y-15301000D01*
X10695000Y-15401000D01*
X11033571Y-15191476D02*
X11157381Y-15191476D01*
X11090714Y-15267667D01*
X11119286Y-15267667D01*
X11138333Y-15277190D01*
X11147857Y-15286714D01*
X11157381Y-15305762D01*
X11157381Y-15353381D01*
X11147857Y-15372429D01*
X11138333Y-15381952D01*
X11119286Y-15391476D01*
X11062143Y-15391476D01*
X11043095Y-15381952D01*
X11033571Y-15372429D01*
X11243095Y-15372429D02*
X11252619Y-15381952D01*
X11243095Y-15391476D01*
X11233571Y-15381952D01*
X11243095Y-15372429D01*
X11243095Y-15391476D01*
X11328809Y-15210524D02*
X11338333Y-15201000D01*
X11357381Y-15191476D01*
X11405000Y-15191476D01*
X11424048Y-15201000D01*
X11433571Y-15210524D01*
X11443095Y-15229571D01*
X11443095Y-15248619D01*
X11433571Y-15277190D01*
X11319286Y-15391476D01*
X11443095Y-15391476D01*
X11566905Y-15191476D02*
X11585952Y-15191476D01*
X11605000Y-15201000D01*
X11614524Y-15210524D01*
X11624048Y-15229571D01*
X11633571Y-15267667D01*
X11633571Y-15315286D01*
X11624048Y-15353381D01*
X11614524Y-15372429D01*
X11605000Y-15381952D01*
X11585952Y-15391476D01*
X11566905Y-15391476D01*
X11547857Y-15381952D01*
X11538333Y-15372429D01*
X11528809Y-15353381D01*
X11519286Y-15315286D01*
X11519286Y-15267667D01*
X11528809Y-15229571D01*
X11538333Y-15210524D01*
X11547857Y-15201000D01*
X11566905Y-15191476D01*
X11757381Y-15191476D02*
X11776428Y-15191476D01*
X11795476Y-15201000D01*
X11805000Y-15210524D01*
X11814524Y-15229571D01*
X11824048Y-15267667D01*
X11824048Y-15315286D01*
X11814524Y-15353381D01*
X11805000Y-15372429D01*
X11795476Y-15381952D01*
X11776428Y-15391476D01*
X11757381Y-15391476D01*
X11738333Y-15381952D01*
X11728809Y-15372429D01*
X11719286Y-15353381D01*
X11709762Y-15315286D01*
X11709762Y-15267667D01*
X11719286Y-15229571D01*
X11728809Y-15210524D01*
X11738333Y-15201000D01*
X11757381Y-15191476D01*
X11909762Y-15391476D02*
X11909762Y-15258143D01*
X11909762Y-15277190D02*
X11919286Y-15267667D01*
X11938333Y-15258143D01*
X11966905Y-15258143D01*
X11985952Y-15267667D01*
X11995476Y-15286714D01*
X11995476Y-15391476D01*
X11995476Y-15286714D02*
X12005000Y-15267667D01*
X12024048Y-15258143D01*
X12052619Y-15258143D01*
X12071667Y-15267667D01*
X12081190Y-15286714D01*
X12081190Y-15391476D01*
X12176428Y-15391476D02*
X12176428Y-15258143D01*
X12176428Y-15277190D02*
X12185952Y-15267667D01*
X12205000Y-15258143D01*
X12233571Y-15258143D01*
X12252619Y-15267667D01*
X12262143Y-15286714D01*
X12262143Y-15391476D01*
X12262143Y-15286714D02*
X12271667Y-15267667D01*
X12290714Y-15258143D01*
X12319286Y-15258143D01*
X12338333Y-15267667D01*
X12347857Y-15286714D01*
X12347857Y-15391476D01*
X12738333Y-15181952D02*
X12566905Y-15439095D01*
X12995476Y-15191476D02*
X13014524Y-15191476D01*
X13033571Y-15201000D01*
X13043095Y-15210524D01*
X13052619Y-15229571D01*
X13062143Y-15267667D01*
X13062143Y-15315286D01*
X13052619Y-15353381D01*
X13043095Y-15372429D01*
X13033571Y-15381952D01*
X13014524Y-15391476D01*
X12995476Y-15391476D01*
X12976428Y-15381952D01*
X12966905Y-15372429D01*
X12957381Y-15353381D01*
X12947857Y-15315286D01*
X12947857Y-15267667D01*
X12957381Y-15229571D01*
X12966905Y-15210524D01*
X12976428Y-15201000D01*
X12995476Y-15191476D01*
X13147857Y-15372429D02*
X13157381Y-15381952D01*
X13147857Y-15391476D01*
X13138333Y-15381952D01*
X13147857Y-15372429D01*
X13147857Y-15391476D01*
X13347857Y-15391476D02*
X13233571Y-15391476D01*
X13290714Y-15391476D02*
X13290714Y-15191476D01*
X13271667Y-15220048D01*
X13252619Y-15239095D01*
X13233571Y-15248619D01*
X13424048Y-15210524D02*
X13433571Y-15201000D01*
X13452619Y-15191476D01*
X13500238Y-15191476D01*
X13519286Y-15201000D01*
X13528809Y-15210524D01*
X13538333Y-15229571D01*
X13538333Y-15248619D01*
X13528809Y-15277190D01*
X13414524Y-15391476D01*
X13538333Y-15391476D01*
X13709762Y-15191476D02*
X13671667Y-15191476D01*
X13652619Y-15201000D01*
X13643095Y-15210524D01*
X13624048Y-15239095D01*
X13614524Y-15277190D01*
X13614524Y-15353381D01*
X13624048Y-15372429D01*
X13633571Y-15381952D01*
X13652619Y-15391476D01*
X13690714Y-15391476D01*
X13709762Y-15381952D01*
X13719286Y-15372429D01*
X13728809Y-15353381D01*
X13728809Y-15305762D01*
X13719286Y-15286714D01*
X13709762Y-15277190D01*
X13690714Y-15267667D01*
X13652619Y-15267667D01*
X13633571Y-15277190D01*
X13624048Y-15286714D01*
X13614524Y-15305762D01*
X13852619Y-15191476D02*
X13871667Y-15191476D01*
X13890714Y-15201000D01*
X13900238Y-15210524D01*
X13909762Y-15229571D01*
X13919286Y-15267667D01*
X13919286Y-15315286D01*
X13909762Y-15353381D01*
X13900238Y-15372429D01*
X13890714Y-15381952D01*
X13871667Y-15391476D01*
X13852619Y-15391476D01*
X13833571Y-15381952D01*
X13824048Y-15372429D01*
X13814524Y-15353381D01*
X13805000Y-15315286D01*
X13805000Y-15267667D01*
X13814524Y-15229571D01*
X13824048Y-15210524D01*
X13833571Y-15201000D01*
X13852619Y-15191476D01*
X13995476Y-15191476D02*
X13995476Y-15229571D01*
X14071667Y-15191476D02*
X14071667Y-15229571D01*
X14366905Y-15467667D02*
X14357381Y-15458143D01*
X14338333Y-15429571D01*
X14328809Y-15410524D01*
X14319286Y-15381952D01*
X14309762Y-15334333D01*
X14309762Y-15296238D01*
X14319286Y-15248619D01*
X14328809Y-15220048D01*
X14338333Y-15201000D01*
X14357381Y-15172429D01*
X14366905Y-15162905D01*
X14424048Y-15191476D02*
X14547857Y-15191476D01*
X14481190Y-15267667D01*
X14509762Y-15267667D01*
X14528809Y-15277190D01*
X14538333Y-15286714D01*
X14547857Y-15305762D01*
X14547857Y-15353381D01*
X14538333Y-15372429D01*
X14528809Y-15381952D01*
X14509762Y-15391476D01*
X14452619Y-15391476D01*
X14433571Y-15381952D01*
X14424048Y-15372429D01*
X14785952Y-15391476D02*
X14785952Y-15191476D01*
X14871667Y-15391476D02*
X14871667Y-15286714D01*
X14862143Y-15267667D01*
X14843095Y-15258143D01*
X14814524Y-15258143D01*
X14795476Y-15267667D01*
X14785952Y-15277190D01*
X14995476Y-15391476D02*
X14976428Y-15381952D01*
X14966905Y-15372429D01*
X14957381Y-15353381D01*
X14957381Y-15296238D01*
X14966905Y-15277190D01*
X14976428Y-15267667D01*
X14995476Y-15258143D01*
X15024048Y-15258143D01*
X15043095Y-15267667D01*
X15052619Y-15277190D01*
X15062143Y-15296238D01*
X15062143Y-15353381D01*
X15052619Y-15372429D01*
X15043095Y-15381952D01*
X15024048Y-15391476D01*
X14995476Y-15391476D01*
X15176428Y-15391476D02*
X15157381Y-15381952D01*
X15147857Y-15362905D01*
X15147857Y-15191476D01*
X15328809Y-15381952D02*
X15309762Y-15391476D01*
X15271667Y-15391476D01*
X15252619Y-15381952D01*
X15243095Y-15362905D01*
X15243095Y-15286714D01*
X15252619Y-15267667D01*
X15271667Y-15258143D01*
X15309762Y-15258143D01*
X15328809Y-15267667D01*
X15338333Y-15286714D01*
X15338333Y-15305762D01*
X15243095Y-15324810D01*
X15414524Y-15381952D02*
X15433571Y-15391476D01*
X15471667Y-15391476D01*
X15490714Y-15381952D01*
X15500238Y-15362905D01*
X15500238Y-15353381D01*
X15490714Y-15334333D01*
X15471667Y-15324810D01*
X15443095Y-15324810D01*
X15424048Y-15315286D01*
X15414524Y-15296238D01*
X15414524Y-15286714D01*
X15424048Y-15267667D01*
X15443095Y-15258143D01*
X15471667Y-15258143D01*
X15490714Y-15267667D01*
X15566905Y-15467667D02*
X15576428Y-15458143D01*
X15595476Y-15429571D01*
X15605000Y-15410524D01*
X15614524Y-15381952D01*
X15624048Y-15334333D01*
X15624048Y-15296238D01*
X15614524Y-15248619D01*
X15605000Y-15220048D01*
X15595476Y-15201000D01*
X15576428Y-15172429D01*
X15566905Y-15162905D01*
M02*
