%TF.GenerationSoftware,KiCad,Pcbnew,(6.0.7)*%
%TF.CreationDate,2023-04-21T16:09:57-05:00*%
%TF.ProjectId,RevisedControlBoard,52657669-7365-4644-936f-6e74726f6c42,rev?*%
%TF.SameCoordinates,Original*%
%TF.FileFunction,Soldermask,Top*%
%TF.FilePolarity,Negative*%
%FSLAX46Y46*%
G04 Gerber Fmt 4.6, Leading zero omitted, Abs format (unit mm)*
G04 Created by KiCad (PCBNEW (6.0.7)) date 2023-04-21 16:09:57*
%MOMM*%
%LPD*%
G01*
G04 APERTURE LIST*
G04 Aperture macros list*
%AMRoundRect*
0 Rectangle with rounded corners*
0 $1 Rounding radius*
0 $2 $3 $4 $5 $6 $7 $8 $9 X,Y pos of 4 corners*
0 Add a 4 corners polygon primitive as box body*
4,1,4,$2,$3,$4,$5,$6,$7,$8,$9,$2,$3,0*
0 Add four circle primitives for the rounded corners*
1,1,$1+$1,$2,$3*
1,1,$1+$1,$4,$5*
1,1,$1+$1,$6,$7*
1,1,$1+$1,$8,$9*
0 Add four rect primitives between the rounded corners*
20,1,$1+$1,$2,$3,$4,$5,0*
20,1,$1+$1,$4,$5,$6,$7,0*
20,1,$1+$1,$6,$7,$8,$9,0*
20,1,$1+$1,$8,$9,$2,$3,0*%
G04 Aperture macros list end*
%ADD10R,1.600000X1.600000*%
%ADD11O,1.600000X1.600000*%
%ADD12RoundRect,0.250000X1.100000X-0.325000X1.100000X0.325000X-1.100000X0.325000X-1.100000X-0.325000X0*%
%ADD13R,2.500000X2.500000*%
%ADD14RoundRect,0.250000X-0.325000X-1.100000X0.325000X-1.100000X0.325000X1.100000X-0.325000X1.100000X0*%
%ADD15RoundRect,0.250000X-0.312500X-1.075000X0.312500X-1.075000X0.312500X1.075000X-0.312500X1.075000X0*%
%ADD16R,1.508000X1.508000*%
%ADD17C,1.508000*%
%ADD18RoundRect,0.250000X-0.312500X-1.450000X0.312500X-1.450000X0.312500X1.450000X-0.312500X1.450000X0*%
%ADD19C,4.800000*%
%ADD20RoundRect,0.250000X-1.075000X0.312500X-1.075000X-0.312500X1.075000X-0.312500X1.075000X0.312500X0*%
%ADD21R,1.905000X2.000000*%
%ADD22O,1.905000X2.000000*%
%ADD23RoundRect,0.250000X-1.100000X0.325000X-1.100000X-0.325000X1.100000X-0.325000X1.100000X0.325000X0*%
%ADD24RoundRect,0.250000X1.075000X-0.312500X1.075000X0.312500X-1.075000X0.312500X-1.075000X-0.312500X0*%
%ADD25RoundRect,0.250000X0.312500X1.450000X-0.312500X1.450000X-0.312500X-1.450000X0.312500X-1.450000X0*%
%ADD26O,1.800000X1.800000*%
%ADD27O,1.500000X1.500000*%
%ADD28R,3.500000X1.700000*%
%ADD29R,1.700000X3.500000*%
%ADD30RoundRect,0.250000X0.312500X1.075000X-0.312500X1.075000X-0.312500X-1.075000X0.312500X-1.075000X0*%
%ADD31RoundRect,0.250000X0.325000X1.100000X-0.325000X1.100000X-0.325000X-1.100000X0.325000X-1.100000X0*%
G04 APERTURE END LIST*
D10*
%TO.C,U6*%
X190430000Y-125200000D03*
D11*
X187890000Y-125200000D03*
X185350000Y-125200000D03*
X182810000Y-125200000D03*
X180270000Y-125200000D03*
X177730000Y-125200000D03*
X175190000Y-125200000D03*
X172650000Y-125200000D03*
X172650000Y-132820000D03*
X175190000Y-132820000D03*
X177730000Y-132820000D03*
X180270000Y-132820000D03*
X182810000Y-132820000D03*
X185350000Y-132820000D03*
X187890000Y-132820000D03*
X190430000Y-132820000D03*
%TD*%
D12*
%TO.C,C12*%
X195000000Y-131475000D03*
X195000000Y-128525000D03*
%TD*%
D10*
%TO.C,U5*%
X188505000Y-59430000D03*
D11*
X185965000Y-59430000D03*
X183425000Y-59430000D03*
X180885000Y-59430000D03*
X178345000Y-59430000D03*
X175805000Y-59430000D03*
X173265000Y-59430000D03*
X170725000Y-59430000D03*
X170725000Y-67050000D03*
X173265000Y-67050000D03*
X175805000Y-67050000D03*
X178345000Y-67050000D03*
X180885000Y-67050000D03*
X183425000Y-67050000D03*
X185965000Y-67050000D03*
X188505000Y-67050000D03*
%TD*%
D13*
%TO.C,RailB1*%
X146305001Y-116987499D03*
%TD*%
D12*
%TO.C,C2*%
X194000000Y-117975000D03*
X194000000Y-115025000D03*
%TD*%
D13*
%TO.C,G4L1*%
X203200000Y-134500000D03*
%TD*%
%TO.C,G2L2*%
X200300000Y-80330000D03*
%TD*%
%TO.C,G1L1*%
X203500000Y-55330000D03*
%TD*%
D14*
%TO.C,C10*%
X172525000Y-105000000D03*
X175475000Y-105000000D03*
%TD*%
D13*
%TO.C,G1M2*%
X200500000Y-50830000D03*
%TD*%
D15*
%TO.C,R1*%
X110037500Y-78500000D03*
X112962500Y-78500000D03*
%TD*%
D13*
%TO.C,G4R2*%
X200200000Y-125500000D03*
%TD*%
D16*
%TO.C,PS1*%
X156550000Y-54822500D03*
D17*
X156550000Y-57362500D03*
X156550000Y-59902500D03*
X156550000Y-64982500D03*
X156550000Y-67522500D03*
X156550000Y-70062500D03*
X156550000Y-72602500D03*
%TD*%
D18*
%TO.C,CCW*%
X110362500Y-89000000D03*
X114637500Y-89000000D03*
%TD*%
D10*
%TO.C,U4*%
X188605000Y-44230000D03*
D11*
X186065000Y-44230000D03*
X183525000Y-44230000D03*
X180985000Y-44230000D03*
X178445000Y-44230000D03*
X175905000Y-44230000D03*
X173365000Y-44230000D03*
X170825000Y-44230000D03*
X170825000Y-51850000D03*
X173365000Y-51850000D03*
X175905000Y-51850000D03*
X178445000Y-51850000D03*
X180985000Y-51850000D03*
X183525000Y-51850000D03*
X186065000Y-51850000D03*
X188605000Y-51850000D03*
%TD*%
D10*
%TO.C,U7*%
X189605000Y-91930000D03*
D11*
X187065000Y-91930000D03*
X184525000Y-91930000D03*
X181985000Y-91930000D03*
X179445000Y-91930000D03*
X176905000Y-91930000D03*
X174365000Y-91930000D03*
X171825000Y-91930000D03*
X171825000Y-99550000D03*
X174365000Y-99550000D03*
X176905000Y-99550000D03*
X179445000Y-99550000D03*
X181985000Y-99550000D03*
X184525000Y-99550000D03*
X187065000Y-99550000D03*
X189605000Y-99550000D03*
%TD*%
D13*
%TO.C,RailB2*%
X146305001Y-119987499D03*
%TD*%
D14*
%TO.C,C13*%
X171025000Y-56000000D03*
X173975000Y-56000000D03*
%TD*%
D13*
%TO.C,G4R1*%
X203200000Y-125500000D03*
%TD*%
%TO.C,RailA2*%
X137355001Y-119937499D03*
%TD*%
D19*
%TO.C,J1*%
X153650000Y-48009500D03*
X153650000Y-42209500D03*
X148850000Y-45009500D03*
%TD*%
D15*
%TO.C,R2*%
X113537500Y-94000000D03*
X116462500Y-94000000D03*
%TD*%
D20*
%TO.C,R7*%
X145500000Y-89037500D03*
X145500000Y-91962500D03*
%TD*%
D21*
%TO.C,Q1*%
X158390000Y-95835000D03*
D22*
X160930000Y-95835000D03*
X163470000Y-95835000D03*
%TD*%
D13*
%TO.C,G2M2*%
X200300000Y-75830000D03*
%TD*%
D23*
%TO.C,C4*%
X163000000Y-67025000D03*
X163000000Y-69975000D03*
%TD*%
D13*
%TO.C,G3L2*%
X200400000Y-109230000D03*
%TD*%
%TO.C,G3M2*%
X200400000Y-104730000D03*
%TD*%
%TO.C,G1L2*%
X200500000Y-55330000D03*
%TD*%
D20*
%TO.C,R4*%
X113500000Y-64537500D03*
X113500000Y-67462500D03*
%TD*%
D12*
%TO.C,C5*%
X193500000Y-81475000D03*
X193500000Y-78525000D03*
%TD*%
%TO.C,C1*%
X163500000Y-54975000D03*
X163500000Y-52025000D03*
%TD*%
D13*
%TO.C,G4M2*%
X200200000Y-130000000D03*
%TD*%
D18*
%TO.C,Track 1*%
X109862500Y-48500000D03*
X114137500Y-48500000D03*
%TD*%
D10*
%TO.C,U3*%
X189405000Y-75630000D03*
D11*
X186865000Y-75630000D03*
X184325000Y-75630000D03*
X181785000Y-75630000D03*
X179245000Y-75630000D03*
X176705000Y-75630000D03*
X174165000Y-75630000D03*
X171625000Y-75630000D03*
X171625000Y-83250000D03*
X174165000Y-83250000D03*
X176705000Y-83250000D03*
X179245000Y-83250000D03*
X181785000Y-83250000D03*
X184325000Y-83250000D03*
X186865000Y-83250000D03*
X189405000Y-83250000D03*
%TD*%
D14*
%TO.C,C9*%
X170525000Y-41500000D03*
X173475000Y-41500000D03*
%TD*%
D24*
%TO.C,R5*%
X110000000Y-70462500D03*
X110000000Y-67537500D03*
%TD*%
D18*
%TO.C,T3*%
X109862500Y-74000000D03*
X114137500Y-74000000D03*
%TD*%
D13*
%TO.C,G3M1*%
X203400000Y-104730000D03*
%TD*%
%TO.C,G1R2*%
X203550000Y-46330000D03*
%TD*%
D14*
%TO.C,C14*%
X171525000Y-89000000D03*
X174475000Y-89000000D03*
%TD*%
%TO.C,C8*%
X172625000Y-121550000D03*
X175575000Y-121550000D03*
%TD*%
D13*
%TO.C,G3R1*%
X203400000Y-100230000D03*
%TD*%
%TO.C,G3L1*%
X203400000Y-109230000D03*
%TD*%
D10*
%TO.C,U8*%
X189875000Y-108200000D03*
D11*
X187335000Y-108200000D03*
X184795000Y-108200000D03*
X182255000Y-108200000D03*
X179715000Y-108200000D03*
X177175000Y-108200000D03*
X174635000Y-108200000D03*
X172095000Y-108200000D03*
X172095000Y-115820000D03*
X174635000Y-115820000D03*
X177175000Y-115820000D03*
X179715000Y-115820000D03*
X182255000Y-115820000D03*
X184795000Y-115820000D03*
X187335000Y-115820000D03*
X189875000Y-115820000D03*
%TD*%
D18*
%TO.C,CW*%
X110362500Y-83500000D03*
X114637500Y-83500000D03*
%TD*%
D13*
%TO.C,RailA1*%
X137405001Y-116837499D03*
%TD*%
D18*
%TO.C,Track 2*%
X109862500Y-60500000D03*
X114137500Y-60500000D03*
%TD*%
D13*
%TO.C,G1R1*%
X200500000Y-46330000D03*
%TD*%
%TO.C,G2M1*%
X203300000Y-75830000D03*
%TD*%
D12*
%TO.C,C6*%
X193500000Y-99475000D03*
X193500000Y-96525000D03*
%TD*%
%TO.C,C15*%
X152500000Y-104975000D03*
X152500000Y-102025000D03*
%TD*%
D13*
%TO.C,G4M1*%
X203200000Y-130000000D03*
%TD*%
%TO.C,G2R1*%
X203250000Y-71280000D03*
%TD*%
D12*
%TO.C,C11*%
X192000000Y-66475000D03*
X192000000Y-63525000D03*
%TD*%
D25*
%TO.C,T4*%
X147637500Y-74000000D03*
X143362500Y-74000000D03*
%TD*%
D26*
%TO.C,U2*%
X126675000Y-41000000D03*
D27*
X131825000Y-44030000D03*
X126975000Y-44030000D03*
D26*
X132125000Y-41000000D03*
D28*
X119610000Y-40870000D03*
X119610000Y-43410000D03*
X119610000Y-45950000D03*
X119610000Y-48490000D03*
X119610000Y-51030000D03*
X119610000Y-53570000D03*
X119610000Y-56110000D03*
X119610000Y-58650000D03*
X119610000Y-61190000D03*
X119610000Y-63730000D03*
X119610000Y-66270000D03*
X119610000Y-68810000D03*
X119610000Y-71350000D03*
X119610000Y-73890000D03*
X119610000Y-76430000D03*
X119610000Y-78970000D03*
X119610000Y-81510000D03*
X119610000Y-84050000D03*
X119610000Y-86590000D03*
X119610000Y-89130000D03*
X139190000Y-89130000D03*
X139190000Y-86590000D03*
X139190000Y-84050000D03*
X139190000Y-81510000D03*
X139190000Y-78970000D03*
X139190000Y-76430000D03*
X139190000Y-73890000D03*
X139190000Y-71350000D03*
X139190000Y-68810000D03*
X139190000Y-66270000D03*
X139190000Y-63730000D03*
X139190000Y-61190000D03*
X139190000Y-58650000D03*
X139190000Y-56110000D03*
X139190000Y-53570000D03*
X139190000Y-51030000D03*
X139190000Y-48490000D03*
X139190000Y-45950000D03*
X139190000Y-43410000D03*
X139190000Y-40870000D03*
D29*
X126860000Y-89800000D03*
X129400000Y-89800000D03*
X131940000Y-89800000D03*
%TD*%
D15*
%TO.C,R3*%
X110537500Y-54500000D03*
X113462500Y-54500000D03*
%TD*%
D12*
%TO.C,C7*%
X192630000Y-50475000D03*
X192630000Y-47525000D03*
%TD*%
D13*
%TO.C,G3R2*%
X200400000Y-100230000D03*
%TD*%
%TO.C,G4L2*%
X200200000Y-134550000D03*
%TD*%
%TO.C,G1M1*%
X203500000Y-50880000D03*
%TD*%
%TO.C,G2R2*%
X200250000Y-71280000D03*
%TD*%
%TO.C,G2L1*%
X203300000Y-80330000D03*
%TD*%
D14*
%TO.C,C3*%
X171525000Y-72500000D03*
X174475000Y-72500000D03*
%TD*%
D30*
%TO.C,R6*%
X147462500Y-78500000D03*
X144537500Y-78500000D03*
%TD*%
D10*
%TO.C,U1*%
X129425000Y-105000000D03*
D11*
X131965000Y-105000000D03*
X134505000Y-105000000D03*
X137045000Y-105000000D03*
X139585000Y-105000000D03*
X142125000Y-105000000D03*
X144665000Y-105000000D03*
X147205000Y-105000000D03*
X147205000Y-97380000D03*
X144665000Y-97380000D03*
X142125000Y-97380000D03*
X139585000Y-97380000D03*
X137045000Y-97380000D03*
X134505000Y-97380000D03*
X131965000Y-97380000D03*
X129425000Y-97380000D03*
%TD*%
D31*
%TO.C,C16*%
X126975000Y-98500000D03*
X124025000Y-98500000D03*
%TD*%
M02*
