%TF.GenerationSoftware,KiCad,Pcbnew,(6.0.7)*%
%TF.CreationDate,2023-04-21T16:09:57-05:00*%
%TF.ProjectId,RevisedControlBoard,52657669-7365-4644-936f-6e74726f6c42,rev?*%
%TF.SameCoordinates,Original*%
%TF.FileFunction,Paste,Top*%
%TF.FilePolarity,Positive*%
%FSLAX46Y46*%
G04 Gerber Fmt 4.6, Leading zero omitted, Abs format (unit mm)*
G04 Created by KiCad (PCBNEW (6.0.7)) date 2023-04-21 16:09:57*
%MOMM*%
%LPD*%
G01*
G04 APERTURE LIST*
G04 Aperture macros list*
%AMRoundRect*
0 Rectangle with rounded corners*
0 $1 Rounding radius*
0 $2 $3 $4 $5 $6 $7 $8 $9 X,Y pos of 4 corners*
0 Add a 4 corners polygon primitive as box body*
4,1,4,$2,$3,$4,$5,$6,$7,$8,$9,$2,$3,0*
0 Add four circle primitives for the rounded corners*
1,1,$1+$1,$2,$3*
1,1,$1+$1,$4,$5*
1,1,$1+$1,$6,$7*
1,1,$1+$1,$8,$9*
0 Add four rect primitives between the rounded corners*
20,1,$1+$1,$2,$3,$4,$5,0*
20,1,$1+$1,$4,$5,$6,$7,0*
20,1,$1+$1,$6,$7,$8,$9,0*
20,1,$1+$1,$8,$9,$2,$3,0*%
G04 Aperture macros list end*
%ADD10RoundRect,0.250000X1.100000X-0.325000X1.100000X0.325000X-1.100000X0.325000X-1.100000X-0.325000X0*%
%ADD11RoundRect,0.250000X-0.325000X-1.100000X0.325000X-1.100000X0.325000X1.100000X-0.325000X1.100000X0*%
%ADD12RoundRect,0.250000X-0.312500X-1.075000X0.312500X-1.075000X0.312500X1.075000X-0.312500X1.075000X0*%
%ADD13RoundRect,0.250000X-0.312500X-1.450000X0.312500X-1.450000X0.312500X1.450000X-0.312500X1.450000X0*%
%ADD14RoundRect,0.250000X-1.075000X0.312500X-1.075000X-0.312500X1.075000X-0.312500X1.075000X0.312500X0*%
%ADD15RoundRect,0.250000X-1.100000X0.325000X-1.100000X-0.325000X1.100000X-0.325000X1.100000X0.325000X0*%
%ADD16RoundRect,0.250000X1.075000X-0.312500X1.075000X0.312500X-1.075000X0.312500X-1.075000X-0.312500X0*%
%ADD17RoundRect,0.250000X0.312500X1.450000X-0.312500X1.450000X-0.312500X-1.450000X0.312500X-1.450000X0*%
%ADD18RoundRect,0.250000X0.312500X1.075000X-0.312500X1.075000X-0.312500X-1.075000X0.312500X-1.075000X0*%
%ADD19RoundRect,0.250000X0.325000X1.100000X-0.325000X1.100000X-0.325000X-1.100000X0.325000X-1.100000X0*%
G04 APERTURE END LIST*
D10*
%TO.C,C12*%
X195000000Y-131475000D03*
X195000000Y-128525000D03*
%TD*%
%TO.C,C2*%
X194000000Y-117975000D03*
X194000000Y-115025000D03*
%TD*%
D11*
%TO.C,C10*%
X172525000Y-105000000D03*
X175475000Y-105000000D03*
%TD*%
D12*
%TO.C,R1*%
X110037500Y-78500000D03*
X112962500Y-78500000D03*
%TD*%
D13*
%TO.C,CCW*%
X110362500Y-89000000D03*
X114637500Y-89000000D03*
%TD*%
D11*
%TO.C,C13*%
X171025000Y-56000000D03*
X173975000Y-56000000D03*
%TD*%
D12*
%TO.C,R2*%
X113537500Y-94000000D03*
X116462500Y-94000000D03*
%TD*%
D14*
%TO.C,R7*%
X145500000Y-89037500D03*
X145500000Y-91962500D03*
%TD*%
D15*
%TO.C,C4*%
X163000000Y-67025000D03*
X163000000Y-69975000D03*
%TD*%
D14*
%TO.C,R4*%
X113500000Y-64537500D03*
X113500000Y-67462500D03*
%TD*%
D10*
%TO.C,C5*%
X193500000Y-81475000D03*
X193500000Y-78525000D03*
%TD*%
%TO.C,C1*%
X163500000Y-54975000D03*
X163500000Y-52025000D03*
%TD*%
D13*
%TO.C,Track 1*%
X109862500Y-48500000D03*
X114137500Y-48500000D03*
%TD*%
D11*
%TO.C,C9*%
X170525000Y-41500000D03*
X173475000Y-41500000D03*
%TD*%
D16*
%TO.C,R5*%
X110000000Y-70462500D03*
X110000000Y-67537500D03*
%TD*%
D13*
%TO.C,T3*%
X109862500Y-74000000D03*
X114137500Y-74000000D03*
%TD*%
D11*
%TO.C,C14*%
X171525000Y-89000000D03*
X174475000Y-89000000D03*
%TD*%
%TO.C,C8*%
X172625000Y-121550000D03*
X175575000Y-121550000D03*
%TD*%
D13*
%TO.C,CW*%
X110362500Y-83500000D03*
X114637500Y-83500000D03*
%TD*%
%TO.C,Track 2*%
X109862500Y-60500000D03*
X114137500Y-60500000D03*
%TD*%
D10*
%TO.C,C6*%
X193500000Y-99475000D03*
X193500000Y-96525000D03*
%TD*%
%TO.C,C15*%
X152500000Y-104975000D03*
X152500000Y-102025000D03*
%TD*%
%TO.C,C11*%
X192000000Y-66475000D03*
X192000000Y-63525000D03*
%TD*%
D17*
%TO.C,T4*%
X147637500Y-74000000D03*
X143362500Y-74000000D03*
%TD*%
D12*
%TO.C,R3*%
X110537500Y-54500000D03*
X113462500Y-54500000D03*
%TD*%
D10*
%TO.C,C7*%
X192630000Y-50475000D03*
X192630000Y-47525000D03*
%TD*%
D11*
%TO.C,C3*%
X171525000Y-72500000D03*
X174475000Y-72500000D03*
%TD*%
D18*
%TO.C,R6*%
X147462500Y-78500000D03*
X144537500Y-78500000D03*
%TD*%
D19*
%TO.C,C16*%
X126975000Y-98500000D03*
X124025000Y-98500000D03*
%TD*%
M02*
